<svg id="Grupo_156424" data-name="Grupo 156424" xmlns="http://www.w3.org/2000/svg" xmlns:xlink="http://www.w3.org/1999/xlink" width="505" height="295.063" viewBox="0 0 505 295.063">
  <defs>
    <clipPath id="clip-path">
      <rect id="Rectángulo_50775" data-name="Rectángulo 50775" width="505" height="295.063" fill="none"/>
    </clipPath>
    <clipPath id="clip-path-3">
      <rect id="Rectángulo_50754" data-name="Rectángulo 50754" width="1.191" height="1.748" fill="none"/>
    </clipPath>
    <clipPath id="clip-path-4">
      <rect id="Rectángulo_50759" data-name="Rectángulo 50759" width="6.136" height="14.729" fill="none"/>
    </clipPath>
    <clipPath id="clip-path-5">
      <rect id="Rectángulo_50761" data-name="Rectángulo 50761" width="1.592" height="18.311" fill="none"/>
    </clipPath>
    <clipPath id="clip-path-6">
      <rect id="Rectángulo_50762" data-name="Rectángulo 50762" width="17.094" height="56.882" fill="none"/>
    </clipPath>
    <clipPath id="clip-path-7">
      <rect id="Rectángulo_50763" data-name="Rectángulo 50763" width="8.764" height="56.882" fill="none"/>
    </clipPath>
    <clipPath id="clip-path-8">
      <rect id="Rectángulo_50764" data-name="Rectángulo 50764" width="1.075" height="30.93" fill="none"/>
    </clipPath>
    <clipPath id="clip-path-9">
      <rect id="Rectángulo_50767" data-name="Rectángulo 50767" width="15.083" height="59.583" fill="none"/>
    </clipPath>
    <clipPath id="clip-path-10">
      <rect id="Rectángulo_50770" data-name="Rectángulo 50770" width="16.034" height="63.343" fill="none"/>
    </clipPath>
    <clipPath id="clip-path-11">
      <rect id="Rectángulo_50772" data-name="Rectángulo 50772" width="17.538" height="36.617" fill="none"/>
    </clipPath>
  </defs>
  <g id="Grupo_156423" data-name="Grupo 156423" clip-path="url(#clip-path)">
    <g id="Grupo_156422" data-name="Grupo 156422">
      <g id="Grupo_156421" data-name="Grupo 156421" clip-path="url(#clip-path)">
        <path id="Trazado_217787" data-name="Trazado 217787" d="M12.688,287.409a2.146,2.146,0,0,1-2.275-1.68l-6.575-68.1H2.146A2.148,2.148,0,0,1,0,215.478v-3.95a2.148,2.148,0,0,1,2.146-2.146H60.408a2.149,2.149,0,0,1,2.147,2.146v3.95a2.149,2.149,0,0,1-2.147,2.146H58.716l-6.574,68.1a2.148,2.148,0,0,1-2.276,1.68Z" transform="translate(0 7.654)" fill="#3f3b39"/>
        <path id="Trazado_217788" data-name="Trazado 217788" d="M51.315,285.52a1.66,1.66,0,0,1-1.762,1.231H12.686a1.66,1.66,0,0,1-1.762-1.231L4.334,215.87a1.974,1.974,0,0,1,2.006-2.2H55.9a1.973,1.973,0,0,1,2,2.2Z" transform="translate(0.158 7.811)" fill="#757575"/>
        <path id="Trazado_217789" data-name="Trazado 217789" d="M56.856,213.773l-6.379,69.58a1.6,1.6,0,0,1-1.69,1.227H13.472a1.6,1.6,0,0,1-1.689-1.227L5.4,213.773a1.968,1.968,0,0,0-1.364,2.1l6.723,69.647a1.674,1.674,0,0,0,1.779,1.227H49.718A1.675,1.675,0,0,0,51.5,285.52l6.723-69.647a1.968,1.968,0,0,0-1.364-2.1" transform="translate(0.147 7.815)" fill="#515151"/>
        <path id="Trazado_217790" data-name="Trazado 217790" d="M4.376,216.234l.4,4.243h10.3l4.08,11.869L22.2,220.476H40.032l3.045,11.869,4.08-11.869h10.3l.4-4.243Z" transform="translate(0.16 7.905)" fill="#515151"/>
        <path id="Trazado_217791" data-name="Trazado 217791" d="M14.825,212.526l3.95,19.97,2.414-20.409Z" transform="translate(0.542 7.753)" fill="#757575"/>
        <path id="Trazado_217792" data-name="Trazado 217792" d="M45.748,212.526,41.8,232.5l-2.414-20.409Z" transform="translate(1.44 7.753)" fill="#757575"/>
        <rect id="Rectángulo_50747" data-name="Rectángulo 50747" width="61.555" height="7.242" rx="1.588" transform="translate(0.5 217.536)" fill="#757575"/>
        <path id="Trazado_217793" data-name="Trazado 217793" d="M61.4,211.048a.549.549,0,0,1-.548.548H1.93a.548.548,0,0,1,0-1.1H60.852a.549.549,0,0,1,.548.548" transform="translate(0.051 7.695)" fill="#c4c4c4"/>
        <path id="Trazado_217794" data-name="Trazado 217794" d="M26.7,249.758l3.556-6.159-1.636-4.839,2.25,3.774,1.652,2.862-3.773,2.286,9.068,2.936,1.679-9.444-3.692,2.236-2.684-4.649h-4.5l-5.28,9.146Z" transform="translate(0.853 8.728)" fill="#fff"/>
        <path id="Trazado_217795" data-name="Trazado 217795" d="M36.6,252.294l3.45,5.985,4.986,1.241h-4.27l-3.306,0-.089-4.411-7.082,6.379,7.335,6.183-.087-4.315,5.368,0,2.253-3.9-5.273-9.149Z" transform="translate(1.107 9.151)" fill="#fff"/>
        <path id="Trazado_217796" data-name="Trazado 217796" d="M29.572,259.583l-7.052.027L19.1,263.459l2.127-3.845,1.642-2.868,3.875,2.11-2.028-9.313-9.007,3.3,3.791,2.065-2.666,4.658,2.266,3.89,10.559-.04Z" transform="translate(0.574 9.122)" fill="#fff"/>
        <path id="Trazado_217797" data-name="Trazado 217797" d="M84.336,287.409a2.146,2.146,0,0,1-2.275-1.68l-6.575-68.1H73.792a2.149,2.149,0,0,1-2.146-2.146v-3.95a2.149,2.149,0,0,1,2.146-2.146h58.264a2.148,2.148,0,0,1,2.146,2.146v3.95a2.148,2.148,0,0,1-2.146,2.146h-1.693l-6.575,68.1a2.146,2.146,0,0,1-2.275,1.68Z" transform="translate(2.619 7.654)" fill="#3f3b39"/>
        <path id="Trazado_217798" data-name="Trazado 217798" d="M122.961,285.52a1.66,1.66,0,0,1-1.762,1.231H84.332a1.66,1.66,0,0,1-1.762-1.231L75.98,215.87a1.974,1.974,0,0,1,2.006-2.2h49.559a1.973,1.973,0,0,1,2,2.2Z" transform="translate(2.777 7.811)" fill="#3498db"/>
        <path id="Trazado_217799" data-name="Trazado 217799" d="M128.5,213.773l-6.379,69.58a1.6,1.6,0,0,1-1.69,1.227H85.118a1.6,1.6,0,0,1-1.689-1.227l-6.379-69.58a1.968,1.968,0,0,0-1.364,2.1l6.723,69.647a1.675,1.675,0,0,0,1.779,1.227h37.176a1.674,1.674,0,0,0,1.779-1.227l6.723-69.647a1.968,1.968,0,0,0-1.364-2.1" transform="translate(2.766 7.815)" fill="#1a7299"/>
        <path id="Trazado_217800" data-name="Trazado 217800" d="M76.022,216.234l.4,4.243h10.3L90.8,232.345l3.045-11.869h17.829l3.045,11.869,4.08-11.869h10.3l.4-4.243Z" transform="translate(2.779 7.905)" fill="#1a7299"/>
        <path id="Trazado_217801" data-name="Trazado 217801" d="M86.472,212.526l3.95,19.97,2.413-20.409Z" transform="translate(3.161 7.753)" fill="#3498db"/>
        <path id="Trazado_217802" data-name="Trazado 217802" d="M117.394,212.526l-3.95,19.97-2.413-20.409Z" transform="translate(4.059 7.753)" fill="#3498db"/>
        <rect id="Rectángulo_50748" data-name="Rectángulo 50748" width="61.555" height="7.242" rx="1.588" transform="translate(74.765 217.536)" fill="#3498db"/>
        <path id="Trazado_217803" data-name="Trazado 217803" d="M133.047,211.048a.549.549,0,0,1-.548.548H73.576a.548.548,0,0,1,0-1.1H132.5a.549.549,0,0,1,.548.548" transform="translate(2.67 7.695)" fill="#8dd1f7"/>
        <path id="Trazado_217804" data-name="Trazado 217804" d="M98.347,249.758,101.9,243.6l-1.636-4.839,2.25,3.774,1.652,2.862-3.773,2.286,9.067,2.936,1.68-9.444-3.692,2.236-2.684-4.649h-4.5l-5.28,9.146Z" transform="translate(3.472 8.728)" fill="#fff"/>
        <path id="Trazado_217805" data-name="Trazado 217805" d="M108.249,252.294l3.45,5.985,4.985,1.241h-4.27l-3.3,0-.089-4.411-7.082,6.379,7.335,6.183-.087-4.315,5.368,0,2.253-3.9-5.273-9.149Z" transform="translate(3.727 9.151)" fill="#fff"/>
        <path id="Trazado_217806" data-name="Trazado 217806" d="M101.218,259.583l-7.052.027-3.418,3.849,2.127-3.845,1.642-2.868,3.875,2.11-2.028-9.313-9.007,3.3,3.791,2.065-2.666,4.658,2.266,3.89,10.559-.04Z" transform="translate(3.194 9.122)" fill="#fff"/>
        <path id="Trazado_217807" data-name="Trazado 217807" d="M156.34,287.409a2.148,2.148,0,0,1-2.276-1.68l-6.574-68.1H145.8a2.149,2.149,0,0,1-2.146-2.146v-3.95a2.149,2.149,0,0,1,2.146-2.146h58.264a2.148,2.148,0,0,1,2.146,2.146v3.95a2.148,2.148,0,0,1-2.146,2.146h-1.693l-6.575,68.1a2.146,2.146,0,0,1-2.275,1.68Z" transform="translate(5.251 7.654)" fill="#3f3b39"/>
        <path id="Trazado_217808" data-name="Trazado 217808" d="M194.965,285.52a1.66,1.66,0,0,1-1.762,1.231H156.336a1.66,1.66,0,0,1-1.762-1.231l-6.589-69.649a1.974,1.974,0,0,1,2.006-2.2h49.559a1.973,1.973,0,0,1,2,2.2Z" transform="translate(5.409 7.811)" fill="#e67e22"/>
        <path id="Trazado_217809" data-name="Trazado 217809" d="M200.506,213.773l-6.379,69.58a1.6,1.6,0,0,1-1.69,1.227H157.122a1.6,1.6,0,0,1-1.689-1.227l-6.379-69.58a1.968,1.968,0,0,0-1.364,2.1l6.723,69.647a1.674,1.674,0,0,0,1.779,1.227h37.176a1.675,1.675,0,0,0,1.779-1.227l6.723-69.647a1.968,1.968,0,0,0-1.364-2.1" transform="translate(5.399 7.815)" fill="#ba5c15"/>
        <path id="Trazado_217810" data-name="Trazado 217810" d="M148.027,216.234l.4,4.243h10.3l4.08,11.869,3.045-11.869h17.829l3.045,11.869,4.08-11.869h10.3l.4-4.243Z" transform="translate(5.411 7.905)" fill="#ba5c15"/>
        <path id="Trazado_217811" data-name="Trazado 217811" d="M158.476,212.526l3.95,19.97,2.414-20.409Z" transform="translate(5.793 7.753)" fill="#e67e22"/>
        <path id="Trazado_217812" data-name="Trazado 217812" d="M189.4,212.526l-3.95,19.97-2.413-20.409Z" transform="translate(6.691 7.753)" fill="#e67e22"/>
        <rect id="Rectángulo_50749" data-name="Rectángulo 50749" width="61.555" height="7.242" rx="1.588" transform="translate(149.402 217.536)" fill="#e67e22"/>
        <path id="Trazado_217813" data-name="Trazado 217813" d="M205.052,211.048a.549.549,0,0,1-.548.548H145.581a.548.548,0,0,1,0-1.1H204.5a.549.549,0,0,1,.548.548" transform="translate(5.302 7.695)" fill="#ffa161"/>
        <path id="Trazado_217814" data-name="Trazado 217814" d="M170.351,249.758l3.556-6.159-1.636-4.839,2.25,3.774,1.652,2.862-3.773,2.286,9.068,2.936,1.679-9.444-3.692,2.236-2.684-4.649h-4.5l-5.28,9.146Z" transform="translate(6.105 8.728)" fill="#fff"/>
        <path id="Trazado_217815" data-name="Trazado 217815" d="M180.253,252.294l3.45,5.985,4.985,1.241h-4.27l-3.3,0-.089-4.411-7.082,6.379,7.335,6.183-.087-4.315,5.368,0,2.253-3.9-5.273-9.149Z" transform="translate(6.359 9.151)" fill="#fff"/>
        <path id="Trazado_217816" data-name="Trazado 217816" d="M173.222,259.583l-7.052.027-3.418,3.849,2.127-3.845,1.642-2.868,3.875,2.11-2.027-9.313-9.007,3.3,3.791,2.065-2.666,4.658,2.266,3.89,10.559-.04Z" transform="translate(5.826 9.122)" fill="#fff"/>
        <path id="Trazado_217817" data-name="Trazado 217817" d="M227.391,287.409a2.149,2.149,0,0,1-2.277-1.68l-6.574-68.1h-1.694a2.148,2.148,0,0,1-2.145-2.146v-3.95a2.148,2.148,0,0,1,2.145-2.146h58.264a2.149,2.149,0,0,1,2.146,2.146v3.95a2.149,2.149,0,0,1-2.146,2.146h-1.693l-6.574,68.1a2.149,2.149,0,0,1-2.275,1.68Z" transform="translate(7.849 7.654)" fill="#3f3b39"/>
        <path id="Trazado_217818" data-name="Trazado 217818" d="M266.016,285.52a1.66,1.66,0,0,1-1.762,1.231H227.387a1.662,1.662,0,0,1-1.763-1.231l-6.588-69.649a1.974,1.974,0,0,1,2-2.2H270.6a1.973,1.973,0,0,1,2,2.2Z" transform="translate(8.007 7.811)" fill="#f1c40f"/>
        <path id="Trazado_217819" data-name="Trazado 217819" d="M271.557,213.773l-6.379,69.58a1.6,1.6,0,0,1-1.69,1.227H228.174a1.6,1.6,0,0,1-1.69-1.227l-6.379-69.58a1.968,1.968,0,0,0-1.364,2.1l6.723,69.647a1.674,1.674,0,0,0,1.779,1.227h37.176a1.674,1.674,0,0,0,1.779-1.227l6.723-69.647a1.968,1.968,0,0,0-1.364-2.1" transform="translate(7.996 7.815)" fill="#f39c12"/>
        <path id="Trazado_217820" data-name="Trazado 217820" d="M219.077,216.234l.4,4.243h10.3l4.079,11.869,3.045-11.869h17.829l3.045,11.869,4.08-11.869h10.3l.4-4.243Z" transform="translate(8.009 7.905)" fill="#f39c12"/>
        <path id="Trazado_217821" data-name="Trazado 217821" d="M229.526,212.526l3.95,19.97,2.413-20.409Z" transform="translate(8.391 7.753)" fill="#f1c40f"/>
        <path id="Trazado_217822" data-name="Trazado 217822" d="M260.449,212.526,256.5,232.5l-2.413-20.409Z" transform="translate(9.289 7.753)" fill="#f1c40f"/>
        <rect id="Rectángulo_50750" data-name="Rectángulo 50750" width="61.555" height="7.242" rx="1.588" transform="translate(223.05 217.536)" fill="#f1c40f"/>
        <path id="Trazado_217823" data-name="Trazado 217823" d="M276.1,211.048a.549.549,0,0,1-.548.548H216.631a.548.548,0,0,1,0-1.1h58.922a.549.549,0,0,1,.548.548" transform="translate(7.899 7.695)" fill="#ffe783"/>
        <path id="Trazado_217824" data-name="Trazado 217824" d="M241.4,249.758l3.556-6.159-1.637-4.839,2.251,3.774,1.652,2.862-3.773,2.286,9.067,2.936,1.68-9.444-3.692,2.236-2.684-4.649h-4.5l-5.279,9.146Z" transform="translate(8.702 8.728)" fill="#fff"/>
        <path id="Trazado_217825" data-name="Trazado 217825" d="M251.3,252.294l3.45,5.985,4.986,1.241h-4.271l-3.3,0-.089-4.411-7.082,6.379,7.335,6.183-.087-4.315,5.368,0,2.254-3.9-5.273-9.149Z" transform="translate(8.956 9.151)" fill="#fff"/>
        <path id="Trazado_217826" data-name="Trazado 217826" d="M244.272,259.583l-7.052.027-3.419,3.849,2.128-3.845,1.642-2.868,3.875,2.11-2.027-9.313-9.007,3.3,3.791,2.065-2.666,4.658,2.265,3.89,10.56-.04Z" transform="translate(8.423 9.122)" fill="#fff"/>
        <path id="Trazado_217827" data-name="Trazado 217827" d="M297.376,287.409a2.149,2.149,0,0,1-2.277-1.68l-6.573-68.1h-1.694a2.149,2.149,0,0,1-2.146-2.146v-3.95a2.149,2.149,0,0,1,2.146-2.146H345.1a2.149,2.149,0,0,1,2.146,2.146v3.95a2.149,2.149,0,0,1-2.146,2.146H343.4l-6.574,68.1a2.147,2.147,0,0,1-2.275,1.68Z" transform="translate(10.407 7.654)" fill="#3f3b39"/>
        <path id="Trazado_217828" data-name="Trazado 217828" d="M336,285.52a1.66,1.66,0,0,1-1.762,1.231H297.373a1.66,1.66,0,0,1-1.762-1.231l-6.588-69.649a1.973,1.973,0,0,1,2-2.2h49.559a1.973,1.973,0,0,1,2,2.2Z" transform="translate(10.565 7.811)" fill="#2ecc71"/>
        <path id="Trazado_217829" data-name="Trazado 217829" d="M341.543,213.773l-6.379,69.58a1.6,1.6,0,0,1-1.69,1.227H298.16a1.6,1.6,0,0,1-1.69-1.227l-6.379-69.58a1.968,1.968,0,0,0-1.364,2.1l6.723,69.647a1.674,1.674,0,0,0,1.779,1.227h37.176a1.674,1.674,0,0,0,1.779-1.227l6.723-69.647a1.968,1.968,0,0,0-1.364-2.1" transform="translate(10.555 7.815)" fill="#27ae60"/>
        <path id="Trazado_217830" data-name="Trazado 217830" d="M289.063,216.234l.4,4.243h10.3l4.08,11.869,3.045-11.869h17.829l3.045,11.869,4.08-11.869h10.3l.4-4.243Z" transform="translate(10.567 7.905)" fill="#27ae60"/>
        <path id="Trazado_217831" data-name="Trazado 217831" d="M299.513,212.526l3.95,19.97,2.414-20.409Z" transform="translate(10.949 7.753)" fill="#2ecc71"/>
        <path id="Trazado_217832" data-name="Trazado 217832" d="M330.435,212.526l-3.95,19.97-2.414-20.409Z" transform="translate(11.847 7.753)" fill="#2ecc71"/>
        <rect id="Rectángulo_50751" data-name="Rectángulo 50751" width="61.555" height="7.242" rx="1.588" transform="translate(295.594 217.536)" fill="#2ecc71"/>
        <path id="Trazado_217833" data-name="Trazado 217833" d="M346.088,211.048a.549.549,0,0,1-.548.548H286.617a.548.548,0,0,1,0-1.1h58.922a.549.549,0,0,1,.548.548" transform="translate(10.458 7.695)" fill="#c5ffdc"/>
        <path id="Trazado_217834" data-name="Trazado 217834" d="M311.388,249.758l3.556-6.159-1.636-4.839,2.25,3.774,1.652,2.862-3.773,2.286,9.068,2.936,1.679-9.444-3.692,2.236-2.684-4.649h-4.5l-5.28,9.146Z" transform="translate(11.26 8.728)" fill="#fff"/>
        <path id="Trazado_217835" data-name="Trazado 217835" d="M321.29,252.294l3.45,5.985,4.986,1.241h-4.271l-3.3,0-.089-4.411-7.082,6.379,7.335,6.183-.087-4.315,5.368,0,2.253-3.9-5.273-9.149Z" transform="translate(11.515 9.151)" fill="#fff"/>
        <path id="Trazado_217836" data-name="Trazado 217836" d="M314.259,259.583l-7.052.027-3.418,3.849,2.127-3.845,1.642-2.868,3.875,2.11-2.028-9.313-9.007,3.3,3.791,2.065-2.666,4.658,2.266,3.89,10.559-.04Z" transform="translate(10.982 9.122)" fill="#fff"/>
        <path id="Trazado_217837" data-name="Trazado 217837" d="M367.753,287.409a2.148,2.148,0,0,1-2.276-1.68l-6.574-68.1h-1.693a2.149,2.149,0,0,1-2.146-2.146v-3.95a2.149,2.149,0,0,1,2.146-2.146h58.264a2.149,2.149,0,0,1,2.146,2.146v3.95a2.149,2.149,0,0,1-2.146,2.146h-1.694l-6.574,68.1a2.148,2.148,0,0,1-2.276,1.68Z" transform="translate(12.98 7.654)" fill="#3f3b39"/>
        <path id="Trazado_217838" data-name="Trazado 217838" d="M406.38,285.52a1.66,1.66,0,0,1-1.762,1.231H367.751a1.66,1.66,0,0,1-1.762-1.231L359.4,215.87a1.974,1.974,0,0,1,2.006-2.2h49.559a1.973,1.973,0,0,1,2,2.2Z" transform="translate(13.138 7.811)" fill="#e5582b"/>
        <path id="Trazado_217839" data-name="Trazado 217839" d="M411.921,213.773l-6.379,69.58a1.6,1.6,0,0,1-1.69,1.227H368.537a1.6,1.6,0,0,1-1.689-1.227l-6.379-69.58a1.968,1.968,0,0,0-1.364,2.1l6.723,69.647a1.674,1.674,0,0,0,1.779,1.227h37.176a1.675,1.675,0,0,0,1.779-1.227l6.723-69.647a1.968,1.968,0,0,0-1.364-2.1" transform="translate(13.127 7.815)" fill="#d14924"/>
        <path id="Trazado_217840" data-name="Trazado 217840" d="M359.441,216.234l.4,4.243h10.3l4.08,11.869,3.045-11.869H395.1l3.045,11.869,4.08-11.869h10.3l.4-4.243Z" transform="translate(13.14 7.905)" fill="#d14924"/>
        <path id="Trazado_217841" data-name="Trazado 217841" d="M369.89,212.526l3.95,19.97,2.413-20.409Z" transform="translate(13.522 7.753)" fill="#e5582b"/>
        <path id="Trazado_217842" data-name="Trazado 217842" d="M400.812,212.526l-3.95,19.97-2.413-20.409Z" transform="translate(14.42 7.753)" fill="#e5582b"/>
        <path id="Rectángulo_50752" data-name="Rectángulo 50752" d="M1.588,0h58.38a1.587,1.587,0,0,1,1.587,1.587V5.655a1.587,1.587,0,0,1-1.587,1.587H1.588A1.588,1.588,0,0,1,0,5.654V1.588A1.588,1.588,0,0,1,1.588,0Z" transform="translate(368.545 217.536)" fill="#e5582b"/>
        <path id="Trazado_217843" data-name="Trazado 217843" d="M416.466,211.048a.549.549,0,0,1-.548.548H357a.548.548,0,0,1,0-1.1h58.922a.549.549,0,0,1,.548.548" transform="translate(13.03 7.695)" fill="#f47c5d"/>
        <path id="Trazado_217844" data-name="Trazado 217844" d="M381.765,249.758l3.556-6.159-1.636-4.839,2.25,3.774,1.652,2.862-3.773,2.286,9.068,2.936,1.679-9.444-3.692,2.236-2.684-4.649h-4.5l-5.28,9.146Z" transform="translate(13.833 8.728)" fill="#fff"/>
        <path id="Trazado_217845" data-name="Trazado 217845" d="M391.667,252.294l3.45,5.985,4.986,1.241h-4.271l-3.3,0-.089-4.411-7.082,6.379,7.335,6.183-.087-4.315,5.368,0,2.253-3.9-5.273-9.149Z" transform="translate(14.087 9.151)" fill="#fff"/>
        <path id="Trazado_217846" data-name="Trazado 217846" d="M384.636,259.583l-7.052.027-3.418,3.849,2.127-3.845,1.642-2.868,3.875,2.11-2.027-9.313-9.007,3.3,3.791,2.065-2.666,4.658,2.266,3.89,10.559-.04Z" transform="translate(13.554 9.122)" fill="#fff"/>
        <path id="Trazado_217847" data-name="Trazado 217847" d="M437.289,287.409a2.149,2.149,0,0,1-2.277-1.68l-6.573-68.1h-1.694a2.149,2.149,0,0,1-2.146-2.146v-3.95a2.149,2.149,0,0,1,2.146-2.146h58.264a2.149,2.149,0,0,1,2.146,2.146v3.95a2.149,2.149,0,0,1-2.146,2.146h-1.693l-6.575,68.1a2.147,2.147,0,0,1-2.275,1.68Z" transform="translate(15.522 7.654)" fill="#3f3b39"/>
        <path id="Trazado_217848" data-name="Trazado 217848" d="M475.914,285.52a1.66,1.66,0,0,1-1.762,1.231H437.285a1.66,1.66,0,0,1-1.762-1.231l-6.589-69.649a1.974,1.974,0,0,1,2.006-2.2H480.5a1.973,1.973,0,0,1,2,2.2Z" transform="translate(15.68 7.811)" fill="#34495e"/>
        <path id="Trazado_217849" data-name="Trazado 217849" d="M481.455,213.773l-6.379,69.58a1.6,1.6,0,0,1-1.69,1.227H438.072a1.6,1.6,0,0,1-1.69-1.227L430,213.773a1.968,1.968,0,0,0-1.364,2.1l6.723,69.647a1.674,1.674,0,0,0,1.779,1.227h37.176a1.675,1.675,0,0,0,1.779-1.227l6.723-69.647a1.968,1.968,0,0,0-1.364-2.1" transform="translate(15.669 7.815)" fill="#2c3e50"/>
        <path id="Trazado_217850" data-name="Trazado 217850" d="M428.975,216.234l.4,4.243h10.3l4.08,11.869,3.045-11.869h17.829l3.045,11.869,4.08-11.869h10.3l.4-4.243Z" transform="translate(15.682 7.905)" fill="#2c3e50"/>
        <path id="Trazado_217851" data-name="Trazado 217851" d="M439.425,212.526l3.95,19.97,2.414-20.409Z" transform="translate(16.064 7.753)" fill="#34495e"/>
        <path id="Trazado_217852" data-name="Trazado 217852" d="M470.347,212.526,466.4,232.5l-2.414-20.409Z" transform="translate(16.962 7.753)" fill="#34495e"/>
        <rect id="Rectángulo_50753" data-name="Rectángulo 50753" width="61.555" height="7.242" rx="1.588" transform="translate(440.621 217.536)" fill="#34495e"/>
        <path id="Trazado_217853" data-name="Trazado 217853" d="M486,211.048a.549.549,0,0,1-.549.548H426.529a.548.548,0,0,1,0-1.1h58.922a.549.549,0,0,1,.549.548" transform="translate(15.572 7.695)" fill="#668eaf"/>
        <path id="Trazado_217854" data-name="Trazado 217854" d="M451.3,249.758l3.556-6.159-1.636-4.839,2.25,3.774,1.652,2.862-3.773,2.286,9.068,2.936,1.679-9.444-3.692,2.236-2.684-4.649h-4.5l-5.28,9.146Z" transform="translate(16.375 8.728)" fill="#fff"/>
        <path id="Trazado_217855" data-name="Trazado 217855" d="M461.2,252.294l3.45,5.985,4.986,1.241h-4.27l-3.306,0-.089-4.411-7.082,6.379,7.335,6.183-.087-4.315,5.368,0,2.253-3.9-5.273-9.149Z" transform="translate(16.629 9.151)" fill="#fff"/>
        <path id="Trazado_217856" data-name="Trazado 217856" d="M454.171,259.583l-7.052.027-3.418,3.849,2.128-3.845,1.641-2.868,3.875,2.11-2.027-9.313-9.007,3.3,3.791,2.065-2.666,4.658,2.266,3.89,10.559-.04Z" transform="translate(16.096 9.122)" fill="#fff"/>
        <path id="Trazado_217857" data-name="Trazado 217857" d="M31.883,64.685a2.492,2.492,0,0,1-1.6-.546c-9.02-.279-17.539-3.614-17.967-6.081l-.089-.519.522-.062c3.035-.365,8.669-2.267,12.3-10.912,2.929-6.971.314-14.551-2.393-19.683C19.936,21.724,12.376,17.3,12.3,17.26l-.541-.313.424-.459c1.5-1.628,6.887-3.831,12.9-4.88a13.3,13.3,0,0,1-3.978-3.117,10.127,10.127,0,0,0-.756-.746l-.5-.412.526-.381A10.376,10.376,0,0,1,26.228,4.6c3.323,0,4.954,2.857,5.612,4.472a8.3,8.3,0,0,1,3.69-4.532l.006-.015.166-.115a.658.658,0,0,1,.332-.088c.578,0,1.043.714,1.172.933a1.878,1.878,0,0,1,.3,1.328.634.634,0,0,1-.309.429l-.117.069h-.07a8.306,8.306,0,0,0-3.686,3.928c6.755.242,12.29,2.459,16.039,6.435l.5.529-.672.277c-.069.029-6.995,2.942-10.087,9.283-2.7,5.529-1.643,18.925.47,21.447,2.814,3.359,5.724,6.833,9.557,7.866l.807.218-.574.608c-3.619,3.838-9.093,6.058-15.843,6.426a2.05,2.05,0,0,1-1.111.537,3.2,3.2,0,0,1-.526.046" transform="translate(0.43 0.158)" fill="#3f3b39"/>
        <path id="Trazado_217858" data-name="Trazado 217858" d="M31.675,62.086c.775-.132,1.147-.607,1.1-.934s-.732-.529-1.516-.45a9.2,9.2,0,0,0-1.727.405,1.83,1.83,0,0,0,2.148.979" transform="translate(1.079 2.218)" fill="#6b2f07"/>
        <path id="Trazado_217859" data-name="Trazado 217859" d="M24.018,20.929c.346.336,14.29,23.353-2.845,34.3,7.124,4.785,15.883,3,21.017-.4C27.761,44.1,32.409,28.371,39.545,21.319c-4.455-2.243-9.817-2.422-15.527-.39" transform="translate(0.774 0.713)" fill="#ffeea4"/>
        <path id="Trazado_217860" data-name="Trazado 217860" d="M28.969,38.477c-.185.891-.8,1.327-1.222,1.273s-.667-.829-.55-1.73a9.76,9.76,0,0,1,.554-1.987,1.994,1.994,0,0,1,1.219,2.444" transform="translate(0.993 1.317)" fill="#6b2f07"/>
        <path id="Trazado_217861" data-name="Trazado 217861" d="M33.06,38.329c.161.778.7,1.16,1.068,1.112s.583-.725.481-1.512a8.56,8.56,0,0,0-.483-1.736,1.743,1.743,0,0,0-1.066,2.136" transform="translate(1.207 1.323)" fill="#6b2f07"/>
        <path id="Trazado_217862" data-name="Trazado 217862" d="M33.025,13.032c0,.28-.73.508-1.629.508s-1.629-.228-1.629-.508.729-.508,1.629-.508,1.629.227,1.629.508" transform="translate(1.088 0.458)" fill="#b20616"/>
        <path id="Trazado_217863" data-name="Trazado 217863" d="M30.983,13.1c0-3.969,1.559-6.751,4.274-8.244.576.916.985,1.7.985,1.7S31.9,8.517,31.592,13.2c-.136.136-.609.274-.609-.1" transform="translate(1.133 0.177)" fill="#6b2f07"/>
        <g id="Grupo_156396" data-name="Grupo 156396" transform="translate(36.292 4.985)" opacity="0">
          <g id="Grupo_156395" data-name="Grupo 156395">
            <g id="Grupo_156394" data-name="Grupo 156394" clip-path="url(#clip-path-3)">
              <path id="Trazado_217864" data-name="Trazado 217864" d="M35.925,5.5c.278.472.36.937.185,1.041s-.544-.194-.822-.665-.36-.938-.183-1.041.543.194.821.665" transform="translate(-35.012 -4.809)" fill="#512005"/>
            </g>
          </g>
        </g>
        <path id="Trazado_217865" data-name="Trazado 217865" d="M12.522,16.489s7.728,4.471,10.55,9.819c3.172,6.01,5.228,13.407,2.413,20.11-3.611,8.6-9.24,10.8-12.7,11.215,9.182,5.676,26.959,5.358,36.187-.639-3.961-1.068-6.935-4.6-9.81-8.028-2.342-2.8-3.217-16.491-.536-21.988,3.217-6.6,10.346-9.527,10.346-9.527s-16.081-7.973-36.448-.962" transform="translate(0.458 0.497)" fill="#efd978"/>
        <path id="Trazado_217866" data-name="Trazado 217866" d="M31.675,62.086c.775-.132,1.147-.607,1.1-.934s-.732-.529-1.516-.45a9.2,9.2,0,0,0-1.727.405,1.83,1.83,0,0,0,2.148.979" transform="translate(1.079 2.218)" fill="#6b2f07"/>
        <path id="Trazado_217867" data-name="Trazado 217867" d="M12.522,16.575c2.944-3.189,25.43-10.724,36.448.962-5.092-.25-9.109,4.084-9.109,4.084-6.191-2.069-12.471-.584-15.527-.39-2.853-3.845-11.306-4.71-11.813-4.656" transform="translate(0.458 0.411)" fill="#e74c3c"/>
        <path id="Trazado_217868" data-name="Trazado 217868" d="M12.774,56.247c.635,3.668,25.17,11.048,36.187-.639-5.092.251-9.109-4.083-9.109-4.083-6.191,2.068-12.471.583-15.527.39a15.275,15.275,0,0,1-11.551,4.332" transform="translate(0.467 1.884)" fill="#e74c3c"/>
        <path id="Trazado_217869" data-name="Trazado 217869" d="M24.018,20.929c.346.336,14.29,23.353-2.845,34.3,7.124,4.785,15.883,3,21.017-.4C27.761,44.1,32.409,28.371,39.545,21.319c-4.455-2.243-9.817-2.422-15.527-.39" transform="translate(0.774 0.713)" fill="#ffeea4"/>
        <path id="Trazado_217870" data-name="Trazado 217870" d="M28.969,38.477c-.185.891-.8,1.327-1.222,1.273s-.667-.829-.55-1.73a9.76,9.76,0,0,1,.554-1.987,1.994,1.994,0,0,1,1.219,2.444" transform="translate(0.993 1.317)" fill="#6b2f07"/>
        <path id="Trazado_217871" data-name="Trazado 217871" d="M33.06,38.329c.161.778.7,1.16,1.068,1.112s.583-.725.481-1.512a8.56,8.56,0,0,0-.483-1.736,1.743,1.743,0,0,0-1.066,2.136" transform="translate(1.207 1.323)" fill="#6b2f07"/>
        <path id="Trazado_217872" data-name="Trazado 217872" d="M33.025,13.032c0,.28-.73.508-1.629.508s-1.629-.228-1.629-.508.729-.508,1.629-.508,1.629.227,1.629.508" transform="translate(1.088 0.458)" fill="#b20616"/>
        <path id="Trazado_217873" data-name="Trazado 217873" d="M31.7,13.125c-.109-1.277-.3-2.88-.3-2.88S29.2.913,20.352,7.329c1.34,1.09,4.87,6.448,10.423,3.521a12.66,12.66,0,0,1,.66,2.459Z" transform="translate(0.744 0.186)" fill="#198444"/>
        <path id="Trazado_217874" data-name="Trazado 217874" d="M30.983,13.1c0-3.969,1.559-6.751,4.274-8.244.576.916.985,1.7.985,1.7S31.9,8.517,31.592,13.2c-.136.136-.609.274-.609-.1" transform="translate(1.133 0.177)" fill="#934d2b"/>
        <path id="Trazado_217875" data-name="Trazado 217875" d="M35.91,5.525c.278.472.36.937.185,1.041s-.544-.194-.822-.665-.36-.937-.183-1.041.543.194.821.665" transform="translate(1.279 0.177)" fill="#a55e37"/>
        <path id="Trazado_217876" data-name="Trazado 217876" d="M80.738,52.176V50.848l-9.78-6.3,16.55-10.136L91.722,30.3l4.3,4.162,2.746,1.756a15.952,15.952,0,0,1,3.956-1.786,4.569,4.569,0,0,1-.482-1.672l-.279-22.9,3.012-1.809.017-1.51,1.433-.871,28.032,14.922.479,29.9a3.923,3.923,0,0,1-.485,2.045l.007,0a4.625,4.625,0,0,1-1.616,1.688l-1.286.757a2.384,2.384,0,0,1-1.2.366,1.588,1.588,0,0,1-.355-.038,4.321,4.321,0,0,1-1.278,1.191l-1.994,1.168v-.009l-18.77,10.892Z" transform="translate(2.594 0.207)" fill="#3f3b39"/>
        <path id="Trazado_217877" data-name="Trazado 217877" d="M127.522,51.087a32.529,32.529,0,0,1-2.921-3.422L102,38.271,82.174,45.319,82.2,49.71,107.379,64.9l19.8-11.473h0a2.955,2.955,0,0,0,1.24-1.588,7.01,7.01,0,0,1-.9-.748" transform="translate(3.004 1.399)" fill="#fff"/>
        <path id="Trazado_217878" data-name="Trazado 217878" d="M122.754,49.051l5.573,2.414-.233,1.456,3.735-2.419-.183-.966-2.932-1.346s-1.86-1.992-5.958.861" transform="translate(4.487 1.737)" fill="#1a7299"/>
        <path id="Trazado_217879" data-name="Trazado 217879" d="M129.792,51.744,109.328,63.617,82.691,47.591l21.829-7.706Z" transform="translate(3.023 1.458)" fill="#1a7299"/>
        <path id="Trazado_217880" data-name="Trazado 217880" d="M121.557,51.019l4.978,2.71,1.185-.889-.183-.966L124.6,50.526s1.052-2.361-3.045.492" transform="translate(4.444 1.814)" fill="#1a7299"/>
        <path id="Trazado_217881" data-name="Trazado 217881" d="M128.056,54.406,107.591,66.28,80.956,50.253V49.231l47.1,4.151Z" transform="translate(2.959 1.8)" fill="#3498db"/>
        <path id="Trazado_217882" data-name="Trazado 217882" d="M107.592,65.257v1.022L80.956,50.253V49.231Z" transform="translate(2.96 1.8)" fill="#288dc6"/>
        <path id="Trazado_217883" data-name="Trazado 217883" d="M128.056,53.655,107.591,65.529,80.956,49.5,102.784,41.8Z" transform="translate(2.959 1.528)" fill="#1a7299"/>
        <path id="Trazado_217884" data-name="Trazado 217884" d="M126.753,48.786,102,38.271,82.174,45.319,82.2,49.71,107.38,64.9s15.427-8.707,17.742-10.425c2.187-1.623,4.258-3.638,4.77-2.621l2.486-1.37c-2.865-3.2-5.624-1.695-5.624-1.695" transform="translate(3.004 1.399)" fill="#eaeaea"/>
        <path id="Trazado_217885" data-name="Trazado 217885" d="M107.414,59.905,82.174,45.07l.022,4.392,25.183,15.187Z" transform="translate(3.004 1.648)" fill="#ccc"/>
        <path id="Trazado_217886" data-name="Trazado 217886" d="M126.753,48.832,107.3,60.123,82.174,45.365,96.323,37Z" transform="translate(3.004 1.353)" fill="#f9f9f9"/>
        <path id="Trazado_217887" data-name="Trazado 217887" d="M130.087,48.279a5.784,5.784,0,0,1,.393-1.271L105.239,32.1a4.54,4.54,0,0,0-.3,2.183c2.7,2.751,19.364,11.828,25.047,15.091a8.053,8.053,0,0,1,.1-1.094" transform="translate(3.835 1.173)" fill="#efefef"/>
        <path id="Trazado_217888" data-name="Trazado 217888" d="M132.359,48.915l-.413.169-.458.354v.094l.01.179a2.591,2.591,0,0,1-1.248,1.55l-.844.494-.2.109c-.734.429-.979.281-.979-.452V51.4l-.841.475.007.026,0,0a2.938,2.938,0,0,1-1.26,1.67l-.818.479v1.021l1.11-.65a3.94,3.94,0,0,0,1.361-1.429,1.277,1.277,0,0,0,1.477-.091l.141-.083v0l1.146-.671a4.081,4.081,0,0,0,1.4-1.474,3.451,3.451,0,0,0,.4-1.751" transform="translate(4.581 1.788)" fill="#3498db"/>
        <path id="Trazado_217889" data-name="Trazado 217889" d="M124.706,49.72,107.41,59.9,82.288,45.146l25.171,13.467Z" transform="translate(3.008 1.65)" fill="#fff"/>
        <path id="Trazado_217890" data-name="Trazado 217890" d="M129.813,46.1a32.169,32.169,0,0,0-4.426-.74L105.69,30.79,101.433,10.1l3.752-2.253,25.968,13.79.475,22.959v0a2.957,2.957,0,0,1-.711,1.887,7.079,7.079,0,0,0-1.1-.388" transform="translate(3.708 0.287)" fill="#fff"/>
        <path id="Trazado_217891" data-name="Trazado 217891" d="M133.128,50.562l-.475-29.648L105.219,6.31l-.871.529,27.909,44.252Z" transform="translate(3.815 0.231)" fill="#3498db"/>
        <path id="Trazado_217892" data-name="Trazado 217892" d="M131.782,21.444l.871-.529L105.219,6.31l-.871.53Z" transform="translate(3.815 0.231)" fill="#62bff4"/>
        <path id="Trazado_217893" data-name="Trazado 217893" d="M132.269,51.072l-.475-29.648-27.435-14.6-.336,29.151Z" transform="translate(3.803 0.249)" fill="#1a7299"/>
        <path id="Trazado_217894" data-name="Trazado 217894" d="M127.455,46.628,105.69,30.791,101.433,10.1l3.752-2.253,25.968,13.79s.327,17.754.3,20.646c-.053,6.149.219,9.31.219,9.31a5.147,5.147,0,0,1-4.219-4.965" transform="translate(3.708 0.287)" fill="#eaeaea"/>
        <path id="Trazado_217895" data-name="Trazado 217895" d="M127.131,24.121,101.434,10.1l3.752-2.253,25.968,13.79Z" transform="translate(3.708 0.287)" fill="#ccc"/>
        <path id="Trazado_217896" data-name="Trazado 217896" d="M127.455,46.548,127,23.98,101.433,10.02l.274,22.552Z" transform="translate(3.708 0.366)" fill="#efefef"/>
        <path id="Trazado_217897" data-name="Trazado 217897" d="M127.437,45.348a7.314,7.314,0,0,0,2.531,4.8c-.717,2.874-25.1-14.341-25.533-14.576a4.8,4.8,0,0,1-2.738-3.793l11.465,3.067Z" transform="translate(3.718 1.162)" fill="#efefef"/>
        <path id="Trazado_217898" data-name="Trazado 217898" d="M127.4,44.177l-.277-20.137-25.57-13.96,24.5,14.669Z" transform="translate(3.713 0.368)" fill="#fff"/>
        <path id="Trazado_217899" data-name="Trazado 217899" d="M124.509,49.959a7.378,7.378,0,0,1,5.169.432c-.527-.511-26.416-16.294-26.879-16.449-1.478-.5-6.976,3.176-6.976,3.176l12.329,5.414Z" transform="translate(3.503 1.239)" fill="#f9f9f9"/>
        <path id="Trazado_217900" data-name="Trazado 217900" d="M102.985,57.648l15.34-9.123L98.335,35.8,82.444,45.191Z" transform="translate(3.014 1.309)" fill="#ccc"/>
        <path id="Trazado_217901" data-name="Trazado 217901" d="M95.015,33.98l-3.888-3.767L87.272,33.98Z" transform="translate(3.19 1.104)" fill="#ccc"/>
        <path id="Trazado_217902" data-name="Trazado 217902" d="M95.573,33.847H87.83L72.016,43.531l26.337,16.96,19.782-12.115Z" transform="translate(2.633 1.237)" fill="#fcfcfc"/>
        <path id="Trazado_217903" data-name="Trazado 217903" d="M15.016,88.506c0,2.632-1.36,4.2-3.569,4.2s-3.58-1.519-3.58-4.2c0-2.619,1.371-4.2,3.58-4.2s3.569,1.507,3.569,4.2m-5.348,0c0,2.1.662,2.922,1.779,2.922,1.151,0,1.766-.824,1.766-2.922s-.616-2.921-1.766-2.921-1.779.823-1.779,2.921" transform="translate(0.288 3.082)" fill="#757575"/>
        <path id="Trazado_217904" data-name="Trazado 217904" d="M17.716,89.369v3.142H16.008V84.489h2.511c2.151,0,3.243.776,3.243,2.4a2.2,2.2,0,0,1-1.592,2.167l2.08,3.455H20.309l-1.72-3.142Zm.9-1.206c.895,0,1.383-.371,1.383-1.275,0-.823-.476-1.183-1.511-1.183h-.767v2.458Z" transform="translate(0.585 3.089)" fill="#757575"/>
        <path id="Trazado_217905" data-name="Trazado 217905" d="M28.781,85.272l-.918.939a2.375,2.375,0,0,0-1.64-.639c-1.138,0-2.045.847-2.045,2.933,0,2.145.6,2.922,1.79,2.922a2.462,2.462,0,0,0,1.2-.29V89.179H26.038l-.174-1.241h2.965v3.953a5.443,5.443,0,0,1-2.872.812c-2.325,0-3.568-1.449-3.568-4.208,0-2.713,1.7-4.186,3.754-4.186a3.831,3.831,0,0,1,2.639.963" transform="translate(0.818 3.082)" fill="#757575"/>
        <path id="Trazado_217906" data-name="Trazado 217906" d="M31.28,90.714l-.453,1.8h-1.78l2.476-8.023H33.6l2.464,8.023H34.256l-.453-1.8Zm1.255-4.962-.93,3.7h1.871Z" transform="translate(1.062 3.089)" fill="#757575"/>
        <path id="Trazado_217907" data-name="Trazado 217907" d="M40.409,92.511l-2.557-6.365a23.237,23.237,0,0,1,.232,3.246v3.119H36.538V84.488h2.15l2.6,6.377a19.759,19.759,0,0,1-.233-2.853V84.488h1.547v8.023Z" transform="translate(1.336 3.089)" fill="#757575"/>
        <rect id="Rectángulo_50755" data-name="Rectángulo 50755" width="1.721" height="8.023" transform="translate(45.638 87.577)" fill="#757575"/>
        <path id="Trazado_217908" data-name="Trazado 217908" d="M52.919,85.179l-.86,1a2.15,2.15,0,0,0-1.465-.579c-1.07,0-1.861.812-1.861,2.9,0,2.017.779,2.863,1.883,2.863a2.52,2.52,0,0,0,1.6-.672l.79,1.009A3.451,3.451,0,0,1,50.536,92.7c-2.139,0-3.6-1.473-3.6-4.208,0-2.7,1.547-4.186,3.557-4.186a3.47,3.47,0,0,1,2.43.87" transform="translate(1.716 3.082)" fill="#757575"/>
        <path id="Trazado_217909" data-name="Trazado 217909" d="M10.35,169.319h9.579V113.933H41.87V169.32h9.578L30.9,189.869Z" transform="translate(0.378 4.165)" fill="#3f3b39"/>
        <path id="Trazado_217910" data-name="Trazado 217910" d="M41.327,169.8V114.416H20.386V169.8H11.515l19.342,19.341L50.2,169.8Z" transform="translate(0.421 4.183)" fill="#757575"/>
        <path id="Trazado_217911" data-name="Trazado 217911" d="M89.16,84.488c2.046,0,3.3.834,3.3,2.585,0,1.855-1.325,2.7-3.161,2.7h-.918v2.737H86.672V84.488Zm0,4.034c.942,0,1.534-.36,1.534-1.449,0-.939-.558-1.357-1.558-1.357h-.755v2.806Z" transform="translate(3.168 3.089)" fill="#3498db"/>
        <path id="Trazado_217912" data-name="Trazado 217912" d="M93.872,90.714l-.454,1.8H91.639l2.477-8.023H96.2l2.464,8.023H96.848l-.454-1.8Zm1.255-4.962-.93,3.7h1.871Z" transform="translate(3.35 3.089)" fill="#3498db"/>
        <path id="Trazado_217913" data-name="Trazado 217913" d="M101.618,84.488c2.046,0,3.3.834,3.3,2.585,0,1.855-1.325,2.7-3.161,2.7h-.918v2.737H99.13V84.488Zm0,4.034c.941,0,1.534-.36,1.534-1.449,0-.939-.558-1.357-1.557-1.357h-.756v2.806Z" transform="translate(3.624 3.089)" fill="#3498db"/>
        <path id="Trazado_217914" data-name="Trazado 217914" d="M107.51,85.729v2.087h2.534v1.229H107.51v2.214h3.116v1.252H105.8V84.488h4.8l-.186,1.241Z" transform="translate(3.868 3.089)" fill="#3498db"/>
        <path id="Trazado_217915" data-name="Trazado 217915" d="M113.43,89.369v3.142h-1.708V84.489h2.511c2.151,0,3.243.776,3.243,2.4a2.2,2.2,0,0,1-1.592,2.167l2.08,3.455h-1.941l-1.72-3.142Zm.9-1.206c.895,0,1.383-.371,1.383-1.275,0-.823-.477-1.183-1.511-1.183h-.767v2.458Z" transform="translate(4.084 3.089)" fill="#3498db"/>
        <path id="Trazado_217916" data-name="Trazado 217916" d="M82,169.319h9.579V113.933h21.941V169.32h9.578l-20.549,20.549Z" transform="translate(2.998 4.165)" fill="#3f3b39"/>
        <path id="Trazado_217917" data-name="Trazado 217917" d="M112.973,169.8V114.416H92.033V169.8H83.161L102.5,189.143,121.844,169.8Z" transform="translate(3.04 4.183)" fill="#3498db"/>
        <path id="Trazado_217918" data-name="Trazado 217918" d="M225.051,169.319h9.579V113.933H256.57V169.32h9.578L245.6,189.869Z" transform="translate(8.227 4.165)" fill="#3f3b39"/>
        <path id="Trazado_217919" data-name="Trazado 217919" d="M256.027,169.8V114.416H235.087V169.8h-8.872l19.342,19.341L264.9,169.8Z" transform="translate(8.27 4.183)" fill="#f1c40f"/>
        <path id="Trazado_217920" data-name="Trazado 217920" d="M295.037,169.319h9.579V113.933h21.941V169.32h9.578l-20.549,20.549Z" transform="translate(10.786 4.165)" fill="#3f3b39"/>
        <path id="Trazado_217921" data-name="Trazado 217921" d="M326.014,169.8V114.416H305.073V169.8H296.2l19.342,19.341L334.885,169.8Z" transform="translate(10.828 4.183)" fill="#2ecc71"/>
        <path id="Trazado_217922" data-name="Trazado 217922" d="M365.415,169.319h9.579V113.933h21.941V169.32h9.578l-20.549,20.549Z" transform="translate(13.358 4.165)" fill="#3f3b39"/>
        <path id="Trazado_217923" data-name="Trazado 217923" d="M396.392,169.8V114.416H375.451V169.8h-8.872l19.342,19.341L405.262,169.8Z" transform="translate(13.401 4.183)" fill="#e5582b"/>
        <path id="Trazado_217924" data-name="Trazado 217924" d="M434.949,169.319h9.579V113.933h21.941V169.32h9.578L455.5,189.869Z" transform="translate(15.9 4.165)" fill="#3f3b39"/>
        <path id="Trazado_217925" data-name="Trazado 217925" d="M465.926,169.8V114.416H444.985V169.8h-8.872l19.342,19.341L474.8,169.8Z" transform="translate(15.943 4.183)" fill="#34495e"/>
        <path id="Trazado_217926" data-name="Trazado 217926" d="M154.269,85.729v2.087H156.8v1.229h-2.534v2.214h3.116v1.252H152.56V84.488h4.8l-.186,1.241Z" transform="translate(5.577 3.089)" fill="#e67e22"/>
        <rect id="Rectángulo_50756" data-name="Rectángulo 50756" width="3.604" height="1.298" transform="translate(163.983 91.322)" fill="#e67e22"/>
        <path id="Trazado_217927" data-name="Trazado 217927" d="M167.983,92.511l-1.116-6.272-1.174,6.272h-2.161l-1.4-8.023h1.708l.919,6.7,1.22-6.7h1.8l1.174,6.7,1.034-6.7h1.616L170.2,92.511Z" transform="translate(5.927 3.089)" fill="#e67e22"/>
        <path id="Trazado_217928" data-name="Trazado 217928" d="M173.338,90.714l-.453,1.8H171.1l2.477-8.023h2.08l2.464,8.023h-1.813l-.453-1.8Zm1.255-4.962-.93,3.7h1.871Z" transform="translate(6.255 3.089)" fill="#e67e22"/>
        <path id="Trazado_217929" data-name="Trazado 217929" d="M183.783,85.318l-.825.951a2.6,2.6,0,0,0-1.767-.684c-.7,0-1.174.3-1.174.87s.3.789,1.616,1.194c1.453.464,2.383,1.067,2.383,2.551s-1.162,2.5-3.115,2.5a4.116,4.116,0,0,1-2.976-1.125l.895-.974a2.9,2.9,0,0,0,2.035.812c.825,0,1.383-.394,1.383-1.1,0-.637-.313-.916-1.534-1.287-1.743-.544-2.441-1.241-2.441-2.458,0-1.368,1.185-2.261,2.813-2.261a3.692,3.692,0,0,1,2.709,1.009" transform="translate(6.504 3.082)" fill="#e67e22"/>
        <path id="Trazado_217930" data-name="Trazado 217930" d="M187.96,85.821v6.69h-1.708v-6.69h-2.139V84.488h6.068L190,85.821Z" transform="translate(6.731 3.089)" fill="#e67e22"/>
        <path id="Trazado_217931" data-name="Trazado 217931" d="M192.515,85.729v2.087h2.534v1.229h-2.534v2.214h3.116v1.252h-4.824V84.488h4.8l-.186,1.241Z" transform="translate(6.975 3.089)" fill="#e67e22"/>
        <path id="Trazado_217932" data-name="Trazado 217932" d="M227.753,84.488c2.046,0,3.3.834,3.3,2.585,0,1.855-1.325,2.7-3.163,2.7h-.918v2.737h-1.709V84.488Zm0,4.034c.94,0,1.534-.36,1.534-1.449,0-.939-.559-1.357-1.557-1.357h-.757v2.806Z" transform="translate(8.235 3.089)" fill="#f1c40f"/>
        <path id="Trazado_217933" data-name="Trazado 217933" d="M236.83,91.143l-.187,1.368h-4.708V84.488h1.709v6.655Z" transform="translate(8.479 3.089)" fill="#f1c40f"/>
        <path id="Trazado_217934" data-name="Trazado 217934" d="M238.956,90.714l-.454,1.8h-1.779l2.476-8.023h2.081l2.464,8.023h-1.813l-.454-1.8Zm1.255-4.962-.93,3.7h1.871Z" transform="translate(8.654 3.089)" fill="#f1c40f"/>
        <path id="Trazado_217935" data-name="Trazado 217935" d="M249.4,85.318l-.825.951a2.593,2.593,0,0,0-1.767-.684c-.7,0-1.173.3-1.173.87s.3.789,1.616,1.194c1.452.464,2.383,1.067,2.383,2.551s-1.162,2.5-3.115,2.5a4.116,4.116,0,0,1-2.977-1.125l.895-.974a2.9,2.9,0,0,0,2.036.812c.825,0,1.383-.394,1.383-1.1,0-.637-.314-.916-1.535-1.287-1.743-.544-2.441-1.241-2.441-2.458,0-1.368,1.186-2.261,2.814-2.261a3.692,3.692,0,0,1,2.707,1.009" transform="translate(8.903 3.082)" fill="#f1c40f"/>
        <path id="Trazado_217936" data-name="Trazado 217936" d="M253.578,85.821v6.69h-1.708v-6.69H249.73V84.488H255.8l-.187,1.333Z" transform="translate(9.129 3.089)" fill="#f1c40f"/>
        <rect id="Rectángulo_50757" data-name="Rectángulo 50757" width="1.721" height="8.023" transform="translate(265.798 87.577)" fill="#f1c40f"/>
        <path id="Trazado_217937" data-name="Trazado 217937" d="M265.315,85.179l-.86,1a2.15,2.15,0,0,0-1.465-.579c-1.07,0-1.861.812-1.861,2.9,0,2.017.779,2.863,1.883,2.863a2.52,2.52,0,0,0,1.6-.672l.791,1.009a3.456,3.456,0,0,1-2.476,1.009c-2.139,0-3.6-1.473-3.6-4.208,0-2.7,1.547-4.186,3.557-4.186a3.472,3.472,0,0,1,2.43.87" transform="translate(9.48 3.082)" fill="#f1c40f"/>
        <path id="Trazado_217938" data-name="Trazado 217938" d="M305.671,85.272l-.918.939a2.375,2.375,0,0,0-1.64-.639c-1.138,0-2.045.847-2.045,2.933,0,2.145.6,2.922,1.79,2.922a2.455,2.455,0,0,0,1.2-.29V89.179h-1.127l-.174-1.241h2.965v3.953a5.443,5.443,0,0,1-2.872.812c-2.325,0-3.569-1.449-3.569-4.208,0-2.713,1.7-4.186,3.755-4.186a3.829,3.829,0,0,1,2.639.963" transform="translate(10.941 3.082)" fill="#2ecc71"/>
        <path id="Trazado_217939" data-name="Trazado 217939" d="M311.75,91.143l-.186,1.368h-4.709V84.488h1.71v6.655Z" transform="translate(11.218 3.089)" fill="#2ecc71"/>
        <path id="Trazado_217940" data-name="Trazado 217940" d="M313.876,90.714l-.453,1.8h-1.779l2.475-8.023H316.2l2.464,8.023h-1.813l-.453-1.8Zm1.255-4.962-.93,3.7h1.871Z" transform="translate(11.393 3.089)" fill="#2ecc71"/>
        <path id="Trazado_217941" data-name="Trazado 217941" d="M324.32,85.318l-.825.951a2.593,2.593,0,0,0-1.767-.684c-.7,0-1.174.3-1.174.87s.3.789,1.617,1.194c1.452.464,2.383,1.067,2.383,2.551s-1.163,2.5-3.116,2.5a4.117,4.117,0,0,1-2.976-1.125l.9-.974a2.9,2.9,0,0,0,2.034.812c.826,0,1.384-.394,1.384-1.1,0-.637-.314-.916-1.535-1.287-1.743-.544-2.441-1.241-2.441-2.458,0-1.368,1.186-2.261,2.814-2.261a3.692,3.692,0,0,1,2.707,1.009" transform="translate(11.642 3.082)" fill="#2ecc71"/>
        <path id="Trazado_217942" data-name="Trazado 217942" d="M330.543,85.318l-.825.951a2.593,2.593,0,0,0-1.767-.684c-.7,0-1.174.3-1.174.87s.3.789,1.617,1.194c1.452.464,2.383,1.067,2.383,2.551s-1.163,2.5-3.116,2.5a4.117,4.117,0,0,1-2.976-1.125l.9-.974a2.9,2.9,0,0,0,2.034.812c.826,0,1.384-.394,1.384-1.1,0-.637-.314-.916-1.535-1.287-1.743-.544-2.441-1.241-2.441-2.458,0-1.368,1.186-2.261,2.814-2.261a3.692,3.692,0,0,1,2.707,1.009" transform="translate(11.869 3.082)" fill="#2ecc71"/>
        <path id="Trazado_217943" data-name="Trazado 217943" d="M375.991,92.511l-.175-3.258c-.069-1.147-.1-2.354-.069-3.269l-1.36,5.669h-1.617l-1.452-5.68a28.538,28.538,0,0,1,0,3.316l-.174,3.223H369.48l.628-8.023h2.174l1.325,5.53,1.244-5.53h2.2l.615,8.023Z" transform="translate(13.507 3.089)" fill="#e74c3c"/>
        <path id="Trazado_217944" data-name="Trazado 217944" d="M380.463,85.729v2.087H383v1.229h-2.533v2.214h3.115v1.252h-4.825V84.488h4.8l-.185,1.241Z" transform="translate(13.846 3.089)" fill="#e74c3c"/>
        <path id="Trazado_217945" data-name="Trazado 217945" d="M387.815,85.821v6.69h-1.708v-6.69h-2.139V84.488h6.069l-.187,1.333Z" transform="translate(14.037 3.089)" fill="#e74c3c"/>
        <path id="Trazado_217946" data-name="Trazado 217946" d="M391.3,90.714l-.453,1.8h-1.779l2.476-8.023h2.08l2.464,8.023h-1.813l-.453-1.8Zm1.255-4.962-.93,3.7H393.5Z" transform="translate(14.223 3.089)" fill="#e74c3c"/>
        <path id="Trazado_217947" data-name="Trazado 217947" d="M401.453,91.143l-.186,1.368h-4.709V84.488h1.71v6.655Z" transform="translate(14.497 3.089)" fill="#e74c3c"/>
        <path id="Trazado_217948" data-name="Trazado 217948" d="M426.132,92.511l-.175-3.258c-.069-1.147-.1-2.354-.069-3.269l-1.36,5.669h-1.616l-1.453-5.68a28.545,28.545,0,0,1,0,3.316l-.174,3.223h-1.663l.628-8.023h2.174l1.325,5.53,1.244-5.53h2.2l.615,8.023Z" transform="translate(15.34 3.089)" fill="#34495e"/>
        <rect id="Rectángulo_50758" data-name="Rectángulo 50758" width="1.721" height="8.023" transform="translate(444.573 87.577)" fill="#34495e"/>
        <path id="Trazado_217949" data-name="Trazado 217949" d="M436.15,92.511l-1.5-3.176-1.477,3.176h-1.825l2.29-4.266-2.1-3.756h1.871l1.268,2.678L436,84.488h1.813l-2.126,3.7,2.348,4.325Z" transform="translate(15.769 3.089)" fill="#34495e"/>
        <path id="Trazado_217950" data-name="Trazado 217950" d="M440.3,85.729v2.087h2.533v1.229H440.3v2.214h3.115v1.252h-4.824V84.488h4.8l-.186,1.241Z" transform="translate(16.033 3.089)" fill="#34495e"/>
        <path id="Trazado_217951" data-name="Trazado 217951" d="M446.617,84.488c2.128,0,4.15.661,4.15,3.977,0,3.234-1.976,4.046-3.953,4.046h-2.3V84.488Zm-.394,6.771h.7c1.175,0,2.069-.544,2.069-2.794,0-2.3-.941-2.725-2.1-2.725h-.661Z" transform="translate(16.25 3.089)" fill="#34495e"/>
        <path id="Trazado_217952" data-name="Trazado 217952" d="M459.712,92.511,458.6,86.239l-1.173,6.272h-2.163l-1.4-8.023h1.709l.919,6.7,1.22-6.7h1.8l1.173,6.7,1.034-6.7h1.616l-1.407,8.023Z" transform="translate(16.592 3.089)" fill="#34495e"/>
        <path id="Trazado_217953" data-name="Trazado 217953" d="M465.068,90.714l-.453,1.8h-1.779l2.476-8.023h2.08l2.464,8.023h-1.813l-.453-1.8Zm1.255-4.962-.93,3.7h1.871Z" transform="translate(16.92 3.089)" fill="#34495e"/>
        <path id="Trazado_217954" data-name="Trazado 217954" d="M475.511,85.318l-.825.951a2.593,2.593,0,0,0-1.767-.684c-.7,0-1.174.3-1.174.87s.3.789,1.617,1.194c1.452.464,2.383,1.067,2.383,2.551s-1.162,2.5-3.116,2.5a4.117,4.117,0,0,1-2.976-1.125l.9-.974a2.9,2.9,0,0,0,2.034.812c.826,0,1.384-.394,1.384-1.1,0-.637-.314-.916-1.535-1.287-1.743-.544-2.441-1.241-2.441-2.458,0-1.368,1.186-2.261,2.814-2.261a3.692,3.692,0,0,1,2.707,1.009" transform="translate(17.169 3.082)" fill="#34495e"/>
        <path id="Trazado_217955" data-name="Trazado 217955" d="M479.689,85.821v6.69h-1.708v-6.69h-2.139V84.488h6.069l-.187,1.333Z" transform="translate(17.395 3.089)" fill="#34495e"/>
        <path id="Trazado_217956" data-name="Trazado 217956" d="M484.245,85.729v2.087h2.533v1.229h-2.533v2.214h3.115v1.252h-4.824V84.488h4.8l-.185,1.241Z" transform="translate(17.64 3.089)" fill="#34495e"/>
        <path id="Trazado_217957" data-name="Trazado 217957" d="M154,169.319h9.579V113.933H185.52V169.32H195.1l-20.549,20.549Z" transform="translate(5.63 4.165)" fill="#3f3b39"/>
        <path id="Trazado_217958" data-name="Trazado 217958" d="M184.977,169.8V114.416H164.037V169.8h-8.872l19.342,19.341L193.848,169.8Z" transform="translate(5.672 4.183)" fill="#e67e22"/>
        <path id="Trazado_217959" data-name="Trazado 217959" d="M244.183,70.418a4.552,4.552,0,0,1-3.654-1.951,2.413,2.413,0,0,1-.533.06h-1.8c-2.306,0-4.6-3.011-5.011-6.574-.284-2.471-.534-7.525-.613-10.162a10.018,10.018,0,0,1,.547-3.456V32.279a11.052,11.052,0,0,1-.547-3.439V23.3c0-3.712,2.635-6.477,5.184-9.152a37.182,37.182,0,0,0,2.657-2.988,2.433,2.433,0,0,0,.33-1.341,1.167,1.167,0,0,1-.924-1.14,1.139,1.139,0,0,1,.238-.7V3.2l.108-.8.04-.075a.793.793,0,0,1,.085-.172,1.754,1.754,0,0,1,.195-.289,1.637,1.637,0,0,1,.192-.2,1.8,1.8,0,0,1,.314-.212,1.281,1.281,0,0,1,.2-.1,1.693,1.693,0,0,1,.628-.123h7.165a1.71,1.71,0,0,1,.631.124l.043.017.129.068a1.909,1.909,0,0,1,.343.232,1.758,1.758,0,0,1,.19.193,1.856,1.856,0,0,1,.183.271,1.705,1.705,0,0,1,.131.268l.113,5.876a1.079,1.079,0,0,1,.08.406,1.166,1.166,0,0,1-.921,1.14,2.5,2.5,0,0,0,.328,1.34,37.235,37.235,0,0,0,2.658,2.989c2.549,2.674,5.184,5.44,5.184,9.152V28.84a11.048,11.048,0,0,1-.548,3.439V48.335a10.108,10.108,0,0,1,.548,3.454c-.069,2.584-.262,7.632-.544,10.162-.392,3.5-2.732,6.576-5.012,6.576h-1.8a2.407,2.407,0,0,1-.593-.074,4.554,4.554,0,0,1-3.664,1.964Z" transform="translate(8.502 0.045)" fill="#3f3b39"/>
        <path id="Trazado_217960" data-name="Trazado 217960" d="M256.94,32.479v-.312a10.479,10.479,0,0,0,.547-3.347V23.283c0-4.84-4.925-8.126-7.724-11.8a3.69,3.69,0,0,1-.434-2.229h.315a.6.6,0,0,0,.6-.6.575.575,0,0,0-.08-.281V2.968a1.15,1.15,0,0,0-.073-.359h.011c0-.015-.015-.025-.02-.039a1.165,1.165,0,0,0-.089-.18,1.277,1.277,0,0,0-.123-.182,1.193,1.193,0,0,0-.129-.133,1.267,1.267,0,0,0-.216-.145,1.077,1.077,0,0,0-.133-.069,1.15,1.15,0,0,0-.424-.086H241.8a1.159,1.159,0,0,0-.424.086,1.063,1.063,0,0,0-.132.069,1.189,1.189,0,0,0-.216.145,1.3,1.3,0,0,0-.13.133,1.216,1.216,0,0,0-.122.182,1.086,1.086,0,0,0-.09.18c-.005.015-.016.025-.02.039h.011a1.181,1.181,0,0,0-.073.359V8.2a.587.587,0,0,0-.238.465.6.6,0,0,0,.6.6h.314a3.677,3.677,0,0,1-.433,2.229c-2.8,3.67-7.724,6.956-7.724,11.8V28.82a10.508,10.508,0,0,0,.547,3.347V48.408a9.616,9.616,0,0,0-.547,3.347c.077,2.531.32,7.6.61,10.114.388,3.378,2.56,6.07,4.446,6.07h1.8a1.823,1.823,0,0,0,.76-.165,4.109,4.109,0,0,0,3.427,2.055h2.285a4.118,4.118,0,0,0,3.442-2.078,1.828,1.828,0,0,0,.813.188h1.8c1.885,0,4.07-2.691,4.446-6.07.281-2.517.474-7.582.541-10.114a9.664,9.664,0,0,0-.547-3.347V32.479Z" transform="translate(8.522 0.065)" fill="#0a0a0a"/>
        <path id="Trazado_217961" data-name="Trazado 217961" d="M249.9,8.646V2.968A1.194,1.194,0,0,0,248.7,1.774h-7.165a1.2,1.2,0,0,0-1.2,1.194V8.646Z" transform="translate(8.786 0.065)" fill="#f1c40f"/>
        <path id="Trazado_217962" data-name="Trazado 217962" d="M249.834,2.609a1.19,1.19,0,0,0-1.133-.835h-7.166a1.19,1.19,0,0,0-1.133.835Z" transform="translate(8.788 0.065)" fill="#ffde52"/>
        <path id="Trazado_217963" data-name="Trazado 217963" d="M242.178,7.741a.206.206,0,1,1-.412,0V2.973a.206.206,0,1,1,.412,0Z" transform="translate(8.838 0.101)" fill="#ffde52"/>
        <path id="Trazado_217964" data-name="Trazado 217964" d="M242.973,7.741a.206.206,0,1,1-.413,0V2.973a.206.206,0,1,1,.413,0Z" transform="translate(8.867 0.101)" fill="#ffde52"/>
        <path id="Trazado_217965" data-name="Trazado 217965" d="M243.769,7.741a.206.206,0,1,1-.413,0V2.973a.206.206,0,1,1,.413,0Z" transform="translate(8.896 0.101)" fill="#ffde52"/>
        <path id="Trazado_217966" data-name="Trazado 217966" d="M244.564,7.741a.206.206,0,0,1-.413,0V2.973a.206.206,0,0,1,.413,0Z" transform="translate(8.925 0.101)" fill="#ffde52"/>
        <path id="Trazado_217967" data-name="Trazado 217967" d="M245.5,7.741a.206.206,0,0,1-.413,0V2.973a.206.206,0,0,1,.413,0Z" transform="translate(8.96 0.101)" fill="#ffde52"/>
        <path id="Trazado_217968" data-name="Trazado 217968" d="M246.438,7.741a.206.206,0,0,1-.413,0V2.973a.206.206,0,0,1,.413,0Z" transform="translate(8.994 0.101)" fill="#ffde52"/>
        <path id="Trazado_217969" data-name="Trazado 217969" d="M247.29,7.741a.206.206,0,1,1-.413,0V2.973a.206.206,0,1,1,.413,0Z" transform="translate(9.025 0.101)" fill="#ffde52"/>
        <path id="Trazado_217970" data-name="Trazado 217970" d="M248.141,7.741a.206.206,0,0,1-.413,0V2.973a.206.206,0,0,1,.413,0Z" transform="translate(9.056 0.101)" fill="#ffde52"/>
        <path id="Trazado_217971" data-name="Trazado 217971" d="M248.9,7.741a.172.172,0,1,1-.337,0V2.973a.172.172,0,1,1,.337,0Z" transform="translate(9.087 0.101)" fill="#ffde52"/>
        <path id="Trazado_217972" data-name="Trazado 217972" d="M249.471,7.741c0,.114-.065.206-.147.206s-.147-.092-.147-.206V2.973c0-.114.066-.206.147-.206s.147.092.147.206Z" transform="translate(9.109 0.101)" fill="#ffde52"/>
        <path id="Trazado_217973" data-name="Trazado 217973" d="M241.027,2.973a.167.167,0,1,1,.325,0V7.741a.167.167,0,1,1-.325,0Z" transform="translate(8.811 0.101)" fill="#ffde52"/>
        <path id="Trazado_217974" data-name="Trazado 217974" d="M240.46,2.973c0-.114.065-.206.147-.206s.147.092.147.206V7.741c0,.114-.066.206-.147.206s-.147-.092-.147-.206Z" transform="translate(8.79 0.101)" fill="#ffde52"/>
        <path id="Trazado_217975" data-name="Trazado 217975" d="M257.488,28.6V23.06c0-4.84-4.925-8.125-7.725-11.795a3.677,3.677,0,0,1-.433-2.23h.314a.6.6,0,0,0,0-1.194h-8.678a.6.6,0,0,0,0,1.194h.315a3.687,3.687,0,0,1-.433,2.23c-2.8,3.67-7.725,6.955-7.725,11.795V28.6a10.518,10.518,0,0,0,.547,3.347v16.24a9.644,9.644,0,0,0-.547,3.347c.076,2.532.319,7.6.61,10.115.389,3.378,2.56,6.069,4.446,6.069h1.8a1.835,1.835,0,0,0,.76-.164,4.111,4.111,0,0,0,3.427,2.055h2.285a4.119,4.119,0,0,0,3.443-2.079,1.818,1.818,0,0,0,.813.188h1.8c1.883,0,4.068-2.69,4.446-6.069.281-2.517.474-7.583.541-10.115a9.693,9.693,0,0,0-.548-3.347V31.945a10.489,10.489,0,0,0,.548-3.347" transform="translate(8.522 0.287)" fill="#3e6c6d"/>
        <path id="Trazado_217976" data-name="Trazado 217976" d="M257.235,28.522V23c0-4.822-4.826-8.1-7.57-11.752a3.725,3.725,0,0,1-.425-2.221h.308a.6.6,0,0,0,0-1.19h-8.5a.6.6,0,0,0,0,1.19h.308a3.719,3.719,0,0,1-.425,2.221c-2.744,3.657-7.569,6.93-7.569,11.752v5.518a10.611,10.611,0,0,0,.536,3.335V48.039a9.686,9.686,0,0,0-.536,3.335c.075,2.522.313,7.569.6,10.076.38,3.367,2.51,6.048,4.357,6.048h1.763a1.767,1.767,0,0,0,.744-.164,4.019,4.019,0,0,0,3.358,2.047h2.239a4.022,4.022,0,0,0,3.373-2.071,1.762,1.762,0,0,0,.8.188h1.762c1.847,0,3.988-2.681,4.358-6.048.275-2.507.463-7.554.53-10.076a9.786,9.786,0,0,0-.537-3.335V31.857a10.611,10.611,0,0,0,.537-3.335" transform="translate(8.531 0.287)" fill="#afdce0"/>
        <path id="Trazado_217977" data-name="Trazado 217977" d="M249.5,8.357a.316.316,0,0,1-.318.314h-8.531a.314.314,0,1,1,0-.628h8.531a.316.316,0,0,1,.318.314" transform="translate(8.786 0.294)" fill="#ebf9fc"/>
        <g id="Grupo_156399" data-name="Grupo 156399" transform="translate(249.129 53.587)" opacity="0.6">
          <g id="Grupo_156398" data-name="Grupo 156398">
            <g id="Grupo_156397" data-name="Grupo 156397" clip-path="url(#clip-path-4)">
              <path id="Trazado_217978" data-name="Trazado 217978" d="M246.474,51.7h-3.026a3.1,3.1,0,0,0-3.1,3.1v9.554a3.088,3.088,0,0,0,.8,2.071h0V56.871c0-4.04,5.533-5.174,5.335-5.174" transform="translate(-240.343 -51.697)" fill="#fff"/>
            </g>
          </g>
        </g>
        <path id="Trazado_217979" data-name="Trazado 217979" d="M243.229,67.339h3.026a3.1,3.1,0,0,0,3.1-3.1V56.192c0-.8-.8,5.973-.8,5.973a5.744,5.744,0,0,1-5.334,5.174" transform="translate(8.891 2.052)" fill="#598a8e"/>
        <rect id="Rectángulo_50760" data-name="Rectángulo 50760" width="23.271" height="15.616" transform="translate(242.191 32.544)" fill="#f1c40f"/>
        <g id="Grupo_156402" data-name="Grupo 156402" transform="translate(248.174 30.658)" opacity="0.6" style="mix-blend-mode: overlay;isolation: isolate">
          <g id="Grupo_156401" data-name="Grupo 156401">
            <g id="Grupo_156400" data-name="Grupo 156400" clip-path="url(#clip-path-5)">
              <path id="Trazado_217980" data-name="Trazado 217980" d="M241.014,47.092a.8.8,0,1,1-1.592,0V30.373a.8.8,0,1,1,1.592,0Z" transform="translate(-239.422 -29.577)" fill="#fff"/>
            </g>
          </g>
        </g>
        <g id="Grupo_156405" data-name="Grupo 156405" transform="translate(242.187 9.443)" opacity="0.6" style="mix-blend-mode: overlay;isolation: isolate">
          <g id="Grupo_156404" data-name="Grupo 156404">
            <g id="Grupo_156403" data-name="Grupo 156403" clip-path="url(#clip-path-6)">
              <path id="Trazado_217981" data-name="Trazado 217981" d="M249.608,17.059l-1.8-1.51a7.758,7.758,0,0,0-7.606-1.137,32.214,32.214,0,0,0,2.076-3.3,4.764,4.764,0,0,0,.267-2.006H241.7a3.353,3.353,0,0,1-.4,2.006c-2.53,3.334-7.506,6.344-7.575,10.823l-.081,5.193a9.788,9.788,0,0,0,.476,3.174l.272,18.258a10.215,10.215,0,0,0-.562,3.338c.034,2.544.19,5.219.427,7.8.322,3.49,2.371,6.293,4.18,6.293h1.728c.029,0,.057,0,.086-.006-1.2-.132-2.519-2.882-2.731-6.287-.161-2.579-.265-5.254-.288-7.8a14.73,14.73,0,0,1,.379-3.338l-.183-18.258a14.192,14.192,0,0,1-.321-3.174l.055-5.193a8.982,8.982,0,0,1,.117-1.343,13.866,13.866,0,0,0,3.938.472h3.605c5.284,0,7.426-1.794,4.784-4.007" transform="translate(-233.646 -9.11)" fill="#fff"/>
            </g>
          </g>
        </g>
        <g id="Grupo_156408" data-name="Grupo 156408" transform="translate(256.538 9.443)" style="mix-blend-mode: overlay;isolation: isolate">
          <g id="Grupo_156407" data-name="Grupo 156407">
            <g id="Grupo_156406" data-name="Grupo 156406" clip-path="url(#clip-path-7)">
              <path id="Trazado_217982" data-name="Trazado 217982" d="M255.778,30.306a9.788,9.788,0,0,0,.476-3.174l-.081-5.193c-.07-4.479-5.046-7.489-7.575-10.823a3.348,3.348,0,0,1-.4-2.006h-.707a7.862,7.862,0,0,0,.286,2.264c2.209,3.3,6.552,6.282,6.613,10.717l.07,5.142a10.83,10.83,0,0,1-.416,3.143l-.236,18.08a11.344,11.344,0,0,1,.491,3.306c-.031,2.519-.167,5.167-.373,7.722a13.272,13.272,0,0,1-2.54,6.509h.072c1.81,0,3.858-2.8,4.181-6.293.236-2.579.392-5.254.427-7.8a10.188,10.188,0,0,0-.563-3.338Z" transform="translate(-247.491 -9.11)" fill="#0a0a0a"/>
            </g>
          </g>
        </g>
        <g id="Grupo_156411" data-name="Grupo 156411" transform="translate(260.394 25.125)" style="mix-blend-mode: overlay;isolation: isolate">
          <g id="Grupo_156410" data-name="Grupo 156410">
            <g id="Grupo_156409" data-name="Grupo 156409" clip-path="url(#clip-path-8)">
              <path id="Trazado_217983" data-name="Trazado 217983" d="M252.286,54.632a.537.537,0,0,1-1.075,0V24.777a.537.537,0,0,1,1.075,0Z" transform="translate(-251.211 -24.239)" fill="#0a0a0a"/>
            </g>
          </g>
        </g>
        <path id="Trazado_217984" data-name="Trazado 217984" d="M317.623,67.89c-.624-.082-1.919-.261-1.919-1.164V34.832a15.273,15.273,0,0,1,5.985-11.066l.45-10.739h-.093V7.584a.9.9,0,0,1-.037-.252.894.894,0,0,1,.037-.253V7.062h.005a.893.893,0,0,1,.13-.252l-.058-.476a1.8,1.8,0,0,1,.474-1.421,3.878,3.878,0,0,1,5.237,0,1.8,1.8,0,0,1,.473,1.42l-.057.462a.865.865,0,0,1,.138.265h.055v5.965H328.3l.444,10.517c3.645,2.19,6.338,7.69,6.338,11.288V66.726c0,.8-1.037,1.033-2.157,1.161l-.03,0Z" transform="translate(11.541 0.142)" fill="#3f3b39"/>
        <path id="Trazado_217985" data-name="Trazado 217985" d="M317.6,67.239h15.242c1.066-.121,1.7-.319,1.7-.646V34.7c0-3.456-2.654-8.956-6.325-10.981l-.682-16.2h-4.672l-.688,16.4c-3.488,2.172-5.974,7.431-5.974,10.776V66.593c0,.325.518.523,1.4.646" transform="translate(11.559 0.275)" fill="#423b08"/>
        <path id="Trazado_217986" data-name="Trazado 217986" d="M323.092,65.564c-1.909,0-5.4,0-6.109-.378V34.077c0-3.115,2.375-8.086,5.551-10.076l.264-.165L323.463,8.1h3.428l.658,15.557.29.162c3.3,1.834,5.868,7.022,5.868,10.261V65.156c-.839.405-5,.405-8.362.405Z" transform="translate(11.588 0.296)" fill="#5b510c"/>
        <rect id="Rectángulo_50765" data-name="Rectángulo 50765" width="18.341" height="24.594" transform="translate(327.762 35.702)" fill="#ccba2e"/>
        <path id="Trazado_217987" data-name="Trazado 217987" d="M327.05,10.3c-.073.592-1,1.042-2.08,1.042s-2.007-.45-2.079-1.042l-.5-4.047c-.121-.987,1.028-1.856,2.578-1.856s2.7.87,2.578,1.856Z" transform="translate(11.785 0.161)" fill="#efd978"/>
        <path id="Trazado_217988" data-name="Trazado 217988" d="M327.67,7.224a.382.382,0,0,1-.381.381h-4.621a.381.381,0,0,1,0-.763h4.621a.382.382,0,0,1,.381.381" transform="translate(11.782 0.25)" fill="#423b08"/>
        <rect id="Rectángulo_50766" data-name="Rectángulo 50766" width="5.358" height="4.93" transform="translate(334.105 7.721)" fill="#394251"/>
        <g id="Grupo_156414" data-name="Grupo 156414" transform="translate(330.185 7.708)" opacity="0.6" style="mix-blend-mode: overlay;isolation: isolate">
          <g id="Grupo_156413" data-name="Grupo 156413">
            <g id="Grupo_156412" data-name="Grupo 156412" clip-path="url(#clip-path-9)">
              <path id="Trazado_217989" data-name="Trazado 217989" d="M323.818,7.436s-.606,12.864-.606,16.625c0,1.018-4.672,3.2-4.672,10.641V66.933l2.941.086V36.347c0-8.479,3.461-9.947,3.461-11.766V7.436Z" transform="translate(-318.54 -7.436)" fill="#fff"/>
              <path id="Trazado_217990" data-name="Trazado 217990" d="M328.017,24.348h-.4a12.876,12.876,0,0,1,3.085,8.879V66.312l-.35.011V66.4l2.941-.087V34.085c0-5.783-4.64-10.027-5.274-9.736" transform="translate(-318.208 -6.818)" fill="#fff"/>
            </g>
          </g>
        </g>
        <path id="Trazado_217991" data-name="Trazado 217991" d="M306.965,68.032c-.664-.087-2.04-.278-2.04-1.238V32.889c0-3.616,2.6-9.253,6.362-11.765l.479-11.416h-.1V3.921a.908.908,0,0,1,0-.536V3.367h.005a.923.923,0,0,1,.138-.267l-.063-.507a1.915,1.915,0,0,1,.5-1.51,4.124,4.124,0,0,1,5.567,0,1.915,1.915,0,0,1,.5,1.51l-.06.492a.936.936,0,0,1,.146.282h.058V9.708h-.15l.472,11.18c3.875,2.329,6.738,8.175,6.738,12V66.795c0,.855-1.1,1.1-2.294,1.233l-.031,0Z" transform="translate(11.147 0)" fill="#3f3b39"/>
        <path id="Trazado_217992" data-name="Trazado 217992" d="M306.946,67.34h16.2c1.133-.129,1.806-.339,1.806-.687V32.747c0-3.675-2.821-9.521-6.725-11.675L317.5,3.856h-4.966l-.732,17.435c-3.708,2.308-6.35,7.9-6.35,11.456V66.653c0,.346.551.557,1.49.687" transform="translate(11.166 0.141)" fill="#08421f"/>
        <path id="Trazado_217993" data-name="Trazado 217993" d="M312.78,65.56c-2.031,0-5.743,0-6.494-.4V32.086c0-3.311,2.523-8.6,5.9-10.711l.281-.176.7-16.731h3.645l.7,16.538.309.172c3.513,1.95,6.238,7.464,6.238,10.908v33.04c-.891.431-5.31.431-8.89.431Z" transform="translate(11.197 0.163)" fill="#0c5b28"/>
        <rect id="Rectángulo_50768" data-name="Rectángulo 50768" width="19.499" height="26.147" transform="translate(316.621 33.662)" fill="#2ecc71"/>
        <path id="Trazado_217994" data-name="Trazado 217994" d="M316.986,6.807c-.078.629-1.066,1.108-2.211,1.108s-2.134-.479-2.212-1.108l-.529-4.3c-.129-1.048,1.093-1.974,2.741-1.974s2.869.926,2.74,1.974Z" transform="translate(11.407 0.019)" fill="#efd978"/>
        <path id="Trazado_217995" data-name="Trazado 217995" d="M317.646,3.539a.405.405,0,0,1-.405.405h-4.912a.405.405,0,0,1,0-.811h4.912a.405.405,0,0,1,.405.405" transform="translate(11.403 0.115)" fill="#08421f"/>
        <rect id="Rectángulo_50769" data-name="Rectángulo 50769" width="5.697" height="5.241" transform="translate(323.364 3.917)" fill="#394251"/>
        <g id="Grupo_156417" data-name="Grupo 156417" transform="translate(319.197 3.902)" opacity="0.6" style="mix-blend-mode: overlay;isolation: isolate">
          <g id="Grupo_156416" data-name="Grupo 156416">
            <g id="Grupo_156415" data-name="Grupo 156415" clip-path="url(#clip-path-10)">
              <path id="Trazado_217996" data-name="Trazado 217996" d="M313.551,3.764s-.644,13.675-.644,17.674c0,1.082-4.967,3.4-4.967,11.312V67.015l3.127.092V34.5c0-9.013,3.68-10.574,3.68-12.508V3.764Z" transform="translate(-307.94 -3.764)" fill="#fff"/>
              <path id="Trazado_217997" data-name="Trazado 217997" d="M318.015,21.744h-.427a13.686,13.686,0,0,1,3.28,9.44V66.356l-.372.01v.084l3.126-.092V32.094c0-6.147-4.933-10.659-5.607-10.35" transform="translate(-307.587 -3.107)" fill="#fff"/>
            </g>
          </g>
        </g>
        <path id="Trazado_217998" data-name="Trazado 217998" d="M487.207,42.05a1.7,1.7,0,0,1-.713.158c-3.55,0-7.879-10.406-8.616-14.829l-.132-.81c-.775-4.82-1.946-12.1-10.48-18.41l-.915-.677.12,1.132a4.579,4.579,0,0,1-1.076,3.122l-.912-1.718A3.6,3.6,0,0,0,461.5,7.943a2.161,2.161,0,0,0-1.027.252l-9.545,5.069a.623.623,0,0,0-.412-.154,2.077,2.077,0,0,0-.91.33l-2.278,1.21a1.14,1.14,0,0,1-.538.135,1.017,1.017,0,0,1-.111-.015,1.662,1.662,0,0,0-1.61-2.1,1.682,1.682,0,0,0-.784.2,1.65,1.65,0,0,0-.749.831,1.634,1.634,0,0,0-.319-.044,1.665,1.665,0,0,0-.54,3.243,1.13,1.13,0,0,1-.444.458l-2.277,1.209c-.507.27-.781.459-.869.748a.571.571,0,0,0-.018.25l-9.247,4.911c-1.308.694-1.639,2.643-.736,4.343l1.222,2.3c-5.343,2.409-6.727,3.281-6.6,4.164.091.637.888.742,1.152.776,6.006.783,9.193,10.2,11.52,17.085a39.86,39.86,0,0,0,2.776,6.982l.451.732.414-.753a10.464,10.464,0,0,1,1.253-1.8v4.248c0,.885,1.28,1.061,1.825,1.137l.068.005,17.749-.005c1.107-.125,2.132-.35,2.132-1.139V59.14l8.58,3.008.092-.177.325.115-.125-.5,2.768-5.3c6.917-.765,11.364-5.346,13.214-13.674l.218-.977ZM444.283,16.615a1.646,1.646,0,0,0,.47-.645,1.358,1.358,0,0,0,.826-.046c.055.032.116.059.176.087l-1.5.8c.011-.066.026-.133.031-.2" transform="translate(15.489 0.274)" fill="#3f3b39"/>
        <path id="Trazado_217999" data-name="Trazado 217999" d="M424.907,35.523c-7.308-.954,43.2-16.2,42.045-27,8.872,6.557,9.643,14.272,10.414,18.9s5.786,16.973,10.029,15.044c-.771,3.471-3.471,15.429-18.515,13.116s-25.072-3.472-29.315,4.243c-3.086-5.015-5.786-23.144-14.658-24.3" transform="translate(15.507 0.312)" fill="#e67e22"/>
        <path id="Trazado_218000" data-name="Trazado 218000" d="M442.692,16.6a1.642,1.642,0,0,1-.783.908l-2.278,1.21c-.721.384-.655.466-.594.58s.092.216.814-.168l2.277-1.209a2.116,2.116,0,0,0,1.045-1.295c.222-.787-.193-1.4-.307-1.337s.052.671-.174,1.31" transform="translate(16.048 0.559)" fill="#b76935"/>
        <path id="Trazado_218001" data-name="Trazado 218001" d="M445.617,15.014a1.647,1.647,0,0,0,1.191-.14l2.277-1.21c.721-.384.754-.282.814-.168s.128.2-.594.58l-2.278,1.21a2.1,2.1,0,0,1-1.656.14c-.776-.256-1.05-.941-.936-1s.527.419,1.183.59" transform="translate(16.246 0.49)" fill="#ce844d"/>
        <path id="Trazado_218002" data-name="Trazado 218002" d="M472.3,26.558c.767,1.444.533,3.068-.522,3.629L441.441,46.295c-1.055.561-2.532-.155-3.3-1.6l-8.5-16.009c-.766-1.443-.532-3.067.523-3.628L460.494,8.95c1.055-.56,2.532.155,3.3,1.6Z" transform="translate(15.69 0.32)" fill="#0b826b"/>
        <path id="Trazado_218003" data-name="Trazado 218003" d="M460.519,8.6,429.868,24.881c-1.067.567-1.3,2.208-.529,3.667l8.592,16.178a2.871,2.871,0,0,0,2.981,1.745,2.94,2.94,0,0,1-2.759-1.761l-8.5-16.01c-.767-1.443-.533-3.067.522-3.628L460.505,8.964c1.055-.561,2.532.154,3.3,1.6l8.5,16.009a2.937,2.937,0,0,1-.086,3.272,2.868,2.868,0,0,0,.225-3.447l-8.592-16.178c-.774-1.458-2.267-2.182-3.334-1.616" transform="translate(15.679 0.307)" fill="#b76935"/>
        <path id="Trazado_218004" data-name="Trazado 218004" d="M439.137,44.819c-.05-.029-.1-.057-.149-.089.049.032.1.06.149.089" transform="translate(16.048 1.635)" fill="#b76935"/>
        <path id="Trazado_218005" data-name="Trazado 218005" d="M438.789,44.585c-.065-.051-.129-.106-.192-.164.062.058.126.112.192.164" transform="translate(16.034 1.624)" fill="#b76935"/>
        <path id="Trazado_218006" data-name="Trazado 218006" d="M438.443,44.275c-.077-.079-.147-.164-.218-.251.07.087.142.172.218.251" transform="translate(16.02 1.609)" fill="#b76935"/>
        <path id="Trazado_218007" data-name="Trazado 218007" d="M438.121,43.9a3.858,3.858,0,0,1-.294-.469,3.939,3.939,0,0,0,.294.469" transform="translate(16.006 1.588)" fill="#b76935"/>
        <path id="Trazado_218008" data-name="Trazado 218008" d="M439.392,44.954l.027.01-.027-.01" transform="translate(16.063 1.643)" fill="#b76935"/>
        <path id="Trazado_218009" data-name="Trazado 218009" d="M460.494,8.95,430.162,25.058c-1.055.561-1.288,2.185-.522,3.629l5.321,10.018.021.038.126.239,16.674.061a15.769,15.769,0,0,0,8.144-4.325l9.325-13.893-.117-.221-.021-.038-5.321-10.018c-.766-1.444-2.243-2.16-3.3-1.6" transform="translate(15.69 0.32)" fill="#1abc9c"/>
        <path id="Rectángulo_50771" data-name="Rectángulo 50771" d="M1.365,0H12.98a1.365,1.365,0,0,1,1.365,1.365V3.7A1.366,1.366,0,0,1,12.98,5.063H1.366A1.366,1.366,0,0,1,0,3.7V1.365A1.365,1.365,0,0,1,1.365,0Z" transform="matrix(0.883, -0.469, 0.469, 0.883, 462.031, 34.305)" fill="#ce844d"/>
        <path id="Trazado_218010" data-name="Trazado 218010" d="M445.393,13.592a1.171,1.171,0,1,1-1.584-.485,1.171,1.171,0,0,1,1.584.485" transform="translate(16.201 0.474)" fill="#b76935"/>
        <path id="Trazado_218011" data-name="Trazado 218011" d="M443.607,14.541a1.171,1.171,0,1,1-1.584-.485,1.171,1.171,0,0,1,1.584.485" transform="translate(16.136 0.509)" fill="#ce844d"/>
        <path id="Trazado_218012" data-name="Trazado 218012" d="M476.124,29.167l-18.855-6.61-9.2,17.63,18.855,6.61Z" transform="translate(16.38 0.825)" fill="#233849"/>
        <path id="Trazado_218013" data-name="Trazado 218013" d="M470.441,60.132l-18.855-6.61-3.523-13.957,18.855,6.61Z" transform="translate(16.38 1.446)" fill="#48647a"/>
        <path id="Trazado_218014" data-name="Trazado 218014" d="M479.374,43.352l-18.855-6.61-3.575-14.184,18.855,6.61Z" transform="translate(16.704 0.825)" fill="#48647a"/>
        <path id="Trazado_218015" data-name="Trazado 218015" d="M479.572,42.852l-18.855-6.61-9.2,17.63,18.855,6.61Z" transform="translate(16.506 1.325)" fill="#34495e"/>
        <path id="Trazado_218016" data-name="Trazado 218016" d="M461.91,50.1a27.882,27.882,0,0,1-2.257-2.015A78.425,78.425,0,0,1,447.5,31.567c-1.413-2.571-2.927-5.137-4.35-7.75a13.778,13.778,0,0,0-2.019,6.421l0,31.713c0,.323.516.52,1.394.642h17.692c1.059-.121,1.689-.318,1.689-.643Z" transform="translate(16.126 0.871)" fill="#0b826b"/>
        <path id="Trazado_218017" data-name="Trazado 218017" d="M459.625,48.068a78.4,78.4,0,0,1-12.151-16.521c-1.316-2.394-2.723-4.786-4.06-7.214a12.408,12.408,0,0,0-1.505,5.289l0,30.932c.7.376,4.176.376,6.074.375l2.24,0c3.348,0,10.018,0,10.852-.4V49.42c-.5-.434-.986-.88-1.452-1.352" transform="translate(16.155 0.89)" fill="#1abc9c"/>
        <path id="Trazado_218018" data-name="Trazado 218018" d="M459.653,47.835A78.4,78.4,0,0,1,447.5,31.314c-.111-.2-.227-.4-.339-.605h-6.031l0,24.455,20.775,0V49.85a28.06,28.06,0,0,1-2.257-2.015" transform="translate(16.126 1.123)" fill="#34495e"/>
        <g id="Grupo_156420" data-name="Grupo 156420" transform="translate(459.668 26.624)" opacity="0.6" style="mix-blend-mode: overlay;isolation: isolate">
          <g id="Grupo_156419" data-name="Grupo 156419">
            <g id="Grupo_156418" data-name="Grupo 156418" clip-path="url(#clip-path-11)">
              <path id="Trazado_218019" data-name="Trazado 218019" d="M446.462,29.791c-.769-1.363-1.55-2.73-2.324-4.106a14.1,14.1,0,0,0-.681,4.484l0,32.047,2.925.086,0-30.5c0-.727.033-1.384.08-2.012" transform="translate(-443.457 -25.685)" fill="#fff"/>
              <path id="Trazado_218020" data-name="Trazado 218020" d="M459.053,47.276c-.406-.41-.785-.838-1.152-1.271l0,15.465-.348.01v.078l2.924-.086V48.6c-.488-.427-.968-.864-1.425-1.327" transform="translate(-442.942 -24.942)" fill="#fff"/>
            </g>
          </g>
        </g>
        <path id="Trazado_218021" data-name="Trazado 218021" d="M385.875,64.937c-7.56,0-15.676-1.58-15.83-4.509,0-.016,0-.142,0-.369,0-5.494-.136-24.239-1.873-35.293a1.513,1.513,0,0,1-.19-.633c-.005-.078-.029-.278-.054-.489-.032-.271-.065-.559-.072-.68-.045-.822.584-1.567,1.868-2.217a8.612,8.612,0,0,1-1.674-5.165,4.057,4.057,0,0,1,2.064-3.18l-.03-.039a5.662,5.662,0,0,1-.7-1.069A3.573,3.573,0,0,1,369.11,8.2a1.974,1.974,0,0,1,1.477-1.075l1.775-.333a2.1,2.1,0,0,1,.388-.035,2.725,2.725,0,0,1,1.677.64,4.94,4.94,0,0,1,1.328,1.7,5.384,5.384,0,0,1,.352.927l.272.841a12.47,12.47,0,0,1,9.454,4.719,12.124,12.124,0,0,0,3.055,2.8c7.236.289,12.919,1.589,14.5,3.321a1.715,1.715,0,0,1,.508,1.261c-.006.119-.038.4-.07.665-.025.216-.05.422-.055.5a1.5,1.5,0,0,1-.191.632c-1.737,11.054-1.873,29.8-1.873,35.293,0,.227,0,.353,0,.369-.152,2.929-8.27,4.509-15.829,4.509m-14.43-54.165a3.3,3.3,0,0,0,1.029-.211l1.215-.437a2.413,2.413,0,0,0,.565-.28c-.016-.034-.031-.067-.048-.1a2.469,2.469,0,0,0-1.366-1.4v-.5l0,.5-1.746.376c-.025.005-.06.047-.088.1a2.19,2.19,0,0,0,.27,1.7c.042.083.087.166.135.247h.038" transform="translate(13.447 0.247)" fill="#3f3b39"/>
        <path id="Trazado_218022" data-name="Trazado 218022" d="M403.138,23.571H368.559c2.1,12.725,1.948,36.007,1.958,36.216.118,2.242,6.981,4.035,15.331,4.035s15.214-1.793,15.332-4.035c.01-.209-.141-23.491,1.958-36.216" transform="translate(13.473 0.862)" fill="#cac5c1"/>
        <path id="Trazado_218023" data-name="Trazado 218023" d="M383.339,23.576V63.43c.646.023,1.3.037,1.969.037a12.506,12.506,0,0,0,4.031-.147l.417-39.9Z" transform="translate(14.014 0.856)" fill="#9f9da8"/>
        <path id="Trazado_218024" data-name="Trazado 218024" d="M384.991,23.738l-7.441-.167V62.865c2.258.29,4.776.514,7.441.67Z" transform="translate(13.802 0.862)" fill="#f4f4f4"/>
        <path id="Trazado_218025" data-name="Trazado 218025" d="M371.758,23.571h-3.2c2.1,12.611,1.947,35.685,1.958,35.892.029.542.48,1.055,1.24,1.526Z" transform="translate(13.473 0.862)" fill="#9f9da8"/>
        <path id="Trazado_218026" data-name="Trazado 218026" d="M372.725,23.571V61.553a20.266,20.266,0,0,0,3.881,1.112V23.571Z" transform="translate(13.626 0.862)" fill="#e0dcd9"/>
        <path id="Trazado_218027" data-name="Trazado 218027" d="M396.848,23.571V61.9c2.009-.673,3.249-1.513,3.3-2.438.011-.207-.14-23.281,1.958-35.892Z" transform="translate(14.507 0.862)" fill="#9f9da8"/>
        <path id="Trazado_218028" data-name="Trazado 218028" d="M397.2,23.028l-3.026.563v39.1c1.427-.405,2.409-.647,3.353-.98Z" transform="translate(14.41 0.842)" fill="#e0dcd9"/>
        <path id="Trazado_218029" data-name="Trazado 218029" d="M394.419,23.429l-5.29.147V63.32c1.382-.1,4.3-.527,5.5-.718Z" transform="translate(14.225 0.856)" fill="#dfdde0"/>
        <path id="Trazado_218030" data-name="Trazado 218030" d="M403.084,23.637c-.116,2.187-7.832,3.939-17.237,3.939s-17.121-1.752-17.237-3.939c-.117-2.217,7.6-4.036,17.237-4.036s17.354,1.819,17.237,4.036" transform="translate(13.475 0.717)" fill="#adadad"/>
        <path id="Trazado_218031" data-name="Trazado 218031" d="M403.378,22.513c.121-2.262-7.722-4.119-17.522-4.119s-17.642,1.858-17.521,4.119c.011.218.116.989.125,1.168.118,2.208,7.906,3.975,17.4,3.975s17.278-1.767,17.4-3.975c.009-.179.114-.951.125-1.168" transform="translate(13.465 0.672)" fill="#92919b"/>
        <path id="Trazado_218032" data-name="Trazado 218032" d="M402.872,22.169c.118-2.009-7.507-3.658-17.033-3.658s-17.152,1.649-17.034,3.658c.011.193.113.878.122,1.038.114,1.96,7.685,3.529,16.911,3.529s16.8-1.569,16.911-3.529c.009-.16.11-.845.121-1.038" transform="translate(13.482 0.677)" fill="#dfdde0"/>
        <path id="Trazado_218033" data-name="Trazado 218033" d="M402.365,22.248c-.1,1.905-7.5,3.433-16.543,3.433s-16.446-1.528-16.542-3.433c-.1-1.927,7.309-3.507,16.542-3.507s16.641,1.58,16.543,3.507" transform="translate(13.5 0.685)" fill="#88888a"/>
        <path id="Trazado_218034" data-name="Trazado 218034" d="M385.81,20.051c-8.1,0-14.793,1.217-16.2,2.815,1.553,1.582,8.239,2.767,16.2,2.767s14.649-1.185,16.2-2.767c-1.409-1.6-8.1-2.815-16.2-2.815" transform="translate(13.512 0.733)" fill="#7b7b7c"/>
        <path id="Trazado_218035" data-name="Trazado 218035" d="M385.416,15.728c-5.681-7.232-16.761-4.669-16.892-.293C368.425,18.72,371.01,26,385.85,26c7.962,0,14.464-1.07,16.2-2.808-3.746-3.528-11.22-.567-16.636-7.461" transform="translate(13.472 0.409)" fill="#eaeaea"/>
        <path id="Trazado_218036" data-name="Trazado 218036" d="M398.391,23.183c-.037-.249-.1-.665-2.668-1.085-3.469-.569-7.789-1.276-11.259-5.694a10.84,10.84,0,0,0-8.605-4.1c-3.262,0-6.168,1.459-6.218,3.122a7.292,7.292,0,0,0,2.208,5.166c2.669,2.75,7.5,4.2,13.961,4.2l2.844,0c4.553,0,7.452-.066,9.319-.986.416-.2.441-.484.419-.632m-.59.286c-2.121,1.045-5.745.943-11.992.943-6.357,0-11.089-1.413-13.685-4.087a6.9,6.9,0,0,1-2.1-4.885c.039-1.3,2.541-2.747,5.832-2.747a10.454,10.454,0,0,1,8.3,3.949c3.564,4.537,7.966,5.257,11.5,5.836,1.094.179,2.975.578,2.138.991" transform="translate(13.513 0.45)" fill="#cac5c1"/>
        <path id="Trazado_218037" data-name="Trazado 218037" d="M385.806,35.355c-7.053,0-13.176-.874-16.083-2.147,1.267,1.807,8.021,3.428,16.083,3.428s14.817-1.621,16.083-3.428c-2.908,1.273-9.029,2.147-16.083,2.147" transform="translate(13.516 1.214)" fill="#88888a"/>
        <path id="Trazado_218038" data-name="Trazado 218038" d="M385.806,35.241a62.549,62.549,0,0,1-16.076-1.9c1.24,1.237,7.994,2.549,16.076,2.549s14.837-1.312,16.076-2.549a62.549,62.549,0,0,1-16.076,1.9" transform="translate(13.516 1.219)" fill="#dfdde0"/>
        <path id="Trazado_218039" data-name="Trazado 218039" d="M385.8,37.057c-7.013,0-13.1-.864-15.992-2.123,1.259,1.786,7.974,3.39,15.992,3.39s14.733-1.6,15.992-3.39c-2.891,1.258-8.979,2.123-15.992,2.123" transform="translate(13.519 1.277)" fill="#88888a"/>
        <path id="Trazado_218040" data-name="Trazado 218040" d="M385.8,36.944a62.557,62.557,0,0,1-15.985-1.877c1.231,1.222,7.948,2.52,15.985,2.52s14.753-1.3,15.986-2.52A62.574,62.574,0,0,1,385.8,36.944" transform="translate(13.519 1.282)" fill="#dfdde0"/>
        <path id="Trazado_218041" data-name="Trazado 218041" d="M385.8,38.74c-6.974,0-13.027-.854-15.9-2.1,1.252,1.766,7.93,3.351,15.9,3.351s14.65-1.585,15.9-3.351c-2.873,1.245-8.928,2.1-15.9,2.1" transform="translate(13.522 1.339)" fill="#88888a"/>
        <path id="Trazado_218042" data-name="Trazado 218042" d="M385.8,38.628a62.514,62.514,0,0,1-15.895-1.856c1.225,1.209,7.9,2.492,15.895,2.492s14.67-1.283,15.9-2.492a62.531,62.531,0,0,1-15.9,1.856" transform="translate(13.522 1.344)" fill="#dfdde0"/>
        <path id="Trazado_218043" data-name="Trazado 218043" d="M385.8,40.4c-6.936,0-12.955-.845-15.813-2.075,1.245,1.747,7.884,3.314,15.813,3.314s14.569-1.567,15.813-3.314c-2.858,1.23-8.877,2.075-15.813,2.075" transform="translate(13.525 1.401)" fill="#88888a"/>
        <path id="Trazado_218044" data-name="Trazado 218044" d="M385.8,40.294a62.484,62.484,0,0,1-15.805-1.836c1.218,1.2,7.858,2.464,15.805,2.464s14.587-1.269,15.805-2.464A62.484,62.484,0,0,1,385.8,40.294" transform="translate(13.526 1.406)" fill="#dfdde0"/>
        <path id="Trazado_218045" data-name="Trazado 218045" d="M385.794,42.049c-6.9,0-12.883-.835-15.725-2.052,1.238,1.727,7.839,3.278,15.725,3.278S400.282,41.724,401.518,40c-2.841,1.217-8.827,2.052-15.725,2.052" transform="translate(13.529 1.462)" fill="#88888a"/>
        <path id="Trazado_218046" data-name="Trazado 218046" d="M385.793,41.941a62.509,62.509,0,0,1-15.717-1.815c1.211,1.182,7.815,2.437,15.717,2.437s14.507-1.255,15.717-2.437a62.509,62.509,0,0,1-15.717,1.815" transform="translate(13.529 1.467)" fill="#dfdde0"/>
        <path id="Trazado_218047" data-name="Trazado 218047" d="M385.79,43.678c-6.859,0-12.812-.826-15.637-2.03,1.23,1.708,7.8,3.241,15.637,3.241s14.407-1.533,15.638-3.241c-2.826,1.2-8.779,2.03-15.638,2.03" transform="translate(13.532 1.523)" fill="#88888a"/>
        <path id="Trazado_218048" data-name="Trazado 218048" d="M385.79,43.57a62.446,62.446,0,0,1-15.63-1.8c1.2,1.169,7.771,2.41,15.63,2.41s14.427-1.241,15.63-2.41a62.446,62.446,0,0,1-15.63,1.8" transform="translate(13.532 1.527)" fill="#dfdde0"/>
        <path id="Trazado_218049" data-name="Trazado 218049" d="M385.787,45.287c-6.822,0-12.741-.818-15.55-2.007,1.222,1.689,7.752,3.205,15.55,3.205s14.328-1.516,15.55-3.205c-2.809,1.189-8.729,2.007-15.55,2.007" transform="translate(13.535 1.582)" fill="#88888a"/>
        <path id="Trazado_218050" data-name="Trazado 218050" d="M385.787,45.181a62.438,62.438,0,0,1-15.544-1.776c1.2,1.156,7.728,2.384,15.544,2.384s14.347-1.228,15.544-2.384a62.438,62.438,0,0,1-15.544,1.776" transform="translate(13.535 1.587)" fill="#dfdde0"/>
        <path id="Trazado_218051" data-name="Trazado 218051" d="M385.784,46.879c-6.784,0-12.672-.809-15.465-1.985,1.216,1.67,7.709,3.17,15.465,3.17s14.251-1.5,15.465-3.17c-2.794,1.176-8.681,1.985-15.465,1.985" transform="translate(13.538 1.641)" fill="#88888a"/>
        <path id="Trazado_218052" data-name="Trazado 218052" d="M385.784,46.775a62.382,62.382,0,0,1-15.459-1.757c1.19,1.144,7.685,2.358,15.459,2.358s14.269-1.214,15.459-2.358a62.383,62.383,0,0,1-15.459,1.757" transform="translate(13.538 1.646)" fill="#dfdde0"/>
        <path id="Trazado_218053" data-name="Trazado 218053" d="M385.781,48.454c-6.747,0-12.6-.8-15.381-1.964,1.209,1.653,7.667,3.137,15.381,3.137s14.173-1.483,15.381-3.137c-2.779,1.164-8.635,1.964-15.381,1.964" transform="translate(13.541 1.7)" fill="#88888a"/>
        <path id="Trazado_218054" data-name="Trazado 218054" d="M385.781,48.35a62.392,62.392,0,0,1-15.374-1.737c1.183,1.131,7.643,2.332,15.374,2.332s14.191-1.2,15.374-2.332a62.392,62.392,0,0,1-15.374,1.737" transform="translate(13.541 1.704)" fill="#dfdde0"/>
        <path id="Trazado_218055" data-name="Trazado 218055" d="M385.779,50.013c-6.711,0-12.534-.791-15.3-1.943,1.2,1.635,7.625,3.1,15.3,3.1s14.1-1.468,15.3-3.1c-2.762,1.152-8.587,1.943-15.3,1.943" transform="translate(13.544 1.757)" fill="#88888a"/>
        <path id="Trazado_218056" data-name="Trazado 218056" d="M385.778,49.91a62.363,62.363,0,0,1-15.291-1.719c1.177,1.119,7.6,2.307,15.291,2.307s14.115-1.188,15.291-2.307a62.363,62.363,0,0,1-15.291,1.719" transform="translate(13.544 1.762)" fill="#dfdde0"/>
        <path id="Trazado_218057" data-name="Trazado 218057" d="M385.776,51.554c-6.674,0-12.467-.783-15.215-1.922,1.194,1.617,7.583,3.069,15.215,3.069s14.02-1.452,15.215-3.069c-2.748,1.139-8.54,1.922-15.215,1.922" transform="translate(13.546 1.814)" fill="#88888a"/>
        <path id="Trazado_218058" data-name="Trazado 218058" d="M385.775,51.452a62.33,62.33,0,0,1-15.208-1.7c1.169,1.107,7.56,2.282,15.208,2.282s14.039-1.175,15.208-2.282a62.33,62.33,0,0,1-15.208,1.7" transform="translate(13.547 1.819)" fill="#dfdde0"/>
        <path id="Trazado_218059" data-name="Trazado 218059" d="M385.773,53.079c-6.639,0-12.4-.774-15.133-1.9,1.187,1.6,7.542,3.036,15.133,3.036s13.946-1.437,15.133-3.036c-2.732,1.127-8.494,1.9-15.133,1.9" transform="translate(13.549 1.871)" fill="#88888a"/>
        <path id="Trazado_218060" data-name="Trazado 218060" d="M385.772,52.978A62.291,62.291,0,0,1,370.646,51.3c1.163,1.1,7.518,2.259,15.126,2.259S399.736,52.392,400.9,51.3a62.291,62.291,0,0,1-15.126,1.682" transform="translate(13.55 1.875)" fill="#dfdde0"/>
        <path id="Trazado_218061" data-name="Trazado 218061" d="M395.347,22.886c-.031-.2-.083-.536-2.2-.9-2.86-.5-6.419-1.122-9.279-4.714a9.169,9.169,0,0,0-7.092-3.4c-2.688-.039-5.082,1.1-5.124,2.434a5.865,5.865,0,0,0,1.819,4.178c2.2,2.243,6.179,3.471,11.506,3.55l2.344.037c3.752.056,6.142.037,7.68-.678.342-.16.363-.385.345-.5m-.486.223c-1.748.814-4.734.687-9.883.612-5.24-.079-9.138-1.272-11.278-3.453a5.542,5.542,0,0,1-1.729-3.952c.032-1.042,2.094-2.177,4.806-2.136a8.839,8.839,0,0,1,6.841,3.277c2.938,3.689,6.566,4.322,9.479,4.831.9.157,2.452.5,1.763.822" transform="translate(13.586 0.507)" fill="#cac5c1"/>
        <path id="Trazado_218062" data-name="Trazado 218062" d="M377.432,15.9l-1.861-5.761a4.886,4.886,0,0,0-.319-.842,4.417,4.417,0,0,0-1.188-1.525,2.092,2.092,0,0,0-1.664-.5l-1.775.332c-1.507.282-1.6,1.964-.85,3.453a5.375,5.375,0,0,0,.651.991l4.411,5.8a1.085,1.085,0,0,0,1.53,0l.525-.424a1.538,1.538,0,0,0,.54-1.514m-6.411-4.733a4.8,4.8,0,0,1-.249-.434c-.662-1.317-.432-2.392.16-2.52l1.749-.377c.484-.1,1.379.562,1.922,1.67.06.124.115.252.164.379s-.29.452-.962.693l-1.215.436c-.806.29-1.48.288-1.568.152m4.428,4.89a.457.457,0,0,1-.589-.094L372.625,13.2a.737.737,0,0,1-.087-.136c-.219-.434.077-.937.673-1.182l.884-.363a.9.9,0,0,1,1.2.3.764.764,0,0,1,.049.132l.853,3.144a.582.582,0,0,1-.2.593Zm.8,1.245a.911.911,0,0,1-.481-.721c-.031-.311.134-.49.369-.4a.911.911,0,0,1,.481.722c.03.31-.135.488-.369.4" transform="translate(13.501 0.265)" fill="#9f9da8"/>
        <path id="Trazado_218063" data-name="Trazado 218063" d="M167.712,68.31a1.82,1.82,0,0,1-.526-.075l-.024.018-.32-.163-2.818-1.477a2.174,2.174,0,0,1-.988-2.015l-.018-44.989a4.849,4.849,0,0,1,.379-1.793l-.025-.012.265-.532.06-.1c.072-.134.151-.266.235-.4.059-.094.1-.165.151-.233.089-.127.187-.251.287-.372l.168-.2c.115-.127.234-.239.355-.35.083-.081.124-.12.167-.155a4.319,4.319,0,0,1,.576-.41l15.508-9.041a2.667,2.667,0,0,1,1.337-.4,1.766,1.766,0,0,1,.974.282l2.224,1.162a1.891,1.891,0,0,1,1.4,1.54,3.022,3.022,0,0,1,.092.74l-.01,44.794a5.818,5.818,0,0,1-2.607,4.577l-15.5,9.2a2.65,2.65,0,0,1-1.344.41" transform="translate(5.959 0.205)" fill="#3f3b39"/>
        <rect id="Rectángulo_50773" data-name="Rectángulo 50773" width="1.893" height="43.119" transform="translate(170.979 20.875)" fill="#b5b5b5"/>
        <path id="Trazado_218064" data-name="Trazado 218064" d="M186.086,10.31l-.151-2.49-2.812-1.473h0a1.6,1.6,0,0,0-1.707.135l-15.509,9.041a5.206,5.206,0,0,0-2.334,4.065l.018,44.989a1.628,1.628,0,0,0,.681,1.507l2.814,1.476,19-14.132Zm-2.331,39.5L165.572,60.6l-.018-37.42,18.212-10.617Z" transform="translate(5.98 0.225)" fill="#b5b5b5"/>
        <path id="Trazado_218065" data-name="Trazado 218065" d="M185.984,8.942l-.067-1.122L183.1,6.348h0a1.6,1.6,0,0,0-1.707.136l-15.509,9.041a4.944,4.944,0,0,0-1.784,2l3.746,1.988Z" transform="translate(5.999 0.225)" fill="#fff"/>
        <path id="Trazado_218066" data-name="Trazado 218066" d="M184.142,7.915l-15.508,9.041a5.2,5.2,0,0,0-2.334,4.065l.017,44.989c0,1.493,1.042,2.086,2.326,1.324l15.5-9.2a5.258,5.258,0,0,0,2.325-4.083l.011-44.795c0-1.494-1.045-2.094-2.335-1.342m1.341,42.94L167.3,61.647l-.018-37.42L185.495,13.61Z" transform="translate(6.079 0.278)" fill="#f3f3f3"/>
        <path id="Trazado_218067" data-name="Trazado 218067" d="M166.629,66.446l-.017-44.709a5.424,5.424,0,0,1,2.272-4.229L184.4,8.344c.826-.488,1.614-.462,2.022.37a1.4,1.4,0,0,0-2.3-.926l-15.512,9.164a5.283,5.283,0,0,0-2.334,4.12l.017,44.99a1.633,1.633,0,0,0,.66,1.433,1.383,1.383,0,0,1-.32-1.049" transform="translate(6.078 0.274)" fill="#fff"/>
        <path id="Trazado_218068" data-name="Trazado 218068" d="M164.089,31.987a.912.912,0,0,0,.43.686l.861.51c.238.141.43.063.43-.175v-3.54a.908.908,0,0,0-.43-.686l-.861-.511c-.237-.141-.43-.062-.43.175Z" transform="translate(5.999 1.031)" fill="#f3f3f3"/>
        <path id="Trazado_218069" data-name="Trazado 218069" d="M165.288,28.894l-.786-.465c-.183-.109-.336-.074-.379.072a.387.387,0,0,1,.193.062l.786.465a.831.831,0,0,1,.393.625V32.88a.321.321,0,0,1-.013.088c.119,0,.2-.075.2-.221V29.519a.831.831,0,0,0-.393-.625" transform="translate(6 1.037)" fill="#fff"/>
        <path id="Trazado_218070" data-name="Trazado 218070" d="M178.526,15.182V13.963l-4.816,2.808v1.218Z" transform="translate(6.35 0.51)" fill="#b5b5b5"/>
        <path id="Trazado_218071" data-name="Trazado 218071" d="M185.46,13.4,167.248,24.016l.018,37.42,18.183-10.792Z" transform="translate(6.114 0.49)" fill="#e67e22"/>
        <path id="Trazado_218072" data-name="Trazado 218072" d="M184.5,48.5l-.018-.038-.047-.011-2.93-.707,1.049-3.68.032-.114-.054-.131-1.4-3.353,2.147.367,1.032,1.809.085.149.1-.117.982-1.142-1.014.87-.747-1.948-.04-.106-.147-.049-2.423-.805,2.127-2.225.209-.22-.122-.26-.873-1.868,1.272-1.308.214-.22-.169-.244-5.192-7.5,2.2-1.768,1.95-.028.148,0,.011-.143.358-4.289.986-.211.054-.012.011-.052,1.178-5.74-1.328,5.65-1.013.188-.07.013-.008.075-.471,4.2L180.7,23.5h-.062l-.055.041-2.469,1.877-.171.129.12.186,4.928,7.57-1.3,1.259-.192.187.111.256.8,1.859-1.107,1.058-.859-5.784-.022-.15-.1-.089-2.392-2.1-.25-2.516-.026-.261-.251.005-4.317.083,3.207-4.861.027-.04-.025-.038-.876-1.364-.011-.018-.019,0-2.128-.172,2.1.251.789,1.339-3.575,4.994-.207.29.363.006,4.412.084.146,2.408.007.123.1.094,2.291,2.173.24,2.191-.265-.011-1.222-.052.132-1.21.03-.271-.246-.075L174.9,31.883l-1.165-1.808-.1-.148-.144.087-1.385.835-2.2-1.9-.018-.016h-.02l-2.661-.148,2.628.274,2.166,2.058.069.066.09-.049,1.352-.73,1.039,1.794.039.068.085.03,3.221,1.16-.21,1.335-.059.37.39.035,1.263.114.427,3.425-2.989-.342-.132-.015-.094.051-1.3.7-.731-.49c-.157-.1-.307-.2-.478-.289a1.958,1.958,0,0,0-.287-.14c-.036-.009.027,0-.091-.026h-.045a.476.476,0,0,0-.179.038,1.025,1.025,0,0,0-.158.086,6.834,6.834,0,0,0-.851.738l-.762.777-.731.788-.774.754-1.538,1.5-1.465.152,1.49-.058h.016l.013-.011,1.642-1.406.821-.7.79-.746.8-.717a6.478,6.478,0,0,1,.82-.626c.018-.01.032-.016.049-.024a1.744,1.744,0,0,1,.166.1c.14.088.285.2.427.3l.847.65.152.117.188-.087,1.391-.64,2.671.5L175.9,42.139l-.176.124-.008.2-.14,3.352-2.484,1.962-.1.077-.016.112-.264,1.91L169.35,52l-.066.042-.016.07-2,9.324L169.6,52.27l3.483-2.022.1-.057.022-.122.335-1.89,2.6-1.9.126-.092.014-.17.26-3.287,2.94-1.921-.266,2.29-.766,1.425-.1.185.08.171.7,1.5-3.567,4.6-.078.1.053.1.977,1.932-2.5,4.464,2.771-4.392.036-.058-.031-.068-.852-1.927,3.868-4.486.134-.154-.084-.206-.621-1.525.79-1.3.038-.062.016-.094.356-2.1,1.362,2.829-.773,3.828-.048.233.218.034,3.17.506,1.1,2.019Z" transform="translate(6.109 0.49)" fill="#ffbc8a"/>
      </g>
    </g>
  </g>
</svg>
