<svg xmlns="http://www.w3.org/2000/svg" xmlns:xlink="http://www.w3.org/1999/xlink" width="525" height="379" viewBox="0 0 525 379">
  <defs>
    <clipPath id="clip-path">
      <rect id="Rectángulo_48124" data-name="Rectángulo 48124" width="356.714" height="378.838" fill="none"/>
    </clipPath>
    <clipPath id="clip-path-3">
      <rect id="Rectángulo_48115" data-name="Rectángulo 48115" width="22.332" height="8.697" fill="none"/>
    </clipPath>
    <clipPath id="clip-path-4">
      <rect id="Rectángulo_48116" data-name="Rectángulo 48116" width="22.291" height="8.619" fill="none"/>
    </clipPath>
    <clipPath id="clip-path-5">
      <rect id="Rectángulo_48117" data-name="Rectángulo 48117" width="11.029" height="16.039" fill="none"/>
    </clipPath>
    <clipPath id="clip-path-6">
      <rect id="Rectángulo_48118" data-name="Rectángulo 48118" width="11.028" height="16.091" fill="none"/>
    </clipPath>
    <clipPath id="clip-path-7">
      <rect id="Rectángulo_48119" data-name="Rectángulo 48119" width="51.576" height="49.886" fill="none"/>
    </clipPath>
    <clipPath id="clip-path-8">
      <rect id="Rectángulo_48120" data-name="Rectángulo 48120" width="16.555" height="11.267" fill="none"/>
    </clipPath>
    <clipPath id="clip-path-9">
      <rect id="Rectángulo_48121" data-name="Rectángulo 48121" width="65.081" height="10.071" fill="none"/>
    </clipPath>
    <clipPath id="clip-path-10">
      <rect id="Rectángulo_48122" data-name="Rectángulo 48122" width="60.863" height="26.586" fill="none"/>
    </clipPath>
  </defs>
  <g id="Grupo_149927" data-name="Grupo 149927" transform="translate(-810 -14653)">
    <rect id="Rectángulo_48108" data-name="Rectángulo 48108" width="525" height="379" transform="translate(810 14653)" fill="#eef5ff"/>
    <g id="Grupo_149926" data-name="Grupo 149926" transform="translate(894 14653)" clip-path="url(#clip-path)">
      <g id="Grupo_149925" data-name="Grupo 149925">
        <g id="Grupo_149924" data-name="Grupo 149924" clip-path="url(#clip-path)">
          <path id="Trazado_208650" data-name="Trazado 208650" d="M292.923,190.191c-3.8-14.324-10.248-23.94-16.488-33.24-6.918-10.31-13.452-20.048-15.675-35.314-1.691-11.616-6.116-28.184-17.588-41.144-13.192-14.9-32.494-21.581-57.162-19.756C125.4,65.224,119.654,117.748,120,140.122c.225,14.545-4.691,25.91-9.9,37.943-7.021,16.232-14.281,33.016-9.316,58.929,4.092,21.356,13.615,31.959,21.268,40.478,10.1,11.248,17.4,19.374,6.054,45.849-14.073,32.838-13.462,56.678-12,67.523H267.067v-1.2c2.4-10.526,5.13-30.077-1.8-48.113-11.63-30.27-9.191-53.3,7.456-70.392,15.1-15.512,29.457-46.018,20.2-80.945" transform="translate(-19.693 -12.005)" fill="#8cbcfa"/>
          <path id="Trazado_208651" data-name="Trazado 208651" d="M190.4,57.067c20.979,0,37.619,6.75,49.392,20.05,11.472,12.96,15.9,29.528,17.588,41.144,2.222,15.265,8.757,25,15.675,35.314,6.24,9.3,12.691,18.915,16.488,33.24,9.256,34.927-5.1,65.433-20.2,80.945-16.648,17.1-19.087,40.123-7.456,70.392,6.93,18.037,4.2,37.586,1.8,48.113v1.2H112.729c-1.463-10.845-2.073-34.684,12-67.523,11.347-26.475,4.048-34.6-6.054-45.85-7.653-8.519-17.177-19.122-21.268-40.478-4.965-25.913,2.3-42.7,9.316-58.929,5.2-12.032,10.12-23.4,9.9-37.942-.345-22.375,5.4-74.9,66.012-79.384q3.979-.294,7.77-.294m0-13.623c-2.851,0-5.8.111-8.776.332-38.784,2.87-57.748,23.368-66.828,40.059-10.142,18.645-12.015,39.179-11.8,53.12.18,11.616-3.972,21.213-8.778,32.324-7.474,17.283-15.945,36.868-10.191,66.9,4.8,25.078,16.2,37.759,24.513,47.019,4.553,5.069,7.168,8.1,7.981,11.383,1.034,4.179-.418,10.906-4.313,20C96.948,350.184,97.3,374.849,99,387.467H277.629c2.58-12.07,4.895-33.583-3.027-54.2-12.689-33.024-3.509-47.777,4.5-56,9.935-10.2,17.92-23.933,22.487-38.661a99.972,99.972,0,0,0,1.122-55.278c-4.38-16.53-11.8-27.586-18.343-37.34s-11.73-17.48-13.507-29.685c-1.958-13.451-7.168-32.735-20.868-48.212a69.987,69.987,0,0,0-26.321-18.606A88.161,88.161,0,0,0,190.4,43.444" transform="translate(-16.312 -8.629)" fill="#d7e8fd"/>
          <path id="Trazado_208652" data-name="Trazado 208652" d="M179.564,357.4s-2.451,37.664-3.063,39.8c-1.225,2.939-5.513,20.035-4.594,52.624h16.847a528.836,528.836,0,0,0,7.351-52.891c3.676-28.583,5.43-35.494,5.43-35.494s-19.826-1.369-21.971-4.041" transform="translate(-34.119 -70.987)" fill="#1f283d"/>
          <path id="Trazado_208653" data-name="Trazado 208653" d="M255.235,357.4s2.451,37.664,3.063,39.8c1.226,2.939,5.513,20.035,4.594,52.624H246.045a528.847,528.847,0,0,1-7.351-52.891c-3.676-28.583-5.43-35.494-5.43-35.494s19.826-1.369,21.971-4.041" transform="translate(-46.331 -70.987)" fill="#1f283d"/>
          <g id="Grupo_149902" data-name="Grupo 149902" transform="translate(145.084 286.413)" opacity="0.5" style="mix-blend-mode: multiply;isolation: isolate">
            <g id="Grupo_149901" data-name="Grupo 149901">
              <g id="Grupo_149900" data-name="Grupo 149900" clip-path="url(#clip-path-3)">
                <path id="Trazado_208654" data-name="Trazado 208654" d="M181.043,362.855a92.151,92.151,0,0,0,21.408,3.242c.619-3.452.924-4.656.924-4.656s-19.826-1.369-21.971-4.041c0,0-.14,2.153-.361,5.455" transform="translate(-181.043 -357.4)" fill="#191e2b"/>
              </g>
            </g>
          </g>
          <g id="Grupo_149905" data-name="Grupo 149905" transform="translate(186.933 286.413)" opacity="0.5" style="mix-blend-mode: multiply;isolation: isolate">
            <g id="Grupo_149904" data-name="Grupo 149904">
              <g id="Grupo_149903" data-name="Grupo 149903" clip-path="url(#clip-path-4)">
                <path id="Trazado_208655" data-name="Trazado 208655" d="M255.235,357.4c-2.144,2.672-21.971,4.041-21.971,4.041s.3,1.184.91,4.578a89.226,89.226,0,0,0,21.382-3.765c-.2-2.96-.321-4.854-.321-4.854" transform="translate(-233.264 -357.4)" fill="#191e2b"/>
              </g>
            </g>
          </g>
          <path id="Trazado_208656" data-name="Trazado 208656" d="M236.734,287.262l-26.688,2.367-26.687-2.367s-7.42,29.262-12.852,53.837c9.31,5.61,30.067,7.48,35.076,6.411a112.824,112.824,0,0,0,3.08-12.822h2.766a112.822,112.822,0,0,0,3.08,12.822c5.009,1.069,25.765-.8,35.076-6.411-5.43-24.575-12.851-53.837-12.851-53.837" transform="translate(-33.866 -57.056)" fill="#067272"/>
          <g id="Grupo_149908" data-name="Grupo 149908" transform="translate(177.563 274.659)" opacity="0.6" style="mix-blend-mode: multiply;isolation: isolate">
            <g id="Grupo_149907" data-name="Grupo 149907">
              <g id="Grupo_149906" data-name="Grupo 149906" clip-path="url(#clip-path-5)">
                <path id="Trazado_208657" data-name="Trazado 208657" d="M221.572,345.705l11.029-2.972-5.514,4.808,3.653,11.231-6.088-.244-1.66-6.12Z" transform="translate(-221.572 -342.733)" fill="#067272"/>
              </g>
            </g>
          </g>
          <g id="Grupo_149911" data-name="Grupo 149911" transform="translate(163.74 274.659)" opacity="0.6" style="mix-blend-mode: multiply;isolation: isolate">
            <g id="Grupo_149910" data-name="Grupo 149910">
              <g id="Grupo_149909" data-name="Grupo 149909" clip-path="url(#clip-path-6)">
                <path id="Trazado_208658" data-name="Trazado 208658" d="M215.351,345.705l-11.029-2.972,5.514,4.808-3.653,11.231s2.443.079,3.256.042c.711-.031,2.832-.287,2.832-.287s1.37-4.786,1.757-6.4c.382-1.595,1.323-6.424,1.323-6.424" transform="translate(-204.323 -342.733)" fill="#067272"/>
              </g>
            </g>
          </g>
          <path id="Trazado_208659" data-name="Trazado 208659" d="M175.645,343.165c.49.194,1,.38,1.515.561,4.1-18.661,9.012-37.116,12.552-55.909l-1.6-.141c-3.528,18.648-8.39,36.968-12.466,55.489" transform="translate(-34.887 -57.138)" fill="#191e2b"/>
          <path id="Trazado_208660" data-name="Trazado 208660" d="M247.439,287.733c3.525,18.73,8.412,37.124,12.51,55.72.518-.192,1.019-.391,1.508-.6-4.069-18.445-8.907-36.691-12.417-55.266Z" transform="translate(-49.147 -57.122)" fill="#191e2b"/>
          <path id="Trazado_208661" data-name="Trazado 208661" d="M225.411,290.075c-.555,14.139,1.935,29.332-4.783,42.244.123-13.283.818-26.554.777-39.84a.8.8,0,0,0-1.6,0c.045,14.22-.764,28.422-.8,42.641h1.878c8.288-13.6,5.537-29.856,6.134-45.045a.683.683,0,0,0-.321-.635l-1.036.091a.764.764,0,0,0-.245.544" transform="translate(-43.498 -57.489)" fill="#191e2b"/>
          <path id="Trazado_208662" data-name="Trazado 208662" d="M203.329,103.828s-13.219-2.83-23.042,19.28c-8.6,19.357-6.184,60.384-4.247,69.485l67.542-2c8.188-39,1.351-102.986-40.252-86.761" transform="translate(-34.596 -20.109)" fill="#1f283d"/>
          <g id="Grupo_149914" data-name="Grupo 149914" transform="translate(150.527 95.585)" opacity="0.5" style="mix-blend-mode: multiply;isolation: isolate">
            <g id="Grupo_149913" data-name="Grupo 149913">
              <g id="Grupo_149912" data-name="Grupo 149912" clip-path="url(#clip-path-7)">
                <path id="Trazado_208663" data-name="Trazado 208663" d="M232.27,141.914c-1.116-20.235-13.763-22.639-13.763-22.639H208.464s-12.647,2.4-13.762,22.639c-7.626-1.4-10.274,12.167-.744,12.822.744,4.608,6.7,14.425,19.528,14.425s18.784-9.817,19.528-14.425c10.2-1.211,6.881-14.224-.744-12.822" transform="translate(-187.835 -119.275)" fill="#191e2b"/>
              </g>
            </g>
          </g>
          <path id="Trazado_208664" data-name="Trazado 208664" d="M224.842,175.508H210.076s.536,9.054-2.068,10.657a13.149,13.149,0,0,0,18.9,0c-2.6-1.6-2.068-10.657-2.068-10.657" transform="translate(-41.315 -34.86)" fill="#ffd4a2"/>
          <path id="Trazado_208665" data-name="Trazado 208665" d="M210.587,175.508s.031,2.764.042,3.585a22.592,22.592,0,0,0,14.683.021c.01-.834.042-3.605.042-3.605Z" transform="translate(-41.827 -34.86)" fill="#ffa57a"/>
          <path id="Trazado_208666" data-name="Trazado 208666" d="M232.27,137.445c-1.116-20.235-13.763-22.639-13.763-22.639H208.464s-12.647,2.4-13.762,22.639c-7.626-1.4-10.274,12.167-.744,12.822.744,4.608,6.7,14.425,19.528,14.425s18.784-9.817,19.528-14.425c10.2-1.211,6.881-14.224-.744-12.822" transform="translate(-37.308 -22.803)" fill="#ffd4a2"/>
          <path id="Trazado_208667" data-name="Trazado 208667" d="M195.938,136.748s5.82,1.344,11.367-17.889c2.55,7.079,14.766,19.768,26.2,17.889,6.881-7.613,2.232-25.243-13.391-25.444s-31.616,4.608-24.177,25.444" transform="translate(-38.544 -22.106)" fill="#1f283d"/>
          <path id="Trazado_208668" data-name="Trazado 208668" d="M236.933,196.442c-5.343-2.8-16.661-5.209-16.661-5.209-3.439,3.339-13.8,5.476-13.8,5.476v0s-10.362-2.136-13.8-5.476c0,0-11.319,2.4-16.661,5.209S153.1,228.9,152.5,230.7a24.956,24.956,0,0,0,19.233,14.425c4.007-4.408,8.214-9.617,8.214-9.617s-.4,27.848-1.2,32.055c2.4,2.4,11.152,5.007,27.725,5.007v0c17.754,0,25.32-2.6,27.725-5.009-.8-4.207-1.2-32.055-1.2-32.055s4.207,5.209,8.214,9.617A25.754,25.754,0,0,0,260.44,230.7c-.6-1.8-18.165-31.454-23.508-34.259" transform="translate(-30.29 -37.983)" fill="#f97956"/>
          <path id="Trazado_208669" data-name="Trazado 208669" d="M234.007,196.054s-4.6,7.222-18.13,5.219c3.765,2.8,15.992,1.717,18.13-5.219" transform="translate(-42.878 -38.94)" fill="#ce5241"/>
          <path id="Trazado_208670" data-name="Trazado 208670" d="M185.442,241.949s.868-13.013,0-18.294c-.735,3.268-1.67,7.676-1.67,7.676l-3.606-3.339s3.907,9.3,4.534,14.868Z" transform="translate(-35.785 -44.423)" fill="#ce5241"/>
          <path id="Trazado_208671" data-name="Trazado 208671" d="M181.261,197.733s4.072,5.567,3.739,15.493c-3.874-11.219-6.051-13.511-6.051-13.511a8.35,8.35,0,0,1,2.312-1.982" transform="translate(-35.543 -39.274)" fill="#ce5241"/>
          <path id="Trazado_208672" data-name="Trazado 208672" d="M252.891,241.949s-.868-13.013,0-18.294c.735,3.268,1.669,7.676,1.669,7.676l3.606-3.339s-3.906,9.3-4.533,14.868Z" transform="translate(-50.153 -44.423)" fill="#e5624c"/>
          <path id="Trazado_208673" data-name="Trazado 208673" d="M257,197.733s-4.072,5.567-3.739,15.493c3.873-11.219,6.025-13.481,6.025-13.481A7.966,7.966,0,0,0,257,197.733" transform="translate(-50.299 -39.274)" fill="#ce5241"/>
          <path id="Trazado_208674" data-name="Trazado 208674" d="M224.737,186.8c-2.878,4.46-13.754,4.46-16.632,0,0,0-2.578,1.651-5.483,3.554-.15.939,1,7.663,13.765,7.663,12.33,0,14.04-6.316,13.833-7.663" transform="translate(-40.243 -37.102)" fill="#ce5241"/>
          <path id="Trazado_208675" data-name="Trazado 208675" d="M228.453,188.491c1.751,1.965,3.488,3.933,5.166,5.959a7.626,7.626,0,0,0,.527-.616c-1.651-1.99-3.358-3.924-5.078-5.856a6.532,6.532,0,0,1-.615.513" transform="translate(-45.376 -37.336)" fill="#f97956"/>
          <path id="Trazado_208676" data-name="Trazado 208676" d="M226.341,198.141c.269-.058.529-.12.781-.186-.757-2.574-1.373-5.185-2.091-7.769-.252.079-.51.149-.773.214.716,2.576,1.331,5.176,2.083,7.741" transform="translate(-44.542 -37.775)" fill="#f97956"/>
          <path id="Trazado_208677" data-name="Trazado 208677" d="M220.156,198.832c.27,0,.542,0,.8-.013-.056-2.628-.168-5.253-.216-7.882-.266.015-.533.025-.8.026.047,2.624.159,5.245.215,7.868" transform="translate(-43.685 -37.924)" fill="#f97956"/>
          <path id="Trazado_208678" data-name="Trazado 208678" d="M211.662,197.956q.377.1.78.191,1.269-3.827,2.6-7.636c-.264-.057-.522-.124-.778-.2q-1.336,3.808-2.6,7.641" transform="translate(-42.04 -37.801)" fill="#f97956"/>
          <path id="Trazado_208679" data-name="Trazado 208679" d="M205.37,195.135c1.67-2.1,3.387-4.159,5.208-6.128a7.392,7.392,0,0,1-.679-.444c-1.783,1.935-3.466,3.956-5.1,6.016.173.186.366.372.575.556" transform="translate(-40.677 -37.453)" fill="#f97956"/>
          <path id="Trazado_208680" data-name="Trazado 208680" d="M260.54,251.69s13.2-3.041,19.835-14.789L279.4,235.2s-3.945,9.7-19.828,15.381Z" transform="translate(-51.556 -46.715)" fill="#191e2b"/>
          <path id="Trazado_208681" data-name="Trazado 208681" d="M155.125,235.182s3.224,13.306,19.092,16.108l.848-.974s-14.325-2.669-18.865-16.972Z" transform="translate(-30.811 -46.347)" fill="#191e2b"/>
          <path id="Trazado_208682" data-name="Trazado 208682" d="M194.848,148.092c-.647-1.376-2.119-1.186-3.278-.642-.467.22-.06.91.4.692,1.244-.584,2.057-.309,2.415,1.028a6.433,6.433,0,0,1,.159.823c-1.455-.329-3.019,1.614-1.958,2.895.33.4.894-.172.567-.567-.587-.71.691-1.9,1.418-1.475a.47.47,0,0,0,.051.017c.027.516.032,1.035.052,1.54s.821.517.8,0a11.08,11.08,0,0,0-.632-4.311" transform="translate(-38.009 -29.205)" fill="#ffa57a"/>
          <path id="Trazado_208683" data-name="Trazado 208683" d="M245.208,148.092c.647-1.376,2.12-1.186,3.278-.642.467.22.059.91-.406.692-1.243-.584-2.056-.309-2.415,1.028a6.572,6.572,0,0,0-.159.823c1.454-.329,3.019,1.614,1.958,2.895-.33.4-.894-.172-.567-.567.588-.71-.691-1.9-1.417-1.475a.467.467,0,0,1-.05.017c-.028.516-.033,1.035-.052,1.54s-.821.517-.8,0a11.08,11.08,0,0,1,.631-4.311" transform="translate(-48.578 -29.205)" fill="#ffa57a"/>
          <path id="Trazado_208684" data-name="Trazado 208684" d="M208.5,147.208v5.61a.8.8,0,0,0,1.6,0v-5.61a.8.8,0,0,0-1.6,0" transform="translate(-41.412 -29.085)" fill="#191e2b"/>
          <path id="Trazado_208685" data-name="Trazado 208685" d="M231.834,146.541v5.877a.8.8,0,0,0,1.6,0v-5.877a.8.8,0,0,0-1.6,0" transform="translate(-46.047 -28.952)" fill="#191e2b"/>
          <path id="Trazado_208686" data-name="Trazado 208686" d="M211.019,140.746a2.322,2.322,0,0,0-3.272.3c-.325.4.239.966.567.567a1.531,1.531,0,0,1,2.137-.3c.382.346.95-.219.567-.567" transform="translate(-41.243 -27.848)" fill="#191e2b"/>
          <path id="Trazado_208687" data-name="Trazado 208687" d="M230.812,141.771c.765-.854,2.14-.428,2.838.3.358.373.924-.193.567-.566-.994-1.036-2.915-1.482-3.973-.3-.344.383.22.953.567.566" transform="translate(-45.71 -27.906)" fill="#191e2b"/>
          <path id="Trazado_208688" data-name="Trazado 208688" d="M226.572,161.514s-6.826-3.044-13.652,0c1.723,6.627,10.868,7.289,13.652,0" transform="translate(-42.29 -31.811)" fill="#fff"/>
          <path id="Trazado_208689" data-name="Trazado 208689" d="M153.25,245.487s-9.183,11.417-7.313,17.294,26.4,31.788,26.4,31.788-4.5,1.069-1.562,6.679c-2.671-.8-2.925-4.541-5.2-3.206s5.121,12.5,7.566,10.389,9.941-15.2,7.8-19.472-15.362-27.781-15.362-27.781l2.943-5.647a35.269,35.269,0,0,1-15.27-10.044" transform="translate(-28.936 -48.759)" fill="#ffd4a2"/>
          <g id="Grupo_149917" data-name="Grupo 149917" transform="translate(123.029 196.533)" opacity="0.4">
            <g id="Grupo_149916" data-name="Grupo 149916">
              <g id="Grupo_149915" data-name="Grupo 149915" clip-path="url(#clip-path-8)">
                <path id="Trazado_208690" data-name="Trazado 208690" d="M153.522,247.147s6.443,7.454,16.019,9.365l.536-1.03S160,251.758,154.894,245.244a22.779,22.779,0,0,0-1.372,1.9" transform="translate(-153.522 -245.244)" fill="#ffa57a"/>
              </g>
            </g>
          </g>
          <path id="Trazado_208691" data-name="Trazado 208691" d="M169.019,264.4h-5.877a.8.8,0,0,0,0,1.6h5.877a.8.8,0,0,0,0-1.6" transform="translate(-32.25 -52.515)" fill="#ffa57a"/>
          <path id="Trazado_208692" data-name="Trazado 208692" d="M290.8,212.144c-5.61-5.877-36.062-6.411-36.062-6.411s-30.452.535-36.062,6.411c-2.221,2.327-1.87,52.768,2.939,61.111s25.644,25.9,33.123,25.9,28.315-17.557,33.123-25.9,5.159-58.784,2.939-61.111" transform="translate(-43.172 -40.863)" fill="#191e2b"/>
          <path id="Trazado_208693" data-name="Trazado 208693" d="M287.58,216.709c-4.936-5.171-31.731-5.641-31.731-5.641s-26.795.47-31.731,5.641c-1.955,2.047-1.646,46.431,2.585,53.772s22.564,22.79,29.145,22.79,24.915-15.449,29.145-22.79,4.54-51.725,2.586-53.772" transform="translate(-44.285 -41.922)" fill="#fff"/>
          <g id="Grupo_149920" data-name="Grupo 149920" transform="translate(179.032 169.145)" opacity="0.8" style="mix-blend-mode: multiply;isolation: isolate">
            <g id="Grupo_149919" data-name="Grupo 149919">
              <g id="Grupo_149918" data-name="Grupo 149918" clip-path="url(#clip-path-9)">
                <path id="Trazado_208694" data-name="Trazado 208694" d="M288.486,221.138c-.194-2.464-.463-4.077-.8-4.43-4.936-5.171-31.731-5.641-31.731-5.641h-.017s-26.8.47-31.731,5.641c-.337.353-.607,1.966-.8,4.43.042-.361,1.234-6.67,32.541-6.73,31.306.06,32.5,6.369,32.54,6.73" transform="translate(-223.405 -211.067)" fill="#b6c6c5"/>
              </g>
            </g>
          </g>
          <g id="Grupo_149923" data-name="Grupo 149923" transform="translate(181.133 224.761)" opacity="0.8" style="mix-blend-mode: multiply;isolation: isolate">
            <g id="Grupo_149922" data-name="Grupo 149922">
              <g id="Grupo_149921" data-name="Grupo 149921" clip-path="url(#clip-path-10)">
                <path id="Trazado_208695" data-name="Trazado 208695" d="M285.6,284.265a14.679,14.679,0,0,0,1.286-3.8s-11.1,16.774-29.983,16.774-30.88-16.774-30.88-16.774a14.677,14.677,0,0,0,1.286,3.8c4.23,7.341,22.564,22.789,29.145,22.789s24.915-15.448,29.145-22.789" transform="translate(-226.026 -280.468)" fill="#b6c6c5"/>
              </g>
            </g>
          </g>
          <path id="Trazado_208696" data-name="Trazado 208696" d="M279.549,247.456H262.826V230.733h-6.411v16.722H239.692v6.411h16.723V270.59h6.411V253.867h16.723Z" transform="translate(-47.608 -45.828)" fill="#f97956"/>
          <path id="Trazado_208697" data-name="Trazado 208697" d="M84.058,54.358a8.646,8.646,0,1,1-8.647-8.647,8.647,8.647,0,0,1,8.647,8.647" transform="translate(-13.261 -9.079)" fill="#f97956"/>
          <path id="Trazado_208698" data-name="Trazado 208698" d="M68.3,56.877c-1.935.223-3.871.417-5.81.6-1.019.1-1.029,1.7,0,1.6,1.939-.184,3.875-.378,5.81-.6,1.015-.117,1.026-1.721,0-1.6" transform="translate(-12.259 -11.296)" fill="#1f283d"/>
          <path id="Trazado_208699" data-name="Trazado 208699" d="M75.905,47.936c-.724-2.349-.68-4.864-1.4-7.212-.3-.985-1.851-.565-1.547.426.723,2.349.68,4.864,1.4,7.212.3.985,1.85.565,1.547-.426" transform="translate(-14.483 -7.977)" fill="#1f283d"/>
          <path id="Trazado_208700" data-name="Trazado 208700" d="M86.07,44.039a26.99,26.99,0,0,1-3.376,3.6A14.861,14.861,0,0,0,80.53,49.86c-.6.844.79,1.644,1.384.809A16.827,16.827,0,0,1,84.3,48.34a26.4,26.4,0,0,0,3.157-3.492c.621-.828-.772-1.625-1.384-.809" transform="translate(-15.966 -8.679)" fill="#1f283d"/>
          <path id="Trazado_208701" data-name="Trazado 208701" d="M83.277,59.2c2.109.684,4.287,1.162,6.411,1.8a.8.8,0,0,0,.426-1.546c-2.124-.641-4.3-1.12-6.411-1.8-.986-.319-1.4,1.229-.426,1.546" transform="translate(-16.43 -11.443)" fill="#1f283d"/>
          <path id="Trazado_208702" data-name="Trazado 208702" d="M78.962,64.4c.386,1.74.773,3.48,1.2,5.209a.8.8,0,0,0,1.546-.426c-.429-1.73-.816-3.47-1.2-5.209-.224-1.009-1.769-.581-1.546.426" transform="translate(-15.679 -12.591)" fill="#1f283d"/>
          <path id="Trazado_208703" data-name="Trazado 208703" d="M71.083,61.351c-1.214,1.767-2.374,3.564-3.549,5.356-.569.868.82,1.67,1.383.809,1.175-1.793,2.335-3.59,3.549-5.356.587-.855-.8-1.656-1.384-.809" transform="translate(-13.387 -12.114)" fill="#1f283d"/>
          <path id="Trazado_208704" data-name="Trazado 208704" d="M71.352,51.286A54.054,54.054,0,0,0,64.207,48.4c-.97-.362-1.386,1.188-.426,1.546a51.033,51.033,0,0,1,6.763,2.724c.907.5,1.716-.888.809-1.384" transform="translate(-12.56 -9.603)" fill="#1f283d"/>
          <path id="Trazado_208705" data-name="Trazado 208705" d="M65,132.583c-4.755-4.017-6.756-9.467-4.47-12.172s7.991-1.64,12.746,2.379,6.756,9.467,4.47,12.172S69.752,136.6,65,132.583" transform="translate(-11.834 -23.619)" fill="#4d4d67"/>
          <path id="Trazado_208706" data-name="Trazado 208706" d="M77.393,136.277a25.023,25.023,0,0,0,4.23,3.851c.835.606,1.833-.648,1-1.256a23.3,23.3,0,0,1-3.941-3.551c-.674-.777-1.963.175-1.286.956" transform="translate(-15.334 -26.82)" fill="#1f283d"/>
          <path id="Trazado_208707" data-name="Trazado 208707" d="M84.708,130.49c.992-.24.8-1.834-.2-1.59-1.963.475-3.947.853-5.942,1.172-1.018.162-.821,1.753.2,1.59,2-.318,3.979-.7,5.943-1.172" transform="translate(-15.471 -25.597)" fill="#1f283d"/>
          <path id="Trazado_208708" data-name="Trazado 208708" d="M78,118.841c-1.156,1.548-2.669,2.766-3.963,4.192-.7.767.566,1.757,1.256,1,1.293-1.426,2.806-2.645,3.962-4.193.619-.828-.637-1.826-1.255-1" transform="translate(-14.664 -23.542)" fill="#1f283d"/>
          <path id="Trazado_208709" data-name="Trazado 208709" d="M69.548,119.942c.172-1.968.467-3.912.461-5.892,0-1.031-1.592-.819-1.59.2,0,1.835-.3,3.651-.459,5.475-.091,1.025,1.5,1.247,1.588.214" transform="translate(-13.498 -22.519)" fill="#1f283d"/>
          <path id="Trazado_208710" data-name="Trazado 208710" d="M62.337,121.045c-1.646-1.16-3.074-2.59-4.719-3.751-.842-.594-1.842.66-1,1.256,1.644,1.16,3.072,2.59,4.718,3.75.842.595,1.842-.66,1-1.255" transform="translate(-11.183 -23.266)" fill="#1f283d"/>
          <path id="Trazado_208711" data-name="Trazado 208711" d="M62.973,128.675c1.031-.068.826-1.659-.2-1.59-2.3.152-4.583.462-6.865.779a.8.8,0,0,0,.2,1.59c2.281-.317,4.563-.627,6.864-.779" transform="translate(-10.97 -25.241)" fill="#1f283d"/>
          <path id="Trazado_208712" data-name="Trazado 208712" d="M62.419,137.368c1.694-1.478,3.135-3.215,4.829-4.693.776-.677-.178-1.966-.957-1.286-1.694,1.478-3.135,3.215-4.828,4.694-.776.676.178,1.966.956,1.285" transform="translate(-12.151 -26.058)" fill="#1f283d"/>
          <path id="Trazado_208713" data-name="Trazado 208713" d="M73.051,142.361c.136-2.483.315-5-.567-7.377-.361-.97-1.846-.369-1.487.6.781,2.1.586,4.368.465,6.564-.056,1.024,1.532,1.249,1.589.214" transform="translate(-14.09 -26.713)" fill="#1f283d"/>
          <path id="Trazado_208714" data-name="Trazado 208714" d="M402.293,258.963c-7.6-10.627-15.847-17.755-18.408-15.922s1.527,11.934,9.133,22.56,15.845,17.755,18.408,15.921-1.527-11.933-9.133-22.56" transform="translate(-76.096 -48.216)" fill="#ffbb63"/>
          <path id="Trazado_208715" data-name="Trazado 208715" d="M408.124,259.536a19.711,19.711,0,0,1-3.706,2.644.8.8,0,0,0,.769,1.406,21.593,21.593,0,0,0,4.037-2.884c.768-.7-.337-1.858-1.1-1.166" transform="translate(-80.246 -51.507)" fill="#1f283d"/>
          <path id="Trazado_208716" data-name="Trazado 208716" d="M399.168,256.079c-.71.748.39,1.915,1.1,1.165a11.352,11.352,0,0,1,2.711-2.1.8.8,0,0,0-.769-1.406,12.791,12.791,0,0,0-3.043,2.34" transform="translate(-79.237 -50.376)" fill="#1f283d"/>
          <path id="Trazado_208717" data-name="Trazado 208717" d="M395.855,251.744a25.2,25.2,0,0,0,3.2-3.994c.591-.852-.777-1.689-1.363-.843a23.143,23.143,0,0,1-2.939,3.672.8.8,0,0,0,1.1,1.165" transform="translate(-78.357 -48.971)" fill="#1f283d"/>
          <path id="Trazado_208718" data-name="Trazado 208718" d="M390.644,246.078a20.824,20.824,0,0,1,.837-3.708.8.8,0,0,0-1.539-.45,23.167,23.167,0,0,0-.9,4.132c-.1,1.028,1.5,1.048,1.6.026" transform="translate(-77.271 -47.94)" fill="#1f283d"/>
          <path id="Trazado_208719" data-name="Trazado 208719" d="M384.6,246.451a12.124,12.124,0,0,0-3.3-2.721c-.9-.5-1.749.869-.843,1.364a10.867,10.867,0,0,1,2.978,2.457c.676.787,1.836-.321,1.165-1.1" transform="translate(-75.49 -48.389)" fill="#1f283d"/>
          <path id="Trazado_208720" data-name="Trazado 208720" d="M385.851,253.216c1.015-.1,1.055-1.706.026-1.6a28.9,28.9,0,0,0-4.321.767.8.8,0,0,0,.388,1.555,26.091,26.091,0,0,1,3.908-.72" transform="translate(-75.669 -49.975)" fill="#1f283d"/>
          <path id="Trazado_208721" data-name="Trazado 208721" d="M389.678,259.43a.8.8,0,0,0,.034-1.134.82.82,0,0,0-1.134-.031,9.427,9.427,0,0,1-2.625,1.436c-.977.317-.6,1.877.388,1.555a11.748,11.748,0,0,0,3.338-1.826" transform="translate(-76.545 -51.255)" fill="#1f283d"/>
          <path id="Trazado_208722" data-name="Trazado 208722" d="M390.192,268.67a46.045,46.045,0,0,1,4.308-2.358.8.8,0,0,0-.769-1.406,45.97,45.97,0,0,0-4.309,2.358c-.845.579-.083,1.99.769,1.406" transform="translate(-77.275 -52.595)" fill="#1f283d"/>
          <path id="Trazado_208723" data-name="Trazado 208723" d="M399.144,273.39c.605-.841-.764-1.675-1.363-.842a4.95,4.95,0,0,1-1.586,1.394.8.8,0,0,0,.769,1.406,6.773,6.773,0,0,0,2.18-1.957" transform="translate(-78.613 -54.065)" fill="#1f283d"/>
          <path id="Trazado_208724" data-name="Trazado 208724" d="M402.472,281.582c.887-1.305,1.6-2.723,2.557-3.984.627-.824-.744-1.657-1.363-.841-.955,1.258-1.671,2.676-2.557,3.982-.583.858.785,1.694,1.363.843" transform="translate(-79.64 -54.903)" fill="#1f283d"/>
          <path id="Trazado_208725" data-name="Trazado 208725" d="M410.581,288.749a62.732,62.732,0,0,1,.006-6.679.8.8,0,0,0-1.6-.025,62.927,62.927,0,0,0-.007,6.678c.069,1.022,1.672,1.059,1.6.026" transform="translate(-81.214 -55.869)" fill="#1f283d"/>
          <path id="Trazado_208726" data-name="Trazado 208726" d="M415.15,286.08a16.972,16.972,0,0,1,3.412,3.93.8.8,0,0,0,1.406-.77,18.3,18.3,0,0,0-3.653-4.26c-.754-.7-1.923.4-1.165,1.1" transform="translate(-82.409 -56.558)" fill="#1f283d"/>
          <path id="Trazado_208727" data-name="Trazado 208727" d="M414.307,279.752a.8.8,0,0,0-.45,1.538,21.623,21.623,0,0,0,5.639.509.8.8,0,0,0,.026-1.6,19.98,19.98,0,0,1-5.215-.444" transform="translate(-82.089 -55.558)" fill="#1f283d"/>
          <path id="Trazado_208728" data-name="Trazado 208728" d="M412.849,274.252a.8.8,0,0,0-.026,1.6,7.792,7.792,0,0,0,3.743-1.068.8.8,0,0,0-.769-1.406,6.137,6.137,0,0,1-2.948.871" transform="translate(-81.844 -54.279)" fill="#1f283d"/>
          <path id="Trazado_208729" data-name="Trazado 208729" d="M409.01,268.817c-.8.656.307,1.816,1.1,1.166a16.315,16.315,0,0,1,2.561-1.587.8.8,0,0,0-.769-1.406,18.4,18.4,0,0,0-2.892,1.827" transform="translate(-81.183 -53.009)" fill="#1f283d"/>
          <path id="Trazado_208730" data-name="Trazado 208730" d="M404.365,268.568c-.718-1.4-1.985-2.312-2.725-3.725-.695-1.333-1.027-2.72-2.114-3.79-.949-.931-3.506-1.455-3.969-2.773a17.14,17.14,0,0,0-.9-3.133.8.8,0,0,0-1.406.77c.582,1.027.517,2.081.894,3.153.313.89,1.555,1.506,2.3,1.94a8.822,8.822,0,0,1,3.795,4.6c.689,1.486,2,2.311,2.724,3.725.474.92,1.879.149,1.406-.769" transform="translate(-78.086 -50.598)" fill="#1f283d"/>
          <path id="Trazado_208731" data-name="Trazado 208731" d="M53.881,389.753l-4.4-1.931-8.025,18.31-16.214-13-3.008,3.751,18.34,14.705,1.188-1.483,2.687,1.177Z" transform="translate(-4.415 -77.03)" fill="#067272"/>
          <path id="Trazado_208732" data-name="Trazado 208732" d="M28.909,397.844a6.679,6.679,0,1,1-3.436-8.8,6.679,6.679,0,0,1,3.436,8.8" transform="translate(-3.2 -77.161)" fill="#008f73"/>
          <path id="Trazado_208733" data-name="Trazado 208733" d="M52.408,416.956a8.749,8.749,0,1,1-4.5-11.525,8.751,8.751,0,0,1,4.5,11.525" transform="translate(-7.079 -80.38)" fill="#008f73"/>
          <path id="Trazado_208734" data-name="Trazado 208734" d="M63.082,389.97a6.144,6.144,0,1,1-3.161-8.094,6.142,6.142,0,0,1,3.161,8.094" transform="translate(-10.191 -75.746)" fill="#008f73"/>
          <path id="Trazado_208735" data-name="Trazado 208735" d="M17.99,395.85a32.656,32.656,0,0,1-4.809.137c-1.02-.03-1.265,1.555-.231,1.587a35.547,35.547,0,0,0,5.226-.131.8.8,0,0,0-.186-1.592" transform="translate(-2.44 -78.623)" fill="#1f283d"/>
          <path id="Trazado_208736" data-name="Trazado 208736" d="M21.886,390.553c-.781-1.462-1.71-2.838-2.49-4.3-.481-.9-1.979-.329-1.493.582.779,1.463,1.71,2.837,2.49,4.3.481.9,1.979.329,1.493-.583" transform="translate(-3.537 -76.628)" fill="#1f283d"/>
          <path id="Trazado_208737" data-name="Trazado 208737" d="M28.741,386.831q-1.125,2.57-2.252,5.138a.8.8,0,0,0,1.468.644q1.125-2.569,2.251-5.138a.8.8,0,0,0-1.467-.643" transform="translate(-5.247 -76.74)" fill="#1f283d"/>
          <path id="Trazado_208738" data-name="Trazado 208738" d="M34.61,396.205c-1.623.2-3.257.286-4.879.486a.8.8,0,0,0,.185,1.592c1.623-.2,3.256-.286,4.88-.486a.8.8,0,0,0-.186-1.592" transform="translate(-5.77 -78.693)" fill="#1f283d"/>
          <path id="Trazado_208739" data-name="Trazado 208739" d="M20.415,400.812a12.688,12.688,0,0,0-2.561,3.776.8.8,0,0,0,1.467.644,11.408,11.408,0,0,1,2.338-3.41c.729-.734-.525-1.736-1.245-1.011" transform="translate(-3.531 -79.56)" fill="#1f283d"/>
          <path id="Trazado_208740" data-name="Trazado 208740" d="M27.386,401.565c-.052-1.032-1.644-.843-1.592.186a25.94,25.94,0,0,0,.456,4.283c.221,1,1.816.825,1.592-.184a25.969,25.969,0,0,1-.456-4.284" transform="translate(-5.123 -79.623)" fill="#1f283d"/>
          <path id="Trazado_208741" data-name="Trazado 208741" d="M39.263,418.929c-1.568,1.293-3.2,2.5-4.836,3.713a.8.8,0,0,0,.942,1.3c1.632-1.211,3.268-2.419,4.836-3.713.8-.656-.144-1.955-.942-1.3" transform="translate(-6.774 -83.172)" fill="#1f283d"/>
          <path id="Trazado_208742" data-name="Trazado 208742" d="M49.281,421.561c.035-1.02-1.55-1.265-1.586-.23a14.528,14.528,0,0,0,1.571,6.908c.449.924,1.945.349,1.493-.583a12.978,12.978,0,0,1-1.479-6.1" transform="translate(-9.472 -83.553)" fill="#1f283d"/>
          <path id="Trazado_208743" data-name="Trazado 208743" d="M60.114,417.02c-2.577-.56-5.162-1.081-7.738-1.642-1.011-.218-1.237,1.368-.231,1.588,2.576.56,5.162,1.079,7.738,1.64,1.01.22,1.236-1.368.231-1.587" transform="translate(-10.228 -82.499)" fill="#1f283d"/>
          <path id="Trazado_208744" data-name="Trazado 208744" d="M56.43,407.325c.87-.563-.079-1.856-.942-1.3a35.519,35.519,0,0,0-4.836,3.715c-.752.693.184,2,.942,1.3a35.611,35.611,0,0,1,4.836-3.715" transform="translate(-10.006 -80.618)" fill="#1f283d"/>
          <path id="Trazado_208745" data-name="Trazado 208745" d="M43.9,402.777a49.075,49.075,0,0,1,.41,5.721c.048,1.032,1.64.842,1.592-.187a49.059,49.059,0,0,0-.41-5.719c-.167-1.016-1.761-.838-1.592.185" transform="translate(-8.718 -79.828)" fill="#1f283d"/>
          <path id="Trazado_208746" data-name="Trazado 208746" d="M39.581,411.374c-1.875-.234-3.769-.2-5.644-.432a.8.8,0,0,0-.23,1.585c1.875.234,3.768.2,5.643.433a.8.8,0,0,0,.231-1.586" transform="translate(-6.563 -81.62)" fill="#1f283d"/>
          <path id="Trazado_208747" data-name="Trazado 208747" d="M61.578,379.351q-.965,2.2-1.931,4.4a.8.8,0,0,0,1.468.643l1.931-4.4a.8.8,0,0,0-1.468-.644" transform="translate(-11.833 -75.255)" fill="#1f283d"/>
          <path id="Trazado_208748" data-name="Trazado 208748" d="M55.851,392.478l-1.822,4.16a.8.8,0,0,0,1.467.643l1.824-4.16a.8.8,0,0,0-1.469-.643" transform="translate(-10.717 -77.862)" fill="#1f283d"/>
          <path id="Trazado_208749" data-name="Trazado 208749" d="M62.123,391.167c1.9.8,3.939,1.182,5.842,1.977a.8.8,0,0,0,.643-1.468c-1.9-.794-3.939-1.181-5.841-1.977a.8.8,0,0,0-.644,1.468" transform="translate(-12.246 -77.389)" fill="#1f283d"/>
          <path id="Trazado_208750" data-name="Trazado 208750" d="M48.406,387.3c1.485.349,2.887.983,4.372,1.334,1.006.237,1.23-1.351.231-1.587-1.485-.349-2.887-.983-4.373-1.334-1.006-.236-1.23,1.352-.23,1.587" transform="translate(-9.486 -76.606)" fill="#1f283d"/>
          <path id="Trazado_208751" data-name="Trazado 208751" d="M54.869,384.463c.564.87,1.856-.079,1.3-.942a7.313,7.313,0,0,1-1.3-2.3c-.207-1-1.8-.829-1.592.186a9.12,9.12,0,0,0,1.6,3.056" transform="translate(-10.576 -75.585)" fill="#1f283d"/>
          <path id="Trazado_208752" data-name="Trazado 208752" d="M59.318,395.367a5.142,5.142,0,0,1,1.562,2.21.8.8,0,0,0,1.492-.583,6.764,6.764,0,0,0-2.044-2.871.8.8,0,0,0-1.01,1.244" transform="translate(-11.723 -78.245)" fill="#1f283d"/>
          <path id="Trazado_208753" data-name="Trazado 208753" d="M64.075,387.255a7.789,7.789,0,0,1,2.544-1.2c1.006-.2.831-1.793-.186-1.591a9.794,9.794,0,0,0-3.3,1.492c-.875.555.076,1.847.943,1.3" transform="translate(-12.47 -76.36)" fill="#1f283d"/>
          <path id="Trazado_208754" data-name="Trazado 208754" d="M51.817,390.921,49,392.02a.8.8,0,0,0,.583,1.492l2.815-1.1a.8.8,0,0,0-.583-1.491" transform="translate(-9.635 -77.633)" fill="#1f283d"/>
          <path id="Trazado_208755" data-name="Trazado 208755" d="M367.621,61.021c-4.319-4.483-5.752-10.109-3.2-12.565s8.118-.814,12.436,3.669,5.751,10.11,3.2,12.566-8.119.813-12.437-3.67" transform="translate(-72.13 -9.398)" fill="#4d4d67"/>
          <path id="Trazado_208756" data-name="Trazado 208756" d="M379.672,65.876a25.069,25.069,0,0,0,3.815,4.263c.769.688,1.89-.458,1.12-1.147a23.261,23.261,0,0,1-3.557-3.936c-.591-.842-1.971-.026-1.378.82" transform="translate(-75.382 -12.851)" fill="#191e2b"/>
          <path id="Trazado_208757" data-name="Trazado 208757" d="M387.51,61.018c1.011-.137.987-1.741-.038-1.6-2,.272-4.015.445-6.032.558-1.027.057-1,1.66.04,1.6,2.015-.112,4.028-.286,6.03-.558" transform="translate(-75.612 -11.799)" fill="#191e2b"/>
          <path id="Trazado_208758" data-name="Trazado 208758" d="M381.952,48.69c-1.309,1.422-2.938,2.479-4.371,3.765-.771.692.381,1.807,1.147,1.12,1.433-1.285,3.061-2.342,4.371-3.764.7-.761-.446-1.882-1.147-1.121" transform="translate(-74.945 -9.621)" fill="#191e2b"/>
          <path id="Trazado_208759" data-name="Trazado 208759" d="M373.4,48.836c.373-1.941.865-3.843,1.062-5.813.1-1.026-1.5-.978-1.6.038-.182,1.827-.671,3.6-1.017,5.4-.195,1.011,1.363,1.394,1.558.376" transform="translate(-73.851 -8.397)" fill="#191e2b"/>
          <path id="Trazado_208760" data-name="Trazado 208760" d="M366.252,49.181c-1.518-1.323-2.791-2.891-4.309-4.214-.777-.677-1.9.469-1.12,1.147,1.517,1.322,2.79,2.891,4.309,4.214.776.677,1.9-.468,1.12-1.147" transform="translate(-71.615 -8.89)" fill="#191e2b"/>
          <path id="Trazado_208761" data-name="Trazado 208761" d="M366.086,57c1.032.037.991-1.565-.039-1.6-2.3-.083-4.606-.01-6.908.073a.8.8,0,0,0,.039,1.6c2.3-.082,4.6-.156,6.908-.073" transform="translate(-71.182 -10.995)" fill="#191e2b"/>
          <path id="Trazado_208762" data-name="Trazado 208762" d="M364.544,65.548c1.837-1.3,3.448-2.879,5.284-4.175.841-.594.024-1.974-.82-1.378-1.837,1.3-3.448,2.878-5.284,4.174-.841.594-.025,1.975.819,1.378" transform="translate(-72.173 -11.887)" fill="#191e2b"/>
          <path id="Trazado_208763" data-name="Trazado 208763" d="M374.682,71.482c.389-2.455.825-4.944.191-7.4-.259-1-1.8-.556-1.54.443.563,2.173.135,4.4-.209,6.577-.16,1.013,1.4,1.4,1.559.376" transform="translate(-74.108 -12.617)" fill="#191e2b"/>
          <path id="Trazado_208764" data-name="Trazado 208764" d="M389.994,362.356a8.646,8.646,0,1,1-8.646-8.646,8.646,8.646,0,0,1,8.646,8.646" transform="translate(-74.026 -70.254)" fill="#f97956"/>
          <path id="Trazado_208765" data-name="Trazado 208765" d="M374.237,364.875c-1.935.223-3.871.417-5.81.6-1.02.1-1.03,1.7,0,1.6,1.939-.184,3.875-.378,5.81-.6,1.015-.117,1.025-1.721,0-1.6" transform="translate(-73.025 -72.471)" fill="#1f283d"/>
          <path id="Trazado_208766" data-name="Trazado 208766" d="M381.841,355.934c-.722-2.349-.68-4.864-1.4-7.212-.3-.986-1.851-.564-1.546.426.724,2.349.68,4.864,1.4,7.212.3.986,1.85.564,1.546-.426" transform="translate(-75.248 -69.152)" fill="#1f283d"/>
          <path id="Trazado_208767" data-name="Trazado 208767" d="M392.008,352.037a26.887,26.887,0,0,1-3.376,3.6,14.9,14.9,0,0,0-2.163,2.219c-.6.844.789,1.643,1.383.809a16.782,16.782,0,0,1,2.383-2.328,26.458,26.458,0,0,0,3.157-3.492c.621-.829-.772-1.625-1.384-.809" transform="translate(-76.731 -69.854)" fill="#1f283d"/>
          <path id="Trazado_208768" data-name="Trazado 208768" d="M389.215,367.2c2.108.684,4.287,1.162,6.411,1.8a.8.8,0,0,0,.425-1.545c-2.124-.642-4.3-1.12-6.411-1.8-.985-.319-1.406,1.229-.425,1.545" transform="translate(-77.195 -72.617)" fill="#1f283d"/>
          <path id="Trazado_208769" data-name="Trazado 208769" d="M384.9,372.394c.386,1.74.773,3.48,1.2,5.209a.8.8,0,0,0,1.546-.426c-.429-1.73-.816-3.469-1.2-5.209-.225-1.009-1.769-.582-1.546.426" transform="translate(-76.444 -73.766)" fill="#1f283d"/>
          <path id="Trazado_208770" data-name="Trazado 208770" d="M377.02,369.349c-1.214,1.767-2.374,3.564-3.549,5.356-.569.867.821,1.67,1.384.809,1.174-1.793,2.335-3.589,3.548-5.356.587-.855-.8-1.656-1.384-.809" transform="translate(-74.153 -73.289)" fill="#1f283d"/>
          <path id="Trazado_208771" data-name="Trazado 208771" d="M377.29,359.284a54.06,54.06,0,0,0-7.146-2.886c-.97-.362-1.385,1.188-.426,1.545a51.334,51.334,0,0,1,6.762,2.725c.907.5,1.717-.888.809-1.384" transform="translate(-73.326 -70.777)" fill="#1f283d"/>
          <path id="Trazado_208772" data-name="Trazado 208772" d="M49.482,264.526c1.519-3.084.683-8.281-3.7-6.175-1.411.678-2.486,3.043-4.5,2.112-1.442-.667-.644-2.737-.6-3.854.07-1.87-2.2-3.4-3.73-3.824-2.345-.648-4.165-.1-6.324.882-2.534,1.158-4.877.147-4.751-3.115a4.53,4.53,0,0,0-.487-2.8c-3.2-4.125-8.765-2.872-10.428,1.767-.35.976,1.208,1.36,1.553.4,1.253-3.5,7.227-4.628,7.791-.155a12.771,12.771,0,0,1-.231,2.31,2.978,2.978,0,0,0,1.39,2.887c2.525,2.21,5.468.132,8.02-.736,1.95-.662,6,.445,5.494,3.409a8.776,8.776,0,0,0-.2,1.947c.05,1.08.947,1.721,1.726,2.285a2.75,2.75,0,0,0,2.99.3,13.439,13.439,0,0,0,1.353-1.015,15.978,15.978,0,0,1,1.767-1.429q3.2,1.671,1.46,4.031c-.456.926.944,1.705,1.4.777" transform="translate(-2.962 -48.713)" fill="#1f283d"/>
          <path id="Trazado_208773" data-name="Trazado 208773" d="M15.035,160.013c-.023-.008-.042,0-.065-.008a3.125,3.125,0,0,0-4.122,1.941,3.59,3.59,0,0,0,2.027,4.77c1.917.805,5.044-.305,5.341-2.54.263-1.972-1.463-3.593-3.181-4.163" transform="translate(-2.099 -31.737)" fill="#abc1dd"/>
          <path id="Trazado_208774" data-name="Trazado 208774" d="M89.534,193.219c-1.663-2.57-3.168-5.236-5.039-7.667-.63-.818-1.785.294-1.161,1.1,1.782,2.314,3.2,4.87,4.787,7.319.559.863,1.975.111,1.414-.757" transform="translate(-16.516 -36.798)" fill="#1f283d"/>
          <path id="Trazado_208775" data-name="Trazado 208775" d="M46.047,208h.267a.8.8,0,0,0,0-1.6h-.267a.8.8,0,0,0,0,1.6" transform="translate(-8.992 -40.995)" fill="#1f283d"/>
          <path id="Trazado_208776" data-name="Trazado 208776" d="M430.051,332.541v.267a.8.8,0,0,0,1.6,0v-.267a.8.8,0,0,0-1.6,0" transform="translate(-85.417 -65.896)" fill="#1f283d"/>
          <path id="Trazado_208777" data-name="Trazado 208777" d="M19.146,54.759v.267a.8.8,0,0,0,1.6,0v-.267a.8.8,0,0,0-1.6,0" transform="translate(-3.803 -10.722)" fill="#1f283d"/>
          <path id="Trazado_208778" data-name="Trazado 208778" d="M20.484,1.584c-2-.634-4.458-.3-5.115,1.993a3.938,3.938,0,0,0,2.878,4.589,4.11,4.11,0,0,0,4.535-2.233c.969-2.015-.423-3.68-2.3-4.349" transform="translate(-3.029 -0.258)" fill="#abc1dd"/>
          <path id="Trazado_208779" data-name="Trazado 208779" d="M107.141,95.669a.8.8,0,0,0,0-1.6.8.8,0,0,0,0,1.6" transform="translate(-21.126 -18.683)" fill="#1f283d"/>
          <path id="Trazado_208780" data-name="Trazado 208780" d="M290.9,7.183a.812.812,0,0,0-.147-.149.8.8,0,0,0-.332-.22c-1.473-.5-3.31-.575-4.208.935a3.371,3.371,0,0,0,.433,3.676c.869,1.123,2.716.724,3.7.017a2.889,2.889,0,0,0,.558-4.259" transform="translate(-56.774 -1.289)" fill="#abc1dd"/>
          <path id="Trazado_208781" data-name="Trazado 208781" d="M202.428,14.2c1.535,7.695,6.67-2.205,9.641-2.933,1.37-.336.685.922,1.025,1.595.592,1.171,1.666,1.768,2.156,3.075a3.257,3.257,0,0,0,4.714,1.668c1.836-.959,1.984-4.67,2.515-6.357a1.706,1.706,0,0,1,3.3.1c.221.929.23,1.91.389,2.85.2,1.172.455,2.712,1.375,3.581,1.447,1.366,3.871,2.1,5.4.507,1.486-1.547.141-4.814-.736-6.309a.8.8,0,0,0-1.384.809c.509.867,2.481,5.193-.7,4.7-2.274-.353-2.371-3.292-2.57-4.965-.156-1.319-.292-3.338-1.571-4.135-4.015-2.5-5.27,3.167-5.945,5.829-.633,2.5-3.061,1.757-3.823-.332a2,2,0,0,0-.859-1.124c-1.52-.706-.1-2.605-1.874-3.178-1.444-.466-3.409.426-4.459,1.4a23.1,23.1,0,0,0-2.161,2.592c-1.151,1.439-2.338,2.977-2.891.2-.2-1.014-1.747-.583-1.546.426" transform="translate(-40.203 -1.543)" fill="#1f283d"/>
          <path id="Trazado_208782" data-name="Trazado 208782" d="M113,7.612a.745.745,0,0,0-.229-1.035.16.16,0,0,1-.016-.009.885.885,0,0,0-.211-.111.937.937,0,0,0-.084-.046c-2.748-.826-5.584-.632-8.414-.755a.815.815,0,0,0-.93.862,9.754,9.754,0,0,0,3.088,6.359.8.8,0,0,0,.97.043,35.552,35.552,0,0,0,5.569-4.989.664.664,0,0,0,.258-.32" transform="translate(-20.48 -1.123)" fill="#abc1dd"/>
          <path id="Trazado_208783" data-name="Trazado 208783" d="M164.454,1.309V.774a.8.8,0,0,0-1.6,0v.535a.8.8,0,0,0,1.6,0" transform="translate(-32.346 0)" fill="#1f283d"/>
          <path id="Trazado_208784" data-name="Trazado 208784" d="M148.3,44.785A38.307,38.307,0,0,0,140.1,49.14c-.826.6-.028,1.993.809,1.383a36.672,36.672,0,0,1,7.822-4.193c.944-.385.532-1.935-.426-1.546" transform="translate(-27.757 -8.883)" fill="#1f283d"/>
          <path id="Trazado_208785" data-name="Trazado 208785" d="M11.126,106.345a.8.8,0,0,0,0-1.6.8.8,0,0,0,0,1.6" transform="translate(-2.056 -20.804)" fill="#1f283d"/>
          <path id="Trazado_208786" data-name="Trazado 208786" d="M395.147,118.495a.8.8,0,0,0,0-1.6.8.8,0,0,0,0,1.6" transform="translate(-78.33 -23.217)" fill="#1f283d"/>
          <path id="Trazado_208787" data-name="Trazado 208787" d="M23.028,306.273c0-.006,0-.012,0-.017a.873.873,0,0,0-.02-.238.823.823,0,0,0-.009-.1c-.8-2.756-2.5-5.033-3.928-7.478a.815.815,0,0,0-1.23-.313,9.756,9.756,0,0,0-3.667,6.042.8.8,0,0,0,.49.84,35.514,35.514,0,0,0,7.212,1.972.655.655,0,0,0,.406.042.743.743,0,0,0,.747-.754" transform="translate(-2.813 -59.18)" fill="#abc1dd"/>
          <path id="Trazado_208788" data-name="Trazado 208788" d="M402.558,190.1c3.1-1.487,5.654-6.09.906-7.141-1.527-.337-3.833.858-4.84-1.116-.721-1.416,1.184-2.55,1.906-3.4,1.21-1.427.374-4.031-.571-5.312-1.443-1.959-3.212-2.653-5.518-3.213-2.708-.655-3.927-2.9-1.812-5.384a4.534,4.534,0,0,0,1.344-2.5c.031-5.223-5.118-7.673-9.293-5.053-.878.551.111,1.814.976,1.271,3.146-1.975,8.542.825,6.224,4.69a12.749,12.749,0,0,1-1.61,1.673,2.979,2.979,0,0,0-.688,3.129c.619,3.3,4.218,3.482,6.76,4.376,1.943.683,4.442,4.053,2.217,6.074A8.611,8.611,0,0,0,397.2,179.6a3.232,3.232,0,0,0-.054,2.863,2.746,2.746,0,0,0,2.166,2.08,13.378,13.378,0,0,0,1.693.038,16.027,16.027,0,0,1,2.271-.031q1.483,3.289-1.342,4.072c-.929.446-.311,1.925.623,1.476" transform="translate(-76.338 -30.968)" fill="#1f283d"/>
          <path id="Trazado_208789" data-name="Trazado 208789" d="M340.542,114.538a.851.851,0,0,0,.085-.341c.135-2.865-.74-5.57-1.305-8.345a.815.815,0,0,0-1.063-.694,9.756,9.756,0,0,0-5.421,4.537.8.8,0,0,0,.194.953,35.6,35.6,0,0,0,6.167,4.181.688.688,0,0,0,.458.2.747.747,0,0,0,.885-.491" transform="translate(-66.092 -20.876)" fill="#abc1dd"/>
          <path id="Trazado_208790" data-name="Trazado 208790" d="M435.52,97c-.022-.007-.041,0-.063-.007a3.126,3.126,0,0,0-4.124,1.939,3.59,3.59,0,0,0,2.027,4.771c1.917.8,5.044-.305,5.342-2.54.263-1.972-1.463-3.593-3.182-4.162" transform="translate(-85.616 -19.22)" fill="#abc1dd"/>
          <path id="Trazado_208791" data-name="Trazado 208791" d="M317.6,52.16v-.534a.8.8,0,0,0-1.6,0v.534a.8.8,0,0,0,1.6,0" transform="translate(-62.764 -10.1)" fill="#1f283d"/>
          <path id="Trazado_208792" data-name="Trazado 208792" d="M361.163,2.61V2.076a.8.8,0,0,0-1.6,0V2.61a.8.8,0,0,0,1.6,0" transform="translate(-71.416 -0.258)" fill="#1f283d"/>
          <path id="Trazado_208793" data-name="Trazado 208793" d="M420.53,33.926a63.632,63.632,0,0,0,3.183-8.993.8.8,0,0,0-1.563-.355,60.751,60.751,0,0,1-3.038,8.6c-.374.949,1.039,1.707,1.418.745" transform="translate(-83.232 -4.762)" fill="#1f283d"/>
          <path id="Trazado_208794" data-name="Trazado 208794" d="M443.066,231.354c-.769-1.951-2.576-3.652-4.771-2.714a3.938,3.938,0,0,0-1.749,5.126,4.109,4.109,0,0,0,4.594,2.112c2.175-.517,2.589-2.648,1.927-4.524" transform="translate(-86.64 -45.36)" fill="#abc1dd"/>
          <path id="Trazado_208795" data-name="Trazado 208795" d="M366.336,304.247a38.271,38.271,0,0,0,2.583,8.923c.42.932,1.945.436,1.519-.509a36.653,36.653,0,0,1-2.5-8.514c-.183-1-1.785-.918-1.6.1" transform="translate(-72.759 -60.269)" fill="#1f283d"/>
          <path id="Trazado_208796" data-name="Trazado 208796" d="M344.407,160.764a.8.8,0,0,0,0-1.6.8.8,0,0,0,0,1.6" transform="translate(-68.252 -31.613)" fill="#1f283d"/>
          <path id="Trazado_208797" data-name="Trazado 208797" d="M439.472,159.764a.8.8,0,0,0,0-1.6.8.8,0,0,0,0,1.6" transform="translate(-87.134 -31.414)" fill="#1f283d"/>
          <path id="Trazado_208798" data-name="Trazado 208798" d="M380.779,217.954a.8.8,0,0,0,0-1.6.8.8,0,0,0,0,1.6" transform="translate(-75.477 -42.972)" fill="#1f283d"/>
          <path id="Trazado_208799" data-name="Trazado 208799" d="M346.916,428.246c1.32,7.735,6.729-2.019,9.719-2.662,1.379-.3.659.94.98,1.622.56,1.188,1.616,1.814,2.07,3.133a3.255,3.255,0,0,0,4.665,1.8c1.862-.906,2.115-4.611,2.691-6.283a1.707,1.707,0,0,1,3.3.195c.195.935.175,1.914.308,2.859.165,1.176.38,2.724,1.275,3.619,1.408,1.406,3.811,2.209,5.386.657,1.529-1.5.277-4.807-.559-6.327a.8.8,0,0,0-1.406.77c.484.882,2.334,5.26-.828,4.678-2.265-.416-2.28-3.358-2.431-5.036-.119-1.323-.2-3.344-1.455-4.177-3.943-2.614-5.356,3.018-6.1,5.661-.7,2.481-3.109,1.671-3.811-.438a2,2,0,0,0-.828-1.148c-1.5-.749-.025-2.607-1.786-3.229-1.43-.506-3.419.33-4.495,1.274a23.279,23.279,0,0,0-2.233,2.53c-1.191,1.407-2.419,2.911-2.9.12-.174-1.019-1.73-.633-1.558.382" transform="translate(-68.902 -83.901)" fill="#1f283d"/>
          <path id="Trazado_208800" data-name="Trazado 208800" d="M430.921,396.124a3.14,3.14,0,0,0-4.379,1.852,3.591,3.591,0,0,0,2.027,4.771c1.918.8,5.044-.305,5.342-2.54.263-1.972-1.463-3.594-3.181-4.164-.984-.325-1.4,1.223-.426,1.547a2.808,2.808,0,0,1,2.031,2.174c.108,1.312-1.94,1.781-2.909,1.572-2.592-.562-1.509-4.832.686-3.827.933.427,1.748-.954.809-1.384" transform="translate(-84.664 -78.614)" fill="#1f283d"/>
          <path id="Trazado_208801" data-name="Trazado 208801" d="M110.842,361.183a.871.871,0,0,0-.147-.15.805.805,0,0,0-.332-.218c-1.474-.5-3.31-.576-4.208.934a3.37,3.37,0,0,0,.433,3.675c.869,1.124,2.716.725,3.7.018a2.889,2.889,0,0,0,.558-4.259" transform="translate(-21.011 -71.601)" fill="#abc1dd"/>
          <path id="Trazado_208802" data-name="Trazado 208802" d="M338.518,361.438a.8.8,0,0,0,0-1.6.8.8,0,0,0,0,1.6" transform="translate(-67.083 -71.471)" fill="#1f283d"/>
          <path id="Trazado_208803" data-name="Trazado 208803" d="M71.918,333.675v.267a.8.8,0,0,0,1.6,0v-.267a.8.8,0,0,0-1.6,0" transform="translate(-14.284 -66.121)" fill="#1f283d"/>
          <path id="Trazado_208804" data-name="Trazado 208804" d="M88.4,436.55v.267a.8.8,0,0,0,1.6,0v-.267a.8.8,0,0,0-1.6,0" transform="translate(-17.558 -86.554)" fill="#1f283d"/>
          <path id="Trazado_208805" data-name="Trazado 208805" d="M0,437.684v.267a.8.8,0,0,0,1.6,0v-.267a.8.8,0,0,0-1.6,0" transform="translate(0 -86.779)" fill="#1f283d"/>
          <path id="Trazado_208806" data-name="Trazado 208806" d="M10.318,347.8v.267a.8.8,0,0,0,1.6,0V347.8a.8.8,0,0,0-1.6,0" transform="translate(-2.049 -68.927)" fill="#1f283d"/>
        </g>
      </g>
    </g>
  </g>
</svg>
