<svg xmlns="http://www.w3.org/2000/svg" width="925" height="581" viewBox="0 0 925 581">
  <g id="Grupo_156434" data-name="Grupo 156434" transform="translate(-285 -33500)">
    <g id="Trazado_218083" data-name="Trazado 218083" transform="translate(285 33500)" fill="#ff9d00">
      <path d="M 216.5 129.5 L 0.5 129.5 L 0.5 0.5 L 216.5 0.5 L 216.5 129.5 Z" stroke="none"/>
      <path d="M 1 1 L 1 129 L 216 129 L 216 1 L 1 1 M 0 0 L 217 0 L 217 130 L 0 130 L 0 0 Z" stroke="none" fill="#fff"/>
    </g>
    <g id="Trazado_218085" data-name="Trazado 218085" transform="translate(521 33500)" fill="#ffdda6">
      <path d="M 216.5 129.5 L 0.5 129.5 L 0.5 0.5 L 216.5 0.5 L 216.5 129.5 Z" stroke="none"/>
      <path d="M 1 1 L 1 129 L 216 129 L 216 1 L 1 1 M 0 0 L 217 0 L 217 130 L 0 130 L 0 0 Z" stroke="none" fill="#fff"/>
    </g>
    <g id="Trazado_218087" data-name="Trazado 218087" transform="translate(756 33500)" fill="#d9f5f9">
      <path d="M 217.5 129.5 L 0.5 129.5 L 0.5 0.5 L 217.5 0.5 L 217.5 129.5 Z" stroke="none"/>
      <path d="M 1 1 L 1 129 L 217 129 L 217 1 L 1 1 M 0 0 L 218 0 L 218 130 L 0 130 L 0 0 Z" stroke="none" fill="#fff"/>
    </g>
    <g id="Trazado_218092" data-name="Trazado 218092" transform="translate(993 33500)" fill="#d9f5f9">
      <path d="M 216.5 129.5 L 0.5 129.5 L 0.5 0.5 L 216.5 0.5 L 216.5 129.5 Z" stroke="none"/>
      <path d="M 1 1 L 1 129 L 216 129 L 216 1 L 1 1 M 0 0 L 217 0 L 217 130 L 0 130 L 0 0 Z" stroke="none" fill="#fff"/>
    </g>
    <g id="Trazado_218089" data-name="Trazado 218089" transform="translate(285 33649)" fill="#a6e8f0">
      <path d="M 216.5 130.5 L 0.5 130.5 L 0.5 0.5 L 216.5 0.5 L 216.5 130.5 Z" stroke="none"/>
      <path d="M 1 1 L 1 130 L 216 130 L 216 1 L 1 1 M 0 0 L 217 0 L 217 131 L 0 131 L 0 0 Z" stroke="none" fill="#fff"/>
    </g>
    <g id="Trazado_218099" data-name="Trazado 218099" transform="translate(285 33799)" fill="#4b3888">
      <path d="M 216.5 131.5 L 0.5 131.5 L 0.5 0.5 L 216.5 0.5 L 216.5 131.5 Z" stroke="none"/>
      <path d="M 1 1 L 1 131 L 216 131 L 216 1 L 1 1 M 0 0 L 217 0 L 217 132 L 0 132 L 0 0 Z" stroke="none" fill="#fff"/>
    </g>
    <g id="Trazado_218100" data-name="Trazado 218100" transform="translate(521 33799)" fill="#4b3888">
      <path d="M 216.5 131.5 L 0.5 131.5 L 0.5 0.5 L 216.5 0.5 L 216.5 131.5 Z" stroke="none"/>
      <path d="M 1 1 L 1 131 L 216 131 L 216 1 L 1 1 M 0 0 L 217 0 L 217 132 L 0 132 L 0 0 Z" stroke="none" fill="#fff"/>
    </g>
    <g id="Trazado_218101" data-name="Trazado 218101" transform="translate(756 33799)" fill="#644bb5">
      <path d="M 217.5 131.5 L 0.5 131.5 L 0.5 0.5 L 217.5 0.5 L 217.5 131.5 Z" stroke="none"/>
      <path d="M 1 1 L 1 131 L 217 131 L 217 1 L 1 1 M 0 0 L 218 0 L 218 132 L 0 132 L 0 0 Z" stroke="none" fill="#fff"/>
    </g>
    <g id="Trazado_218102" data-name="Trazado 218102" transform="translate(993 33799)" fill="#7e5ee3">
      <path d="M 216.5 131.5 L 0.5 131.5 L 0.5 0.5 L 216.5 0.5 L 216.5 131.5 Z" stroke="none"/>
      <path d="M 1 1 L 1 131 L 216 131 L 216 1 L 1 1 M 0 0 L 217 0 L 217 132 L 0 132 L 0 0 Z" stroke="none" fill="#fff"/>
    </g>
    <g id="Trazado_218107" data-name="Trazado 218107" transform="translate(756 33950)" fill="#d2c7f5">
      <path d="M 216.5 130.5 L 0.5 130.5 L 0.5 0.5 L 216.5 0.5 L 216.5 130.5 Z" stroke="none"/>
      <path d="M 1 1 L 1 130 L 216 130 L 216 1 L 1 1 M 0 0 L 217 0 L 217 131 L 0 131 L 0 0 Z" stroke="none" fill="#fff"/>
    </g>
    <g id="Trazado_218108" data-name="Trazado 218108" transform="translate(521 33950)" fill="#7e5ee3">
      <path d="M 216.5 130.5 L 0.5 130.5 L 0.5 0.5 L 216.5 0.5 L 216.5 130.5 Z" stroke="none"/>
      <path d="M 1 1 L 1 130 L 216 130 L 216 1 L 1 1 M 0 0 L 217 0 L 217 131 L 0 131 L 0 0 Z" stroke="none" fill="#fff"/>
    </g>
    <g id="Trazado_218090" data-name="Trazado 218090" transform="translate(521 33649)" fill="#a6e8f0">
      <path d="M 216.5 130.5 L 0.5 130.5 L 0.5 0.5 L 216.5 0.5 L 216.5 130.5 Z" stroke="none"/>
      <path d="M 1 1 L 1 130 L 216 130 L 216 1 L 1 1 M 0 0 L 217 0 L 217 131 L 0 131 L 0 0 Z" stroke="none" fill="#fff"/>
    </g>
    <g id="Trazado_218091" data-name="Trazado 218091" transform="translate(756 33649)" fill="#0096a9">
      <path d="M 217.5 130.5 L 0.5 130.5 L 0.5 0.5 L 217.5 0.5 L 217.5 130.5 Z" stroke="none"/>
      <path d="M 1 1 L 1 130 L 217 130 L 217 1 L 1 1 M 0 0 L 218 0 L 218 131 L 0 131 L 0 0 Z" stroke="none" fill="#fff"/>
    </g>
    <g id="Trazado_218093" data-name="Trazado 218093" transform="translate(993 33649)" fill="#0096a9">
      <path d="M 216.5 130.5 L 0.5 130.5 L 0.5 0.5 L 216.5 0.5 L 216.5 130.5 Z" stroke="none"/>
      <path d="M 1 1 L 1 130 L 216 130 L 216 1 L 1 1 M 0 0 L 217 0 L 217 131 L 0 131 L 0 0 Z" stroke="none" fill="#fff"/>
    </g>
    <path id="Trazado_218084" data-name="Trazado 218084" d="M70.414,14.363H65.791L64.912,17h-2.8L66.872,4.2h2.443L74.1,17H71.3ZM66.5,12.228h3.2l-1.608-4.79Zm13.781,2.145a.818.818,0,0,0-.461-.734,5.241,5.241,0,0,0-1.481-.479q-3.393-.712-3.393-2.883A2.613,2.613,0,0,1,76,8.163a4.237,4.237,0,0,1,2.747-.848,4.56,4.56,0,0,1,2.9.853,2.687,2.687,0,0,1,1.085,2.215h-2.54a1.229,1.229,0,0,0-.352-.9,1.488,1.488,0,0,0-1.1-.356,1.52,1.52,0,0,0-.993.29.916.916,0,0,0-.352.738.783.783,0,0,0,.4.681,4.114,4.114,0,0,0,1.349.448,11.019,11.019,0,0,1,1.6.426,2.628,2.628,0,0,1,2.013,2.558,2.481,2.481,0,0,1-1.116,2.1,4.815,4.815,0,0,1-2.883.8,5.029,5.029,0,0,1-2.123-.426,3.561,3.561,0,0,1-1.455-1.169,2.716,2.716,0,0,1-.527-1.6h2.408a1.326,1.326,0,0,0,.5,1.037,1.987,1.987,0,0,0,1.248.36,1.839,1.839,0,0,0,1.1-.277A.861.861,0,0,0,80.284,14.372Zm8.481,2.8a4.668,4.668,0,0,1-3.406-1.283,4.561,4.561,0,0,1-1.314-3.419v-.246A5.745,5.745,0,0,1,84.6,9.666a4.064,4.064,0,0,1,1.569-1.74,4.4,4.4,0,0,1,2.316-.611,3.947,3.947,0,0,1,3.072,1.23,5,5,0,0,1,1.121,3.489v1.037H86.621a2.36,2.36,0,0,0,.743,1.494,2.245,2.245,0,0,0,1.569.563,2.742,2.742,0,0,0,2.294-1.063l1.248,1.4a3.813,3.813,0,0,1-1.547,1.261A5.075,5.075,0,0,1,88.765,17.176Zm-.29-7.813a1.587,1.587,0,0,0-1.226.512,2.651,2.651,0,0,0-.6,1.466H90.18v-.2a1.891,1.891,0,0,0-.457-1.311A1.638,1.638,0,0,0,88.475,9.362Zm14.2,2.971a5.7,5.7,0,0,1-1,3.52,3.2,3.2,0,0,1-2.694,1.323,2.963,2.963,0,0,1-2.329-1v4.482h-2.54V7.49h2.355l.088.932a2.985,2.985,0,0,1,2.408-1.107,3.22,3.22,0,0,1,2.733,1.3,5.858,5.858,0,0,1,.976,3.586Zm-2.54-.194a3.763,3.763,0,0,0-.47-2.054A1.53,1.53,0,0,0,98.3,9.362a1.662,1.662,0,0,0-1.644.917v3.906a1.691,1.691,0,0,0,1.661.943Q100.138,15.128,100.138,12.139Zm9.264,2.233a.818.818,0,0,0-.461-.734,5.241,5.241,0,0,0-1.481-.479q-3.393-.712-3.393-2.883a2.613,2.613,0,0,1,1.05-2.114,4.237,4.237,0,0,1,2.747-.848,4.56,4.56,0,0,1,2.9.853,2.687,2.687,0,0,1,1.085,2.215h-2.54a1.229,1.229,0,0,0-.352-.9,1.488,1.488,0,0,0-1.1-.356,1.52,1.52,0,0,0-.993.29.916.916,0,0,0-.352.738.783.783,0,0,0,.4.681,4.114,4.114,0,0,0,1.349.448,11.019,11.019,0,0,1,1.6.426,2.628,2.628,0,0,1,2.013,2.558,2.481,2.481,0,0,1-1.116,2.1,4.815,4.815,0,0,1-2.883.8,5.029,5.029,0,0,1-2.123-.426,3.561,3.561,0,0,1-1.455-1.169,2.716,2.716,0,0,1-.527-1.6h2.408a1.326,1.326,0,0,0,.5,1.037,1.987,1.987,0,0,0,1.248.36,1.839,1.839,0,0,0,1.1-.277A.861.861,0,0,0,109.4,14.372ZM116.187,17h-2.549V7.49h2.549Zm-2.7-11.971a1.251,1.251,0,0,1,.382-.94,1.648,1.648,0,0,1,2.079,0,1.244,1.244,0,0,1,.387.94,1.247,1.247,0,0,1-.391.949,1.629,1.629,0,0,1-2.065,0A1.247,1.247,0,0,1,113.489,5.029ZM123.79,17a2.821,2.821,0,0,1-.255-.853,3.073,3.073,0,0,1-2.4,1.028,3.376,3.376,0,0,1-2.316-.809,2.6,2.6,0,0,1-.918-2.039,2.687,2.687,0,0,1,1.121-2.32,5.529,5.529,0,0,1,3.239-.817h1.169v-.545a1.567,1.567,0,0,0-.338-1.055,1.331,1.331,0,0,0-1.068-.4,1.513,1.513,0,0,0-1.006.308,1.045,1.045,0,0,0-.365.844h-2.54a2.551,2.551,0,0,1,.51-1.529,3.37,3.37,0,0,1,1.441-1.1,5.253,5.253,0,0,1,2.092-.4,4.15,4.15,0,0,1,2.791.883,3.09,3.09,0,0,1,1.033,2.483V14.8a4.546,4.546,0,0,0,.378,2.048V17Zm-2.1-1.767a2.188,2.188,0,0,0,1.037-.25,1.645,1.645,0,0,0,.7-.672V12.676h-.949q-1.907,0-2.03,1.318l-.009.149a1.017,1.017,0,0,0,.334.782A1.3,1.3,0,0,0,121.689,15.233Z" transform="translate(299 33554)" fill="#12263f"/>
    <path id="Trazado_218086" data-name="Trazado 218086" d="M61.506,14.882h5.6V17H58.869V4.2h2.637ZM71.13,17H68.581V7.49H71.13Zm-2.7-11.971a1.251,1.251,0,0,1,.382-.94,1.648,1.648,0,0,1,2.079,0,1.244,1.244,0,0,1,.387.94,1.247,1.247,0,0,1-.391.949,1.629,1.629,0,0,1-2.065,0A1.247,1.247,0,0,1,68.432,5.029ZM75.6,7.49l.079,1.063a3.342,3.342,0,0,1,2.733-1.239,2.536,2.536,0,0,1,2.522,1.45,3.265,3.265,0,0,1,2.856-1.45,2.836,2.836,0,0,1,2.3.9,4.141,4.141,0,0,1,.756,2.711V17H84.3V10.922a1.818,1.818,0,0,0-.316-1.185,1.4,1.4,0,0,0-1.116-.374,1.585,1.585,0,0,0-1.582,1.092L81.3,17h-2.54V10.93a1.8,1.8,0,0,0-.325-1.2,1.414,1.414,0,0,0-1.107-.37,1.645,1.645,0,0,0-1.564.9V17h-2.54V7.49Zm21.762,4.843a5.7,5.7,0,0,1-1,3.52,3.2,3.2,0,0,1-2.694,1.323,2.963,2.963,0,0,1-2.329-1v4.482H88.8V7.49H91.16l.088.932a2.985,2.985,0,0,1,2.408-1.107,3.22,3.22,0,0,1,2.733,1.3,5.858,5.858,0,0,1,.976,3.586Zm-2.54-.194a3.763,3.763,0,0,0-.47-2.054,1.53,1.53,0,0,0-1.367-.723,1.662,1.662,0,0,0-1.644.917v3.906a1.691,1.691,0,0,0,1.661.943Q94.825,15.128,94.825,12.139ZM101.619,17H99.07V7.49h2.549Zm-2.7-11.971a1.251,1.251,0,0,1,.382-.94,1.648,1.648,0,0,1,2.079,0,1.244,1.244,0,0,1,.387.94,1.247,1.247,0,0,1-.391.949,1.629,1.629,0,0,1-2.065,0A1.247,1.247,0,0,1,98.921,5.029Zm9.167,12.146a4.668,4.668,0,0,1-3.406-1.283,4.561,4.561,0,0,1-1.314-3.419v-.246a5.745,5.745,0,0,1,.554-2.562,4.064,4.064,0,0,1,1.569-1.74,4.4,4.4,0,0,1,2.316-.611,3.947,3.947,0,0,1,3.072,1.23A5,5,0,0,1,112,12.034v1.037h-6.056a2.36,2.36,0,0,0,.743,1.494,2.245,2.245,0,0,0,1.569.563,2.742,2.742,0,0,0,2.294-1.063l1.248,1.4a3.813,3.813,0,0,1-1.547,1.261A5.075,5.075,0,0,1,108.088,17.176Zm-.29-7.813a1.587,1.587,0,0,0-1.226.512,2.651,2.651,0,0,0-.6,1.466H109.5v-.2a1.891,1.891,0,0,0-.457-1.311A1.638,1.638,0,0,0,107.8,9.362Zm8.561,5.59h4.649V17h-7.893V15.453l4.474-5.915h-4.342V7.49h7.62v1.5ZM128.109,17a2.821,2.821,0,0,1-.255-.853,3.073,3.073,0,0,1-2.4,1.028,3.376,3.376,0,0,1-2.316-.809,2.6,2.6,0,0,1-.918-2.039,2.687,2.687,0,0,1,1.121-2.32,5.529,5.529,0,0,1,3.239-.817h1.169v-.545a1.567,1.567,0,0,0-.338-1.055,1.331,1.331,0,0,0-1.068-.4,1.513,1.513,0,0,0-1.006.308,1.045,1.045,0,0,0-.365.844h-2.54a2.551,2.551,0,0,1,.51-1.529,3.37,3.37,0,0,1,1.441-1.1,5.253,5.253,0,0,1,2.092-.4,4.15,4.15,0,0,1,2.791.883,3.09,3.09,0,0,1,1.033,2.483V14.8a4.546,4.546,0,0,0,.378,2.048V17Zm-2.1-1.767a2.188,2.188,0,0,0,1.037-.25,1.645,1.645,0,0,0,.7-.672V12.676H126.8q-1.907,0-2.03,1.318l-.009.149a1.017,1.017,0,0,0,.334.782A1.3,1.3,0,0,0,126.009,15.233Z" transform="translate(537 33554)" fill="#12263f"/>
    <path id="Trazado_218088" data-name="Trazado 218088" d="M42.987,17V4.2h3.938a5.98,5.98,0,0,1,3.019.76,5.3,5.3,0,0,1,2.079,2.162,6.669,6.669,0,0,1,.747,3.186V10.9a6.688,6.688,0,0,1-.734,3.173,5.256,5.256,0,0,1-2.07,2.153A6.025,6.025,0,0,1,46.951,17ZM45.624,6.339v8.543H46.9a2.863,2.863,0,0,0,2.364-1.011,4.567,4.567,0,0,0,.835-2.892V10.3a4.64,4.64,0,0,0-.809-2.958,2.854,2.854,0,0,0-2.364-1.006ZM58.9,17.176a4.668,4.668,0,0,1-3.406-1.283,4.561,4.561,0,0,1-1.314-3.419v-.246a5.745,5.745,0,0,1,.554-2.562A4.064,4.064,0,0,1,56.3,7.925a4.4,4.4,0,0,1,2.316-.611,3.947,3.947,0,0,1,3.072,1.23,5,5,0,0,1,1.121,3.489v1.037H56.751a2.36,2.36,0,0,0,.743,1.494,2.245,2.245,0,0,0,1.569.563,2.742,2.742,0,0,0,2.294-1.063l1.248,1.4a3.813,3.813,0,0,1-1.547,1.261A5.075,5.075,0,0,1,58.9,17.176Zm-.29-7.813a1.587,1.587,0,0,0-1.226.512,2.651,2.651,0,0,0-.6,1.466h3.533v-.2a1.891,1.891,0,0,0-.457-1.311A1.638,1.638,0,0,0,58.605,9.362ZM69.4,14.372a.818.818,0,0,0-.461-.734,5.241,5.241,0,0,0-1.481-.479q-3.393-.712-3.393-2.883a2.613,2.613,0,0,1,1.05-2.114,4.237,4.237,0,0,1,2.747-.848,4.56,4.56,0,0,1,2.9.853,2.687,2.687,0,0,1,1.085,2.215H69.3a1.229,1.229,0,0,0-.352-.9,1.488,1.488,0,0,0-1.1-.356,1.52,1.52,0,0,0-.993.29.916.916,0,0,0-.352.738.783.783,0,0,0,.4.681,4.114,4.114,0,0,0,1.349.448,11.019,11.019,0,0,1,1.6.426,2.628,2.628,0,0,1,2.013,2.558,2.481,2.481,0,0,1-1.116,2.1,4.815,4.815,0,0,1-2.883.8,5.029,5.029,0,0,1-2.123-.426,3.561,3.561,0,0,1-1.455-1.169,2.716,2.716,0,0,1-.527-1.6h2.408a1.326,1.326,0,0,0,.5,1.037,1.987,1.987,0,0,0,1.248.36,1.839,1.839,0,0,0,1.1-.277A.861.861,0,0,0,69.4,14.372ZM76.184,17H73.635V7.49h2.549Zm-2.7-11.971a1.251,1.251,0,0,1,.382-.94,1.648,1.648,0,0,1,2.079,0,1.244,1.244,0,0,1,.387.94,1.247,1.247,0,0,1-.391.949,1.629,1.629,0,0,1-2.065,0A1.247,1.247,0,0,1,73.485,5.029ZM80.613,7.49l.079,1.1a3.32,3.32,0,0,1,2.733-1.274,2.759,2.759,0,0,1,2.25.888,4.142,4.142,0,0,1,.756,2.654V17h-2.54V10.9a1.654,1.654,0,0,0-.352-1.176,1.572,1.572,0,0,0-1.169-.366,1.747,1.747,0,0,0-1.608.916V17h-2.54V7.49ZM89.051,17V9.354H87.636V7.49h1.415V6.682A3.283,3.283,0,0,1,89.969,4.2a3.557,3.557,0,0,1,2.571-.883,5.987,5.987,0,0,1,1.292.174l-.026,1.953a3.238,3.238,0,0,0-.773-.079q-1.433,0-1.433,1.356V7.49h1.89V9.354H91.6V17Zm9.923.176a4.668,4.668,0,0,1-3.406-1.283,4.561,4.561,0,0,1-1.314-3.419v-.246a5.745,5.745,0,0,1,.554-2.562,4.064,4.064,0,0,1,1.569-1.74,4.4,4.4,0,0,1,2.316-.611,3.947,3.947,0,0,1,3.072,1.23,5,5,0,0,1,1.121,3.489v1.037H96.829a2.36,2.36,0,0,0,.743,1.494,2.245,2.245,0,0,0,1.569.563,2.742,2.742,0,0,0,2.294-1.063l1.248,1.4a3.813,3.813,0,0,1-1.547,1.261A5.075,5.075,0,0,1,98.974,17.176Zm-.29-7.813a1.587,1.587,0,0,0-1.226.512,2.651,2.651,0,0,0-.6,1.466h3.533v-.2a1.891,1.891,0,0,0-.457-1.311A1.638,1.638,0,0,0,98.684,9.362Zm9.6,5.766a1.666,1.666,0,0,0,1.143-.387,1.355,1.355,0,0,0,.457-1.028h2.382a3.258,3.258,0,0,1-.527,1.771,3.48,3.48,0,0,1-1.419,1.248,4.442,4.442,0,0,1-1.991.444,4.129,4.129,0,0,1-3.217-1.3,5.13,5.13,0,0,1-1.178-3.582v-.167A5.071,5.071,0,0,1,105.1,8.624a4.08,4.08,0,0,1,3.208-1.31,4,4,0,0,1,2.861,1.015,3.594,3.594,0,0,1,1.094,2.7h-2.382a1.745,1.745,0,0,0-.457-1.206,1.7,1.7,0,0,0-2.5.183,3.749,3.749,0,0,0-.453,2.1v.264a3.8,3.8,0,0,0,.448,2.113A1.549,1.549,0,0,0,108.281,15.128Zm9.387,0a1.666,1.666,0,0,0,1.143-.387,1.355,1.355,0,0,0,.457-1.028h2.382a3.258,3.258,0,0,1-.527,1.771,3.48,3.48,0,0,1-1.419,1.248,4.442,4.442,0,0,1-1.991.444,4.129,4.129,0,0,1-3.217-1.3,5.13,5.13,0,0,1-1.178-3.582v-.167a5.071,5.071,0,0,1,1.169-3.507,4.08,4.08,0,0,1,3.208-1.31,4,4,0,0,1,2.861,1.015,3.594,3.594,0,0,1,1.094,2.7h-2.382a1.745,1.745,0,0,0-.457-1.206,1.7,1.7,0,0,0-2.5.183,3.749,3.749,0,0,0-.453,2.1v.264a3.8,3.8,0,0,0,.448,2.113A1.549,1.549,0,0,0,117.668,15.128ZM125.78,17h-2.549V7.49h2.549Zm-2.7-11.971a1.251,1.251,0,0,1,.382-.94,1.648,1.648,0,0,1,2.079,0,1.244,1.244,0,0,1,.387.94,1.247,1.247,0,0,1-.391.949,1.629,1.629,0,0,1-2.065,0A1.247,1.247,0,0,1,123.082,5.029Zm4.395,7.128a5.64,5.64,0,0,1,.545-2.522,3.989,3.989,0,0,1,1.569-1.714,4.577,4.577,0,0,1,2.377-.606,4.33,4.33,0,0,1,3.142,1.178,4.727,4.727,0,0,1,1.358,3.2l.018.65a4.97,4.97,0,0,1-1.222,3.511,4.735,4.735,0,0,1-6.561,0,5.058,5.058,0,0,1-1.226-3.586Zm2.54.18a3.555,3.555,0,0,0,.51,2.073,1.831,1.831,0,0,0,2.9.009,3.89,3.89,0,0,0,.519-2.267,3.519,3.519,0,0,0-.519-2.06,1.686,1.686,0,0,0-1.459-.731,1.658,1.658,0,0,0-1.441.726A3.955,3.955,0,0,0,130.017,12.338ZM132.469,3.5h2.769L132.8,6.225h-2.065Zm7.919,3.99.079,1.1A3.32,3.32,0,0,1,143.2,7.314a2.759,2.759,0,0,1,2.25.888,4.142,4.142,0,0,1,.756,2.654V17h-2.54V10.9a1.654,1.654,0,0,0-.352-1.176,1.572,1.572,0,0,0-1.169-.366,1.747,1.747,0,0,0-1.608.916V17H138V7.49Z" transform="translate(773 33554)" fill="#12263f"/>
    <path id="Trazado_218094" data-name="Trazado 218094" d="M60.157,14.363H55.534L54.655,17h-2.8L56.615,4.2h2.443L63.848,17h-2.8Zm-3.911-2.136h3.2l-1.608-4.79ZM66.792,7.49l.079,1.1A3.32,3.32,0,0,1,69.6,7.314a2.759,2.759,0,0,1,2.25.888,4.142,4.142,0,0,1,.756,2.654V17h-2.54V10.9a1.654,1.654,0,0,0-.352-1.176,1.572,1.572,0,0,0-1.169-.366,1.747,1.747,0,0,0-1.608.916V17H64.4V7.49ZM77.577,5.152V7.49H79.2V9.354H77.577V14.1a1.133,1.133,0,0,0,.2.756,1.015,1.015,0,0,0,.773.229,4.051,4.051,0,0,0,.747-.062v1.925a5.229,5.229,0,0,1-1.538.229,2.425,2.425,0,0,1-2.725-2.7V9.354H73.648V7.49h1.389V5.152ZM83.3,17H80.75V7.49H83.3ZM80.6,5.029a1.251,1.251,0,0,1,.382-.94,1.648,1.648,0,0,1,2.079,0,1.244,1.244,0,0,1,.387.94,1.247,1.247,0,0,1-.391.949,1.629,1.629,0,0,1-2.065,0A1.247,1.247,0,0,1,80.6,5.029Zm9.94,9.343a.818.818,0,0,0-.461-.734,5.241,5.241,0,0,0-1.481-.479q-3.393-.712-3.393-2.883a2.613,2.613,0,0,1,1.05-2.114A4.237,4.237,0,0,1,89,7.314a4.56,4.56,0,0,1,2.9.853,2.687,2.687,0,0,1,1.085,2.215h-2.54a1.229,1.229,0,0,0-.352-.9,1.488,1.488,0,0,0-1.1-.356,1.52,1.52,0,0,0-.993.29.916.916,0,0,0-.352.738.783.783,0,0,0,.4.681,4.114,4.114,0,0,0,1.349.448,11.019,11.019,0,0,1,1.6.426,2.628,2.628,0,0,1,2.013,2.558,2.481,2.481,0,0,1-1.116,2.1,4.815,4.815,0,0,1-2.883.8,5.029,5.029,0,0,1-2.123-.426,3.561,3.561,0,0,1-1.455-1.169,2.716,2.716,0,0,1-.527-1.6h2.408a1.326,1.326,0,0,0,.5,1.037,1.987,1.987,0,0,0,1.248.36,1.839,1.839,0,0,0,1.1-.277A.861.861,0,0,0,90.541,14.372Zm8.481,2.8a4.668,4.668,0,0,1-3.406-1.283A4.561,4.561,0,0,1,94.3,12.474v-.246a5.745,5.745,0,0,1,.554-2.562,4.064,4.064,0,0,1,1.569-1.74,4.4,4.4,0,0,1,2.316-.611,3.947,3.947,0,0,1,3.072,1.23,5,5,0,0,1,1.121,3.489v1.037H96.877a2.36,2.36,0,0,0,.743,1.494,2.245,2.245,0,0,0,1.569.563,2.742,2.742,0,0,0,2.294-1.063l1.248,1.4a3.813,3.813,0,0,1-1.547,1.261A5.075,5.075,0,0,1,99.022,17.176Zm-.29-7.813a1.587,1.587,0,0,0-1.226.512,2.651,2.651,0,0,0-.6,1.466h3.533v-.2a1.891,1.891,0,0,0-.457-1.311A1.638,1.638,0,0,0,98.732,9.362Zm14.2,2.971a5.7,5.7,0,0,1-1,3.52,3.2,3.2,0,0,1-2.694,1.323,2.963,2.963,0,0,1-2.329-1v4.482h-2.54V7.49h2.355l.088.932a2.985,2.985,0,0,1,2.408-1.107,3.22,3.22,0,0,1,2.733,1.3,5.858,5.858,0,0,1,.976,3.586Zm-2.54-.194a3.763,3.763,0,0,0-.47-2.054,1.53,1.53,0,0,0-1.367-.723,1.662,1.662,0,0,0-1.644.917v3.906a1.691,1.691,0,0,0,1.661.943Q110.4,15.128,110.4,12.139Zm9.264,2.233a.818.818,0,0,0-.461-.734,5.241,5.241,0,0,0-1.481-.479q-3.393-.712-3.393-2.883a2.613,2.613,0,0,1,1.05-2.114,4.237,4.237,0,0,1,2.747-.848,4.56,4.56,0,0,1,2.9.853,2.687,2.687,0,0,1,1.085,2.215h-2.54a1.229,1.229,0,0,0-.352-.9,1.488,1.488,0,0,0-1.1-.356,1.52,1.52,0,0,0-.993.29.916.916,0,0,0-.352.738.783.783,0,0,0,.4.681,4.114,4.114,0,0,0,1.349.448,11.019,11.019,0,0,1,1.6.426,2.628,2.628,0,0,1,2.013,2.558,2.481,2.481,0,0,1-1.116,2.1,4.815,4.815,0,0,1-2.883.8,5.029,5.029,0,0,1-2.123-.426,3.561,3.561,0,0,1-1.455-1.169,2.716,2.716,0,0,1-.527-1.6h2.408a1.326,1.326,0,0,0,.5,1.037,1.987,1.987,0,0,0,1.248.36,1.839,1.839,0,0,0,1.1-.277A.861.861,0,0,0,119.659,14.372ZM126.444,17H123.9V7.49h2.549Zm-2.7-11.971a1.251,1.251,0,0,1,.382-.94,1.648,1.648,0,0,1,2.079,0,1.244,1.244,0,0,1,.387.94,1.247,1.247,0,0,1-.391.949,1.629,1.629,0,0,1-2.065,0A1.247,1.247,0,0,1,123.746,5.029ZM134.046,17a2.821,2.821,0,0,1-.255-.853,3.073,3.073,0,0,1-2.4,1.028,3.376,3.376,0,0,1-2.316-.809,2.6,2.6,0,0,1-.918-2.039,2.687,2.687,0,0,1,1.121-2.32,5.529,5.529,0,0,1,3.239-.817h1.169v-.545a1.567,1.567,0,0,0-.338-1.055,1.331,1.331,0,0,0-1.068-.4,1.513,1.513,0,0,0-1.006.308,1.045,1.045,0,0,0-.365.844h-2.54a2.551,2.551,0,0,1,.51-1.529,3.37,3.37,0,0,1,1.441-1.1,5.253,5.253,0,0,1,2.092-.4A4.15,4.15,0,0,1,135.2,8.2a3.09,3.09,0,0,1,1.033,2.483V14.8a4.546,4.546,0,0,0,.378,2.048V17Zm-2.1-1.767a2.188,2.188,0,0,0,1.037-.25,1.645,1.645,0,0,0,.7-.672V12.676h-.949q-1.907,0-2.03,1.318l-.009.149a1.017,1.017,0,0,0,.334.782A1.3,1.3,0,0,0,131.946,15.233Z" transform="translate(1008 33554)" fill="#12263f"/>
    <path id="Trazado_218095" data-name="Trazado 218095" d="M59.786,14.363H55.163L54.284,17h-2.8L56.244,4.2h2.443L63.478,17h-2.8Zm-3.911-2.136h3.2l-1.608-4.79ZM66.422,7.49l.079,1.1a3.32,3.32,0,0,1,2.733-1.274,2.759,2.759,0,0,1,2.25.888,4.142,4.142,0,0,1,.756,2.654V17H69.7V10.9a1.654,1.654,0,0,0-.352-1.176,1.572,1.572,0,0,0-1.169-.366,1.747,1.747,0,0,0-1.608.916V17h-2.54V7.49ZM77.206,5.152V7.49h1.626V9.354H77.206V14.1a1.133,1.133,0,0,0,.2.756,1.015,1.015,0,0,0,.773.229,4.051,4.051,0,0,0,.747-.062v1.925a5.229,5.229,0,0,1-1.538.229,2.425,2.425,0,0,1-2.725-2.7V9.354H73.277V7.49h1.389V5.152ZM82.928,17H80.379V7.49h2.549Zm-2.7-11.971a1.251,1.251,0,0,1,.382-.94,1.648,1.648,0,0,1,2.079,0,1.244,1.244,0,0,1,.387.94,1.247,1.247,0,0,1-.391.949,1.629,1.629,0,0,1-2.065,0A1.247,1.247,0,0,1,80.229,5.029Zm9.94,9.343a.818.818,0,0,0-.461-.734,5.241,5.241,0,0,0-1.481-.479q-3.393-.712-3.393-2.883a2.613,2.613,0,0,1,1.05-2.114,4.237,4.237,0,0,1,2.747-.848,4.56,4.56,0,0,1,2.9.853,2.687,2.687,0,0,1,1.085,2.215h-2.54a1.229,1.229,0,0,0-.352-.9,1.488,1.488,0,0,0-1.1-.356,1.52,1.52,0,0,0-.993.29.916.916,0,0,0-.352.738.783.783,0,0,0,.4.681,4.114,4.114,0,0,0,1.349.448,11.019,11.019,0,0,1,1.6.426,2.628,2.628,0,0,1,2.013,2.558,2.481,2.481,0,0,1-1.116,2.1,4.815,4.815,0,0,1-2.883.8,5.029,5.029,0,0,1-2.123-.426,3.561,3.561,0,0,1-1.455-1.169,2.716,2.716,0,0,1-.527-1.6h2.408a1.326,1.326,0,0,0,.5,1.037,1.987,1.987,0,0,0,1.248.36,1.839,1.839,0,0,0,1.1-.277A.861.861,0,0,0,90.17,14.372Zm8.481,2.8a4.668,4.668,0,0,1-3.406-1.283,4.561,4.561,0,0,1-1.314-3.419v-.246a5.745,5.745,0,0,1,.554-2.562,4.064,4.064,0,0,1,1.569-1.74,4.4,4.4,0,0,1,2.316-.611,3.947,3.947,0,0,1,3.072,1.23,5,5,0,0,1,1.121,3.489v1.037H96.507a2.36,2.36,0,0,0,.743,1.494,2.245,2.245,0,0,0,1.569.563,2.742,2.742,0,0,0,2.294-1.063l1.248,1.4a3.813,3.813,0,0,1-1.547,1.261A5.075,5.075,0,0,1,98.651,17.176Zm-.29-7.813a1.587,1.587,0,0,0-1.226.512,2.651,2.651,0,0,0-.6,1.466h3.533v-.2a1.891,1.891,0,0,0-.457-1.311A1.638,1.638,0,0,0,98.361,9.362ZM98.59,3.5h2.769L98.924,6.225H96.858Zm13.975,8.833a5.7,5.7,0,0,1-1,3.52,3.2,3.2,0,0,1-2.694,1.323,2.963,2.963,0,0,1-2.329-1v4.482H104V7.49h2.355l.088.932a2.985,2.985,0,0,1,2.408-1.107,3.22,3.22,0,0,1,2.733,1.3,5.858,5.858,0,0,1,.976,3.586Zm-2.54-.194a3.763,3.763,0,0,0-.47-2.054,1.53,1.53,0,0,0-1.367-.723,1.662,1.662,0,0,0-1.644.917v3.906a1.691,1.691,0,0,0,1.661.943Q110.024,15.128,110.024,12.139Zm7.154-6.987V7.49H118.8V9.354h-1.626V14.1a1.133,1.133,0,0,0,.2.756,1.015,1.015,0,0,0,.773.229,4.051,4.051,0,0,0,.747-.062v1.925a5.229,5.229,0,0,1-1.538.229,2.425,2.425,0,0,1-2.725-2.7V9.354H113.25V7.49h1.389V5.152ZM122.9,17h-2.549V7.49H122.9ZM120.2,5.029a1.251,1.251,0,0,1,.382-.94,1.648,1.648,0,0,1,2.079,0,1.244,1.244,0,0,1,.387.94,1.247,1.247,0,0,1-.391.949,1.629,1.629,0,0,1-2.065,0A1.247,1.247,0,0,1,120.2,5.029Zm8.745,10.1a1.666,1.666,0,0,0,1.143-.387,1.355,1.355,0,0,0,.457-1.028h2.382a3.258,3.258,0,0,1-.527,1.771,3.48,3.48,0,0,1-1.419,1.248,4.442,4.442,0,0,1-1.991.444,4.129,4.129,0,0,1-3.217-1.3A5.13,5.13,0,0,1,124.6,12.3v-.167a5.071,5.071,0,0,1,1.169-3.507,4.08,4.08,0,0,1,3.208-1.31,4,4,0,0,1,2.861,1.015,3.594,3.594,0,0,1,1.094,2.7h-2.382a1.745,1.745,0,0,0-.457-1.206,1.7,1.7,0,0,0-2.5.183,3.749,3.749,0,0,0-.453,2.1v.264a3.8,3.8,0,0,0,.448,2.113A1.549,1.549,0,0,0,128.947,15.128Zm5.036-2.971a5.64,5.64,0,0,1,.545-2.522A3.989,3.989,0,0,1,136.1,7.921a4.577,4.577,0,0,1,2.377-.606,4.33,4.33,0,0,1,3.142,1.178,4.727,4.727,0,0,1,1.358,3.2l.018.65a4.97,4.97,0,0,1-1.222,3.511,4.735,4.735,0,0,1-6.561,0,5.058,5.058,0,0,1-1.226-3.586Zm2.54.18a3.555,3.555,0,0,0,.51,2.073,1.831,1.831,0,0,0,2.9.009,3.89,3.89,0,0,0,.519-2.267,3.519,3.519,0,0,0-.519-2.06,1.686,1.686,0,0,0-1.459-.731,1.658,1.658,0,0,0-1.441.726A3.955,3.955,0,0,0,136.523,12.338Z" transform="translate(296 33704)" fill="#12263f"/>
    <path id="Trazado_218103" data-name="Trazado 218103" d="M63.113,14.363H58.49L57.611,17h-2.8L59.571,4.2h2.443L66.8,17H64ZM59.2,12.228h3.2l-1.608-4.79ZM61.337.775h2.769L61.671,3.5H59.606Zm11.839,9.1a6.9,6.9,0,0,0-.914-.07,1.86,1.86,0,0,0-1.89.976V17h-2.54V7.49h2.4l.07,1.134a2.354,2.354,0,0,1,2.118-1.31,2.662,2.662,0,0,1,.791.114Zm5.432,7.3A4.668,4.668,0,0,1,75.2,15.893a4.561,4.561,0,0,1-1.314-3.419v-.246a5.745,5.745,0,0,1,.554-2.562,4.064,4.064,0,0,1,1.569-1.74,4.4,4.4,0,0,1,2.316-.611A3.947,3.947,0,0,1,81.4,8.545a5,5,0,0,1,1.121,3.489v1.037H76.463a2.36,2.36,0,0,0,.743,1.494,2.245,2.245,0,0,0,1.569.563,2.742,2.742,0,0,0,2.294-1.063l1.248,1.4a3.813,3.813,0,0,1-1.547,1.261A5.075,5.075,0,0,1,78.608,17.176Zm-.29-7.813a1.587,1.587,0,0,0-1.226.512,2.651,2.651,0,0,0-.6,1.466h3.533v-.2a1.891,1.891,0,0,0-.457-1.311A1.638,1.638,0,0,0,78.318,9.362ZM89.471,17a2.821,2.821,0,0,1-.255-.853,3.073,3.073,0,0,1-2.4,1.028,3.376,3.376,0,0,1-2.316-.809,2.6,2.6,0,0,1-.918-2.039,2.687,2.687,0,0,1,1.121-2.32,5.529,5.529,0,0,1,3.239-.817h1.169v-.545a1.567,1.567,0,0,0-.338-1.055A1.331,1.331,0,0,0,87.7,9.2,1.513,1.513,0,0,0,86.7,9.5a1.045,1.045,0,0,0-.365.844h-2.54a2.551,2.551,0,0,1,.51-1.529,3.37,3.37,0,0,1,1.441-1.1,5.253,5.253,0,0,1,2.092-.4,4.15,4.15,0,0,1,2.791.883,3.09,3.09,0,0,1,1.033,2.483V14.8a4.546,4.546,0,0,0,.378,2.048V17Zm-2.1-1.767a2.188,2.188,0,0,0,1.037-.25,1.645,1.645,0,0,0,.7-.672V12.676h-.949q-1.907,0-2.03,1.318l-.009.149a1.017,1.017,0,0,0,.334.782A1.3,1.3,0,0,0,87.371,15.233Zm15.873-.861a.818.818,0,0,0-.461-.734,5.241,5.241,0,0,0-1.481-.479q-3.393-.712-3.393-2.883a2.613,2.613,0,0,1,1.05-2.114,4.237,4.237,0,0,1,2.747-.848,4.56,4.56,0,0,1,2.9.853,2.687,2.687,0,0,1,1.085,2.215h-2.54a1.229,1.229,0,0,0-.352-.9,1.488,1.488,0,0,0-1.1-.356,1.52,1.52,0,0,0-.993.29.916.916,0,0,0-.352.738.783.783,0,0,0,.4.681,4.114,4.114,0,0,0,1.349.448,11.019,11.019,0,0,1,1.6.426,2.628,2.628,0,0,1,2.013,2.558,2.481,2.481,0,0,1-1.116,2.1,4.815,4.815,0,0,1-2.883.8,5.029,5.029,0,0,1-2.123-.426,3.561,3.561,0,0,1-1.455-1.169,2.716,2.716,0,0,1-.527-1.6h2.408a1.326,1.326,0,0,0,.5,1.037,1.987,1.987,0,0,0,1.248.36,1.839,1.839,0,0,0,1.1-.277A.861.861,0,0,0,103.244,14.372Zm9.8,1.661a3.185,3.185,0,0,1-2.6,1.143,3,3,0,0,1-2.333-.879,3.752,3.752,0,0,1-.822-2.575V7.49h2.54v6.151q0,1.487,1.354,1.487a1.834,1.834,0,0,0,1.775-.9V7.49H115.5V17h-2.391Zm8.332-.905a1.666,1.666,0,0,0,1.143-.387,1.355,1.355,0,0,0,.457-1.028h2.382a3.258,3.258,0,0,1-.527,1.771,3.48,3.48,0,0,1-1.419,1.248,4.442,4.442,0,0,1-1.991.444,4.129,4.129,0,0,1-3.217-1.3,5.13,5.13,0,0,1-1.178-3.582v-.167a5.071,5.071,0,0,1,1.169-3.507,4.08,4.08,0,0,1,3.208-1.31,4,4,0,0,1,2.861,1.015,3.594,3.594,0,0,1,1.094,2.7h-2.382a1.745,1.745,0,0,0-.457-1.206,1.7,1.7,0,0,0-2.5.183,3.749,3.749,0,0,0-.453,2.1v.264a3.8,3.8,0,0,0,.448,2.113A1.549,1.549,0,0,0,121.375,15.128ZM129.488,17h-2.549V7.49h2.549Zm-2.7-11.971a1.251,1.251,0,0,1,.382-.94,1.648,1.648,0,0,1,2.079,0,1.244,1.244,0,0,1,.387.94,1.247,1.247,0,0,1-.391.949,1.629,1.629,0,0,1-2.065,0A1.247,1.247,0,0,1,126.79,5.029ZM137.09,17a2.821,2.821,0,0,1-.255-.853,3.073,3.073,0,0,1-2.4,1.028,3.376,3.376,0,0,1-2.316-.809,2.6,2.6,0,0,1-.918-2.039,2.687,2.687,0,0,1,1.121-2.32,5.529,5.529,0,0,1,3.239-.817h1.169v-.545a1.567,1.567,0,0,0-.338-1.055,1.331,1.331,0,0,0-1.068-.4,1.513,1.513,0,0,0-1.006.308,1.045,1.045,0,0,0-.365.844h-2.54a2.551,2.551,0,0,1,.51-1.529,3.37,3.37,0,0,1,1.441-1.1,5.253,5.253,0,0,1,2.092-.4,4.15,4.15,0,0,1,2.791.883,3.09,3.09,0,0,1,1.033,2.483V14.8a4.546,4.546,0,0,0,.378,2.048V17Zm-2.1-1.767a2.188,2.188,0,0,0,1.037-.25,1.645,1.645,0,0,0,.7-.672V12.676h-.949q-1.907,0-2.03,1.318l-.009.149a1.017,1.017,0,0,0,.334.782A1.3,1.3,0,0,0,134.99,15.233Z" transform="translate(296 33854)" fill="#fff"/>
    <path id="Trazado_218104" data-name="Trazado 218104" d="M37.014,17V4.2H41.5a5.886,5.886,0,0,1,3.533.892,3.05,3.05,0,0,1,1.2,2.615,2.891,2.891,0,0,1-.483,1.657,2.792,2.792,0,0,1-1.345,1.05,2.7,2.7,0,0,1,1.551.993,2.936,2.936,0,0,1,.567,1.828,3.377,3.377,0,0,1-1.178,2.795A5.3,5.3,0,0,1,41.988,17Zm2.637-5.572v3.454h2.259a2.18,2.18,0,0,0,1.455-.444,1.522,1.522,0,0,0,.523-1.226,1.607,1.607,0,0,0-1.819-1.784Zm0-1.863H41.6q2-.035,2-1.591a1.47,1.47,0,0,0-.505-1.252,2.658,2.658,0,0,0-1.6-.382H39.65ZM53.845,17a2.821,2.821,0,0,1-.255-.853,3.073,3.073,0,0,1-2.4,1.028,3.376,3.376,0,0,1-2.316-.809,2.6,2.6,0,0,1-.918-2.039,2.687,2.687,0,0,1,1.121-2.32,5.529,5.529,0,0,1,3.239-.817h1.169v-.545a1.567,1.567,0,0,0-.338-1.055,1.331,1.331,0,0,0-1.068-.4,1.513,1.513,0,0,0-1.006.308,1.045,1.045,0,0,0-.365.844h-2.54a2.551,2.551,0,0,1,.51-1.529,3.37,3.37,0,0,1,1.441-1.1,5.253,5.253,0,0,1,2.092-.4A4.15,4.15,0,0,1,55,8.2a3.09,3.09,0,0,1,1.033,2.483V14.8a4.546,4.546,0,0,0,.378,2.048V17Zm-2.1-1.767a2.188,2.188,0,0,0,1.037-.25,1.645,1.645,0,0,0,.7-.672V12.676h-.949q-1.907,0-2.03,1.318l-.009.149a1.017,1.017,0,0,0,.334.782A1.3,1.3,0,0,0,51.744,15.233Zm10.2-.105a1.666,1.666,0,0,0,1.143-.387,1.355,1.355,0,0,0,.457-1.028h2.382a3.258,3.258,0,0,1-.527,1.771,3.48,3.48,0,0,1-1.419,1.248,4.442,4.442,0,0,1-1.991.444,4.129,4.129,0,0,1-3.217-1.3A5.13,5.13,0,0,1,57.589,12.3v-.167a5.071,5.071,0,0,1,1.169-3.507,4.08,4.08,0,0,1,3.208-1.31A4,4,0,0,1,64.827,8.33a3.594,3.594,0,0,1,1.094,2.7H63.539a1.745,1.745,0,0,0-.457-1.206,1.7,1.7,0,0,0-2.5.183,3.749,3.749,0,0,0-.453,2.1v.264a3.8,3.8,0,0,0,.448,2.113A1.549,1.549,0,0,0,61.939,15.128Zm8.473-9.976V7.49h1.626V9.354H70.412V14.1a1.133,1.133,0,0,0,.2.756,1.015,1.015,0,0,0,.773.229,4.051,4.051,0,0,0,.747-.062v1.925a5.229,5.229,0,0,1-1.538.229,2.425,2.425,0,0,1-2.725-2.7V9.354H66.483V7.49h1.389V5.152ZM77.83,17.176a4.668,4.668,0,0,1-3.406-1.283,4.561,4.561,0,0,1-1.314-3.419v-.246a5.745,5.745,0,0,1,.554-2.562,4.064,4.064,0,0,1,1.569-1.74,4.4,4.4,0,0,1,2.316-.611,3.947,3.947,0,0,1,3.072,1.23,5,5,0,0,1,1.121,3.489v1.037H75.686a2.36,2.36,0,0,0,.743,1.494A2.245,2.245,0,0,0,78,15.128a2.742,2.742,0,0,0,2.294-1.063l1.248,1.4a3.813,3.813,0,0,1-1.547,1.261A5.075,5.075,0,0,1,77.83,17.176Zm-.29-7.813a1.587,1.587,0,0,0-1.226.512,2.651,2.651,0,0,0-.6,1.466h3.533v-.2a1.891,1.891,0,0,0-.457-1.311A1.638,1.638,0,0,0,77.54,9.362Zm10.986.51a6.9,6.9,0,0,0-.914-.07,1.86,1.86,0,0,0-1.89.976V17h-2.54V7.49h2.4l.07,1.134a2.354,2.354,0,0,1,2.118-1.31,2.662,2.662,0,0,1,.791.114ZM92.429,17H89.88V7.49h2.549ZM89.73,5.029a1.251,1.251,0,0,1,.382-.94,1.648,1.648,0,0,1,2.079,0,1.244,1.244,0,0,1,.387.94,1.247,1.247,0,0,1-.391.949,1.629,1.629,0,0,1-2.065,0A1.247,1.247,0,0,1,89.73,5.029Zm4.395,7.128a5.64,5.64,0,0,1,.545-2.522,3.989,3.989,0,0,1,1.569-1.714,4.577,4.577,0,0,1,2.377-.606,4.33,4.33,0,0,1,3.142,1.178,4.727,4.727,0,0,1,1.358,3.2l.018.65a4.97,4.97,0,0,1-1.222,3.511,4.735,4.735,0,0,1-6.561,0,5.058,5.058,0,0,1-1.226-3.586Zm2.54.18a3.555,3.555,0,0,0,.51,2.073,1.831,1.831,0,0,0,2.9.009,3.89,3.89,0,0,0,.519-2.267,3.519,3.519,0,0,0-.519-2.06,1.686,1.686,0,0,0-1.459-.731,1.658,1.658,0,0,0-1.441.726A3.955,3.955,0,0,0,96.665,12.338Zm13.184,2.035a.818.818,0,0,0-.461-.734,5.241,5.241,0,0,0-1.481-.479q-3.393-.712-3.393-2.883a2.613,2.613,0,0,1,1.05-2.114,4.237,4.237,0,0,1,2.747-.848,4.56,4.56,0,0,1,2.9.853,2.687,2.687,0,0,1,1.085,2.215h-2.54a1.229,1.229,0,0,0-.352-.9,1.488,1.488,0,0,0-1.1-.356,1.52,1.52,0,0,0-.993.29.916.916,0,0,0-.352.738.783.783,0,0,0,.4.681,4.114,4.114,0,0,0,1.349.448,11.019,11.019,0,0,1,1.6.426,2.628,2.628,0,0,1,2.013,2.558,2.481,2.481,0,0,1-1.116,2.1,4.815,4.815,0,0,1-2.883.8,5.029,5.029,0,0,1-2.123-.426,3.561,3.561,0,0,1-1.455-1.169,2.716,2.716,0,0,1-.527-1.6h2.408a1.326,1.326,0,0,0,.5,1.037,1.987,1.987,0,0,0,1.248.36,1.839,1.839,0,0,0,1.1-.277A.861.861,0,0,0,109.849,14.372Zm7.146-9.22V7.49h1.626V9.354h-1.626V14.1a1.133,1.133,0,0,0,.2.756,1.015,1.015,0,0,0,.773.229,4.051,4.051,0,0,0,.747-.062v1.925a5.229,5.229,0,0,1-1.538.229,2.425,2.425,0,0,1-2.725-2.7V9.354h-1.389V7.49h1.389V5.152ZM125.546,17a2.821,2.821,0,0,1-.255-.853,3.073,3.073,0,0,1-2.4,1.028,3.376,3.376,0,0,1-2.316-.809,2.6,2.6,0,0,1-.918-2.039,2.687,2.687,0,0,1,1.121-2.32,5.529,5.529,0,0,1,3.239-.817h1.169v-.545a1.567,1.567,0,0,0-.338-1.055,1.331,1.331,0,0,0-1.068-.4,1.513,1.513,0,0,0-1.006.308,1.045,1.045,0,0,0-.365.844h-2.54a2.551,2.551,0,0,1,.51-1.529,3.37,3.37,0,0,1,1.441-1.1,5.253,5.253,0,0,1,2.092-.4A4.15,4.15,0,0,1,126.7,8.2a3.09,3.09,0,0,1,1.033,2.483V14.8a4.546,4.546,0,0,0,.378,2.048V17Zm-2.1-1.767a2.188,2.188,0,0,0,1.037-.25,1.645,1.645,0,0,0,.7-.672V12.676h-.949q-1.907,0-2.03,1.318l-.009.149a1.017,1.017,0,0,0,.334.782A1.3,1.3,0,0,0,123.445,15.233ZM124.412,3.5h2.769l-2.435,2.725h-2.065Zm8.314,1.652V7.49h1.626V9.354h-1.626V14.1a1.133,1.133,0,0,0,.2.756,1.015,1.015,0,0,0,.773.229,4.051,4.051,0,0,0,.747-.062v1.925a5.229,5.229,0,0,1-1.538.229,2.425,2.425,0,0,1-2.725-2.7V9.354H128.8V7.49h1.389V5.152ZM138.448,17H135.9V7.49h2.549Zm-2.7-11.971a1.251,1.251,0,0,1,.382-.94,1.648,1.648,0,0,1,2.079,0,1.244,1.244,0,0,1,.387.94,1.247,1.247,0,0,1-.391.949,1.629,1.629,0,0,1-2.065,0A1.247,1.247,0,0,1,135.75,5.029Zm8.745,10.1a1.666,1.666,0,0,0,1.143-.387,1.355,1.355,0,0,0,.457-1.028h2.382a3.258,3.258,0,0,1-.527,1.771,3.48,3.48,0,0,1-1.419,1.248,4.442,4.442,0,0,1-1.991.444,4.129,4.129,0,0,1-3.217-1.3,5.13,5.13,0,0,1-1.178-3.582v-.167a5.071,5.071,0,0,1,1.169-3.507,4.08,4.08,0,0,1,3.208-1.31,4,4,0,0,1,2.861,1.015,3.594,3.594,0,0,1,1.094,2.7h-2.382a1.745,1.745,0,0,0-.457-1.206,1.7,1.7,0,0,0-2.5.183,3.749,3.749,0,0,0-.453,2.1v.264a3.8,3.8,0,0,0,.448,2.113A1.549,1.549,0,0,0,144.5,15.128Zm5.036-2.971a5.64,5.64,0,0,1,.545-2.522,3.989,3.989,0,0,1,1.569-1.714,4.577,4.577,0,0,1,2.377-.606,4.33,4.33,0,0,1,3.142,1.178,4.727,4.727,0,0,1,1.358,3.2l.018.65a4.97,4.97,0,0,1-1.222,3.511,4.735,4.735,0,0,1-6.561,0,5.058,5.058,0,0,1-1.226-3.586Zm2.54.18a3.555,3.555,0,0,0,.51,2.073,1.831,1.831,0,0,0,2.9.009A3.89,3.89,0,0,0,156,12.153a3.519,3.519,0,0,0-.519-2.06,1.686,1.686,0,0,0-1.459-.731,1.658,1.658,0,0,0-1.441.726A3.955,3.955,0,0,0,152.071,12.338Z" transform="translate(532 33854)" fill="#fff"/>
    <path id="Trazado_218105" data-name="Trazado 218105" d="M52.83,17V4.2h4.482a5.886,5.886,0,0,1,3.533.892,3.05,3.05,0,0,1,1.2,2.615,2.891,2.891,0,0,1-.483,1.657,2.792,2.792,0,0,1-1.345,1.05,2.7,2.7,0,0,1,1.551.993,2.936,2.936,0,0,1,.567,1.828,3.377,3.377,0,0,1-1.178,2.795A5.3,5.3,0,0,1,57.8,17Zm2.637-5.572v3.454h2.259a2.18,2.18,0,0,0,1.455-.444,1.522,1.522,0,0,0,.523-1.226,1.607,1.607,0,0,0-1.819-1.784Zm0-1.863h1.951q2-.035,2-1.591a1.47,1.47,0,0,0-.505-1.252,2.658,2.658,0,0,0-1.6-.382H55.466ZM69.661,17a2.821,2.821,0,0,1-.255-.853,3.073,3.073,0,0,1-2.4,1.028,3.376,3.376,0,0,1-2.316-.809,2.6,2.6,0,0,1-.918-2.039,2.687,2.687,0,0,1,1.121-2.32,5.529,5.529,0,0,1,3.239-.817H69.3v-.545a1.567,1.567,0,0,0-.338-1.055,1.331,1.331,0,0,0-1.068-.4,1.513,1.513,0,0,0-1.006.308,1.045,1.045,0,0,0-.365.844h-2.54a2.551,2.551,0,0,1,.51-1.529,3.37,3.37,0,0,1,1.441-1.1,5.253,5.253,0,0,1,2.092-.4,4.15,4.15,0,0,1,2.791.883,3.09,3.09,0,0,1,1.033,2.483V14.8a4.546,4.546,0,0,0,.378,2.048V17Zm-2.1-1.767a2.188,2.188,0,0,0,1.037-.25,1.645,1.645,0,0,0,.7-.672V12.676h-.949q-1.907,0-2.03,1.318l-.009.149a1.017,1.017,0,0,0,.334.782A1.3,1.3,0,0,0,67.56,15.233Zm10.2-.105a1.666,1.666,0,0,0,1.143-.387,1.355,1.355,0,0,0,.457-1.028h2.382a3.258,3.258,0,0,1-.527,1.771,3.48,3.48,0,0,1-1.419,1.248,4.442,4.442,0,0,1-1.991.444,4.129,4.129,0,0,1-3.217-1.3A5.13,5.13,0,0,1,73.4,12.3v-.167a5.071,5.071,0,0,1,1.169-3.507,4.08,4.08,0,0,1,3.208-1.31A4,4,0,0,1,80.643,8.33a3.594,3.594,0,0,1,1.094,2.7H79.355A1.745,1.745,0,0,0,78.9,9.826a1.7,1.7,0,0,0-2.5.183,3.749,3.749,0,0,0-.453,2.1v.264a3.8,3.8,0,0,0,.448,2.113A1.549,1.549,0,0,0,77.755,15.128Zm8.473-9.976V7.49h1.626V9.354H86.228V14.1a1.133,1.133,0,0,0,.2.756,1.015,1.015,0,0,0,.773.229,4.051,4.051,0,0,0,.747-.062v1.925a5.229,5.229,0,0,1-1.538.229,2.425,2.425,0,0,1-2.725-2.7V9.354H82.3V7.49h1.389V5.152Zm7.418,12.023a4.668,4.668,0,0,1-3.406-1.283,4.561,4.561,0,0,1-1.314-3.419v-.246a5.745,5.745,0,0,1,.554-2.562,4.064,4.064,0,0,1,1.569-1.74,4.4,4.4,0,0,1,2.316-.611,3.947,3.947,0,0,1,3.072,1.23,5,5,0,0,1,1.121,3.489v1.037H91.5a2.36,2.36,0,0,0,.743,1.494,2.245,2.245,0,0,0,1.569.563,2.742,2.742,0,0,0,2.294-1.063l1.248,1.4a3.813,3.813,0,0,1-1.547,1.261A5.075,5.075,0,0,1,93.646,17.176Zm-.29-7.813a1.587,1.587,0,0,0-1.226.512,2.651,2.651,0,0,0-.6,1.466h3.533v-.2A1.891,1.891,0,0,0,94.6,9.826,1.638,1.638,0,0,0,93.356,9.362Zm10.986.51a6.9,6.9,0,0,0-.914-.07,1.86,1.86,0,0,0-1.89.976V17H99V7.49h2.4l.07,1.134a2.354,2.354,0,0,1,2.118-1.31,2.662,2.662,0,0,1,.791.114Zm3.9,7.128H105.7V7.49h2.549Zm-2.7-11.971a1.251,1.251,0,0,1,.382-.94,1.648,1.648,0,0,1,2.079,0,1.244,1.244,0,0,1,.387.94,1.247,1.247,0,0,1-.391.949,1.629,1.629,0,0,1-2.065,0A1.247,1.247,0,0,1,105.546,5.029Zm8.745,10.1a1.666,1.666,0,0,0,1.143-.387,1.355,1.355,0,0,0,.457-1.028h2.382a3.258,3.258,0,0,1-.527,1.771,3.48,3.48,0,0,1-1.419,1.248,4.442,4.442,0,0,1-1.991.444,4.129,4.129,0,0,1-3.217-1.3,5.13,5.13,0,0,1-1.178-3.582v-.167a5.071,5.071,0,0,1,1.169-3.507,4.08,4.08,0,0,1,3.208-1.31,4,4,0,0,1,2.861,1.015,3.594,3.594,0,0,1,1.094,2.7h-2.382a1.745,1.745,0,0,0-.457-1.206,1.7,1.7,0,0,0-2.5.183,3.749,3.749,0,0,0-.453,2.1v.264a3.8,3.8,0,0,0,.448,2.113A1.549,1.549,0,0,0,114.292,15.128ZM122.4,17h-2.549V7.49H122.4Zm-2.7-11.971a1.251,1.251,0,0,1,.382-.94,1.648,1.648,0,0,1,2.079,0,1.244,1.244,0,0,1,.387.94,1.247,1.247,0,0,1-.391.949,1.629,1.629,0,0,1-2.065,0A1.247,1.247,0,0,1,119.706,5.029Zm4.395,7.146a5.731,5.731,0,0,1,1-3.542,3.237,3.237,0,0,1,2.729-1.318,2.913,2.913,0,0,1,2.294,1.037V3.5h2.549V17h-2.294l-.123-1.011a2.989,2.989,0,0,1-2.443,1.187,3.228,3.228,0,0,1-2.694-1.323A5.916,5.916,0,0,1,124.1,12.175Zm2.54.181a3.775,3.775,0,0,0,.466,2.057,1.516,1.516,0,0,0,1.354.715,1.7,1.7,0,0,0,1.661-1V10.36a1.675,1.675,0,0,0-1.644-1Q126.64,9.362,126.64,12.356ZM140.149,17a2.821,2.821,0,0,1-.255-.853,3.073,3.073,0,0,1-2.4,1.028,3.376,3.376,0,0,1-2.316-.809,2.6,2.6,0,0,1-.918-2.039,2.687,2.687,0,0,1,1.121-2.32,5.529,5.529,0,0,1,3.239-.817h1.169v-.545a1.567,1.567,0,0,0-.338-1.055,1.331,1.331,0,0,0-1.068-.4,1.513,1.513,0,0,0-1.006.308,1.045,1.045,0,0,0-.365.844h-2.54a2.551,2.551,0,0,1,.51-1.529,3.37,3.37,0,0,1,1.441-1.1,5.253,5.253,0,0,1,2.092-.4A4.15,4.15,0,0,1,141.3,8.2a3.09,3.09,0,0,1,1.033,2.483V14.8a4.546,4.546,0,0,0,.378,2.048V17Zm-2.1-1.767a2.188,2.188,0,0,0,1.037-.25,1.645,1.645,0,0,0,.7-.672V12.676h-.949q-1.907,0-2.03,1.318l-.009.149a1.017,1.017,0,0,0,.334.782A1.3,1.3,0,0,0,138.048,15.233Z" transform="translate(770 33854)" fill="#fff"/>
    <path id="Trazado_218106" data-name="Trazado 218106" d="M53.875,17V4.2h3.938a5.98,5.98,0,0,1,3.019.76,5.3,5.3,0,0,1,2.079,2.162,6.669,6.669,0,0,1,.747,3.186V10.9a6.688,6.688,0,0,1-.734,3.173,5.256,5.256,0,0,1-2.07,2.153A6.025,6.025,0,0,1,57.839,17ZM56.512,6.339v8.543h1.274a2.863,2.863,0,0,0,2.364-1.011,4.567,4.567,0,0,0,.835-2.892V10.3a4.64,4.64,0,0,0-.809-2.958,2.854,2.854,0,0,0-2.364-1.006ZM69.784,17.176a4.668,4.668,0,0,1-3.406-1.283,4.561,4.561,0,0,1-1.314-3.419v-.246a5.745,5.745,0,0,1,.554-2.562,4.064,4.064,0,0,1,1.569-1.74A4.4,4.4,0,0,1,69.5,7.314a3.947,3.947,0,0,1,3.072,1.23,5,5,0,0,1,1.121,3.489v1.037H67.639a2.36,2.36,0,0,0,.743,1.494,2.245,2.245,0,0,0,1.569.563,2.742,2.742,0,0,0,2.294-1.063l1.248,1.4a3.813,3.813,0,0,1-1.547,1.261A5.075,5.075,0,0,1,69.784,17.176Zm-.29-7.813a1.587,1.587,0,0,0-1.226.512,2.651,2.651,0,0,0-.6,1.466H71.2v-.2a1.891,1.891,0,0,0-.457-1.311A1.638,1.638,0,0,0,69.494,9.362Zm8.684-4.21V7.49H79.8V9.354H78.177V14.1a1.133,1.133,0,0,0,.2.756,1.015,1.015,0,0,0,.773.229,4.051,4.051,0,0,0,.747-.062v1.925a5.229,5.229,0,0,1-1.538.229,2.425,2.425,0,0,1-2.725-2.7V9.354H74.249V7.49h1.389V5.152ZM85.6,17.176a4.668,4.668,0,0,1-3.406-1.283,4.561,4.561,0,0,1-1.314-3.419v-.246a5.745,5.745,0,0,1,.554-2.562A4.064,4.064,0,0,1,83,7.925a4.4,4.4,0,0,1,2.316-.611,3.947,3.947,0,0,1,3.072,1.23,5,5,0,0,1,1.121,3.489v1.037H83.451a2.36,2.36,0,0,0,.743,1.494,2.245,2.245,0,0,0,1.569.563,2.742,2.742,0,0,0,2.294-1.063l1.248,1.4a3.813,3.813,0,0,1-1.547,1.261A5.075,5.075,0,0,1,85.6,17.176Zm-.29-7.813a1.587,1.587,0,0,0-1.226.512,2.651,2.651,0,0,0-.6,1.466H87.01v-.2a1.891,1.891,0,0,0-.457-1.311A1.638,1.638,0,0,0,85.305,9.362Zm10.986.51a6.9,6.9,0,0,0-.914-.07,1.86,1.86,0,0,0-1.89.976V17h-2.54V7.49h2.4l.07,1.134a2.354,2.354,0,0,1,2.118-1.31,2.662,2.662,0,0,1,.791.114Zm.686,2.3A5.573,5.573,0,0,1,98.019,8.65a3.375,3.375,0,0,1,2.808-1.336,2.96,2.96,0,0,1,2.435,1.072l.105-.9h2.3v9.193a4.064,4.064,0,0,1-.567,2.171,3.641,3.641,0,0,1-1.6,1.406,5.608,5.608,0,0,1-2.408.483,5.215,5.215,0,0,1-2.039-.417,3.619,3.619,0,0,1-1.5-1.077L98.682,17.7a2.975,2.975,0,0,0,2.3,1.063,2.178,2.178,0,0,0,1.573-.541,2.027,2.027,0,0,0,.563-1.534v-.51a2.938,2.938,0,0,1-2.312.993,3.366,3.366,0,0,1-2.773-1.34,5.572,5.572,0,0,1-1.059-3.555Zm2.54.181a3.489,3.489,0,0,0,.519,2.035,1.648,1.648,0,0,0,1.424.737,1.762,1.762,0,0,0,1.661-.874V10.236a1.758,1.758,0,0,0-1.644-.874,1.659,1.659,0,0,0-1.437.751A3.933,3.933,0,0,0,99.517,12.356ZM112,17.176a4.668,4.668,0,0,1-3.406-1.283,4.561,4.561,0,0,1-1.314-3.419v-.246a5.745,5.745,0,0,1,.554-2.562,4.064,4.064,0,0,1,1.569-1.74,4.4,4.4,0,0,1,2.316-.611,3.947,3.947,0,0,1,3.072,1.23,5,5,0,0,1,1.121,3.489v1.037h-6.056a2.36,2.36,0,0,0,.743,1.494,2.245,2.245,0,0,0,1.569.563,2.742,2.742,0,0,0,2.294-1.063l1.248,1.4a3.813,3.813,0,0,1-1.547,1.261A5.075,5.075,0,0,1,112,17.176Zm-.29-7.813a1.587,1.587,0,0,0-1.226.512,2.651,2.651,0,0,0-.6,1.466h3.533v-.2a1.891,1.891,0,0,0-.457-1.311A1.638,1.638,0,0,0,111.708,9.362Zm7.98-1.872.079,1.1A3.32,3.32,0,0,1,122.5,7.314a2.759,2.759,0,0,1,2.25.888,4.142,4.142,0,0,1,.756,2.654V17h-2.54V10.9a1.654,1.654,0,0,0-.352-1.176,1.572,1.572,0,0,0-1.169-.366,1.747,1.747,0,0,0-1.608.916V17H117.3V7.49Zm10.784-2.338V7.49H132.1V9.354h-1.626V14.1a1.133,1.133,0,0,0,.2.756,1.015,1.015,0,0,0,.773.229,4.051,4.051,0,0,0,.747-.062v1.925a5.229,5.229,0,0,1-1.538.229,2.425,2.425,0,0,1-2.725-2.7V9.354h-1.389V7.49h1.389V5.152Zm7.418,12.023a4.668,4.668,0,0,1-3.406-1.283,4.561,4.561,0,0,1-1.314-3.419v-.246a5.745,5.745,0,0,1,.554-2.562,4.064,4.064,0,0,1,1.569-1.74,4.4,4.4,0,0,1,2.316-.611,3.947,3.947,0,0,1,3.072,1.23,5,5,0,0,1,1.121,3.489v1.037h-6.056a2.36,2.36,0,0,0,.743,1.494,2.245,2.245,0,0,0,1.569.563,2.742,2.742,0,0,0,2.294-1.063l1.248,1.4a3.813,3.813,0,0,1-1.547,1.261A5.075,5.075,0,0,1,137.89,17.176Zm-.29-7.813a1.587,1.587,0,0,0-1.226.512,2.651,2.651,0,0,0-.6,1.466h3.533v-.2a1.891,1.891,0,0,0-.457-1.311A1.638,1.638,0,0,0,137.6,9.362Z" transform="translate(1005 33854)" fill="#fff"/>
    <path id="Trazado_218109" data-name="Trazado 218109" d="M29.875,17V4.2h3.938a5.98,5.98,0,0,1,3.019.76,5.3,5.3,0,0,1,2.079,2.162,6.669,6.669,0,0,1,.747,3.186V10.9a6.688,6.688,0,0,1-.734,3.173,5.256,5.256,0,0,1-2.07,2.153A6.025,6.025,0,0,1,33.839,17ZM32.512,6.339v8.543h1.274a2.863,2.863,0,0,0,2.364-1.011,4.567,4.567,0,0,0,.835-2.892V10.3a4.64,4.64,0,0,0-.809-2.958,2.854,2.854,0,0,0-2.364-1.006ZM45.784,17.176a4.668,4.668,0,0,1-3.406-1.283,4.561,4.561,0,0,1-1.314-3.419v-.246a5.745,5.745,0,0,1,.554-2.562,4.064,4.064,0,0,1,1.569-1.74A4.4,4.4,0,0,1,45.5,7.314a3.947,3.947,0,0,1,3.072,1.23,5,5,0,0,1,1.121,3.489v1.037H43.639a2.36,2.36,0,0,0,.743,1.494,2.245,2.245,0,0,0,1.569.563,2.742,2.742,0,0,0,2.294-1.063l1.248,1.4a3.813,3.813,0,0,1-1.547,1.261A5.075,5.075,0,0,1,45.784,17.176Zm-.29-7.813a1.587,1.587,0,0,0-1.226.512,2.651,2.651,0,0,0-.6,1.466H47.2v-.2a1.891,1.891,0,0,0-.457-1.311A1.638,1.638,0,0,0,45.494,9.362Zm8.684-4.21V7.49H55.8V9.354H54.177V14.1a1.133,1.133,0,0,0,.2.756,1.015,1.015,0,0,0,.773.229,4.051,4.051,0,0,0,.747-.062v1.925a5.229,5.229,0,0,1-1.538.229,2.425,2.425,0,0,1-2.725-2.7V9.354H50.249V7.49h1.389V5.152ZM61.6,17.176a4.668,4.668,0,0,1-3.406-1.283,4.561,4.561,0,0,1-1.314-3.419v-.246a5.745,5.745,0,0,1,.554-2.562A4.064,4.064,0,0,1,59,7.925a4.4,4.4,0,0,1,2.316-.611,3.947,3.947,0,0,1,3.072,1.23,5,5,0,0,1,1.121,3.489v1.037H59.451a2.36,2.36,0,0,0,.743,1.494,2.245,2.245,0,0,0,1.569.563,2.742,2.742,0,0,0,2.294-1.063l1.248,1.4a3.813,3.813,0,0,1-1.547,1.261A5.075,5.075,0,0,1,61.6,17.176Zm-.29-7.813a1.587,1.587,0,0,0-1.226.512,2.651,2.651,0,0,0-.6,1.466H63.01v-.2a1.891,1.891,0,0,0-.457-1.311A1.638,1.638,0,0,0,61.305,9.362Zm10.986.51a6.9,6.9,0,0,0-.914-.07,1.86,1.86,0,0,0-1.89.976V17h-2.54V7.49h2.4l.07,1.134a2.354,2.354,0,0,1,2.118-1.31,2.662,2.662,0,0,1,.791.114Zm.686,2.3A5.573,5.573,0,0,1,74.019,8.65a3.375,3.375,0,0,1,2.808-1.336,2.96,2.96,0,0,1,2.435,1.072l.105-.9h2.3v9.193a4.064,4.064,0,0,1-.567,2.171,3.641,3.641,0,0,1-1.6,1.406,5.608,5.608,0,0,1-2.408.483,5.215,5.215,0,0,1-2.039-.417,3.619,3.619,0,0,1-1.5-1.077L74.682,17.7a2.975,2.975,0,0,0,2.3,1.063,2.178,2.178,0,0,0,1.573-.541,2.027,2.027,0,0,0,.563-1.534v-.51a2.938,2.938,0,0,1-2.312.993,3.366,3.366,0,0,1-2.773-1.34,5.572,5.572,0,0,1-1.059-3.555Zm2.54.181a3.489,3.489,0,0,0,.519,2.035,1.648,1.648,0,0,0,1.424.737,1.762,1.762,0,0,0,1.661-.874V10.236a1.758,1.758,0,0,0-1.644-.874,1.659,1.659,0,0,0-1.437.751A3.933,3.933,0,0,0,75.517,12.356ZM88,17.176a4.668,4.668,0,0,1-3.406-1.283,4.561,4.561,0,0,1-1.314-3.419v-.246a5.745,5.745,0,0,1,.554-2.562A4.064,4.064,0,0,1,85.4,7.925a4.4,4.4,0,0,1,2.316-.611,3.947,3.947,0,0,1,3.072,1.23,5,5,0,0,1,1.121,3.489v1.037H85.853a2.36,2.36,0,0,0,.743,1.494,2.245,2.245,0,0,0,1.569.563,2.742,2.742,0,0,0,2.294-1.063l1.248,1.4a3.813,3.813,0,0,1-1.547,1.261A5.075,5.075,0,0,1,88,17.176Zm-.29-7.813a1.587,1.587,0,0,0-1.226.512,2.651,2.651,0,0,0-.6,1.466h3.533v-.2a1.891,1.891,0,0,0-.457-1.311A1.638,1.638,0,0,0,87.708,9.362Zm7.98-1.872.079,1.1A3.32,3.32,0,0,1,98.5,7.314a2.759,2.759,0,0,1,2.25.888,4.142,4.142,0,0,1,.756,2.654V17h-2.54V10.9a1.654,1.654,0,0,0-.352-1.176,1.572,1.572,0,0,0-1.169-.366,1.747,1.747,0,0,0-1.608.916V17H93.3V7.49Zm10.784-2.338V7.49H108.1V9.354h-1.626V14.1a1.133,1.133,0,0,0,.2.756,1.015,1.015,0,0,0,.773.229,4.051,4.051,0,0,0,.747-.062v1.925a5.229,5.229,0,0,1-1.538.229,2.425,2.425,0,0,1-2.725-2.7V9.354h-1.389V7.49h1.389V5.152Zm7.418,12.023a4.668,4.668,0,0,1-3.406-1.283,4.561,4.561,0,0,1-1.314-3.419v-.246a5.745,5.745,0,0,1,.554-2.562,4.064,4.064,0,0,1,1.569-1.74,4.4,4.4,0,0,1,2.316-.611,3.947,3.947,0,0,1,3.072,1.23,5,5,0,0,1,1.121,3.489v1.037h-6.056a2.36,2.36,0,0,0,.743,1.494,2.245,2.245,0,0,0,1.569.563,2.742,2.742,0,0,0,2.294-1.063l1.248,1.4a3.813,3.813,0,0,1-1.547,1.261A5.075,5.075,0,0,1,113.89,17.176Zm-.29-7.813a1.587,1.587,0,0,0-1.226.512,2.651,2.651,0,0,0-.6,1.466h3.533v-.2a1.891,1.891,0,0,0-.457-1.311A1.638,1.638,0,0,0,113.6,9.362ZM34.156,37.176a4.668,4.668,0,0,1-3.406-1.283,4.561,4.561,0,0,1-1.314-3.419v-.246a5.745,5.745,0,0,1,.554-2.562,4.064,4.064,0,0,1,1.569-1.74,4.4,4.4,0,0,1,2.316-.611,3.947,3.947,0,0,1,3.072,1.23,5,5,0,0,1,1.121,3.489v1.037H32.011a2.36,2.36,0,0,0,.743,1.494,2.245,2.245,0,0,0,1.569.563,2.742,2.742,0,0,0,2.294-1.063l1.248,1.4a3.813,3.813,0,0,1-1.547,1.261A5.075,5.075,0,0,1,34.156,37.176Zm-.29-7.813a1.587,1.587,0,0,0-1.226.512,2.651,2.651,0,0,0-.6,1.466h3.533v-.2a1.891,1.891,0,0,0-.457-1.311A1.638,1.638,0,0,0,33.866,29.362Zm7.98-1.872.079,1.1a3.32,3.32,0,0,1,2.733-1.274,2.759,2.759,0,0,1,2.25.888,4.142,4.142,0,0,1,.756,2.654V37h-2.54V30.9a1.654,1.654,0,0,0-.352-1.176,1.572,1.572,0,0,0-1.169-.366A1.747,1.747,0,0,0,42,30.278V37h-2.54V27.49Zm10.661,7.462h4.649V37H49.264V35.453l4.474-5.915H49.4V27.49h7.62v1.5ZM61.428,37H58.879V27.49h2.549Zm-2.7-11.971a1.251,1.251,0,0,1,.382-.94,1.648,1.648,0,0,1,2.079,0,1.342,1.342,0,0,1,0,1.89,1.629,1.629,0,0,1-2.065,0A1.247,1.247,0,0,1,58.73,25.029ZM65.9,27.49l.079,1.063a3.342,3.342,0,0,1,2.733-1.239,2.536,2.536,0,0,1,2.522,1.45,3.265,3.265,0,0,1,2.856-1.45,2.836,2.836,0,0,1,2.3.9,4.141,4.141,0,0,1,.756,2.711V37H74.6V30.922a1.818,1.818,0,0,0-.316-1.185,1.4,1.4,0,0,0-1.116-.374,1.585,1.585,0,0,0-1.582,1.092L71.6,37h-2.54V30.93a1.8,1.8,0,0,0-.325-1.2,1.414,1.414,0,0,0-1.107-.37,1.645,1.645,0,0,0-1.564.9V37H63.52V27.49ZM84.614,37a2.821,2.821,0,0,1-.255-.853,3.073,3.073,0,0,1-2.4,1.028,3.376,3.376,0,0,1-2.316-.809,2.6,2.6,0,0,1-.918-2.039,2.687,2.687,0,0,1,1.121-2.32,5.529,5.529,0,0,1,3.239-.817h1.169v-.545a1.567,1.567,0,0,0-.338-1.055,1.331,1.331,0,0,0-1.068-.4,1.513,1.513,0,0,0-1.006.308,1.045,1.045,0,0,0-.365.844h-2.54a2.551,2.551,0,0,1,.51-1.529,3.37,3.37,0,0,1,1.441-1.1,5.253,5.253,0,0,1,2.092-.4,4.15,4.15,0,0,1,2.791.883A3.09,3.09,0,0,1,86.8,30.681V34.8a4.546,4.546,0,0,0,.378,2.048V37Zm-2.1-1.767a2.188,2.188,0,0,0,1.037-.25,1.645,1.645,0,0,0,.7-.672V32.676H83.3q-1.907,0-2.03,1.318l-.009.149a1.017,1.017,0,0,0,.334.782A1.3,1.3,0,0,0,82.513,35.233ZM83.48,23.5h2.769l-2.435,2.725H81.749Zm8.314,1.652V27.49H93.42v1.863H91.794V34.1a1.133,1.133,0,0,0,.2.756,1.015,1.015,0,0,0,.773.229,4.051,4.051,0,0,0,.747-.062v1.925a5.229,5.229,0,0,1-1.538.229,2.425,2.425,0,0,1-2.725-2.7V29.354H87.866V27.49h1.389V25.152ZM97.516,37H94.967V27.49h2.549Zm-2.7-11.971a1.251,1.251,0,0,1,.382-.94,1.648,1.648,0,0,1,2.079,0,1.342,1.342,0,0,1,0,1.89,1.629,1.629,0,0,1-2.065,0A1.247,1.247,0,0,1,94.818,25.029Zm8.745,10.1a1.666,1.666,0,0,0,1.143-.387,1.355,1.355,0,0,0,.457-1.028h2.382a3.258,3.258,0,0,1-.527,1.771,3.48,3.48,0,0,1-1.419,1.248,4.442,4.442,0,0,1-1.991.444,4.129,4.129,0,0,1-3.217-1.3A5.13,5.13,0,0,1,99.212,32.3v-.167a5.071,5.071,0,0,1,1.169-3.507,4.08,4.08,0,0,1,3.208-1.31,4,4,0,0,1,2.861,1.015,3.594,3.594,0,0,1,1.094,2.7h-2.382a1.745,1.745,0,0,0-.457-1.206,1.7,1.7,0,0,0-2.5.183,3.749,3.749,0,0,0-.453,2.1v.264a3.8,3.8,0,0,0,.448,2.113A1.549,1.549,0,0,0,103.563,35.128Zm5.036-2.971a5.64,5.64,0,0,1,.545-2.522,3.989,3.989,0,0,1,1.569-1.714,4.577,4.577,0,0,1,2.377-.606,4.33,4.33,0,0,1,3.142,1.178,4.727,4.727,0,0,1,1.358,3.2l.018.65a4.97,4.97,0,0,1-1.222,3.511,4.735,4.735,0,0,1-6.561,0,5.058,5.058,0,0,1-1.226-3.586Zm2.54.18a3.555,3.555,0,0,0,.51,2.073,1.831,1.831,0,0,0,2.9.009,3.89,3.89,0,0,0,.519-2.267,3.519,3.519,0,0,0-.519-2.06,1.686,1.686,0,0,0-1.459-.731,1.658,1.658,0,0,0-1.441.726A3.955,3.955,0,0,0,111.139,32.338Z" transform="translate(791 33995)" fill="#12263f"/>
    <path id="Trazado_218110" data-name="Trazado 218110" d="M53.875,17V4.2h3.938a5.98,5.98,0,0,1,3.019.76,5.3,5.3,0,0,1,2.079,2.162,6.669,6.669,0,0,1,.747,3.186V10.9a6.688,6.688,0,0,1-.734,3.173,5.256,5.256,0,0,1-2.07,2.153A6.025,6.025,0,0,1,57.839,17ZM56.512,6.339v8.543h1.274a2.863,2.863,0,0,0,2.364-1.011,4.567,4.567,0,0,0,.835-2.892V10.3a4.64,4.64,0,0,0-.809-2.958,2.854,2.854,0,0,0-2.364-1.006ZM69.784,17.176a4.668,4.668,0,0,1-3.406-1.283,4.561,4.561,0,0,1-1.314-3.419v-.246a5.745,5.745,0,0,1,.554-2.562,4.064,4.064,0,0,1,1.569-1.74A4.4,4.4,0,0,1,69.5,7.314a3.947,3.947,0,0,1,3.072,1.23,5,5,0,0,1,1.121,3.489v1.037H67.639a2.36,2.36,0,0,0,.743,1.494,2.245,2.245,0,0,0,1.569.563,2.742,2.742,0,0,0,2.294-1.063l1.248,1.4a3.813,3.813,0,0,1-1.547,1.261A5.075,5.075,0,0,1,69.784,17.176Zm-.29-7.813a1.587,1.587,0,0,0-1.226.512,2.651,2.651,0,0,0-.6,1.466H71.2v-.2a1.891,1.891,0,0,0-.457-1.311A1.638,1.638,0,0,0,69.494,9.362Zm8.684-4.21V7.49H79.8V9.354H78.177V14.1a1.133,1.133,0,0,0,.2.756,1.015,1.015,0,0,0,.773.229,4.051,4.051,0,0,0,.747-.062v1.925a5.229,5.229,0,0,1-1.538.229,2.425,2.425,0,0,1-2.725-2.7V9.354H74.249V7.49h1.389V5.152ZM85.6,17.176a4.668,4.668,0,0,1-3.406-1.283,4.561,4.561,0,0,1-1.314-3.419v-.246a5.745,5.745,0,0,1,.554-2.562A4.064,4.064,0,0,1,83,7.925a4.4,4.4,0,0,1,2.316-.611,3.947,3.947,0,0,1,3.072,1.23,5,5,0,0,1,1.121,3.489v1.037H83.451a2.36,2.36,0,0,0,.743,1.494,2.245,2.245,0,0,0,1.569.563,2.742,2.742,0,0,0,2.294-1.063l1.248,1.4a3.813,3.813,0,0,1-1.547,1.261A5.075,5.075,0,0,1,85.6,17.176Zm-.29-7.813a1.587,1.587,0,0,0-1.226.512,2.651,2.651,0,0,0-.6,1.466H87.01v-.2a1.891,1.891,0,0,0-.457-1.311A1.638,1.638,0,0,0,85.305,9.362Zm10.986.51a6.9,6.9,0,0,0-.914-.07,1.86,1.86,0,0,0-1.89.976V17h-2.54V7.49h2.4l.07,1.134a2.354,2.354,0,0,1,2.118-1.31,2.662,2.662,0,0,1,.791.114Zm.686,2.3A5.573,5.573,0,0,1,98.019,8.65a3.375,3.375,0,0,1,2.808-1.336,2.96,2.96,0,0,1,2.435,1.072l.105-.9h2.3v9.193a4.064,4.064,0,0,1-.567,2.171,3.641,3.641,0,0,1-1.6,1.406,5.608,5.608,0,0,1-2.408.483,5.215,5.215,0,0,1-2.039-.417,3.619,3.619,0,0,1-1.5-1.077L98.682,17.7a2.975,2.975,0,0,0,2.3,1.063,2.178,2.178,0,0,0,1.573-.541,2.027,2.027,0,0,0,.563-1.534v-.51a2.938,2.938,0,0,1-2.312.993,3.366,3.366,0,0,1-2.773-1.34,5.572,5.572,0,0,1-1.059-3.555Zm2.54.181a3.489,3.489,0,0,0,.519,2.035,1.648,1.648,0,0,0,1.424.737,1.762,1.762,0,0,0,1.661-.874V10.236a1.758,1.758,0,0,0-1.644-.874,1.659,1.659,0,0,0-1.437.751A3.933,3.933,0,0,0,99.517,12.356ZM112,17.176a4.668,4.668,0,0,1-3.406-1.283,4.561,4.561,0,0,1-1.314-3.419v-.246a5.745,5.745,0,0,1,.554-2.562,4.064,4.064,0,0,1,1.569-1.74,4.4,4.4,0,0,1,2.316-.611,3.947,3.947,0,0,1,3.072,1.23,5,5,0,0,1,1.121,3.489v1.037h-6.056a2.36,2.36,0,0,0,.743,1.494,2.245,2.245,0,0,0,1.569.563,2.742,2.742,0,0,0,2.294-1.063l1.248,1.4a3.813,3.813,0,0,1-1.547,1.261A5.075,5.075,0,0,1,112,17.176Zm-.29-7.813a1.587,1.587,0,0,0-1.226.512,2.651,2.651,0,0,0-.6,1.466h3.533v-.2a1.891,1.891,0,0,0-.457-1.311A1.638,1.638,0,0,0,111.708,9.362Zm7.98-1.872.079,1.1A3.32,3.32,0,0,1,122.5,7.314a2.759,2.759,0,0,1,2.25.888,4.142,4.142,0,0,1,.756,2.654V17h-2.54V10.9a1.654,1.654,0,0,0-.352-1.176,1.572,1.572,0,0,0-1.169-.366,1.747,1.747,0,0,0-1.608.916V17H117.3V7.49Zm10.784-2.338V7.49H132.1V9.354h-1.626V14.1a1.133,1.133,0,0,0,.2.756,1.015,1.015,0,0,0,.773.229,4.051,4.051,0,0,0,.747-.062v1.925a5.229,5.229,0,0,1-1.538.229,2.425,2.425,0,0,1-2.725-2.7V9.354h-1.389V7.49h1.389V5.152Zm7.418,12.023a4.668,4.668,0,0,1-3.406-1.283,4.561,4.561,0,0,1-1.314-3.419v-.246a5.745,5.745,0,0,1,.554-2.562,4.064,4.064,0,0,1,1.569-1.74,4.4,4.4,0,0,1,2.316-.611,3.947,3.947,0,0,1,3.072,1.23,5,5,0,0,1,1.121,3.489v1.037h-6.056a2.36,2.36,0,0,0,.743,1.494,2.245,2.245,0,0,0,1.569.563,2.742,2.742,0,0,0,2.294-1.063l1.248,1.4a3.813,3.813,0,0,1-1.547,1.261A5.075,5.075,0,0,1,137.89,17.176Zm-.29-7.813a1.587,1.587,0,0,0-1.226.512,2.651,2.651,0,0,0-.6,1.466h3.533v-.2a1.891,1.891,0,0,0-.457-1.311A1.638,1.638,0,0,0,137.6,9.362Zm-95,22.813a5.731,5.731,0,0,1,1-3.542,3.237,3.237,0,0,1,2.729-1.318,2.913,2.913,0,0,1,2.294,1.037V23.5h2.549V37H48.875l-.123-1.011a2.989,2.989,0,0,1-2.443,1.187,3.228,3.228,0,0,1-2.694-1.323A5.916,5.916,0,0,1,42.6,32.175Zm2.54.181a3.775,3.775,0,0,0,.466,2.057,1.516,1.516,0,0,0,1.354.715,1.7,1.7,0,0,0,1.661-1V30.36a1.675,1.675,0,0,0-1.644-1Q45.139,29.362,45.139,32.356Zm12.375,4.82a4.668,4.668,0,0,1-3.406-1.283,4.561,4.561,0,0,1-1.314-3.419v-.246a5.745,5.745,0,0,1,.554-2.562,4.064,4.064,0,0,1,1.569-1.74,4.4,4.4,0,0,1,2.316-.611,3.947,3.947,0,0,1,3.072,1.23,5,5,0,0,1,1.121,3.489v1.037H55.37a2.36,2.36,0,0,0,.743,1.494,2.245,2.245,0,0,0,1.569.563,2.742,2.742,0,0,0,2.294-1.063l1.248,1.4a3.813,3.813,0,0,1-1.547,1.261A5.075,5.075,0,0,1,57.514,37.176Zm-.29-7.813A1.587,1.587,0,0,0,56,29.874a2.651,2.651,0,0,0-.6,1.466h3.533v-.2a1.891,1.891,0,0,0-.457-1.311A1.638,1.638,0,0,0,57.224,29.362Zm10.793,5.01a.818.818,0,0,0-.461-.734,5.241,5.241,0,0,0-1.481-.479q-3.393-.712-3.393-2.883a2.613,2.613,0,0,1,1.05-2.114,4.237,4.237,0,0,1,2.747-.848,4.56,4.56,0,0,1,2.9.853,2.687,2.687,0,0,1,1.085,2.215H67.92a1.229,1.229,0,0,0-.352-.9,1.488,1.488,0,0,0-1.1-.356,1.52,1.52,0,0,0-.993.29.916.916,0,0,0-.352.738.783.783,0,0,0,.4.681,4.114,4.114,0,0,0,1.349.448,11.019,11.019,0,0,1,1.6.426,2.628,2.628,0,0,1,2.013,2.558,2.481,2.481,0,0,1-1.116,2.1,4.815,4.815,0,0,1-2.883.8,5.029,5.029,0,0,1-2.123-.426,3.561,3.561,0,0,1-1.455-1.169,2.716,2.716,0,0,1-.527-1.6h2.408a1.326,1.326,0,0,0,.5,1.037,1.987,1.987,0,0,0,1.248.36,1.839,1.839,0,0,0,1.1-.277A.861.861,0,0,0,68.017,34.372ZM74.8,37H72.253V27.49H74.8ZM72.1,25.029a1.251,1.251,0,0,1,.382-.94,1.648,1.648,0,0,1,2.079,0,1.342,1.342,0,0,1,0,1.89,1.629,1.629,0,0,1-2.065,0A1.247,1.247,0,0,1,72.1,25.029Zm7.128,2.461.079,1.1a3.32,3.32,0,0,1,2.733-1.274,2.759,2.759,0,0,1,2.25.888,4.142,4.142,0,0,1,.756,2.654V37H82.51V30.9a1.654,1.654,0,0,0-.352-1.176,1.572,1.572,0,0,0-1.169-.366,1.747,1.747,0,0,0-1.608.916V37h-2.54V27.49ZM87.669,37V29.354H86.254V27.49h1.415v-.809a3.283,3.283,0,0,1,.918-2.483,3.557,3.557,0,0,1,2.571-.883,5.987,5.987,0,0,1,1.292.174l-.026,1.953a3.238,3.238,0,0,0-.773-.079q-1.433,0-1.433,1.356v.771h1.89v1.863h-1.89V37Zm9.923.176a4.668,4.668,0,0,1-3.406-1.283,4.561,4.561,0,0,1-1.314-3.419v-.246a5.745,5.745,0,0,1,.554-2.562A4.064,4.064,0,0,1,95,27.925a4.4,4.4,0,0,1,2.316-.611,3.947,3.947,0,0,1,3.072,1.23,5,5,0,0,1,1.121,3.489v1.037H95.448a2.36,2.36,0,0,0,.743,1.494,2.245,2.245,0,0,0,1.569.563,2.742,2.742,0,0,0,2.294-1.063l1.248,1.4a3.813,3.813,0,0,1-1.547,1.261A5.075,5.075,0,0,1,97.592,37.176Zm-.29-7.813a1.587,1.587,0,0,0-1.226.512,2.651,2.651,0,0,0-.6,1.466h3.533v-.2a1.891,1.891,0,0,0-.457-1.311A1.638,1.638,0,0,0,97.3,29.362Zm9.6,5.766a1.666,1.666,0,0,0,1.143-.387,1.355,1.355,0,0,0,.457-1.028h2.382a3.258,3.258,0,0,1-.527,1.771,3.48,3.48,0,0,1-1.419,1.248,4.442,4.442,0,0,1-1.991.444,4.129,4.129,0,0,1-3.217-1.3,5.13,5.13,0,0,1-1.178-3.582v-.167a5.071,5.071,0,0,1,1.169-3.507,4.08,4.08,0,0,1,3.208-1.31,4,4,0,0,1,2.861,1.015,3.594,3.594,0,0,1,1.094,2.7H108.5a1.745,1.745,0,0,0-.457-1.206,1.7,1.7,0,0,0-2.5.183,3.749,3.749,0,0,0-.453,2.1v.264a3.8,3.8,0,0,0,.448,2.113A1.549,1.549,0,0,0,106.9,35.128Zm8.473-9.976V27.49H117v1.863h-1.626V34.1a1.133,1.133,0,0,0,.2.756,1.015,1.015,0,0,0,.773.229,4.051,4.051,0,0,0,.747-.062v1.925a5.229,5.229,0,0,1-1.538.229,2.425,2.425,0,0,1-2.725-2.7V29.354h-1.389V27.49h1.389V25.152ZM123.924,37a2.821,2.821,0,0,1-.255-.853,3.073,3.073,0,0,1-2.4,1.028,3.376,3.376,0,0,1-2.316-.809,2.6,2.6,0,0,1-.918-2.039,2.687,2.687,0,0,1,1.121-2.32,5.529,5.529,0,0,1,3.239-.817h1.169v-.545a1.567,1.567,0,0,0-.338-1.055,1.331,1.331,0,0,0-1.068-.4,1.513,1.513,0,0,0-1.006.308,1.045,1.045,0,0,0-.365.844h-2.54a2.551,2.551,0,0,1,.51-1.529,3.37,3.37,0,0,1,1.441-1.1,5.253,5.253,0,0,1,2.092-.4,4.15,4.15,0,0,1,2.791.883,3.09,3.09,0,0,1,1.033,2.483V34.8a4.546,4.546,0,0,0,.378,2.048V37Zm-2.1-1.767a2.188,2.188,0,0,0,1.037-.25,1.645,1.645,0,0,0,.7-.672V32.676h-.949q-1.907,0-2.03,1.318l-.009.149a1.017,1.017,0,0,0,.334.782A1.3,1.3,0,0,0,121.824,35.233ZM130.4,27.49l.079,1.1a3.32,3.32,0,0,1,2.733-1.274,2.759,2.759,0,0,1,2.25.888,4.142,4.142,0,0,1,.756,2.654V37h-2.54V30.9a1.654,1.654,0,0,0-.352-1.176,1.572,1.572,0,0,0-1.169-.366,1.747,1.747,0,0,0-1.608.916V37h-2.54V27.49Zm10.784-2.338V27.49h1.626v1.863h-1.626V34.1a1.133,1.133,0,0,0,.2.756,1.015,1.015,0,0,0,.773.229,4.051,4.051,0,0,0,.747-.062v1.925a5.229,5.229,0,0,1-1.538.229,2.425,2.425,0,0,1-2.725-2.7V29.354h-1.389V27.49h1.389V25.152ZM148.6,37.176a4.668,4.668,0,0,1-3.406-1.283,4.561,4.561,0,0,1-1.314-3.419v-.246a5.745,5.745,0,0,1,.554-2.562,4.064,4.064,0,0,1,1.569-1.74,4.4,4.4,0,0,1,2.316-.611,3.947,3.947,0,0,1,3.072,1.23,5,5,0,0,1,1.121,3.489v1.037h-6.056a2.36,2.36,0,0,0,.743,1.494,2.245,2.245,0,0,0,1.569.563,2.742,2.742,0,0,0,2.294-1.063l1.248,1.4a3.813,3.813,0,0,1-1.547,1.261A5.075,5.075,0,0,1,148.6,37.176Zm-.29-7.813a1.587,1.587,0,0,0-1.226.512,2.651,2.651,0,0,0-.6,1.466h3.533v-.2a1.891,1.891,0,0,0-.457-1.311A1.638,1.638,0,0,0,148.314,29.362Z" transform="translate(533 33995)" fill="#fff"/>
    <path id="Trazado_218096" data-name="Trazado 218096" d="M80.691,11.437H75.628v3.445H81.57V17H72.992V4.2h8.561V6.339H75.628v3.05h5.063ZM88.1,14.372a.818.818,0,0,0-.461-.734,5.241,5.241,0,0,0-1.481-.479q-3.393-.712-3.393-2.883a2.613,2.613,0,0,1,1.05-2.114,4.237,4.237,0,0,1,2.747-.848,4.56,4.56,0,0,1,2.9.853,2.687,2.687,0,0,1,1.085,2.215H88a1.229,1.229,0,0,0-.352-.9,1.488,1.488,0,0,0-1.1-.356,1.52,1.52,0,0,0-.993.29.916.916,0,0,0-.352.738.783.783,0,0,0,.4.681,4.114,4.114,0,0,0,1.349.448,11.019,11.019,0,0,1,1.6.426,2.628,2.628,0,0,1,2.013,2.558,2.481,2.481,0,0,1-1.116,2.1,4.815,4.815,0,0,1-2.883.8,5.029,5.029,0,0,1-2.123-.426,3.561,3.561,0,0,1-1.455-1.169,2.716,2.716,0,0,1-.527-1.6h2.408a1.326,1.326,0,0,0,.5,1.037,1.987,1.987,0,0,0,1.248.36,1.839,1.839,0,0,0,1.1-.277A.861.861,0,0,0,88.1,14.372Zm7.146-9.22V7.49h1.626V9.354H95.246V14.1a1.133,1.133,0,0,0,.2.756,1.015,1.015,0,0,0,.773.229,4.051,4.051,0,0,0,.747-.062v1.925a5.229,5.229,0,0,1-1.538.229,2.425,2.425,0,0,1-2.725-2.7V9.354H91.317V7.49h1.389V5.152Zm7.418,12.023a4.668,4.668,0,0,1-3.406-1.283,4.561,4.561,0,0,1-1.314-3.419v-.246A5.745,5.745,0,0,1,98.5,9.666a4.064,4.064,0,0,1,1.569-1.74,4.4,4.4,0,0,1,2.316-.611,3.947,3.947,0,0,1,3.072,1.23,5,5,0,0,1,1.121,3.489v1.037h-6.056a2.36,2.36,0,0,0,.743,1.494,2.245,2.245,0,0,0,1.569.563,2.742,2.742,0,0,0,2.294-1.063l1.248,1.4a3.813,3.813,0,0,1-1.547,1.261A5.075,5.075,0,0,1,102.664,17.176Zm-.29-7.813a1.587,1.587,0,0,0-1.226.512,2.651,2.651,0,0,0-.6,1.466h3.533v-.2a1.891,1.891,0,0,0-.457-1.311A1.638,1.638,0,0,0,102.374,9.362ZM102.6,3.5h2.769l-2.435,2.725h-2.065ZM113.36,9.872a6.9,6.9,0,0,0-.914-.07,1.86,1.86,0,0,0-1.89.976V17h-2.54V7.49h2.4l.07,1.134a2.354,2.354,0,0,1,2.118-1.31,2.662,2.662,0,0,1,.791.114Zm3.9,7.128h-2.549V7.49h2.549Zm-2.7-11.971a1.251,1.251,0,0,1,.382-.94,1.648,1.648,0,0,1,2.079,0,1.244,1.244,0,0,1,.387.94,1.247,1.247,0,0,1-.391.949,1.629,1.629,0,0,1-2.065,0A1.247,1.247,0,0,1,114.564,5.029ZM122.035,17h-2.549V3.5h2.549Z" transform="translate(532 33704)" fill="#12263f"/>
    <path id="Trazado_218097" data-name="Trazado 218097" d="M54.6,12.737a4.528,4.528,0,0,1-1.525,3.252,5.355,5.355,0,0,1-3.625,1.187,4.816,4.816,0,0,1-3.872-1.657,6.793,6.793,0,0,1-1.411-4.548v-.782a7.671,7.671,0,0,1,.65-3.252,4.874,4.874,0,0,1,1.859-2.158,5.809,5.809,0,0,1,6.376.435,4.866,4.866,0,0,1,1.564,3.331H51.981a2.673,2.673,0,0,0-.69-1.8,2.555,2.555,0,0,0-1.806-.558,2.24,2.24,0,0,0-1.973.945,5.3,5.3,0,0,0-.672,2.931v.967a5.667,5.667,0,0,0,.628,3.032,2.2,2.2,0,0,0,1.982.958,2.6,2.6,0,0,0,1.824-.558,2.521,2.521,0,0,0,.69-1.727Zm1.169-.58a5.64,5.64,0,0,1,.545-2.522,3.989,3.989,0,0,1,1.569-1.714,4.577,4.577,0,0,1,2.377-.606A4.33,4.33,0,0,1,63.4,8.492a4.727,4.727,0,0,1,1.358,3.2l.018.65a4.97,4.97,0,0,1-1.222,3.511,4.735,4.735,0,0,1-6.561,0,5.058,5.058,0,0,1-1.226-3.586Zm2.54.18a3.555,3.555,0,0,0,.51,2.073,1.831,1.831,0,0,0,2.9.009,3.89,3.89,0,0,0,.519-2.267,3.519,3.519,0,0,0-.519-2.06,1.686,1.686,0,0,0-1.459-.731,1.658,1.658,0,0,0-1.441.726A3.955,3.955,0,0,0,58.31,12.338ZM68.681,7.49l.079,1.1a3.32,3.32,0,0,1,2.733-1.274,2.759,2.759,0,0,1,2.25.888,4.142,4.142,0,0,1,.756,2.654V17h-2.54V10.9a1.654,1.654,0,0,0-.352-1.176,1.572,1.572,0,0,0-1.169-.366,1.747,1.747,0,0,0-1.608.916V17H66.29V7.49ZM79.465,5.152V7.49h1.626V9.354H79.465V14.1a1.133,1.133,0,0,0,.2.756,1.015,1.015,0,0,0,.773.229,4.051,4.051,0,0,0,.747-.062v1.925a5.229,5.229,0,0,1-1.538.229,2.425,2.425,0,0,1-2.725-2.7V9.354H75.536V7.49h1.389V5.152ZM88.017,17a2.821,2.821,0,0,1-.255-.853,3.073,3.073,0,0,1-2.4,1.028,3.376,3.376,0,0,1-2.316-.809,2.6,2.6,0,0,1-.918-2.039,2.687,2.687,0,0,1,1.121-2.32,5.529,5.529,0,0,1,3.239-.817h1.169v-.545a1.567,1.567,0,0,0-.338-1.055,1.331,1.331,0,0,0-1.068-.4,1.513,1.513,0,0,0-1.006.308,1.045,1.045,0,0,0-.365.844h-2.54a2.551,2.551,0,0,1,.51-1.529,3.37,3.37,0,0,1,1.441-1.1,5.253,5.253,0,0,1,2.092-.4,4.15,4.15,0,0,1,2.791.883,3.09,3.09,0,0,1,1.033,2.483V14.8a4.546,4.546,0,0,0,.378,2.048V17Zm-2.1-1.767a2.188,2.188,0,0,0,1.037-.25,1.645,1.645,0,0,0,.7-.672V12.676h-.949q-1.907,0-2.03,1.318l-.009.149a1.017,1.017,0,0,0,.334.782A1.3,1.3,0,0,0,85.916,15.233ZM94.538,7.49l.079,1.063a3.342,3.342,0,0,1,2.733-1.239,2.536,2.536,0,0,1,2.522,1.45,3.265,3.265,0,0,1,2.856-1.45,2.836,2.836,0,0,1,2.3.9,4.141,4.141,0,0,1,.756,2.711V17h-2.549V10.922a1.818,1.818,0,0,0-.316-1.185,1.4,1.4,0,0,0-1.116-.374,1.585,1.585,0,0,0-1.582,1.092L100.233,17h-2.54V10.93a1.8,1.8,0,0,0-.325-1.2,1.414,1.414,0,0,0-1.107-.37,1.645,1.645,0,0,0-1.564.9V17h-2.54V7.49ZM110.42,17h-2.549V7.49h2.549Zm-2.7-11.971a1.251,1.251,0,0,1,.382-.94,1.648,1.648,0,0,1,2.079,0,1.244,1.244,0,0,1,.387.94,1.247,1.247,0,0,1-.391.949,1.629,1.629,0,0,1-2.065,0A1.247,1.247,0,0,1,107.722,5.029ZM114.85,7.49l.079,1.1a3.32,3.32,0,0,1,2.733-1.274,2.759,2.759,0,0,1,2.25.888,4.142,4.142,0,0,1,.756,2.654V17h-2.54V10.9a1.654,1.654,0,0,0-.352-1.176,1.572,1.572,0,0,0-1.169-.366,1.747,1.747,0,0,0-1.608.916V17h-2.54V7.49ZM128.1,17a2.821,2.821,0,0,1-.255-.853,3.073,3.073,0,0,1-2.4,1.028,3.376,3.376,0,0,1-2.316-.809,2.6,2.6,0,0,1-.918-2.039,2.687,2.687,0,0,1,1.121-2.32,5.529,5.529,0,0,1,3.239-.817h1.169v-.545a1.567,1.567,0,0,0-.338-1.055,1.331,1.331,0,0,0-1.068-.4,1.513,1.513,0,0,0-1.006.308,1.045,1.045,0,0,0-.365.844h-2.54a2.551,2.551,0,0,1,.51-1.529,3.37,3.37,0,0,1,1.441-1.1,5.253,5.253,0,0,1,2.092-.4,4.15,4.15,0,0,1,2.791.883,3.09,3.09,0,0,1,1.033,2.483V14.8a4.546,4.546,0,0,0,.378,2.048V17ZM126,15.233a2.188,2.188,0,0,0,1.037-.25,1.645,1.645,0,0,0,.7-.672V12.676h-.949q-1.907,0-2.03,1.318l-.009.149a1.017,1.017,0,0,0,.334.782A1.3,1.3,0,0,0,126,15.233Zm5.845-3.059a5.731,5.731,0,0,1,1-3.542,3.237,3.237,0,0,1,2.729-1.318,2.913,2.913,0,0,1,2.294,1.037V3.5h2.549V17h-2.294L138,15.989a2.989,2.989,0,0,1-2.443,1.187,3.228,3.228,0,0,1-2.694-1.323A5.916,5.916,0,0,1,131.848,12.175Zm2.54.181a3.775,3.775,0,0,0,.466,2.057,1.516,1.516,0,0,0,1.354.715,1.7,1.7,0,0,0,1.661-1V10.36a1.675,1.675,0,0,0-1.644-1Q134.388,9.362,134.388,12.356Zm7.6-.2a5.64,5.64,0,0,1,.545-2.522A3.989,3.989,0,0,1,144.1,7.921a4.577,4.577,0,0,1,2.377-.606,4.33,4.33,0,0,1,3.142,1.178,4.727,4.727,0,0,1,1.358,3.2l.018.65a4.97,4.97,0,0,1-1.222,3.511,4.735,4.735,0,0,1-6.561,0,5.058,5.058,0,0,1-1.226-3.586Zm2.54.18a3.555,3.555,0,0,0,.51,2.073,1.831,1.831,0,0,0,2.9.009,3.89,3.89,0,0,0,.519-2.267,3.519,3.519,0,0,0-.519-2.06,1.686,1.686,0,0,0-1.459-.731,1.658,1.658,0,0,0-1.441.726A3.955,3.955,0,0,0,144.53,12.338Z" transform="translate(770 33704)" fill="#fff"/>
    <path id="Trazado_218098" data-name="Trazado 218098" d="M64.839,14.363H60.216L59.337,17h-2.8L61.3,4.2H63.74L68.53,17h-2.8Zm-3.911-2.136h3.2l-1.608-4.79ZM63.063.775h2.769L63.4,3.5H61.332ZM74.9,9.872a6.9,6.9,0,0,0-.914-.07,1.86,1.86,0,0,0-1.89.976V17h-2.54V7.49h2.4l.07,1.134a2.354,2.354,0,0,1,2.118-1.31,2.662,2.662,0,0,1,.791.114Zm5.432,7.3a4.668,4.668,0,0,1-3.406-1.283,4.561,4.561,0,0,1-1.314-3.419v-.246a5.745,5.745,0,0,1,.554-2.562,4.064,4.064,0,0,1,1.569-1.74,4.4,4.4,0,0,1,2.316-.611,3.947,3.947,0,0,1,3.072,1.23,5,5,0,0,1,1.121,3.489v1.037H78.189a2.36,2.36,0,0,0,.743,1.494,2.245,2.245,0,0,0,1.569.563,2.742,2.742,0,0,0,2.294-1.063l1.248,1.4A3.813,3.813,0,0,1,82.5,16.723,5.075,5.075,0,0,1,80.334,17.176Zm-.29-7.813a1.587,1.587,0,0,0-1.226.512,2.651,2.651,0,0,0-.6,1.466h3.533v-.2a1.891,1.891,0,0,0-.457-1.311A1.638,1.638,0,0,0,80.044,9.362ZM91.2,17a2.821,2.821,0,0,1-.255-.853,3.073,3.073,0,0,1-2.4,1.028,3.376,3.376,0,0,1-2.316-.809,2.6,2.6,0,0,1-.918-2.039,2.687,2.687,0,0,1,1.121-2.32,5.529,5.529,0,0,1,3.239-.817h1.169v-.545A1.567,1.567,0,0,0,90.5,9.591a1.331,1.331,0,0,0-1.068-.4,1.513,1.513,0,0,0-1.006.308,1.045,1.045,0,0,0-.365.844H85.52a2.551,2.551,0,0,1,.51-1.529,3.37,3.37,0,0,1,1.441-1.1,5.253,5.253,0,0,1,2.092-.4,4.15,4.15,0,0,1,2.791.883,3.09,3.09,0,0,1,1.033,2.483V14.8a4.546,4.546,0,0,0,.378,2.048V17Zm-2.1-1.767a2.188,2.188,0,0,0,1.037-.25,1.645,1.645,0,0,0,.7-.672V12.676h-.949q-1.907,0-2.03,1.318l-.009.149a1.017,1.017,0,0,0,.334.782A1.3,1.3,0,0,0,89.1,15.233ZM102.5,17H99.951V3.5H102.5Zm4.772,0h-2.549V7.49h2.549Zm-2.7-11.971a1.251,1.251,0,0,1,.382-.94,1.648,1.648,0,0,1,2.079,0,1.244,1.244,0,0,1,.387.94,1.247,1.247,0,0,1-.391.949,1.629,1.629,0,0,1-2.065,0A1.247,1.247,0,0,1,104.574,5.029Zm7.172,2.461.079,1.063a3.342,3.342,0,0,1,2.733-1.239,2.536,2.536,0,0,1,2.522,1.45,3.265,3.265,0,0,1,2.856-1.45,2.836,2.836,0,0,1,2.3.9A4.141,4.141,0,0,1,123,10.927V17h-2.549V10.922a1.818,1.818,0,0,0-.316-1.185,1.4,1.4,0,0,0-1.116-.374,1.585,1.585,0,0,0-1.582,1.092L117.441,17H114.9V10.93a1.8,1.8,0,0,0-.325-1.2,1.414,1.414,0,0,0-1.107-.37,1.645,1.645,0,0,0-1.564.9V17h-2.54V7.49Zm21.762,4.843a5.7,5.7,0,0,1-1,3.52,3.2,3.2,0,0,1-2.694,1.323,2.963,2.963,0,0,1-2.329-1v4.482h-2.54V7.49H127.3l.088.932A2.985,2.985,0,0,1,129.8,7.314a3.22,3.22,0,0,1,2.733,1.3,5.858,5.858,0,0,1,.976,3.586Zm-2.54-.194a3.763,3.763,0,0,0-.47-2.054,1.53,1.53,0,0,0-1.367-.723,1.662,1.662,0,0,0-1.644.917v3.906a1.691,1.691,0,0,0,1.661.943Q130.968,15.128,130.968,12.139ZM137.762,17h-2.549V7.49h2.549Zm-2.7-11.971a1.251,1.251,0,0,1,.382-.94,1.648,1.648,0,0,1,2.079,0,1.244,1.244,0,0,1,.387.94,1.247,1.247,0,0,1-.391.949,1.629,1.629,0,0,1-2.065,0A1.247,1.247,0,0,1,135.063,5.029ZM145.364,17a2.821,2.821,0,0,1-.255-.853,3.073,3.073,0,0,1-2.4,1.028,3.376,3.376,0,0,1-2.316-.809,2.6,2.6,0,0,1-.918-2.039,2.687,2.687,0,0,1,1.121-2.32,5.529,5.529,0,0,1,3.239-.817H145v-.545a1.567,1.567,0,0,0-.338-1.055,1.331,1.331,0,0,0-1.068-.4,1.513,1.513,0,0,0-1.006.308,1.045,1.045,0,0,0-.365.844h-2.54a2.551,2.551,0,0,1,.51-1.529,3.37,3.37,0,0,1,1.441-1.1,5.253,5.253,0,0,1,2.092-.4,4.15,4.15,0,0,1,2.791.883,3.09,3.09,0,0,1,1.033,2.483V14.8a4.546,4.546,0,0,0,.378,2.048V17Zm-2.1-1.767a2.188,2.188,0,0,0,1.037-.25,1.645,1.645,0,0,0,.7-.672V12.676h-.949q-1.907,0-2.03,1.318l-.009.149a1.017,1.017,0,0,0,.334.782A1.3,1.3,0,0,0,143.264,15.233Z" transform="translate(999 33704)" fill="#fff"/>
  </g>
</svg>
