<svg xmlns="http://www.w3.org/2000/svg" xmlns:xlink="http://www.w3.org/1999/xlink" width="295" height="196" viewBox="0 0 295 196">
  <defs>
    <clipPath id="clip-path">
      <rect id="Rectángulo_50389" data-name="Rectángulo 50389" width="175.124" height="178.705" fill="none"/>
    </clipPath>
    <clipPath id="clip-path-3">
      <rect id="Rectángulo_50370" data-name="Rectángulo 50370" width="12.343" height="7.431" fill="none"/>
    </clipPath>
    <clipPath id="clip-path-4">
      <rect id="Rectángulo_50371" data-name="Rectángulo 50371" width="10.84" height="3.954" fill="none"/>
    </clipPath>
    <clipPath id="clip-path-5">
      <rect id="Rectángulo_50372" data-name="Rectángulo 50372" width="6.904" height="2.518" fill="none"/>
    </clipPath>
    <clipPath id="clip-path-6">
      <rect id="Rectángulo_50373" data-name="Rectángulo 50373" width="12.202" height="7.66" fill="none"/>
    </clipPath>
    <clipPath id="clip-path-7">
      <rect id="Rectángulo_50374" data-name="Rectángulo 50374" width="10.915" height="3.742" fill="none"/>
    </clipPath>
    <clipPath id="clip-path-8">
      <rect id="Rectángulo_50375" data-name="Rectángulo 50375" width="6.952" height="2.383" fill="none"/>
    </clipPath>
    <clipPath id="clip-path-9">
      <rect id="Rectángulo_50382" data-name="Rectángulo 50382" width="43.332" height="35.208" fill="none"/>
    </clipPath>
    <clipPath id="clip-path-10">
      <path id="Trazado_215600" data-name="Trazado 215600" d="M236.635,49.129a236.925,236.925,0,0,0,38.64,62.112l32.28-20.081a341.032,341.032,0,0,0-38.64-62.112Z" transform="translate(-236.635 -29.048)" fill="none"/>
    </clipPath>
    <clipPath id="clip-path-12">
      <rect id="Rectángulo_50384" data-name="Rectángulo 50384" width="63.405" height="88.724" fill="none"/>
    </clipPath>
    <clipPath id="clip-path-13">
      <rect id="Rectángulo_50385" data-name="Rectángulo 50385" width="0.29" height="0.598" fill="none"/>
    </clipPath>
    <clipPath id="clip-path-14">
      <rect id="Rectángulo_50386" data-name="Rectángulo 50386" width="95.044" height="42.069" fill="none"/>
    </clipPath>
    <clipPath id="clip-path-15">
      <rect id="Rectángulo_50387" data-name="Rectángulo 50387" width="52.216" height="41.391" fill="none"/>
    </clipPath>
  </defs>
  <g id="Grupo_156437" data-name="Grupo 156437" transform="translate(-285 -2651)">
    <rect id="Rectángulo_50341" data-name="Rectángulo 50341" width="295" height="196" transform="translate(285 2651)" fill="#d7e8fd"/>
    <g id="Grupo_155677" data-name="Grupo 155677" transform="translate(-25 -23.828)">
      <g id="Grupo_155676" data-name="Grupo 155676" transform="translate(370 2683.828)">
        <g id="Grupo_155675" data-name="Grupo 155675" clip-path="url(#clip-path)">
          <g id="Grupo_155658" data-name="Grupo 155658">
            <g id="Grupo_155657" data-name="Grupo 155657" clip-path="url(#clip-path)">
              <path id="Trazado_215557" data-name="Trazado 215557" d="M52.174,35.639a3.031,3.031,0,0,0-3.647.573c-2.026,2.048-3.55,4.3-5.93,5.826a.963.963,0,0,1-1.465-1.03c.892-3.726,1.456-6.86,2.272-10.683L48.52,10.693a2.943,2.943,0,1,0-5.7-1.485L38.11,27.247a.811.811,0,0,1-1.069.555l-.016-.006a.811.811,0,0,1-.51-.966L42.154,5.246a2.943,2.943,0,0,0-5.7-1.485l-5.5,21.052a1.043,1.043,0,0,1-1.267.745l-.033-.009a1.042,1.042,0,0,1-.76-1.273L34.26,3.756a2.943,2.943,0,1,0-5.7-1.485l-5.4,20.677a1.361,1.361,0,0,1-1.512,1l-.028,0A1.356,1.356,0,0,1,20.5,22.259L25.083,4.72a2.943,2.943,0,0,0-5.7-1.483L14.508,21.982c-5.983,17.6-5.8,32.65-7.294,39.437,5.36,3.222,22.243,6.508,24.568,6.28.421-1.413,2.414-7.687,3.189-9.882A3.479,3.479,0,0,1,36.02,56.3a92.565,92.565,0,0,1,7.935-5.805c2.888-1.936,7.048-7.816,9.089-10.556a2.944,2.944,0,0,0-.87-4.3" transform="translate(-4.27 -0.041)" fill="#efc515"/>
              <path id="Trazado_215558" data-name="Trazado 215558" d="M11.294,82.023C8.522,94.5,8.365,104.684,7.214,109.929c5.36,3.221,22.243,6.507,24.568,6.28.315-1.057,1.509-4.834,2.416-7.589-12.422,1.96-24.073-7.723-22.9-26.6" transform="translate(-4.27 -48.551)" fill="#e8b219"/>
              <path id="Trazado_215559" data-name="Trazado 215559" d="M13.2,153.011a65.66,65.66,0,0,1-12.4-4.422,1.472,1.472,0,0,1,1.358-2.611c.093.047,9.51,4.851,26.279,6.988a1.472,1.472,0,0,1-.372,2.92A113.278,113.278,0,0,1,13.2,153.011" transform="translate(0 -86.31)" fill="#cb871d"/>
              <path id="Trazado_215560" data-name="Trazado 215560" d="M55.541,76.69C43.007,76.361,38,86.2,37.843,93.13c6.927-8.462,15.288-9.57,21.341-9.643a.943.943,0,0,1-.379-1.009c.6-2.507,1.052-4.749,1.532-7.11-4.859-1.2-17.054-4.176-23.266-5.238,8.316,2.721,14.171,4.785,18.47,6.56" transform="translate(-21.943 -41.511)" fill="#e8b219"/>
              <path id="Trazado_215561" data-name="Trazado 215561" d="M101.614,19.726c1.174.249,2.109,1.109,1.492,3.423l-1.87,7.008" transform="translate(-59.924 -11.676)" fill="none" stroke="#fff6aa" stroke-linecap="round" stroke-miterlimit="10" stroke-width="1.352"/>
              <line id="Línea_738" data-name="Línea 738" x1="0.684" y2="2.566" transform="translate(40.115 20.405)" fill="none" stroke="#fff6aa" stroke-linecap="round" stroke-miterlimit="10" stroke-width="1.352"/>
              <path id="Trazado_215562" data-name="Trazado 215562" d="M113.741,89.413c.96.721,1.515,1.991.036,3.874-1.139,1.451-1.749,2.155-1.749,2.155" transform="translate(-66.312 -52.925)" fill="none" stroke="#fff6aa" stroke-linecap="round" stroke-miterlimit="10" stroke-width="1.352"/>
              <line id="Línea_739" data-name="Línea 739" x1="1.702" y2="2.038" transform="translate(42.738 44.046)" fill="none" stroke="#fff6aa" stroke-linecap="round" stroke-miterlimit="10" stroke-width="1.352"/>
              <path id="Trazado_215563" data-name="Trazado 215563" d="M86.442,6.143c1.174.249,2.109,1.109,1.492,3.423l-1.87,7.008" transform="translate(-50.944 -3.636)" fill="none" stroke="#fff6aa" stroke-linecap="round" stroke-miterlimit="10" stroke-width="1.352"/>
              <line id="Línea_740" data-name="Línea 740" x1="0.684" y2="2.566" transform="translate(33.924 14.862)" fill="none" stroke="#fff6aa" stroke-linecap="round" stroke-miterlimit="10" stroke-width="1.352"/>
              <path id="Trazado_215564" data-name="Trazado 215564" d="M67,2.89C68.17,3.139,69.1,4,68.488,6.313l-1.87,7.008" transform="translate(-39.432 -1.711)" fill="none" stroke="#fff6aa" stroke-linecap="round" stroke-miterlimit="10" stroke-width="1.352"/>
              <line id="Línea_741" data-name="Línea 741" x1="0.684" y2="2.566" transform="translate(25.988 13.535)" fill="none" stroke="#fff6aa" stroke-linecap="round" stroke-miterlimit="10" stroke-width="1.352"/>
              <path id="Trazado_215565" data-name="Trazado 215565" d="M44.028,5.055c1.174.249,2.109,1.109,1.492,3.423l-1.87,7.008" transform="translate(-25.838 -2.992)" fill="none" stroke="#fff6aa" stroke-linecap="round" stroke-miterlimit="10" stroke-width="1.352"/>
              <line id="Línea_742" data-name="Línea 742" x1="0.684" y2="2.566" transform="translate(16.616 14.418)" fill="none" stroke="#fff6aa" stroke-linecap="round" stroke-miterlimit="10" stroke-width="1.352"/>
              <g id="Grupo_155638" data-name="Grupo 155638" transform="translate(21.218 43.514)" opacity="0.34">
                <g id="Grupo_155637" data-name="Grupo 155637">
                  <g id="Grupo_155636" data-name="Grupo 155636" clip-path="url(#clip-path-3)">
                    <path id="Trazado_215566" data-name="Trazado 215566" d="M64.232,107.535c.621,1.34-1.591,3.686-4.941,5.24s-6.571,1.727-7.192.386,1.591-3.686,4.942-5.24,6.571-1.727,7.192-.387" transform="translate(-51.994 -106.632)" fill="#fff6aa"/>
                  </g>
                </g>
              </g>
              <g id="Grupo_155641" data-name="Grupo 155641" transform="translate(25.69 28.173)" opacity="0.34">
                <g id="Grupo_155640" data-name="Grupo 155640">
                  <g id="Grupo_155639" data-name="Grupo 155639" clip-path="url(#clip-path-4)">
                    <path id="Trazado_215567" data-name="Trazado 215567" d="M73.78,72.458c-.2.747-2.782.706-5.769-.091s-5.246-2.048-5.047-2.795,2.782-.706,5.769.091,5.246,2.048,5.047,2.795" transform="translate(-62.952 -69.038)" fill="#fff6aa"/>
                  </g>
                </g>
              </g>
              <g id="Grupo_155644" data-name="Grupo 155644" transform="translate(14.941 25.727)" opacity="0.34">
                <g id="Grupo_155643" data-name="Grupo 155643">
                  <g id="Grupo_155642" data-name="Grupo 155642" clip-path="url(#clip-path-5)">
                    <path id="Trazado_215568" data-name="Trazado 215568" d="M43.509,65.221c-.127.475-1.772.45-3.674-.058s-3.341-1.3-3.214-1.78,1.771-.45,3.674.058,3.341,1.3,3.214,1.78" transform="translate(-36.613 -63.043)" fill="#fff6aa"/>
                  </g>
                </g>
              </g>
              <path id="Trazado_215569" data-name="Trazado 215569" d="M109.94,67.946a3.03,3.03,0,0,1,3.628.68c1.965,2.107,3.422,4.407,5.756,6a.964.964,0,0,0,1.5-.986c-.782-3.751-1.253-6.9-1.956-10.745l-4.535-19.775a2.943,2.943,0,0,1,5.738-1.316l4.18,18.171a.81.81,0,0,0,1.052.586l.016,0a.812.812,0,0,0,.538-.951l-5-21.741a2.943,2.943,0,0,1,5.737-1.316l4.877,21.205a1.042,1.042,0,0,0,1.244.782l.033-.007a1.042,1.042,0,0,0,.8-1.25L128.786,36.6a2.943,2.943,0,1,1,5.738-1.316l4.79,20.827A1.361,1.361,0,0,0,140.8,57.16l.028,0A1.355,1.355,0,0,0,141.99,55.5l-4.06-17.666a2.943,2.943,0,0,1,5.738-1.314l4.324,18.88c5.462,17.766,4.839,32.807,6.128,39.635-5.452,3.062-22.426,5.849-24.743,5.553-.379-1.425-2.186-7.755-2.9-9.972a3.474,3.474,0,0,0-1-1.549,92.625,92.625,0,0,0-7.76-6.037c-2.83-2.02-6.814-8.021-8.774-10.819a2.944,2.944,0,0,1,1-4.27" transform="translate(-64.17 -19.535)" fill="#efc515"/>
              <path id="Trazado_215570" data-name="Trazado 215570" d="M178.1,116.376c2.4,12.554,2.26,22.737,3.256,28.014-5.452,3.061-22.425,5.849-24.742,5.553-.284-1.066-1.367-4.877-2.191-7.657,12.359,2.325,24.29-7.01,23.677-25.91" transform="translate(-91.405 -68.885)" fill="#e8b219"/>
              <path id="Trazado_215571" data-name="Trazado 215571" d="M170.916,187.389a65.651,65.651,0,0,0,12.528-4.055,1.471,1.471,0,0,0-1.28-2.65c-.094.044-9.649,4.568-26.474,6.209a1.472,1.472,0,0,0,.286,2.93,113.235,113.235,0,0,0,14.94-2.435" transform="translate(-91.369 -106.865)" fill="#cb871d"/>
              <path id="Trazado_215572" data-name="Trazado 215572" d="M140.333,109.916c12.538.04,17.257,10.024,17.206,16.955-6.675-8.662-15-10.017-21.048-10.268a.942.942,0,0,0,.408-1c-.526-2.524-.912-4.778-1.322-7.152,4.892-1.06,17.17-3.671,23.41-4.55-8.393,2.475-14.306,4.365-18.655,6.013" transform="translate(-80.251 -61.502)" fill="#e8b219"/>
              <path id="Trazado_215573" data-name="Trazado 215573" d="M126.828,51.6c-1.181.215-2.141,1.046-1.592,3.377S126.9,62.04,126.9,62.04" transform="translate(-74.036 -30.545)" fill="none" stroke="#fff6aa" stroke-linecap="round" stroke-miterlimit="10" stroke-width="1.352"/>
              <line id="Línea_743" data-name="Línea 743" x2="0.608" y2="2.585" transform="translate(53.319 33.434)" fill="none" stroke="#fff6aa" stroke-linecap="round" stroke-miterlimit="10" stroke-width="1.352"/>
              <path id="Trazado_215574" data-name="Trazado 215574" d="M111.811,120.846c-.981.693-1.573,1.945-.15,3.871,1.1,1.484,1.685,2.206,1.685,2.206" transform="translate(-65.593 -71.531)" fill="none" stroke="#fff6aa" stroke-linecap="round" stroke-miterlimit="10" stroke-width="1.352"/>
              <line id="Línea_744" data-name="Línea 744" x2="1.641" y2="2.088" transform="translate(48.983 56.958)" fill="none" stroke="#fff6aa" stroke-linecap="round" stroke-miterlimit="10" stroke-width="1.352"/>
              <path id="Trazado_215575" data-name="Trazado 215575" d="M142.393,38.473c-1.181.215-2.141,1.046-1.592,3.377s1.662,7.061,1.662,7.061" transform="translate(-83.249 -22.773)" fill="none" stroke="#fff6aa" stroke-linecap="round" stroke-miterlimit="10" stroke-width="1.352"/>
              <line id="Línea_745" data-name="Línea 745" x2="0.608" y2="2.585" transform="translate(59.671 28.076)" fill="none" stroke="#fff6aa" stroke-linecap="round" stroke-miterlimit="10" stroke-width="1.352"/>
              <path id="Trazado_215576" data-name="Trazado 215576" d="M161.928,35.795c-1.181.215-2.141,1.046-1.592,3.377S162,46.232,162,46.232" transform="translate(-94.812 -21.188)" fill="none" stroke="#fff6aa" stroke-linecap="round" stroke-miterlimit="10" stroke-width="1.352"/>
              <line id="Línea_746" data-name="Línea 746" x2="0.608" y2="2.585" transform="translate(67.643 26.983)" fill="none" stroke="#fff6aa" stroke-linecap="round" stroke-miterlimit="10" stroke-width="1.352"/>
              <path id="Trazado_215577" data-name="Trazado 215577" d="M184.821,38.636c-1.181.215-2.141,1.046-1.592,3.377s1.662,7.061,1.662,7.061" transform="translate(-108.363 -22.869)" fill="none" stroke="#fff6aa" stroke-linecap="round" stroke-miterlimit="10" stroke-width="1.352"/>
              <line id="Línea_747" data-name="Línea 747" x2="0.608" y2="2.585" transform="translate(76.985 28.143)" fill="none" stroke="#fff6aa" stroke-linecap="round" stroke-miterlimit="10" stroke-width="1.352"/>
              <g id="Grupo_155647" data-name="Grupo 155647" transform="translate(59.832 56.813)" opacity="0.34">
                <g id="Grupo_155646" data-name="Grupo 155646">
                  <g id="Grupo_155645" data-name="Grupo 155645" clip-path="url(#clip-path-6)">
                    <path id="Trazado_215578" data-name="Trazado 215578" d="M146.736,140.059c-.661,1.321,1.481,3.731,4.785,5.383s6.517,1.92,7.178.6-1.481-3.732-4.785-5.383-6.517-1.92-7.178-.6" transform="translate(-146.617 -139.219)" fill="#fff6aa"/>
                  </g>
                </g>
              </g>
              <g id="Grupo_155650" data-name="Grupo 155650" transform="translate(57.26 41.59)" opacity="0.34">
                <g id="Grupo_155649" data-name="Grupo 155649">
                  <g id="Grupo_155648" data-name="Grupo 155648" clip-path="url(#clip-path-7)">
                    <path id="Trazado_215579" data-name="Trazado 215579" d="M140.324,105.07c.177.752,2.76.788,5.769.08s5.3-1.893,5.127-2.645-2.759-.788-5.768-.079-5.3,1.892-5.128,2.644" transform="translate(-140.315 -101.917)" fill="#fff6aa"/>
                  </g>
                </g>
              </g>
              <g id="Grupo_155653" data-name="Grupo 155653" transform="translate(72.045 39.481)" opacity="0.34">
                <g id="Grupo_155652" data-name="Grupo 155652">
                  <g id="Grupo_155651" data-name="Grupo 155651" clip-path="url(#clip-path-8)">
                    <path id="Trazado_215580" data-name="Trazado 215580" d="M176.553,98.757c.113.479,1.758.5,3.674.051s3.379-1.205,3.266-1.685-1.758-.5-3.674-.05-3.378,1.205-3.265,1.684" transform="translate(-176.547 -96.748)" fill="#fff6aa"/>
                  </g>
                </g>
              </g>
              <rect id="Rectángulo_50376" data-name="Rectángulo 50376" width="5.629" height="8.445" transform="translate(30.937 96.616)" fill="#347a9a"/>
              <rect id="Rectángulo_50377" data-name="Rectángulo 50377" width="5.629" height="3.539" transform="translate(30.937 99.469)" fill="#3a8cb1"/>
              <path id="Trazado_215581" data-name="Trazado 215581" d="M78.174,255.831H63.764a1,1,0,0,0-1,1v4.5H79.172v-4.5a1,1,0,0,0-1-1" transform="translate(-37.152 -151.431)" fill="#fff"/>
              <rect id="Rectángulo_50378" data-name="Rectángulo 50378" width="16.406" height="1.947" transform="translate(25.614 107.953)" fill="#d1d1d1"/>
              <line id="Línea_748" data-name="Línea 748" y2="5.047" transform="translate(26.764 105.339)" fill="none" stroke="#d1d1d1" stroke-linecap="round" stroke-miterlimit="10" stroke-width="0.506"/>
              <line id="Línea_749" data-name="Línea 749" y2="5.047" transform="translate(28.316 105.339)" fill="none" stroke="#d1d1d1" stroke-linecap="round" stroke-miterlimit="10" stroke-width="0.506"/>
              <line id="Línea_750" data-name="Línea 750" y2="5.047" transform="translate(29.867 105.339)" fill="none" stroke="#d1d1d1" stroke-linecap="round" stroke-miterlimit="10" stroke-width="0.506"/>
              <line id="Línea_751" data-name="Línea 751" y2="5.047" transform="translate(31.418 105.339)" fill="none" stroke="#d1d1d1" stroke-linecap="round" stroke-miterlimit="10" stroke-width="0.506"/>
              <line id="Línea_752" data-name="Línea 752" y2="5.047" transform="translate(32.969 105.339)" fill="none" stroke="#d1d1d1" stroke-linecap="round" stroke-miterlimit="10" stroke-width="0.506"/>
              <line id="Línea_753" data-name="Línea 753" y2="5.047" transform="translate(34.521 105.339)" fill="none" stroke="#d1d1d1" stroke-linecap="round" stroke-miterlimit="10" stroke-width="0.506"/>
              <line id="Línea_754" data-name="Línea 754" y2="5.047" transform="translate(36.072 105.339)" fill="none" stroke="#d1d1d1" stroke-linecap="round" stroke-miterlimit="10" stroke-width="0.506"/>
              <line id="Línea_755" data-name="Línea 755" y2="5.047" transform="translate(37.623 105.339)" fill="none" stroke="#d1d1d1" stroke-linecap="round" stroke-miterlimit="10" stroke-width="0.506"/>
              <line id="Línea_756" data-name="Línea 756" y2="5.047" transform="translate(39.175 105.339)" fill="none" stroke="#d1d1d1" stroke-linecap="round" stroke-miterlimit="10" stroke-width="0.506"/>
              <line id="Línea_757" data-name="Línea 757" y2="5.047" transform="translate(40.726 105.339)" fill="none" stroke="#d1d1d1" stroke-linecap="round" stroke-miterlimit="10" stroke-width="0.506"/>
              <path id="Trazado_215582" data-name="Trazado 215582" d="M76.6,267.8H57.341a1.334,1.334,0,0,0-1.334,1.334v6.016H77.93v-6.016A1.333,1.333,0,0,0,76.6,267.8" transform="translate(-33.152 -158.515)" fill="#3a8cb1"/>
              <rect id="Rectángulo_50379" data-name="Rectángulo 50379" width="21.923" height="3.561" transform="translate(22.855 113.073)" fill="#1e6f8d"/>
              <path id="Trazado_215583" data-name="Trazado 215583" d="M60.806,282.125H42.077a12.3,12.3,0,0,0-12.3,12.3v45.612a5.661,5.661,0,0,0,5.661,5.661h32.01a5.661,5.661,0,0,0,5.661-5.661V294.427a12.3,12.3,0,0,0-12.3-12.3" transform="translate(-17.624 -166.995)" fill="#fff"/>
              <path id="Trazado_215584" data-name="Trazado 215584" d="M70.217,356.782H50.865a5.716,5.716,0,0,1-5.716-5.716V320.751a5.716,5.716,0,0,1,5.716-5.716H70.217a5.716,5.716,0,0,1,5.716,5.716v30.314a5.716,5.716,0,0,1-5.716,5.716" transform="translate(-26.725 -186.475)" fill="#3a8cb1"/>
              <rect id="Rectángulo_50380" data-name="Rectángulo 50380" width="5.556" height="20.122" transform="translate(31.039 139.372)" fill="#fff"/>
              <rect id="Rectángulo_50381" data-name="Rectángulo 50381" width="20.122" height="5.556" transform="translate(23.756 146.655)" fill="#fff"/>
              <path id="Trazado_215585" data-name="Trazado 215585" d="M32.026,220.38l-.5,1.625a.65.65,0,0,0,.655.84c2.223-.114,7.885-.266,10.849.933a40.643,40.643,0,0,1,5.579,2.693.645.645,0,0,0,.335.093h6.427a.652.652,0,0,0,.575-.346l4.4-8.328a.651.651,0,0,0-.575-.955H46.535c-2.851,0-12.148,2.489-14.059,3.009a.648.648,0,0,0-.45.437" transform="translate(-18.646 -128.407)" fill="#fff"/>
              <g id="Grupo_155656" data-name="Grupo 155656" transform="translate(12.151 143.496)" opacity="0.28" style="mix-blend-mode: multiply;isolation: isolate">
                <g id="Grupo_155655" data-name="Grupo 155655">
                  <g id="Grupo_155654" data-name="Grupo 155654" clip-path="url(#clip-path-9)">
                    <path id="Trazado_215586" data-name="Trazado 215586" d="M29.775,351.637v29.547a5.661,5.661,0,0,0,5.661,5.661h32.01a5.661,5.661,0,0,0,5.661-5.661V367.868c-21.558,10.1-38.713.3-43.332-16.231" transform="translate(-29.775 -351.637)" fill="#3a8cb1"/>
                  </g>
                </g>
              </g>
              <path id="Trazado_215587" data-name="Trazado 215587" d="M44.464,229.409a11.046,11.046,0,0,0-4.247-.863H31.631l-.1.332a.65.65,0,0,0,.655.84c2.223-.114,7.885-.265,10.849.933a40.563,40.563,0,0,1,5.579,2.693.645.645,0,0,0,.335.093h6.427a.651.651,0,0,0,.575-.346l.664-1.256H51c-1.68,0-4.278-1.5-6.533-2.425" transform="translate(-18.646 -135.281)" fill="#d1d1d1"/>
              <path id="Trazado_215588" data-name="Trazado 215588" d="M261.171,11.139c1.92-4.594-1.295-10.471-9.192-9.971-10.23.648-22.644,8.555-25.2,16.572-2.73,8.567,3.811,12.329,3.811,12.329" transform="translate(-133.841 -0.674)" fill="none" stroke="#ececec" stroke-miterlimit="10" stroke-width="2.278"/>
              <path id="Trazado_215589" data-name="Trazado 215589" d="M367.824,186.455c4.969.308,8.82,5.789,4.881,12.652-5.1,8.89-17.681,16.531-26,15.28-8.892-1.337-9.375-8.868-9.375-8.868" transform="translate(-199.671 -110.366)" fill="none" stroke="#ececec" stroke-miterlimit="10" stroke-width="2.278"/>
              <path id="Trazado_215590" data-name="Trazado 215590" d="M270.729,109.713a247.444,247.444,0,0,1-41.436-66.607l35.551-22.116A356.156,356.156,0,0,1,306.28,87.6Z" transform="translate(-135.723 -12.424)" fill="#ececec"/>
              <path id="Trazado_215591" data-name="Trazado 215591" d="M331.352,233.35l-.658.409-.5-.588" transform="translate(-195.445 -138.018)" fill="none" stroke="#bdbdbd" stroke-miterlimit="10" stroke-width="0.759"/>
              <path id="Trazado_215592" data-name="Trazado 215592" d="M272.525,141.222A244.713,244.713,0,0,1,234.442,79.8" transform="translate(-138.771 -47.233)" fill="none" stroke="#bdbdbd" stroke-miterlimit="10" stroke-width="0.759" stroke-dasharray="3.742 3.742"/>
              <path id="Trazado_215593" data-name="Trazado 215593" d="M233.263,76.448q-.152-.356-.3-.713l.658-.409" transform="translate(-137.893 -44.587)" fill="none" stroke="#bdbdbd" stroke-miterlimit="10" stroke-width="0.759"/>
              <line id="Línea_758" data-name="Línea 758" y1="18.979" x2="30.509" transform="translate(97.022 10.952)" fill="none" stroke="#bdbdbd" stroke-miterlimit="10" stroke-width="0.759" stroke-dasharray="3.747 3.747"/>
              <path id="Trazado_215594" data-name="Trazado 215594" d="M314.105,25.255l.658-.409.476.612" transform="translate(-185.925 -14.707)" fill="none" stroke="#bdbdbd" stroke-miterlimit="10" stroke-width="0.759"/>
              <path id="Trazado_215595" data-name="Trazado 215595" d="M319.166,29.3a352.231,352.231,0,0,1,38.109,61.392" transform="translate(-188.92 -17.343)" fill="none" stroke="#bdbdbd" stroke-miterlimit="10" stroke-width="0.759" stroke-dasharray="3.734 3.734"/>
              <path id="Trazado_215596" data-name="Trazado 215596" d="M412.895,181.419l.335.7-.658.409" transform="translate(-244.209 -107.385)" fill="none" stroke="#bdbdbd" stroke-miterlimit="10" stroke-width="0.759"/>
              <line id="Línea_759" data-name="Línea 759" x1="30.509" y2="18.979" transform="translate(136.556 75.948)" fill="none" stroke="#bdbdbd" stroke-miterlimit="10" stroke-width="0.759" stroke-dasharray="3.747 3.747"/>
              <path id="Trazado_215597" data-name="Trazado 215597" d="M275.275,111.241a236.925,236.925,0,0,1-38.64-62.112l32.28-20.081a341.034,341.034,0,0,1,38.64,62.113Z" transform="translate(-140.069 -17.193)" fill="#b1d6e5"/>
            </g>
          </g>
          <g id="Grupo_155660" data-name="Grupo 155660" transform="translate(96.566 11.854)">
            <g id="Grupo_155659" data-name="Grupo 155659" clip-path="url(#clip-path-10)">
              <line id="Línea_760" data-name="Línea 760" x2="39.351" y2="63.255" transform="translate(16.14 9.49)" fill="none" stroke="#7ba9be" stroke-miterlimit="10" stroke-width="1.519"/>
              <path id="Trazado_215598" data-name="Trazado 215598" d="M300.506,37.173c16.368,20.785,30,41.822,39.351,63.255" transform="translate(-274.441 -33.857)" fill="none" stroke="#7ba9be" stroke-miterlimit="10" stroke-width="1.519"/>
              <path id="Trazado_215599" data-name="Trazado 215599" d="M252.839,66.826c11.411,23.869,24.256,45.4,39.351,63.255" transform="translate(-246.226 -51.41)" fill="none" stroke="#7ba9be" stroke-miterlimit="10" stroke-width="1.519"/>
            </g>
          </g>
          <g id="Grupo_155674" data-name="Grupo 155674">
            <g id="Grupo_155673" data-name="Grupo 155673" clip-path="url(#clip-path)">
              <g id="Grupo_155663" data-name="Grupo 155663" transform="translate(93.57 8.565)" opacity="0.27" style="mix-blend-mode: multiply;isolation: isolate">
                <g id="Grupo_155662" data-name="Grupo 155662">
                  <g id="Grupo_155661" data-name="Grupo 155661" clip-path="url(#clip-path-12)">
                    <path id="Trazado_215601" data-name="Trazado 215601" d="M253.849,51.548c5.94,7.232,19.1,23.33,24.93,31.071-8.966-15.207-20.4-33.131-23.672-38.233a35.762,35.762,0,0,1,4.21-9.543C266.849,42.6,288.088,71.382,292.7,80.6c-9.35-19.258-24.414-40.791-31.048-49.021a35.145,35.145,0,0,1,6.53-6.266q-1.647-2.167-3.336-4.326L229.294,43.105a247.443,247.443,0,0,0,41.436,66.607l9.257-5.758c-20.371-19.036-27.329-37.518-26.138-52.407" transform="translate(-229.294 -20.989)" fill="#7ba9be"/>
                  </g>
                </g>
              </g>
              <g id="Grupo_155666" data-name="Grupo 155666" transform="translate(156.975 68.178)" opacity="0.27" style="mix-blend-mode: multiply;isolation: isolate">
                <g id="Grupo_155665" data-name="Grupo 155665">
                  <g id="Grupo_155664" data-name="Grupo 155664" clip-path="url(#clip-path-13)">
                    <path id="Trazado_215602" data-name="Trazado 215602" d="M384.667,167.07c.1.2.194.4.29.6-.087-.188-.186-.39-.29-.6" transform="translate(-384.667 -167.07)" fill="#7ba9be"/>
                  </g>
                </g>
              </g>
              <path id="Trazado_215603" data-name="Trazado 215603" d="M201.3,293.212s20.182-4.593,23.242-4.888c1.53-.148,2.735.517,4.171,2.262,1.723,2.095,3.876,4.929,4.878,6.311,2.005,2.766.839,7.459-1.17,4.553-2.4-3.47-4.591-5.991-6.016-7.913-1.124-1.516-1.88-1.807-3.322-1.543-5.481,1-18.057,3.458-18.057,3.458Z" transform="translate(-119.151 -170.653)" fill="#dde5eb"/>
              <path id="Trazado_215604" data-name="Trazado 215604" d="M343.35,293.35s-20.088-4.988-23.142-5.344c-1.527-.178-2.744.464-4.214,2.18-1.765,2.06-3.972,4.851-5,6.214-2.059,2.726-.985,7.441,1.081,4.575,2.467-3.423,4.708-5.9,6.171-7.794,1.153-1.493,1.915-1.77,3.351-1.477,5.46,1.111,17.985,3.812,17.985,3.812Z" transform="translate(-183.427 -170.459)" fill="#dde5eb"/>
              <g id="Grupo_155669" data-name="Grupo 155669" transform="translate(74.215 122.185)" opacity="0.53">
                <g id="Grupo_155668" data-name="Grupo 155668">
                  <g id="Grupo_155667" data-name="Grupo 155667" clip-path="url(#clip-path-14)">
                    <path id="Trazado_215605" data-name="Trazado 215605" d="M266.494,300l-30.606-.243-.459,0-11.838-.094-1.047-.008-30.018-.239a10.5,10.5,0,0,0-10.58,10.413l-.082,10.284a20.782,20.782,0,0,0,39.969,8.145,7.782,7.782,0,0,1,4.552-4.366,8.994,8.994,0,0,1,3.048-.562,8.15,8.15,0,0,1,2.433.415A7.777,7.777,0,0,1,236.7,328.3a20.782,20.782,0,0,0,40.124-7.432l.082-10.284A10.5,10.5,0,0,0,266.494,300" transform="translate(-181.864 -299.413)" fill="#869caa"/>
                  </g>
                </g>
              </g>
              <path id="Trazado_215606" data-name="Trazado 215606" d="M279.811,347.268s3.3-9.166,7.543-8.971,6.869,8.225,6.869,8.225-8.519-3.562-14.413.746" transform="translate(-165.626 -200.243)" fill="#688494"/>
              <path id="Trazado_215607" data-name="Trazado 215607" d="M192.633,303.354c-.07,8.784-1.321,21.192,2.861,28.109,4.26,7.046,14.047,8.475,24.425,3.389-2.237,4.277-9.758,8.183-17.683,7.459s-15.348-9.044-16.391-16.432-.308-16.744,1.473-19.043a12.93,12.93,0,0,1,5.314-3.483" transform="translate(-109.722 -179.561)" fill="#688494"/>
              <path id="Trazado_215608" data-name="Trazado 215608" d="M357.128,304.9c-.07,8.784.984,21.211-3.307,28.06-4.371,6.978-14.18,8.251-24.476,3,2.169,4.313,9.626,8.337,17.561,7.739s15.49-8.8,16.651-16.169.573-16.737-1.17-19.064a12.929,12.929,0,0,0-5.259-3.567" transform="translate(-194.946 -180.475)" fill="#688494"/>
              <path id="Trazado_215609" data-name="Trazado 215609" d="M266.494,300l-30.606-.244-.459,0-11.838-.094-1.046-.009-30.018-.238a10.5,10.5,0,0,0-10.58,10.413l-.082,10.285a20.782,20.782,0,0,0,39.97,8.145,7.783,7.783,0,0,1,4.552-4.366,9,9,0,0,1,3.048-.562,8.148,8.148,0,0,1,2.433.416A7.777,7.777,0,0,1,236.7,328.3a20.781,20.781,0,0,0,40.124-7.432l.082-10.284A10.5,10.5,0,0,0,266.494,300m7.373,20.841a17.823,17.823,0,0,1-34.411,6.373,10.686,10.686,0,0,0-6.679-6.288,11.106,11.106,0,0,0-3.318-.558,11.9,11.9,0,0,0-4.06.732,10.749,10.749,0,0,0-6.3,6.018,17.823,17.823,0,0,1-34.28-6.985l.082-10.284a7.547,7.547,0,0,1,7.6-7.478l73.968.588a7.546,7.546,0,0,1,7.478,7.6Z" transform="translate(-107.649 -177.229)" fill="#fff"/>
              <g id="Grupo_155672" data-name="Grupo 155672" transform="translate(93.445 122.439)" opacity="0.36">
                <g id="Grupo_155671" data-name="Grupo 155671">
                  <g id="Grupo_155670" data-name="Grupo 155670" clip-path="url(#clip-path-15)">
                    <path id="Trazado_215610" data-name="Trazado 215610" d="M276.651,300.22l-.459,0-2.91-.023-22.553,40A20.847,20.847,0,0,0,262.6,328.717a7.782,7.782,0,0,1,4.552-4.366,8.992,8.992,0,0,1,3.048-.562c.166,0,.331.013.495.026l13.272-23.538Z" transform="translate(-241.856 -300.129)" fill="#fff"/>
                    <path id="Trazado_215611" data-name="Trazado 215611" d="M252.29,300.035l-23.3,41.328c.459.034.92.059,1.387.062.693.005,1.376-.027,2.051-.087L255.7,300.062Z" transform="translate(-228.986 -300.035)" fill="#fff"/>
                    <path id="Trazado_215612" data-name="Trazado 215612" d="M319.76,300.46l-13.631,24.173a7.76,7.76,0,0,1,2.462,1.706l14.577-25.852Z" transform="translate(-274.648 -300.287)" fill="#fff"/>
                    <path id="Trazado_215613" data-name="Trazado 215613" d="M330.4,300.565l-15.421,27.349a7.819,7.819,0,0,1,.518,1.065c.08.2.165.405.251.606L332.1,300.578Z" transform="translate(-279.884 -300.349)" fill="#fff"/>
                  </g>
                </g>
              </g>
            </g>
          </g>
        </g>
      </g>
    </g>
  </g>
</svg>
