<svg xmlns="http://www.w3.org/2000/svg" xmlns:xlink="http://www.w3.org/1999/xlink" width="295" height="196" viewBox="0 0 295 196">
  <defs>
    <clipPath id="clip-path">
      <rect id="Rectángulo_50432" data-name="Rectángulo 50432" width="268.848" height="137.199" fill="none"/>
    </clipPath>
    <clipPath id="clip-path-3">
      <rect id="Rectángulo_50428" data-name="Rectángulo 50428" width="2.856" height="39.621" transform="translate(158.842 95.284)" fill="none"/>
    </clipPath>
    <clipPath id="clip-path-4">
      <rect id="Rectángulo_50429" data-name="Rectángulo 50429" width="3.077" height="6.377" transform="translate(168.605 128.528)" fill="none"/>
    </clipPath>
  </defs>
  <g id="Grupo_156440" data-name="Grupo 156440" transform="translate(-285 -4401)">
    <rect id="Rectángulo_50362" data-name="Rectángulo 50362" width="295" height="196" transform="translate(285 4401)" fill="#d7e8fd"/>
    <g id="Grupo_155698" data-name="Grupo 155698" transform="translate(2 -16)">
      <g id="Grupo_155697" data-name="Grupo 155697" transform="translate(296 4447)">
        <g id="Grupo_155696" data-name="Grupo 155696" clip-path="url(#clip-path)">
          <rect id="Rectángulo_50398" data-name="Rectángulo 50398" width="3.503" height="20.826" transform="translate(100.06 37.993)" fill="#ce6428"/>
          <rect id="Rectángulo_50399" data-name="Rectángulo 50399" width="3.503" height="20.827" transform="translate(114.403 37.738)" fill="#ce6428"/>
          <rect id="Rectángulo_50400" data-name="Rectángulo 50400" width="3.502" height="20.826" transform="translate(104.564 37.993)" fill="#ce6428"/>
          <g id="Grupo_155695" data-name="Grupo 155695">
            <g id="Grupo_155694" data-name="Grupo 155694" clip-path="url(#clip-path)">
              <path id="Trazado_215688" data-name="Trazado 215688" d="M80.684,63.044a9.641,9.641,0,0,1-2.525,2.205,10.467,10.467,0,0,1-1.4.744c-.214-.3-.35-.484-.35-.484s-.176-.326-.434-.861c-.036-.069-.073-.147-.109-.225a.036.036,0,0,0-.007-.018l-.128-.267c-.107-.235-.223-.487-.343-.764-.21-.48-.431-1.017-.638-1.574a12.883,12.883,0,0,0-.509-1.214l-.024-.043c-.023-.051-.049-.1-.069-.147-.077-.146-.148-.277-.218-.394-.047-.08-.093-.157-.14-.227-.092-.143-.18-.262-.26-.363-.026-.033-.049-.063-.077-.094a5.45,5.45,0,0,0,2.506-.363,9.061,9.061,0,0,0,1.58-.873A19.275,19.275,0,0,0,79.1,56.923a15.555,15.555,0,0,0,.888,4.18c.359,1.107.693,1.941.693,1.941" fill="#263b7f"/>
              <path id="Trazado_215689" data-name="Trazado 215689" d="M80.684,63.044a9.641,9.641,0,0,1-2.525,2.205,10.467,10.467,0,0,1-1.4.744c-.214-.3-.35-.484-.35-.484s-.477-.887-1.021-2.135c2.032-.283,3.406-1.514,4.6-2.271.359,1.107.693,1.941.693,1.941" fill="#212a60"/>
              <path id="Trazado_215690" data-name="Trazado 215690" d="M67.037,66.573c0,.143-.01.283-.02.42,0,.047,0,.09-.009.137a7.11,7.11,0,0,1-.141.941,2.3,2.3,0,0,1-.06.227c-.026.093-.057.183-.086.269-.016.047-.034.092-.049.133s-.038.082-.055.119c-.023.053-.051.106-.076.156a2.777,2.777,0,0,1-.36.534l-.1.109a1.392,1.392,0,0,1-.134.121,1.118,1.118,0,0,1-.123.105.714.714,0,0,1-.077.055c-.05.035-.1.072-.16.106a2.736,2.736,0,0,1-.574.269c-.125-.242-.223-.426-.274-.521-.021-.047-.035-.075-.035-.075l-.055.063-.3.361-.121.143-.588.711A15.735,15.735,0,0,0,59.865,66.4s.247-.32.664-.847c.033-.04.067-.088.1-.129.744-.938,1.948-2.436,3.232-3.95.083-.1.17-.2.254-.3.187-.221.377-.416.567-.6a3.354,3.354,0,0,1,.54.4,1.457,1.457,0,0,1,.126.117c.035.029.068.065.105.1s.049.048.076.075a4.936,4.936,0,0,1,.44.52c.041.055.084.115.124.174s.084.125.124.191a4.347,4.347,0,0,1,.229.414c.033.074.07.147.105.227,0,.008,0,.011.008.023.025.053.044.106.068.162.037.1.074.2.1.305.024.068.043.144.063.217s.044.174.064.267a1.082,1.082,0,0,1,.024.133c.015.07.026.143.036.221.012.1.026.2.033.3a20.988,20.988,0,0,1,.083,2.148" fill="#263b7f"/>
              <path id="Trazado_215691" data-name="Trazado 215691" d="M76.127,85.346l-.02.25a21.437,21.437,0,0,1-7.512.7c.067-.2.124-.386.186-.584.141-.443.276-.884.381-1.314C70.416,79.518,71.957,67.676,72,67.549s-1.915-3-2.793-4.584a3.852,3.852,0,0,1-.286-.662c-.026-.076-.054-.156-.077-.24s-.043-.16-.067-.24c-.07-.284-.123-.579-.164-.861-.008-.072-.019-.143-.025-.213s-.014-.117-.021-.178-.016-.156-.024-.232c-.014-.194-.025-.377-.031-.551,0-.072-.008-.146-.008-.213,0-.107-.006-.205-.006-.293V59.1c0-.123,0-.226.006-.31,0-.051,0-.09,0-.123,0-.065.005-.1.005-.1a5.089,5.089,0,0,1,.668-.045A6.434,6.434,0,0,1,72,58.954c.111.047.227.09.34.131.006.049.017.117.033.2.008.039.014.084.021.129a.252.252,0,0,0,.006.049c.01.053.02.1.027.162.022.139.05.3.08.477.01.066.022.136.033.209.006.035.011.064.017.1.013.084.03.17.043.26.006.033.011.07.016.1.029.161.058.327.084.5,0,.023.007.049.013.076.02.111.038.225.055.338s.035.223.055.336c.034.215.071.431.107.65.017.117.037.238.056.358.031.173.057.343.084.517a.036.036,0,0,0,0,.02l.08.5c.1.634.2,1.265.287,1.842.026.179.053.357.076.527s.048.334.071.49a14.1,14.1,0,0,1,2.825,7.088,65.572,65.572,0,0,1-.284,11.332" fill="#263b7f"/>
              <path id="Trazado_215692" data-name="Trazado 215692" d="M77.541,58.081c-.166,1.062-1.805,2.32-3.3,2.5h0a2.624,2.624,0,0,1-.783-.014c-.327-.056-.623-.115-.9-.166a3.073,3.073,0,0,0-3.406,1.05q-.189.2-.374.368a3.032,3.032,0,0,1-2.211.994,3.185,3.185,0,0,1-1.645-.643c-.437-.308-.771-.545-1.054-.7.083-.1.17-.2.254-.3.187-.221.377-.416.568-.6a6.786,6.786,0,0,1,3.824-2,5.089,5.089,0,0,1,.668-.045A6.434,6.434,0,0,1,72,58.954c.11.047.227.09.34.131a4.449,4.449,0,0,0,1.117.232,5.436,5.436,0,0,0,2.506-.363,9.1,9.1,0,0,0,1.58-.873" fill="#212a60"/>
              <path id="Trazado_215693" data-name="Trazado 215693" d="M72,67.55c-.041.127-1.582,11.969-2.836,16.846-.105.429-.24.871-.381,1.314-.062.2-.119.387-.186.584a67.034,67.034,0,0,1-4.226,9.361,25.01,25.01,0,0,1-6.171-.476c-.317-.063-.591-.127-.824-.186-.573-.142-.887-.257-.887-.257a49.407,49.407,0,0,1,5.171-11.3A24.984,24.984,0,0,1,67.205,77.1c.289-.459-.045-1.834-.791-3.586s-1.4-3.24-1.4-3.24a2.738,2.738,0,0,0,.574-.27c.057-.033.11-.07.16-.1.027-.018.053-.036.077-.055a.737.737,0,0,0,.073-.061.356.356,0,0,0,.05-.045,1.392,1.392,0,0,0,.134-.121l.1-.109c.033-.037.063-.074.092-.113a2.723,2.723,0,0,0,.268-.42c.025-.051.053-.1.076-.156s.033-.079.055-.12.033-.086.049-.132c.029-.086.06-.176.087-.27a2.158,2.158,0,0,0,.059-.227,6.772,6.772,0,0,0,.141-.941c0-.043.006-.09.01-.137.009-.136.016-.277.019-.42a21,21,0,0,0-.083-2.148c-.007-.1-.02-.207-.033-.3-.01-.078-.021-.15-.036-.22-.008-.047-.015-.09-.024-.133-.02-.094-.041-.182-.064-.268s-.039-.148-.063-.217c-.029-.1-.066-.207-.1-.3-.024-.057-.043-.11-.067-.162a.155.155,0,0,0-.009-.024c-.034-.08-.072-.152-.105-.226a4.114,4.114,0,0,0-.229-.414c-.04-.067-.08-.131-.124-.192s-.083-.119-.123-.174a4.938,4.938,0,0,0-.441-.519l-.076-.076c-.037-.035-.07-.07-.1-.1a1.62,1.62,0,0,0-.126-.117,3.627,3.627,0,0,0-.54-.4,6.786,6.786,0,0,1,3.824-2s0,.031-.005.1c0,.033,0,.072,0,.123,0,.084-.006.187-.006.31v.178c0,.088,0,.185.006.293,0,.066,0,.14.008.213.006.174.016.357.031.55.008.077.015.157.023.233.008.06.016.117.022.178s.017.14.025.213c.041.282.094.577.164.86.024.081.043.161.067.241s.051.164.077.24a3.852,3.852,0,0,0,.286.662c.878,1.582,2.835,4.461,2.793,4.584" fill="#a6ddeb"/>
              <path id="Trazado_215694" data-name="Trazado 215694" d="M79.756,90.9a12.142,12.142,0,0,1-3.269,3.938c-.09.076-.176.148-.262.214-.686.563-1.182.895-1.182.895s.457-4.293.877-8.422c.061-.621.123-1.268.188-1.928l.019-.25a65.57,65.57,0,0,0,.284-11.332,14.1,14.1,0,0,0-2.825-7.088c-.023-.156-.047-.32-.071-.49s-.05-.348-.076-.527c-.087-.576-.187-1.207-.287-1.842l-.08-.5a.047.047,0,0,1,0-.02c-.028-.173-.054-.343-.084-.517-.02-.119-.04-.24-.057-.358-.036-.218-.073-.435-.107-.65-.02-.113-.036-.227-.055-.336s-.037-.226-.055-.338c-.006-.027-.01-.053-.013-.076-.026-.177-.055-.343-.084-.5,0-.034-.01-.071-.016-.1-.013-.09-.029-.176-.043-.26-.006-.033-.011-.062-.017-.1-.011-.073-.023-.143-.033-.209-.03-.178-.058-.338-.08-.477-.007-.056-.017-.109-.027-.162a.252.252,0,0,1-.006-.049c-.007-.045-.013-.09-.021-.129-.016-.08-.027-.148-.033-.2a4.449,4.449,0,0,0,1.117.232c.024.032.051.061.076.094.08.1.168.221.261.364.047.07.093.146.14.226.07.117.14.248.218.4l.069.146a.166.166,0,0,1,.019.043h0c.16.332.334.732.51,1.214.207.557.428,1.094.638,1.575.12.277.236.529.343.763.044.094.087.184.127.268,0,.006.007.01.007.017.036.079.074.157.11.225.258.535.434.861.434.861s.136.184.35.485a15.051,15.051,0,0,1,2.311,4.353,2.421,2.421,0,0,1-.273,1.709,2.49,2.49,0,0,1-.776.832s.018.047.047.141v0c.133.348.475,1.308.879,2.689a51.4,51.4,0,0,1,1.432,6.217c.833,5.088.543,6.3-.625,8.963" fill="#a6ddeb"/>
              <path id="Trazado_215695" data-name="Trazado 215695" d="M66.36,69.274a2.61,2.61,0,0,1-1.349,1c-.125-.242-.222-.426-.273-.521-.021-.047-.035-.075-.035-.075l-.055.063-.3.361-.121.143-.588.711a14.621,14.621,0,0,0-.949-1.514c1.023-1.279,3.019-3.693,3.215-4.02.209-.357.7-.023.4,1.588a7.014,7.014,0,0,0,.054,2.264" fill="#212a60"/>
              <path id="Trazado_215696" data-name="Trazado 215696" d="M76.237,43.1c-.416,1.139-.969,1.5-1.5,1.656q-.229-.369-.453-.75c-.887-1.492-1.759-3-2.989-3.242-1.529-.3-2.2.14-2.252.78a2.644,2.644,0,0,1-.584,1.529,2.562,2.562,0,0,1-2.168.859c-.834-.109-1.334-.025-1.445,1.059a10.855,10.855,0,0,0,.111,1.923c.161,1.354.416,2.831.416,2.831s-.944-1.086-1.694-.836-.614,3.392.944,4.087a3.176,3.176,0,0,0,2.5.25,7.091,7.091,0,0,0,1.553,1.569,3.737,3.737,0,0,1-3.471,2.8c-1.029-.221-1.558-1.2-2.112-1.92s-2.891-.137-5.727-2.25a4.165,4.165,0,0,1-1.277-5.807c.668-.836.637-1.281.027-1.7s-.141-1.305.307-1.639-.891-1.472-.364-2.947a2.69,2.69,0,0,1,.391-.734c.653-.865,1.818-1.131,3.836-1.378,2.5-.306.834-4.059,3.252-5.447a4.184,4.184,0,0,1,5.142.443c.751.751,2.138-1.251,4.223-.639s2.31,3.532,2.17,4.5a2.386,2.386,0,0,0,.333,2.057v0a1.693,1.693,0,0,0,.2.191,2.446,2.446,0,0,1,.637,2.752" fill="#d64e27"/>
              <path id="Trazado_215697" data-name="Trazado 215697" d="M68.675,54.82a3.736,3.736,0,0,1-3.472,2.8c-1.028-.221-1.558-1.2-2.112-1.92s-2.892-.137-5.727-2.25a4.166,4.166,0,0,1-1.278-5.807c.668-.836.638-1.281.028-1.7s-.141-1.305.306-1.639-.89-1.472-.363-2.947a2.651,2.651,0,0,1,.391-.734,3.083,3.083,0,0,0,1.557,3.125c1.778.918,2.161,1.027,2.525,3.029.291,1.6,3.135,1.424,4.423.147.161,1.353.416,2.83.416,2.83s-.943-1.086-1.694-.836-.614,3.392.944,4.088a3.181,3.181,0,0,0,2.5.25,7.121,7.121,0,0,0,1.554,1.568" fill="#be3626"/>
              <path id="Trazado_215698" data-name="Trazado 215698" d="M76.237,43.1c-.416,1.139-.969,1.5-1.5,1.656q-.229-.369-.453-.75A7.719,7.719,0,0,0,75.4,40.162a1.693,1.693,0,0,0,.2.191,2.446,2.446,0,0,1,.637,2.752" fill="#be3626"/>
              <path id="Trazado_215699" data-name="Trazado 215699" d="M93.416,37.63s-.19,2.646-.611,6.614a26.245,26.245,0,0,1-5.364,12.4,75.137,75.137,0,0,1-6.757,6.4,16.751,16.751,0,0,1-.727-1.886c-.138-.418-.271-.885-.385-1.375a18.268,18.268,0,0,1-.469-2.86,35.7,35.7,0,0,0,6.491-6.673c2.222-3.114,5.57-11.092,5.683-12.261s.168-3.752.194-4.028,1.334-.975,1.611-.7-.471.973-.471.973l.137.5s1.086-1.362,1.5-1.169c.4.188-.121.961-.164,1.024.057-.039.594-.4.86-.245s-.53.916-.53.916a2.27,2.27,0,0,1,.558.048.4.4,0,0,1,.223.12c.136.2-1.781,2.2-1.781,2.2" fill="#f1b5ab"/>
              <path id="Trazado_215700" data-name="Trazado 215700" d="M93.416,37.63s-.19,2.646-.611,6.614a26.245,26.245,0,0,1-5.364,12.4,75.137,75.137,0,0,1-6.757,6.4,16.751,16.751,0,0,1-.727-1.886,43.747,43.747,0,0,0,6.066-4.871,23.843,23.843,0,0,0,5.114-10.074c.668-3.163,1.778-9.056,1.778-9.056s1.244-1.122,2.059-1.844a.4.4,0,0,1,.223.12c.136.2-1.781,2.2-1.781,2.2" fill="#f5948d"/>
              <path id="Trazado_215701" data-name="Trazado 215701" d="M78.018,51.443a4.583,4.583,0,0,1-3.7,4.541,6.727,6.727,0,0,1-1.965.186h-.014a6.672,6.672,0,0,1-3.659-1.35c-.04-.035-.076-.064-.116-.1a7.15,7.15,0,0,1-1.437-1.47,3.182,3.182,0,0,1-2.5-.25c-1.559-.7-1.7-3.836-.945-4.088s1.7.836,1.7.836A31.9,31.9,0,0,1,64.843,45a2.949,2.949,0,0,1,.046-.307c.17-.795.65-.851,1.4-.752a2.56,2.56,0,0,0,2.167-.859,2.637,2.637,0,0,0,.584-1.529c.057-.64.724-1.084,2.252-.78,1.438.291,2.385,2.3,3.443,3.992.063.108.13.215.2.317,1.138,1.752,2.973,3.726,3.085,6.365" fill="#f1b5ab"/>
              <path id="Trazado_215702" data-name="Trazado 215702" d="M74.313,55.984a6.727,6.727,0,0,1-1.965.186h-.014a6.672,6.672,0,0,1-3.659-1.35c-.04-.035-.076-.065-.116-.1a7.15,7.15,0,0,1-1.437-1.47,3.182,3.182,0,0,1-2.5-.25c-1.559-.7-1.7-3.836-.945-4.088s1.7.836,1.7.836A31.9,31.9,0,0,1,64.843,45a2.949,2.949,0,0,1,.046-.307c.385,3.469,3.32,10.984,9.424,11.3" fill="#f5948d"/>
              <path id="Trazado_215703" data-name="Trazado 215703" d="M72.375,63.425c-.308.141-1.225-1.418-2.029-2.642a11.335,11.335,0,0,1-1.167-2.252,4.673,4.673,0,0,0-.05-1.113c-.137-1-.454-2.182-.57-2.7.04.033.076.063.116.1a6.672,6.672,0,0,0,3.659,1.35,15.922,15.922,0,0,0-.043,1.683c.037,2.317.311,5.47.084,5.572" fill="#f1b5ab"/>
              <path id="Trazado_215704" data-name="Trazado 215704" d="M72.291,57.853a14.939,14.939,0,0,1-3.162-.436c-.137-1-.454-2.181-.57-2.695.04.033.076.063.116.1a6.664,6.664,0,0,0,3.659,1.349,15.95,15.95,0,0,0-.043,1.684" fill="#f5948d"/>
              <path id="Trazado_215705" data-name="Trazado 215705" d="M68.678,54.669l.014-.023c.113-1.305-.014.023-.014.023" fill="#f1b5ab"/>
              <path id="Trazado_215706" data-name="Trazado 215706" d="M66.76,48.579a3.666,3.666,0,0,1,.59-1.916c.445-.584,1.37-.549,1.564-.189a4.877,4.877,0,0,0-1.014.859c-.425.451-.89,1.246-1.14,1.246" fill="#d64e27"/>
              <path id="Trazado_215707" data-name="Trazado 215707" d="M71.6,44.911c-.361.031-.238-.664.528-1a2.2,2.2,0,0,1,1.668,0,8.726,8.726,0,0,1-2.2,1" fill="#d64e27"/>
              <path id="Trazado_215708" data-name="Trazado 215708" d="M76.488,94.837c-.244,2.121-.895,7.555-1.488,11.117-.278,1.674-1.057,5.947-1.927,10.656a.072.072,0,0,0,0,.032c-1.475,7.947-3.195,17.121-3.195,17.121l-.8.638-.037.028s-2.836-9.84-2.836-14.422,1.918-6.926,1.918-6.926-.166-3.082-.334-6.877-.373-8.424-.373-8.424c-1.211,1.67-9.593,14.133-12.134,18.262s-9.467,15.012-9.467,15.012l-.541-1.582s.321-3.6,1.018-7.524c.554-3.132,1.346-6.474,2.4-8.365a14.007,14.007,0,0,1,5.461-5.711s.588-3.586,1.254-6.84a28.364,28.364,0,0,1,.971-3.488c.39-1.129.77-2.045,1-2.551a24.528,24.528,0,0,0,6.994.662l0,0a67.314,67.314,0,0,0,4.222-9.359,23.625,23.625,0,0,0,6.666-.443,8.643,8.643,0,0,0,.847-.254c-.063.66-.127,1.306-.186,1.928-.421,4.128-.877,8.421-.877,8.421s.63-.423,1.444-1.109" fill="#f79738"/>
              <path id="Trazado_215709" data-name="Trazado 215709" d="M45.272,129.471a6.554,6.554,0,0,0-2.141.166,35.978,35.978,0,0,0-.637,4.143,6.352,6.352,0,0,0,.278,2.75c.11.056,3.043-5.477,3.043-5.477Z" fill="#263b7f"/>
              <path id="Trazado_215710" data-name="Trazado 215710" d="M69.039,134.43s1.223-1.373,2.335-1.32,2.642,1.808,2.642,1.808H69.205Z" fill="#263b7f"/>
              <path id="Trazado_215711" data-name="Trazado 215711" d="M93.43,29.484s-.582-3.961-1.082-6.547-1.127-5.42-.919-5.5S92.6,19.977,92.6,19.977s-.292-2.918.251-2.793.582,2.96.582,2.835.5-2.293.709-3.128.209-1.208.5-1.125.564,4.253.564,4.253.437-1.96.522-2.585.375-.917.541-.25a18.013,18.013,0,0,1,.25,2.293,9.278,9.278,0,0,0,.668-1.793c.084-.583.166-.876.416-.793s-.083,3.42,0,3.3,1.377-3.3,1.71-3-.417,3.252-.417,3.252,1.251-2.71,1.627-2.335-.709,3.461-.709,3.461,1.542-2.211,2.126-1.626-1.918,3.836-3.335,5.545S94.639,30.4,94.639,30.4Z" fill="#a6d6b4"/>
              <path id="Trazado_215712" data-name="Trazado 215712" d="M92.6,32.695l1.376.428,1-3.68-.292-.375a6.214,6.214,0,0,0,.041-1.293c-.084-.167-.5-.264-.75.833l-.671.021Z" fill="#f79738"/>
              <path id="Trazado_215713" data-name="Trazado 215713" d="M92.939,32.8l-1.8,6.732.9.375,1.515-6.916Z" fill="#d64e27"/>
              <path id="Trazado_215714" data-name="Trazado 215714" d="M66.225,52.292a.081.081,0,0,1-.062-.029c-.678-.758-1.8-1.8-1.809-1.809a.083.083,0,0,1,.113-.121c.012.01,1.137,1.055,1.82,1.82a.082.082,0,0,1-.007.118.088.088,0,0,1-.055.021" fill="#983222"/>
              <path id="Trazado_215715" data-name="Trazado 215715" d="M65.276,52.152a.315.315,0,0,1-.178-.062c-.379-.268-.041-1-.026-1.028a.082.082,0,0,1,.11-.041.084.084,0,0,1,.041.111c-.084.176-.25.666-.028.821.058.039.091.033.11.025.114-.045.2-.312.225-.435a.086.086,0,0,1,.1-.067.088.088,0,0,1,.066.1c-.01.047-.1.467-.326.556a.254.254,0,0,1-.092.02" fill="#983222"/>
              <path id="Trazado_215716" data-name="Trazado 215716" d="M72.371,51.39c-.062,0-.123,0-.187,0A.087.087,0,0,1,72.1,51.3a.081.081,0,0,1,.087-.08,2.555,2.555,0,0,0,2.767-1.883,17.514,17.514,0,0,1-1.913-.006c-.385-.087-1.468-3.929-1.46-3.962a.086.086,0,0,1,.1-.069.084.084,0,0,1,.069.086,20.977,20.977,0,0,0,1.342,3.787c.2.045,1.49.012,1.968-.006a.078.078,0,0,1,.067.03.083.083,0,0,1,.019.07,2.753,2.753,0,0,1-2.775,2.125" fill="#983222"/>
              <path id="Trazado_215717" data-name="Trazado 215717" d="M71,52.73h3.483a1.987,1.987,0,0,1-1.742,1.437C71.353,54.251,71,52.73,71,52.73" fill="#fff"/>
              <path id="Trazado_215718" data-name="Trazado 215718" d="M67.287,73.848s1.038,2.607.658,3.668-3.826,3.836-6.271,8.449A49.362,49.362,0,0,0,58.2,95.178c-.317-.062-.591-.127-.824-.185-.573-.143-.887-.258-.887-.258a49.407,49.407,0,0,1,5.171-11.3A24.984,24.984,0,0,1,67.205,77.1c.289-.459-.045-1.834-.791-3.586s-1.4-3.24-1.4-3.24a2.688,2.688,0,0,0,.574-.27c.056-.033.11-.07.16-.1a.887.887,0,0,0,.077-.055.73.73,0,0,0,.073-.06.549.549,0,0,0,.05-.045,1.392,1.392,0,0,0,.134-.121l.1-.11c.033-.037.063-.074.092-.113A4.958,4.958,0,0,0,69.619,74.2a2.609,2.609,0,0,1-2.332-.354" fill="#66c8ce"/>
              <path id="Trazado_215719" data-name="Trazado 215719" d="M70.026,48.509c.094.551-.02,1.029-.252,1.068s-.5-.375-.591-.923.021-1.03.253-1.071.5.375.59.926" fill="#1e1724"/>
              <path id="Trazado_215720" data-name="Trazado 215720" d="M74.215,46.142c.092.551-.021,1.029-.254,1.068s-.5-.375-.591-.925.021-1.03.253-1.069.5.375.592.926" fill="#1e1724"/>
              <path id="Trazado_215721" data-name="Trazado 215721" d="M68.5,59.1v.178a5.852,5.852,0,0,0-3.144,1.81,1.457,1.457,0,0,0-.126-.117A5.979,5.979,0,0,1,68.5,59.1" fill="#263b7f"/>
              <path id="Trazado_215722" data-name="Trazado 215722" d="M73.932,60a5.859,5.859,0,0,0-1.507-.379c-.007-.057-.016-.109-.027-.162a5.119,5.119,0,0,1,1.394.314c.047.071.093.147.14.227" fill="#263b7f"/>
              <path id="Trazado_215723" data-name="Trazado 215723" d="M69.539,74.264a.052.052,0,0,1-.018,0A4.423,4.423,0,0,1,65.75,69.83a.088.088,0,0,1,.088-.076.08.08,0,0,1,.078.086,4.2,4.2,0,0,0,3.643,4.26.082.082,0,0,1,.061.1.081.081,0,0,1-.081.064" fill="#263b7f"/>
              <path id="Trazado_215724" data-name="Trazado 215724" d="M64.7,69.763a.09.09,0,0,1-.056-.021.083.083,0,0,1-.006-.118,7.6,7.6,0,0,0,1.71-3.066.083.083,0,0,1,.164.027,7.763,7.763,0,0,1-1.75,3.149.083.083,0,0,1-.062.029" fill="#a6ddeb"/>
              <path id="Trazado_215725" data-name="Trazado 215725" d="M64.354,70.1l-.121.143a14.352,14.352,0,0,0-3.7-4.694c.033-.039.066-.088.1-.129a14.73,14.73,0,0,1,3.721,4.68" fill="#a6ddeb"/>
              <path id="Trazado_215726" data-name="Trazado 215726" d="M77.1,73.346a1.739,1.739,0,0,1-.354-.037l-.024,0a.08.08,0,0,1-.08-.084.085.085,0,0,1,.086-.082.292.292,0,0,1,.052.008,1.781,1.781,0,0,0,1.9-1.063.083.083,0,0,1,.114-.031.087.087,0,0,1,.032.115A2.04,2.04,0,0,1,77.1,73.346" fill="#263b7f"/>
              <path id="Trazado_215727" data-name="Trazado 215727" d="M72.98,73.93a.083.083,0,0,1-.071-.039.084.084,0,0,1,.027-.115,4,4,0,0,1,2.367-.471.087.087,0,0,1,.074.094.085.085,0,0,1-.092.072,3.89,3.89,0,0,0-2.261.447.088.088,0,0,1-.044.012" fill="#a6ddeb"/>
              <path id="Trazado_215728" data-name="Trazado 215728" d="M63.645,70.956c-.833,1.25-6.224,6.813-6.224,6.813-.28,1.806-3.866,5.613-5.643,7.531s-3.393,4.058-3.393,4.058.751,4.03.473,4.227c-.137.1-.369-.205-.57-.533a7.741,7.741,0,0,1-.373-.692s-.084,2.727-.532,2.7-.275-2.893-.275-2.893-.527,2.973-.975,2.889.224-2.918.224-2.918-.891,2.14-1.251,2,.511-2.116.555-2.219c-.075.082-1.368,1.49-1.613,1.248s1.751-3,1.918-3.477a66.419,66.419,0,0,1,4.394-9.757c2.418-4.2,4.808-5.614,4.808-5.614,1.389-2.947,4.7-7.838,4.7-7.922A12.8,12.8,0,0,1,61.811,68.2a12.2,12.2,0,0,1,.968,1.3c.512.777.866,1.455.866,1.455" fill="#f1b5ab"/>
              <path id="Trazado_215729" data-name="Trazado 215729" d="M63.645,70.956c-.833,1.25-6.224,6.813-6.224,6.813-.28,1.806-3.866,5.613-5.643,7.531s-3.393,4.058-3.393,4.058.751,4.03.473,4.227c-.137.1-.369-.205-.57-.533.027-1.9-.071-4.028-.071-4.028l8.507-11.507c1.269-1.725,4.794-6.358,6.055-8.016.512.777.866,1.455.866,1.455" fill="#f5948d"/>
              <path id="Trazado_215730" data-name="Trazado 215730" d="M79.756,90.9a12.142,12.142,0,0,1-3.269,3.938c-.09.076-.176.148-.262.214.927-2.867,2.731-8.7,2.878-11.086.133-2.181-.031-5.9-.154-8.246a51.4,51.4,0,0,1,1.432,6.217c.833,5.088.543,6.3-.625,8.963" fill="#66c8ce"/>
              <path id="Trazado_215731" data-name="Trazado 215731" d="M76.488,94.837c-.244,2.121-.895,7.555-1.488,11.117-.278,1.674-1.057,5.947-1.927,10.656.288-3.578.666-8,1.063-11.99.687-6.922,1.024-15.506,1.124-18.769a8.643,8.643,0,0,0,.847-.254c-.063.66-.127,1.306-.186,1.928-.421,4.128-.877,8.421-.877,8.421s.63-.423,1.444-1.109" fill="#e18726"/>
              <path id="Trazado_215732" data-name="Trazado 215732" d="M69.075,134.4l-.036.027s-2.836-9.84-2.836-14.422,1.918-6.925,1.918-6.925-.166-3.082-.334-6.877-.373-8.424-.373-8.424c-1.211,1.67-9.594,14.133-12.135,18.262s-9.467,15.011-9.467,15.011l-.541-1.582s.321-3.6,1.018-7.523a125.136,125.136,0,0,0,10.2-11.24c5.126-6.59,11.183-13.26,11.183-13.26l1.952,16.428a37.038,37.038,0,0,0-1.939,9.755,44.633,44.633,0,0,0,1.392,10.77" fill="#e18726"/>
              <path id="Trazado_215733" data-name="Trazado 215733" d="M64.369,95.655a9.658,9.658,0,0,1-7.992,1.889c.39-1.129.77-2.045,1-2.551a24.573,24.573,0,0,0,7,.662" fill="#e18726"/>
              <path id="Trazado_215734" data-name="Trazado 215734" d="M68.6,86.294s-.64,6.234-4.223,9.359A67.393,67.393,0,0,0,68.6,86.294" fill="#e18726"/>
              <rect id="Rectángulo_50401" data-name="Rectángulo 50401" width="2.668" height="108.446" transform="translate(96.086 21.982)" fill="#a0d0c5"/>
              <rect id="Rectángulo_50402" data-name="Rectángulo 50402" width="2.668" height="108.446" transform="translate(151.68 21.982)" fill="#a0d0c5"/>
              <rect id="Rectángulo_50403" data-name="Rectángulo 50403" width="56.976" height="2.475" transform="translate(96.705 58.819)" fill="#a0d0c5"/>
              <rect id="Rectángulo_50404" data-name="Rectángulo 50404" width="57.476" height="2.473" transform="translate(96.706 21.769)" fill="#a0d0c5"/>
              <rect id="Rectángulo_50405" data-name="Rectángulo 50405" width="56.309" height="2.473" transform="translate(96.705 93.731)" fill="#a0d0c5"/>
              <rect id="Rectángulo_50406" data-name="Rectángulo 50406" width="56.261" height="2.471" transform="translate(97.42 127.957)" fill="#a0d0c5"/>
              <path id="Trazado_215735" data-name="Trazado 215735" d="M152.156,133.9H99.23l-.666-3.477h54.259Z" fill="#b5be9f"/>
              <path id="Trazado_215736" data-name="Trazado 215736" d="M118.406,47.583V58.819h-19.1V47.011Z" fill="#8ed5e7"/>
              <rect id="Rectángulo_50407" data-name="Rectángulo 50407" width="6.838" height="22.657" transform="translate(120.408 36.162)" fill="#e78837"/>
              <path id="Trazado_215737" data-name="Trazado 215737" d="M121.325,55.4v2.443h4.7V55.46Z" fill="#263b7f"/>
              <rect id="Rectángulo_50408" data-name="Rectángulo 50408" width="6.838" height="22.657" transform="translate(128.024 36.162)" fill="#e78837"/>
              <path id="Trazado_215738" data-name="Trazado 215738" d="M128.942,55.4v2.443h4.7V55.46Z" fill="#263b7f"/>
              <rect id="Rectángulo_50409" data-name="Rectángulo 50409" width="6.838" height="22.657" transform="translate(135.641 36.162)" fill="#e78837"/>
              <path id="Trazado_215739" data-name="Trazado 215739" d="M136.559,55.4v2.443h4.7V55.46Z" fill="#263b7f"/>
              <rect id="Rectángulo_50410" data-name="Rectángulo 50410" width="6.838" height="22.657" transform="translate(143.257 36.162)" fill="#e78837"/>
              <path id="Trazado_215740" data-name="Trazado 215740" d="M144.174,55.4v2.443h4.7V55.46Z" fill="#263b7f"/>
              <path id="Trazado_215741" data-name="Trazado 215741" d="M149.345,76.206l-.435,2.853-.039.256-.654,4.293-.037.25-.73,4.8-.04.246-.734,4.83h-22.1s-.323-2.091-.733-4.83c-.014-.08-.027-.164-.037-.246-.227-1.5-.475-3.178-.711-4.8-.009-.084-.023-.168-.033-.25-.227-1.558-.438-3.06-.6-4.293-.014-.088-.024-.171-.034-.256a17.731,17.731,0,0,1-.273-2.853,31.415,31.415,0,0,1,3.57-.107c.083,0,.167,0,.253,0,1.5-.01,3.348-.014,5.337-.006h.251c2.2,0,4.568.017,6.831.029h.25c1.922.014,3.763.027,5.357.041h.253l5.084.047" fill="#bd8346"/>
              <path id="Trazado_215742" data-name="Trazado 215742" d="M111.4,74.018l6.171,19.43,4.92-1.768-6.338-18.824Z" fill="#d55527"/>
              <path id="Trazado_215743" data-name="Trazado 215743" d="M109.9,72.856l6.254,18.2-5.086,2.389-6.088-19.43Z" fill="#9fdbed"/>
              <path id="Trazado_215744" data-name="Trazado 215744" d="M104.564,74.018l5.587,17.928-5.17,1.5L99.31,74.85Z" fill="#d55527"/>
              <rect id="Rectángulo_50411" data-name="Rectángulo 50411" width="5.588" height="24.672" transform="translate(127.715 103.286)" fill="#9fdbed"/>
              <rect id="Rectángulo_50412" data-name="Rectángulo 50412" width="3.753" height="1.855" transform="translate(128.632 125.448)" fill="#e79548"/>
              <rect id="Rectángulo_50413" data-name="Rectángulo 50413" width="5.588" height="24.672" transform="translate(121.658 103.286)" fill="#9fdbed"/>
              <rect id="Rectángulo_50414" data-name="Rectángulo 50414" width="3.753" height="1.855" transform="translate(122.576 125.448)" fill="#e79548"/>
              <rect id="Rectángulo_50415" data-name="Rectángulo 50415" width="5.586" height="24.672" transform="translate(133.772 103.286)" fill="#9fdbed"/>
              <rect id="Rectángulo_50416" data-name="Rectángulo 50416" width="3.752" height="1.855" transform="translate(134.689 125.448)" fill="#e79548"/>
              <rect id="Rectángulo_50417" data-name="Rectángulo 50417" width="5.586" height="24.672" transform="translate(139.828 103.286)" fill="#9fdbed"/>
              <rect id="Rectángulo_50418" data-name="Rectángulo 50418" width="3.753" height="1.855" transform="translate(140.744 125.448)" fill="#e79548"/>
              <rect id="Rectángulo_50419" data-name="Rectángulo 50419" width="5.588" height="24.672" transform="translate(145.883 103.286)" fill="#9fdbed"/>
              <rect id="Rectángulo_50420" data-name="Rectángulo 50420" width="3.752" height="1.855" transform="translate(146.801 125.448)" fill="#e79548"/>
              <rect id="Rectángulo_50421" data-name="Rectángulo 50421" width="21.914" height="20.668" transform="translate(99.227 107.29)" fill="#e7863d"/>
              <rect id="Rectángulo_50422" data-name="Rectángulo 50422" width="10.424" height="3.426" transform="translate(104.731 117.624)" fill="#dcac57"/>
              <path id="Trazado_215745" data-name="Trazado 215745" d="M121.141,110.489v.246l-21.914-.307v-.246Z" fill="#dcac57"/>
              <path id="Trazado_215746" data-name="Trazado 215746" d="M148.91,79.059l-.039.256h-26.4c-.014-.088-.025-.172-.034-.256Z" fill="#b6a4a4"/>
              <path id="Trazado_215747" data-name="Trazado 215747" d="M148.217,83.608l-.037.25H123.1c-.009-.084-.023-.168-.033-.25Z" fill="#b6a4a4"/>
              <path id="Trazado_215748" data-name="Trazado 215748" d="M147.449,88.655l-.039.246H123.844c-.014-.08-.028-.164-.038-.246Z" fill="#b6a4a4"/>
              <path id="Trazado_215749" data-name="Trazado 215749" d="M127.787,93.731h-.251l-.5-4.83-.025-.246-.492-4.8-.026-.25-.439-4.293-.028-.256-.3-2.961c.083,0,.167,0,.253,0l.3,2.965.027.256.436,4.293.027.25.491,4.8.027.246Z" fill="#b6a4a4"/>
              <rect id="Rectángulo_50423" data-name="Rectángulo 50423" width="0.251" height="17.643" transform="translate(131.319 76.088)" fill="#b6a4a4"/>
              <path id="Trazado_215750" data-name="Trazado 215750" d="M138.651,76.118c-.047.918-.1,1.91-.146,2.941l-.012.256c-.069,1.387-.139,2.846-.206,4.293,0,.082-.009.166-.009.25-.08,1.662-.158,3.3-.225,4.8-.006.082-.009.164-.011.246-.092,1.961-.164,3.666-.209,4.83h-.25c.047-1.183.121-2.9.2-4.83.007-.08.01-.164.012-.246.071-1.529.147-3.18.225-4.8,0-.084.006-.168.01-.25.072-1.508.143-2.98.21-4.293,0-.088.007-.172.011-.256.056-1.136.106-2.146.146-2.941Z" fill="#b6a4a4"/>
              <path id="Trazado_215751" data-name="Trazado 215751" d="M144.261,76.159c-.087.9-.186,1.875-.286,2.9-.008.084-.018.172-.027.256-.133,1.379-.278,2.838-.417,4.293-.01.082-.021.166-.027.25-.16,1.655-.32,3.295-.461,4.8-.009.082-.017.164-.025.246-.184,1.957-.342,3.666-.441,4.83h-.25c.1-1.187.256-2.91.441-4.83.006-.082.013-.164.022-.246.143-1.539.3-3.189.461-4.8.006-.084.017-.168.023-.25.15-1.531.3-3.013.424-4.293.005-.088.016-.172.023-.256.12-1.2.221-2.205.287-2.9Z" fill="#b6a4a4"/>
              <path id="Trazado_215752" data-name="Trazado 215752" d="M118.407,91.176a.151.151,0,0,1-.056-.011.121.121,0,0,1-.063-.075l-5-15.7a.127.127,0,0,1,.01-.1.123.123,0,0,1,.078-.063l1.918-.5a.123.123,0,0,1,.15.082l5.088,15.51a.125.125,0,0,1-.078.156l-2,.691a.145.145,0,0,1-.041.006M113.563,75.44l4.924,15.453,1.763-.609L115.239,75Z" fill="#e78837"/>
              <path id="Trazado_215753" data-name="Trazado 215753" d="M108.859,80.9a.122.122,0,0,1-.115-.076l-1.961-4.687a.125.125,0,0,1,0-.1.13.13,0,0,1,.076-.066l2.418-.735a.126.126,0,0,1,.156.082l1.627,5a.135.135,0,0,1-.012.1.118.118,0,0,1-.083.058l-2.085.418a.1.1,0,0,1-.024,0m-1.792-4.732,1.868,4.465,1.845-.369-1.543-4.754Z" fill="#e37826"/>
              <path id="Trazado_215754" data-name="Trazado 215754" d="M110.944,86.485a.126.126,0,0,1-.119-.086l-1.543-4.418a.124.124,0,0,1,.01-.1.125.125,0,0,1,.082-.061l1.543-.342a.123.123,0,0,1,.144.076l1.625,4.262a.122.122,0,0,1-.079.164l-1.626.5a.13.13,0,0,1-.037.008m-1.379-4.455,1.457,4.174,1.383-.426-1.539-4.035Z" fill="#e37826"/>
              <path id="Trazado_215755" data-name="Trazado 215755" d="M112.569,91.3a.127.127,0,0,1-.117-.078l-1.383-3.57a.124.124,0,0,1,.07-.162l1.609-.637a.125.125,0,0,1,.162.07l1.61,4.02a.125.125,0,0,1-.008.111.13.13,0,0,1-.1.059l-1.834.187Zm-1.223-3.623,1.305,3.365,1.574-.16-1.5-3.75Z" fill="#e37826"/>
              <path id="Trazado_215756" data-name="Trazado 215756" d="M118.406,49.3v.25l-19.1-.676v-.25Z" fill="#ebf7fd"/>
              <path id="Trazado_215757" data-name="Trazado 215757" d="M113.489,52.2a.123.123,0,0,0-.093-.035l-9.839.631a.126.126,0,0,0-.118.125V55.46a.126.126,0,0,0,.124.129H113.4a.127.127,0,0,0,.125-.129V52.286a.133.133,0,0,0-.038-.09m-.209,3.143h-9.592V53.032l9.592-.613Z" fill="#ebf7fd"/>
              <path id="Trazado_215758" data-name="Trazado 215758" d="M100.922,77.679a.127.127,0,0,1-.113-.072l-.7-1.467a.128.128,0,0,1,0-.108.14.14,0,0,1,.086-.068l4.086-.957a.122.122,0,0,1,.148.092l.418,1.6a.128.128,0,0,1-.013.1.14.14,0,0,1-.081.059l-3.808.822a.136.136,0,0,1-.027,0m-.515-1.506.586,1.236,3.583-.775-.354-1.354Z" fill="#e78837"/>
              <path id="Trazado_215759" data-name="Trazado 215759" d="M105.37,92.877a.126.126,0,0,1-.119-.084l-.388-1.1a.124.124,0,0,1,.006-.1.122.122,0,0,1,.071-.064l3.877-1.346a.125.125,0,0,1,.158.072l.541,1.346a.117.117,0,0,1,0,.1.124.124,0,0,1-.078.065l-4.031,1.1-.033,0m-.229-1.148.308.873,3.784-1.033-.447-1.106Z" fill="#e78837"/>
              <path id="Trazado_215760" data-name="Trazado 215760" d="M23.131,24.554c-.065.893-2.111,3.358-2.805,4.037l0,0a21.076,21.076,0,0,0-1.217-2.943,3.642,3.642,0,0,0-.538-.782A5.942,5.942,0,0,0,15.331,23.6c-.18-.025-.353-.045-.515-.062-.261-.028-.5-.049-.693-.056a6.082,6.082,0,0,0-.609-.018c-.028.022-1.291-.1-2.21,2.265a41.287,41.287,0,0,0-1.565,6.993s-6-5.871-5.844-7.312c.152-1.4,1.728-.061,1.821.021-.058-.1-1.173-1.959-.9-2.541.283-.6,1.845.118,1.845.118s-1.523-3-.64-3.566,1.8,1.045,1.8,1.045S7.7,15.926,9.941,15.763a2.123,2.123,0,0,1,2.44,1.845s1.967-2.842,2.725-2.6c.74.236.339,3.154.322,3.279a24.968,24.968,0,0,1,2.885-2.1,6.711,6.711,0,0,1,.9-.454,1.294,1.294,0,0,1,.859-.121c.887.343-.228,2.115-.564,2.624.232-.287.8-.9,1.2-.46.519.557-.762,2.125-.449,2.008,1.172-.447,1.687-.246,1.81.716s-1.921,2.977-1.921,2.977a2.691,2.691,0,0,1,2.96.905.37.37,0,0,1,.02.18" fill="#6e1d14"/>
              <path id="Trazado_215761" data-name="Trazado 215761" d="M19.212,15.724a47.8,47.8,0,0,0-4.4,7.818c-.26-.028-.5-.049-.693-.056a5.542,5.542,0,0,0-.609-.017c-.028.021-1.29-.1-2.21,2.264A41.352,41.352,0,0,0,9.74,32.726s-6-5.871-5.844-7.312c.152-1.4,1.727-.061,1.821.021-.059-.1-1.174-1.959-.9-2.541.283-.6,1.844.118,1.844.118s-1.523-3-.639-3.566,1.8,1.045,1.8,1.045S7.7,15.925,9.941,15.762a2.123,2.123,0,0,1,2.441,1.845s1.967-2.841,2.724-2.6c.74.236.339,3.154.323,3.279a25.046,25.046,0,0,1,2.884-2.105,6.66,6.66,0,0,1,.9-.454" fill="#5b1511"/>
              <path id="Trazado_215762" data-name="Trazado 215762" d="M20.441,39.669c-.013.35-.027.792-.052,1.3a69.705,69.705,0,0,1-.627,7.966L12.437,50.6s-1.06-5.765-1.842-9.082c-.114-.495-.224-.935-.325-1.291a21.427,21.427,0,0,1,3.594-.938,15.106,15.106,0,0,1,6.577.377" fill="#7cc2c7"/>
              <path id="Trazado_215763" data-name="Trazado 215763" d="M21.626,40.043a6.043,6.043,0,0,1-1.236.921A9.972,9.972,0,0,1,15.9,42.179a13.667,13.667,0,0,1-5.3-.658,8.759,8.759,0,0,1-1.645-.754c.443-.2.886-.382,1.319-.537a21.427,21.427,0,0,1,3.594-.938,15.121,15.121,0,0,1,6.577.377c.43.118.825.246,1.185.374" fill="#449fa1"/>
              <path id="Trazado_215764" data-name="Trazado 215764" d="M18.631,37.443c-.07.315-.17.775-.305,1.295-.482,1.89-1.371,4.632-2.431,4.594-1.252-.042-1.741-2.451-2.087-4.335-.076-.422-.146-.817-.216-1.153,1.123.045,2.42-.048,3.573-.107a5.887,5.887,0,0,0,1.466-.294" fill="#f1b5ab"/>
              <path id="Trazado_215765" data-name="Trazado 215765" d="M18.631,37.443c-.07.315-.17.775-.305,1.295A10.4,10.4,0,0,1,13.808,39c-.076-.422-.146-.817-.216-1.153,1.123.045,2.42-.048,3.573-.107a5.887,5.887,0,0,0,1.466-.294" fill="#f5948d"/>
              <path id="Trazado_215766" data-name="Trazado 215766" d="M21.647,35.68c-.291.862-1.791,2.042-3.4,2.569a5.474,5.474,0,0,1-1.354.27c-1.066.055-2.269.142-3.307.1-.1,0-.193-.01-.291-.017a3.576,3.576,0,0,1-1.9-.513c-.962-.744-1.336-2.506-1.657-5.363,0,0,.346-4.742.7-6.532a3.166,3.166,0,0,1,2.577-2.708,4.091,4.091,0,0,1,.682-.111c.429-.028.429.111.429.111.208.01.457.028.734.056a6.571,6.571,0,0,1,3.711,1.319,14.057,14.057,0,0,1,1.756,3.725c.744,2.656,1.583,6.315,1.323,7.094" fill="#f1b5ab"/>
              <path id="Trazado_215767" data-name="Trazado 215767" d="M23.131,24.553c-.067.893-2.113,3.359-2.806,4.039l0,0a20.651,20.651,0,0,0-1.216-2.943,20.476,20.476,0,0,0,4.025-1.092" fill="#5b1511"/>
              <path id="Trazado_215768" data-name="Trazado 215768" d="M13.3,38.6a3.574,3.574,0,0,1-1.9-.513c-.962-.744-1.336-2.506-1.658-5.362,0,0,.347-4.743.7-6.533a3.165,3.165,0,0,1,2.577-2.708,4.067,4.067,0,0,1,.681-.111l.43.111c.207.011.456.028.734.056a37.7,37.7,0,0,0-3.515,9.112A10.633,10.633,0,0,0,13.3,38.6" fill="#f5948d"/>
              <path id="Trazado_215769" data-name="Trazado 215769" d="M8.786,62.82c-.035.194-.071.4-.109.62-.273,1.579-.629,3.7-.976,5.892l-.038.025s-.737-5.453-1-8.482S4.5,55.249,3.509,53.126.047,45.728,0,39.8A28.661,28.661,0,0,1,2.569,28.5a5.6,5.6,0,0,0,1.455,2.118A7.7,7.7,0,0,0,9,32.371c-1.645,2.392-1.86,9.375-1.86,9.375.365-.238.743-.45,1.12-.647A25.3,25.3,0,0,1,9.954,48.93,74.378,74.378,0,0,1,8.786,62.82" fill="#7cc2c7"/>
              <path id="Trazado_215770" data-name="Trazado 215770" d="M40.362,32.391a26.72,26.72,0,0,1-3.144,5.893c-1.685,2.077-4.656,5.435-6.578,7.443C29.117,47.32,27.307,49.535,27,50.92c-.249,1.112-1.6,5.7-2.123,7.472,0,0-1.776-7.039-2.52-8.77l.9-8.925a4.063,4.063,0,0,0,.662.27,19.1,19.1,0,0,0,2.347-1.984c1.875-1.7,4.319-3.985,5.159-4.636,1.383-1.084,4.441-3.535,4.441-3.535a2.71,2.71,0,0,0,.955.994,5.973,5.973,0,0,0,3.545.585" fill="#7cc2c7"/>
              <path id="Trazado_215771" data-name="Trazado 215771" d="M40.016,74.491c-.367,1.1-.982,3.123-1.7,5.518-2.1,7.011-5.034,17.259-5.034,17.259l-1.336.651-.121.059a28.176,28.176,0,0,1-2.137-9.521,44.27,44.27,0,0,1,1.073-10.445c.118-.55.2-.866.2-.866l-.937.271C25.731,78.659,18.377,80.9,18.377,80.9s-2.166,7.2-3.957,13.71c-.789,2.866-1.506,5.6-1.927,7.527-.368,1.654-.95,4.455-1.61,7.689a.011.011,0,0,0,0,.01c-.038.2-.08.4-.122.6-1.842,9-4.206,20.893-4.206,20.893-.218.392-1.025.422-1.408.412-.125,0-.209-.006-.209-.006s-3.981-14.6-3.289-19.274a18.563,18.563,0,0,1,1.489-4.992A15.235,15.235,0,0,1,4.7,104.729c.1-1.17.232-3.155.381-5.553.475-7.548,1.136-19.16,1.495-22.116.237-1.949.641-4.654,1.057-7.3v0c.014-.086.027-.173.038-.26.011-.055.021-.108.028-.163q.089-.561.176-1.112c.014-.086.028-.168.041-.255.313-1.921.614-3.7.842-5.01v0c.01-.046.018-.09.026-.132A74.463,74.463,0,0,0,9.954,48.93,25.264,25.264,0,0,0,8.262,41.1c.229-.118.46-.228.689-.332.443-.2.885-.382,1.319-.537.1.357.211.8.325,1.291.782,3.317,1.842,9.082,1.842,9.082l7.325-1.673a69.705,69.705,0,0,0,.627-7.966c.024-.5.039-.945.052-1.3.429.118.824.246,1.184.374.686.239,1.237.481,1.627.654l-.9,8.926c.744,1.731,2.519,8.769,2.519,8.769v0c-.414,1.415-1.152,6.844-1.484,9.368l-.039.311c-.017.132-.033.253-.044.361s-.032.225-.041.311c-.028.208-.042.323-.042.323A57.337,57.337,0,0,1,34.161,66.3c4.126-.669,7.535-.859,7.932-.461.751.751-.634,4.328-2.077,8.655" fill="#ee7123"/>
              <path id="Trazado_215772" data-name="Trazado 215772" d="M19.9,15.922l-.022.031s.007-.011.022-.031" fill="#a45b52"/>
              <path id="Trazado_215773" data-name="Trazado 215773" d="M44.344,14.423c-.174.118-.174,6.176-.807,9.867a30.146,30.146,0,0,1-3.175,8.1,4.339,4.339,0,0,1-3.417-.491,3.455,3.455,0,0,1-1.083-1.088,66.4,66.4,0,0,1,1.443-7.1,43.271,43.271,0,0,1,4.154-10.04A16,16,0,0,1,41,8.364a.424.424,0,0,1,.046-.049c.622-.622,1.34,2.359,1.34,2.359s1.44-4.214,2.132-3.75-.748,2.538-.865,2.711v0c.1-.121,1.64-2.181,2.021-1.966.354.2-1.073,2.455-1.543,3.116.49-.593,2.08-2.424,2.408-2.424.393,0-1.5,3.324-1.613,3.515.129-.143,2.086-2.334,2.361-1.611.292.752-2.769,4.041-2.941,4.155" fill="#f1b5ab"/>
              <path id="Trazado_215774" data-name="Trazado 215774" d="M11.942,26.615c1.055-.179,2.764-.24,2.442-.56a2.081,2.081,0,0,0-1.962-.48,2.621,2.621,0,0,0-1.72,1.28s.484-.111,1.24-.24" fill="#6e1d14"/>
              <path id="Trazado_215775" data-name="Trazado 215775" d="M16.706,25.881c-.395-.07-.673-.933.841-.9a2.237,2.237,0,0,1,2.02,1.1s-2.3-.1-2.861-.2" fill="#6e1d14"/>
              <path id="Trazado_215776" data-name="Trazado 215776" d="M4.934,131.732a18.845,18.845,0,0,0-1.789,2.654H7.993s-1.237-2.3-1.541-2.939Z" fill="#272b6a"/>
              <path id="Trazado_215777" data-name="Trazado 215777" d="M31.824,97.976l.519,1.385h6.289s-1.788-4.79-6.808-1.385" fill="#272b6a"/>
              <path id="Trazado_215778" data-name="Trazado 215778" d="M14.42,94.605c-.789,2.866-1.506,5.6-1.928,7.527-.388,1.759-1.021,4.812-1.735,8.3C9.3,111.566,7.236,113.11,6.8,113.11c-.512,0-2.6-3.7-3.663-5.643A15.2,15.2,0,0,1,4.7,104.729c.1-1.171.232-3.155.381-5.554a41.993,41.993,0,0,0,5.737-2.641c1.572-.866,2.762-1.492,3.6-1.929" fill="#2b91be"/>
              <path id="Trazado_215779" data-name="Trazado 215779" d="M40.016,74.491c-.367,1.1-.982,3.123-1.7,5.518a17.963,17.963,0,0,0-7.555-2c.118-.55.2-.866.2-.866l-.937.271a86.768,86.768,0,0,1,4.14-11.12c4.126-.669,7.535-.859,7.932-.461.751.751-.634,4.328-2.077,8.655" fill="#2b91be"/>
              <path id="Trazado_215780" data-name="Trazado 215780" d="M10.364,68.591c.082.014.168.032.256.045L10.6,68.9l-.256-.042a14.5,14.5,0,0,1-2.468-.635c.013-.086.027-.168.041-.255a14.655,14.655,0,0,0,2.445.626" fill="#6e2b28"/>
              <path id="Trazado_215781" data-name="Trazado 215781" d="M19.53,68.758l-.017.27c-.086.014-.173.024-.262.035a28.51,28.51,0,0,1-3.137.207c-.188,0-.373,0-.558,0a31.459,31.459,0,0,1-3.815-.216l-.256-.03.039-.26c.086.011.173.024.258.031a32.312,32.312,0,0,0,4.328.211,27.853,27.853,0,0,0,3.157-.214c.091-.011.177-.025.263-.038" fill="#6e2b28"/>
              <path id="Trazado_215782" data-name="Trazado 215782" d="M23.391,67.764c-.014.11-.027.214-.039.311a14.8,14.8,0,0,1-3.012.824c-.086.014-.173.032-.26.045v-.27c.09-.013.177-.028.26-.045a14.168,14.168,0,0,0,3.051-.865" fill="#6e2b28"/>
              <path id="Trazado_215783" data-name="Trazado 215783" d="M10.5,70.294l-.016.256c-.087-.017-.174-.038-.256-.055v0a25.149,25.149,0,0,1-2.593-.734v0c.013-.086.027-.172.038-.259a24.651,24.651,0,0,0,2.576.737v0c.082.017.165.038.251.059" fill="#6e2b28"/>
              <path id="Trazado_215784" data-name="Trazado 215784" d="M19.16,70.42c.091-.025.181-.049.268-.077l-.021.274c-.087.027-.174.048-.264.072a13.71,13.71,0,0,1-3.365.44c-.062,0-.121,0-.184,0a23.685,23.685,0,0,1-4.113-.381c-.086-.017-.17-.034-.256-.048l.042-.252c.083.013.165.03.253.045h0a22.487,22.487,0,0,0,4.25.377,13.53,13.53,0,0,0,3.386-.453" fill="#6e2b28"/>
              <path id="Trazado_215785" data-name="Trazado 215785" d="M23.308,68.435l-.041.311a10.821,10.821,0,0,1-2.927,1.569c-.086.031-.173.062-.259.09v-.27c.089-.028.176-.062.259-.094A9.949,9.949,0,0,0,23.2,68.463a.125.125,0,0,1,.1-.028" fill="#6e2b28"/>
              <path id="Trazado_215786" data-name="Trazado 215786" d="M11.827,68.192a.123.123,0,0,0-.1-.044H10.515a.132.132,0,0,0-.128.118l-.023.325-.018.263-.1,1.378v0l-.021.256v0l-.088,1.233a.131.131,0,0,0,.1.135l.9.214a.088.088,0,0,0,.032.007.138.138,0,0,0,.072-.024.131.131,0,0,0,.056-.087l.186-1.222.039-.256h0l.217-1.437.041-.26.076-.5a.136.136,0,0,0-.031-.1m-.342.835-.218,1.423-.042.252-.166,1.091-.65-.159.076-1.084.016-.256.1-1.4.018-.26.016-.228h.943l-.055.359Z" fill="#6e2b28"/>
              <path id="Trazado_215787" data-name="Trazado 215787" d="M19.251,69.063,19.16,70.42c.091-.025.181-.049.268-.076l.086-1.316c-.086.014-.173.024-.263.035m.959-.914h-.775a.129.129,0,0,0-.133.121l-.035.526-.016.267L19.16,70.42l-.016.27-.055.82a.127.127,0,0,0,.041.107.129.129,0,0,0,.086.032h.028l.993-.218a.13.13,0,0,0,.1-.129V68.276a.128.128,0,0,0-.131-.127m-.129,3.05-.723.159.049-.741.021-.273.086-1.316.016-.27.026-.349h.525Z" fill="#6e2b28"/>
              <path id="Trazado_215788" data-name="Trazado 215788" d="M14.591,32.824a.076.076,0,0,1-.082-.063c-.009-.037-.015-.058.073-.094v-.012l.054-.013,0,.005c.149-.052.462-.131,1.1-.295a3.677,3.677,0,0,1,1.67-.169c-.707-1.846-1.815-4.912-1.661-5.639a.088.088,0,0,1,.1-.067.085.085,0,0,1,.065.1c-.106.5.529,2.618,1.7,5.659l.032.084a.087.087,0,0,1-.039.106.086.086,0,0,1-.11-.023s-.283-.254-1.718.114c-.737.189-1.007.26-1.106.286l0,.005a.365.365,0,0,1-.085.013" fill="#6e2b28"/>
              <path id="Trazado_215789" data-name="Trazado 215789" d="M14.45,34.769c.83-.1.83-.1,3.62-.472a1.986,1.986,0,0,1-1.759,1.831,1.626,1.626,0,0,1-1.861-1.359" fill="#fff"/>
              <path id="Trazado_215790" data-name="Trazado 215790" d="M14.012,28.591c0,.613-.223,1.109-.5,1.109s-.5-.5-.5-1.109.224-1.109.5-1.109.5.5.5,1.109" fill="#1e1724"/>
              <path id="Trazado_215791" data-name="Trazado 215791" d="M18.444,28.1c0,.566-.207,1.027-.463,1.027s-.463-.461-.463-1.027.207-1.026.463-1.026.463.459.463,1.026" fill="#1e1724"/>
              <path id="Trazado_215792" data-name="Trazado 215792" d="M21.5,7.789c-.016.018-.025.038-.043.056A17.713,17.713,0,0,1,18.5,10.039s-.136.433-.362,1.132c0,0,0,0,0,0-.563,1.707-1.673,5-2.7,7.461C13.995,22.1,9,32.371,9,32.371a6.376,6.376,0,0,1-5.366-1.964,4.157,4.157,0,0,1-1.068-1.9,66.339,66.339,0,0,1,5.249-9.289c2.829-4.04,7.042-8.887,7.042-8.887-1.1-3.4-.373-7.289.351-7.5a.237.237,0,0,1,.225.058,2.178,2.178,0,0,1,.274,1.406c.2-.665.531-1.443.881-1.42.583.039.437,2.459.409,2.846.056-.356.4-2.358,1.032-2.2.692.173,0,3.233.059,4.1s1.326.114,1.326.114c1.73-1.271,2.078.059,2.078.059" fill="#f1b5ab"/>
              <path id="Trazado_215793" data-name="Trazado 215793" d="M15.717,32.741a7.843,7.843,0,0,0-3.936,2.322s3.458-.363,5.165-.6c1.923-.268,3-.485,3-.485s-.869-1.718-4.232-1.237" fill="#6e1d14"/>
              <path id="Trazado_215794" data-name="Trazado 215794" d="M15.536,10.933c-.3.474-5.1,5.84-7.485,10.04a93.653,93.653,0,0,0-4.414,9.434,4.157,4.157,0,0,1-1.068-1.9,66.339,66.339,0,0,1,5.249-9.289c2.829-4.04,7.042-8.887,7.042-8.887-1.1-3.4-.373-7.289.351-7.5a11.846,11.846,0,0,0-.237,4.69c.519,1.86.867,2.943.562,3.418" fill="#f5948d"/>
              <path id="Trazado_215795" data-name="Trazado 215795" d="M21.452,7.845a17.675,17.675,0,0,1-2.956,2.2s-.136.432-.362,1.132c.095-.918.189-1.814.21-1.883.031-.114,1.977-.776,3.108-1.444" fill="#f5948d"/>
              <path id="Trazado_215796" data-name="Trazado 215796" d="M42.305,13.963a36.212,36.212,0,0,0-3.311,8.7c-.529,2.68-1.418,6.928-2.049,9.241a3.447,3.447,0,0,1-1.083-1.087,66.37,66.37,0,0,1,1.443-7.1,43.271,43.271,0,0,1,4.154-10.04A16.022,16.022,0,0,1,41,8.365a.364.364,0,0,1,.046-.05,22.514,22.514,0,0,0,1.261,5.648" fill="#f5948d"/>
              <path id="Trazado_215797" data-name="Trazado 215797" d="M8.676,63.44c-.272,1.579-.629,3.7-.976,5.892l-.038.025s-.737-5.453-1-8.482S4.5,55.249,3.508,53.126.046,45.728,0,39.8A28.652,28.652,0,0,1,2.569,28.5a5.6,5.6,0,0,0,1.455,2.118A35.054,35.054,0,0,0,1.932,42.639c.174,3.116,3.463,10.04,4.906,13.908A46.6,46.6,0,0,1,8.676,63.44" fill="#449fa1"/>
              <path id="Trazado_215798" data-name="Trazado 215798" d="M36.817,31.806c-1.537,1.8-7.16,5.343-10.555,7.177,1.875-1.7,4.319-3.985,5.159-4.636,1.383-1.083,4.441-3.535,4.441-3.535a2.71,2.71,0,0,0,.955.994" fill="#449fa1"/>
              <path id="Trazado_215799" data-name="Trazado 215799" d="M8.676,74.491s-1.2,8.6-1.952,15.752-1.271,16.505-1.271,16.505a23.876,23.876,0,0,0-2.308,9.926c0,4.833,1.615,13.169,2,15.066-.125,0-.209-.006-.209-.006s-3.981-14.6-3.289-19.274a18.563,18.563,0,0,1,1.489-4.992A15.235,15.235,0,0,1,4.7,104.729c.1-1.17.232-3.155.381-5.553.475-7.548,1.136-19.16,1.495-22.116.237-1.949.641-4.654,1.057-7.3v0c.014-.086.027-.173.038-.26.011-.055.021-.108.027-.163.06-.374.118-.744.177-1.112.014-.086.028-.168.041-.255.313-1.921.613-3.7.842-5.01.155,2.254.139,9.171-.084,11.536" fill="#d15c27"/>
              <path id="Trazado_215800" data-name="Trazado 215800" d="M31.946,97.919l-.121.059a28.2,28.2,0,0,1-2.137-9.521,44.27,44.27,0,0,1,1.073-10.445c.119-.551.2-.866.2-.866l-.938.271C25.731,78.659,18.378,80.9,18.378,80.9s-2.166,7.2-3.957,13.71c-.789,2.866-1.506,5.6-1.928,7.526-.367,1.655-.949,4.456-1.609,7.689a106.136,106.136,0,0,1,1.609-12.594c1.963-9.06,4.673-17.218,4.673-17.218,4.272-.831,16.216-5.92,16.216-5.92s-.924,5.249-1.79,11.619a41.547,41.547,0,0,0,.354,12.211" fill="#d15c27"/>
              <path id="Trazado_215801" data-name="Trazado 215801" d="M3.722,134.9a.52.52,0,0,1-.519-.519.531.531,0,0,1,.032-.179c.186-.815,2.039-12.7,4-25.276C8.889,98.3,10.766,86.257,12.262,76.864c.815-5.122,1.43-8.915,1.879-11.6.824-4.9.824-4.9,1.262-4.99a.516.516,0,0,1,.613.4.505.505,0,0,1-.051.35c-.457,1.556-4.642,28.409-7.706,48.059-1.083,6.947-2.071,13.291-2.8,17.9-.364,2.305-.663,4.175-.874,5.47-.105.649-.189,1.154-.25,1.5-.111.633-.166.95-.616.95M15.776,61.232a.5.5,0,0,1-.16.063.514.514,0,0,0,.16-.063" fill="#90584d"/>
              <path id="Trazado_215802" data-name="Trazado 215802" d="M42.671,134.9a.52.52,0,0,1-.52-.519v-73.6a.521.521,0,0,1,1.041,0v73.6a.52.52,0,0,1-.521.519" fill="#90584d"/>
              <path id="Trazado_215803" data-name="Trazado 215803" d="M25.149,134.9a.514.514,0,0,1-.488-.344c-.135-.374-4.117-33.274-6.48-52.852a.517.517,0,0,1,.515-.581h24.38a.519.519,0,0,1,.508.413L54.6,134.28a.519.519,0,0,1-1.017.212L42.654,82.166H19.283c2.163,17.931,6.177,51.041,6.37,52.1a.519.519,0,0,1-.5.644" fill="#90584d"/>
              <rect id="Rectángulo_50424" data-name="Rectángulo 50424" width="32.456" height="2.943" transform="translate(10.62 81.647)" fill="#a1d0c0"/>
              <rect id="Rectángulo_50425" data-name="Rectángulo 50425" width="34.313" height="2.25" transform="translate(7.992 100.689)" fill="#a1d0c0"/>
              <rect id="Rectángulo_50426" data-name="Rectángulo 50426" width="37.876" height="2.251" transform="translate(5.2 122.067)" fill="#a1d0c0"/>
              <rect id="Rectángulo_50427" data-name="Rectángulo 50427" width="28.505" height="2.019" transform="translate(14.801 59.432)" fill="#a1d0c0"/>
              <path id="Trazado_215804" data-name="Trazado 215804" d="M45.243,4.5c0,1.243-3.146,2.327-7.816,2.9a63.123,63.123,0,0,1-7.717.444c-8.582,0-15.537-1.5-15.537-3.344S21.128,1.153,29.71,1.153c2.081,0,4.064.087,5.875.249,5.668.5,9.658,1.7,9.658,3.1" fill="#97d8e9"/>
              <path id="Trazado_215805" data-name="Trazado 215805" d="M33.44,4.412c0,.717-1.8,1.3-4.012,1.3s-4.009-.582-4.009-1.3,1.8-1.3,4.009-1.3,4.012.582,4.012,1.3" fill="#68b4d6"/>
              <path id="Trazado_215806" data-name="Trazado 215806" d="M45.243,2.479V4.5c0-1.395-3.96-2.59-9.589-3.092v0c-1.831-.163-3.84-.253-5.944-.253-8.582,0-15.537,1.5-15.537,3.348V2.25S18.149,0,30.034,0c1.818,0,3.432.059,4.868.156C42.858.7,45.243,2.479,45.243,2.479" fill="#68b4d6"/>
              <path id="Trazado_215807" data-name="Trazado 215807" d="M45.243,2.479V4.5c0-1.395-3.96-2.59-9.589-3.092v0c-.263-.444-.526-.89-.752-1.25C42.858.7,45.243,2.479,45.243,2.479" fill="#3485ba"/>
              <path id="Trazado_215808" data-name="Trazado 215808" d="M45.243,4.5c0,1.243-3.146,2.327-7.816,2.9a24.1,24.1,0,0,0-1.842-6c5.668.5,9.658,1.7,9.658,3.1" fill="#bde4e8"/>
              <path id="Trazado_215809" data-name="Trazado 215809" d="M210.382,132.165l-1.318.094-.237.017s-1.215-2.052-3.593-5.687a61.022,61.022,0,0,1-5.958-12.363,10.683,10.683,0,0,1,.46-8.887s-2.077-4.369-3.635-8.871c-1.381-3.989-3.916-11.108-4.477-12.672-.072-.2-.111-.311-.111-.311s-.736,3.807-1.166,6.446c-.039.236-.09.554-.146.943-.6,3.935-2.105,14.811-2.105,14.811,1.815,4.5.948,9.347-.609,13.242s-6.315,12.937-6.315,12.937l-.11.022-1.06.195s1.384-31.549,1.472-38.082.128-20.381.128-20.381l1.3-4.764s0-.023-.007-.07c-.01-.068-.024-.193-.041-.367-.049-.416-.125-1.1-.222-1.994-.014-.117-.024-.237-.038-.36-.346-3.144-.9-8.37-1.26-12.583-.127-1.5-.232-2.863-.3-3.969a33.345,33.345,0,0,1,0-3.361c.069-1.543.227-3.051.408-4.379.383-2.823.875-4.869.875-4.869l.018-.006c.993-.215,2.035-.457,3.064-.7-.163,1.238-.291,3.278-.387,5.375-.073,1.535-.129,3.1-.171,4.408-.055,1.85-.082,3.185-.082,3.185l13.11-.218a30.386,30.386,0,0,1,.2-3.332c.163-1.455.413-2.866.686-4.149.471-2.2,1.018-4.027,1.343-5.034.844.183,1.731.38,2.6.575-.248,1.028-.539,2.711-.818,4.629-.2,1.342-.384,2.8-.547,4.223-.255,2.24-.453,4.4-.515,5.9-.082,2.043.017,5.842.142,9.207.072,1.925.153,3.707.211,4.939,0,.121.012.236.018.348.038.836.066,1.346.066,1.346s.027.222.078.628c.019.106.031.221.046.344.672,5.153,3.791,29.246,4.331,35.033.607,6.493,4.674,28.559,4.674,28.559" fill="#a6ddeb"/>
              <path id="Trazado_215810" data-name="Trazado 215810" d="M190.2,90.874c-.6,3.935-2.1,14.811-2.1,14.811,1.815,4.5.948,9.347-.609,13.242s-6.315,12.937-6.315,12.937l-.111.022c1.478-3.588,5.655-13.948,6.278-18.067a27.618,27.618,0,0,0,0-8.742Z" fill="#66c8ce"/>
              <path id="Trazado_215811" data-name="Trazado 215811" d="M209.064,132.259l-.236.018s-1.215-2.053-3.594-5.688a61.022,61.022,0,0,1-5.958-12.363,10.687,10.687,0,0,1,.46-8.887s-2.076-4.369-3.635-8.871c-1.381-3.988-3.916-11.107-4.476-12.672l.073-.355,9.489,21.55c-1.06,6.838,1.147,11.252,2.334,15.666.941,3.5,4.154,9.17,5.543,11.6" fill="#66c8ce"/>
              <path id="Trazado_215812" data-name="Trazado 215812" d="M200.1,36.431l-.065.2a44.173,44.173,0,0,0-2.162,12.311l-13.11.219s.189-9.543.64-12.968l1.758-.413c1.672-.392,3.4-.79,4.6-.981a4.8,4.8,0,0,0,.149,1.161,1.556,1.556,0,0,0,1.865.97c1.292-.188,1.724-.8,1.724-.925,0-.032.021-.253.049-.568.017,0,2.091.451,4.556.99" fill="#f79738"/>
              <path id="Trazado_215813" data-name="Trazado 215813" d="M181.145,44.509a36.043,36.043,0,0,0-.1,5c.062,1.1.168,2.473.295,3.969l-.081-.033h0a6.543,6.543,0,0,1-1.495-.211,9.718,9.718,0,0,1-4.169-2.426c-.086-5.887,1.275-10.487,1.818-11.3.719-1.081,1.211-1.817,4.633-2.551.1-.021.2-.042.3-.065l-.017.006a56.965,56.965,0,0,0-1.177,7.607" fill="#f79738"/>
              <path id="Trazado_215814" data-name="Trazado 215814" d="M210.642,44.144a57.8,57.8,0,0,1-.935,7.844,34.782,34.782,0,0,1-6.276,1.207c-.822.107-1.379.17-1.379.17a60.09,60.09,0,0,0-1.076,7.595v.014l-.018-.006c-.107-2.871-.193-6.053-.17-8.195.008-.371.018-.709.028-1.012A112.015,112.015,0,0,1,202.7,37.007c2.6.585,7.952,1.686,7.945,7.137" fill="#f79738"/>
              <path id="Trazado_215815" data-name="Trazado 215815" d="M205.39,45.859c-.824,2.434-1.7,6.193-1.959,7.336-.822.107-1.379.17-1.379.17a60.09,60.09,0,0,0-1.076,7.595v.014l-.018-.006c-.107-2.871-.193-6.052-.17-8.195.011-.021.018-.037.028-.059a21.026,21.026,0,0,1,4.574-6.855" fill="#e18726"/>
              <path id="Trazado_215816" data-name="Trazado 215816" d="M181.335,53.48l-.08-.033h0a6.535,6.535,0,0,1-1.494-.211c-.039-.328.134-5.965,1.387-8.727a36.2,36.2,0,0,0-.1,5c.063,1.106.168,2.473.3,3.969" fill="#e18726"/>
              <path id="Trazado_215817" data-name="Trazado 215817" d="M200.1,36.431l-.065.2a19.815,19.815,0,0,1-6.963,1.351,8.652,8.652,0,0,1-5.911-2.2c1.672-.392,3.4-.79,4.6-.981a4.8,4.8,0,0,0,.149,1.161,1.556,1.556,0,0,0,1.865.97c1.292-.188,1.724-.8,1.724-.925,0-.032.021-.253.049-.568.017,0,2.091.451,4.556.99" fill="#e18726"/>
              <path id="Trazado_215818" data-name="Trazado 215818" d="M201.187,66.255a44.068,44.068,0,0,1-9.611,1.033,45.4,45.4,0,0,1-8.943-.865c-.013-.117-.024-.236-.038-.359a45.635,45.635,0,0,0,18.574-.157c0,.121.012.237.018.348" fill="#cc4527"/>
              <path id="Trazado_215819" data-name="Trazado 215819" d="M201.377,68.573a52.78,52.78,0,0,1-8.97.869v12.18a.174.174,0,1,1-.347,0V69.45c-.335,0-.668.008-.986.008a40.065,40.065,0,0,1-8.178-.674c-.01-.068-.024-.193-.041-.367a41.735,41.735,0,0,0,9.376.681,52.893,52.893,0,0,0,9.1-.869c.019.106.031.221.046.344" fill="#cc4527"/>
              <path id="Trazado_215820" data-name="Trazado 215820" d="M202.052,25.751a3.231,3.231,0,0,1-2.662,1.821s-.021.079-.063.222v0c-.252.83-1.277,3.776-3.531,5.1a4.587,4.587,0,0,1-2.424.648,4.964,4.964,0,0,1-1.678-.3c-3.181-1.142-4.247-5.2-4.247-5.2h-.1c-1.506-.05-2.092-1.749-2.092-3.2a4.62,4.62,0,0,1,.115-1.05v0a2.631,2.631,0,0,1,.184-.529c.152-.3.353-.482.592-.457.889.093,1.083,1.492,1.121,2.3-.006.188-.006.374,0,.562,0,0,.023-.091.072-.249a47.684,47.684,0,0,1,1.527-4.6c.716-1.661.91-2.077,1.648-1.776s5.321.91,6.1.475a3.674,3.674,0,0,1,1.634,1.636c.122.264.233.538.333.815a19.142,19.142,0,0,1,.6,2.046s0,.013.011.042c.02.1.041.189.063.28a.1.1,0,0,1,.006.034c.142.645.208,1.077.208,1.077s.692-2.032,1.513-2.251a.819.819,0,0,1,.341-.012c.7.11,1.3,1.11.721,2.564" fill="#f1b5ab"/>
              <path id="Trazado_215821" data-name="Trazado 215821" d="M201.331,23.186a.807.807,0,0,0-.342.013c-.82.218-1.512,2.251-1.512,2.251a21.474,21.474,0,0,0-.607-2.618c-.082-.284-.18-.575-.283-.862a4.442,4.442,0,0,0-.333-.814,3.678,3.678,0,0,0-1.634-1.637c-.779.436-5.366-.173-6.1-.475s-.931.116-1.647,1.777c-.295.685-.616,1.63-.9,2.506-.4,1.24-.7,2.34-.7,2.34s.01-.235,0-.561c-.038-.806-.231-2.2-1.121-2.3-.239-.024-.439.155-.591.457a1.836,1.836,0,0,0-.184.529c-.291-.567.062-1.9.688-3.32.2-.446.416-.9.652-1.344.993-1.861,2.205-2.727,3.2-2.423a4.16,4.16,0,0,1,3.393-2.769,6.605,6.605,0,0,1,6.646,3.115,8.438,8.438,0,0,1,1.186,3.289,15.18,15.18,0,0,1,.195,2.844" fill="#654526"/>
              <path id="Trazado_215822" data-name="Trazado 215822" d="M185.372,23.8h0Z" fill="#983222"/>
              <path id="Trazado_215823" data-name="Trazado 215823" d="M187.268,25.1c-.007.19-.005.378,0,.562,0,0,.01-.232,0-.562" fill="#983222"/>
              <path id="Trazado_215824" data-name="Trazado 215824" d="M181.17,131.866a10.5,10.5,0,0,0-5.424,2.482s4.169.114,6.073-.015a13.273,13.273,0,0,0-.649-2.467" fill="#1e2d58"/>
              <path id="Trazado_215825" data-name="Trazado 215825" d="M208.681,132.186s.908-.865,2.942-.3a4.593,4.593,0,0,1,2.813,2.512h-5.28Z" fill="#1e2d58"/>
              <path id="Trazado_215826" data-name="Trazado 215826" d="M180.831,66.682A9.235,9.235,0,0,0,181,67.946c-1.949-.387-6.059-3.2-6.059-3.2a8.609,8.609,0,0,1-.456-1.868,17.831,17.831,0,0,1-.194-2.98c.041-3.2.306-7.271,1.3-9.088a9.71,9.71,0,0,0,4.168,2.426,6.527,6.527,0,0,0,1.494.211h0c.33,1.158-.125,5.891-.17,6.33,0,.024,0,.035,0,.035a5.9,5.9,0,0,1,1.754,1.6,6.467,6.467,0,0,0-2.006,5.268" fill="#f1b5ab"/>
              <path id="Trazado_215827" data-name="Trazado 215827" d="M185.016,41.572c-.073,1.535-.129,3.1-.171,4.408l-3.807.17c.069-1.543.227-3.051.408-4.379a8.627,8.627,0,0,1,3.57-.2" fill="#d64e27"/>
              <path id="Trazado_215828" data-name="Trazado 215828" d="M201.878,41.636c-.2,1.342-.384,2.8-.547,4.223-.9-.049-2.266-.135-3.261-.244.163-1.456.413-2.866.687-4.149a29.245,29.245,0,0,1,3.121.17" fill="#d64e27"/>
              <path id="Trazado_215829" data-name="Trazado 215829" d="M185.259,65.526a.174.174,0,0,1-.168-.137c-.51-2.349-1.084-12.3-1.107-12.724a.178.178,0,0,1,.048-.129.191.191,0,0,1,.129-.053c.853.024,1.727.038,2.6.038a89.882,89.882,0,0,0,11.449-.706.159.159,0,0,1,.136.04.168.168,0,0,1,.061.126l.4,12.49a.173.173,0,0,1-.161.178l-13.381.877Zm-.919-12.691c.082,1.383.6,9.957,1.06,12.333l13.062-.853-.392-12.13a92.378,92.378,0,0,1-11.308.681c-.812,0-1.626-.01-2.422-.031" fill="#cc4527"/>
              <path id="Trazado_215830" data-name="Trazado 215830" d="M202.052,53.538a.172.172,0,0,1-.044-.006.175.175,0,0,1-.124-.211c.072-.277.172-.7.295-1.23.545-2.352,1.562-6.729,2.664-8.36a.176.176,0,0,1,.24-.047.173.173,0,0,1,.047.241c-1.066,1.578-2.072,5.914-2.614,8.244-.122.529-.224.959-.3,1.238a.175.175,0,0,1-.168.131" fill="#cc4527"/>
              <path id="Trazado_215831" data-name="Trazado 215831" d="M195.8,32.892c-.038.393-.1.991-.155,1.559-.035.364-.07.712-.1.99-.028.315-.049.536-.049.568,0,.128-.432.737-1.724.925a1.556,1.556,0,0,1-1.866-.97,4.865,4.865,0,0,1-.148-1.161c-.012-.144-.018-.293-.025-.438-.022-.436-.035-.859-.038-1.122a4.959,4.959,0,0,0,1.678.3,4.587,4.587,0,0,0,2.424-.648" fill="#f1b5ab"/>
              <path id="Trazado_215832" data-name="Trazado 215832" d="M195.8,32.892c-.038.393-.1.991-.155,1.559a5.286,5.286,0,0,1-3.909-.086c-.022-.436-.035-.859-.038-1.122a4.959,4.959,0,0,0,1.678.3,4.587,4.587,0,0,0,2.424-.648" fill="#f5948d"/>
              <path id="Trazado_215833" data-name="Trazado 215833" d="M187.349,28.047c-1.506-.05-2.092-1.749-2.092-3.2a4.627,4.627,0,0,1,.115-1.05v0a2.631,2.631,0,0,1,.184-.529c.152-.3.353-.482.592-.457.89.093,1.083,1.492,1.121,2.3-.006.187-.006.374,0,.561,0,0,.023-.091.072-.249a12.013,12.013,0,0,0,0,2.628" fill="#f5948d"/>
              <path id="Trazado_215834" data-name="Trazado 215834" d="M202.052,25.751a3.231,3.231,0,0,1-2.662,1.821s-.021.079-.063.222a10.136,10.136,0,0,0-.058-3.421c.142.645.208,1.077.208,1.077s.692-2.032,1.513-2.251a.819.819,0,0,1,.341-.012c.7.11,1.3,1.11.721,2.564" fill="#f5948d"/>
              <path id="Trazado_215835" data-name="Trazado 215835" d="M181.085,59.777a2.4,2.4,0,0,0-1.083.266,47.612,47.612,0,0,0-.245-6.807,6.535,6.535,0,0,0,1.494.211h0c.33,1.158-.125,5.891-.17,6.33" fill="#f5948d"/>
              <path id="Trazado_215836" data-name="Trazado 215836" d="M181,67.946c-1.949-.387-6.059-3.2-6.059-3.2a8.637,8.637,0,0,1-.457-1.867,18.233,18.233,0,0,0,6.347,3.8A9.221,9.221,0,0,0,181,67.946" fill="#f5948d"/>
              <path id="Trazado_215837" data-name="Trazado 215837" d="M209.707,51.988a52.333,52.333,0,0,1-1.7,7.391c-1.256,4.026-2.468,7.226-2.468,7.226s0,1.211-1.557,5.236a27.731,27.731,0,0,1-2.549,5.129,11.24,11.24,0,0,0-1.149-3.3,6.127,6.127,0,0,0-1.874-2.406,3.1,3.1,0,0,0-.771-.412,31.184,31.184,0,0,1,3.054-5.592s.072-1.582.287-4.3a59.905,59.905,0,0,1,1.076-7.595s.56-.063,1.388-.17a34.6,34.6,0,0,0,6.267-1.207" fill="#f1b5ab"/>
              <path id="Trazado_215838" data-name="Trazado 215838" d="M203.441,53.195A80.251,80.251,0,0,0,201.378,66.1l-2.971,5.164a3.1,3.1,0,0,0-.772-.412,31.184,31.184,0,0,1,3.054-5.592s.072-1.582.287-4.3a60.09,60.09,0,0,1,1.076-7.595s.561-.063,1.389-.17" fill="#f5948d"/>
              <path id="Trazado_215839" data-name="Trazado 215839" d="M191.345,25.09c0,.5-.143.909-.319.909s-.32-.408-.32-.909.143-.909.32-.909.319.407.319.909" fill="#1e1724"/>
              <path id="Trazado_215840" data-name="Trazado 215840" d="M196.966,25.09c0,.5-.143.909-.318.909s-.321-.408-.321-.909.143-.909.321-.909.318.407.318.909" fill="#1e1724"/>
              <path id="Trazado_215841" data-name="Trazado 215841" d="M194.74,28.66a5.763,5.763,0,0,1-1.009-.1.086.086,0,0,1-.071-.1.091.091,0,0,1,.1-.072,3.377,3.377,0,0,0,2.081-.111,9.17,9.17,0,0,1-1.211-3.951.086.086,0,0,1,.079-.093.087.087,0,0,1,.092.08c0,.027.243,2.755,1.236,3.932a.1.1,0,0,1,.02.065.083.083,0,0,1-.034.06,2.205,2.205,0,0,1-1.284.285" fill="#983222"/>
              <path id="Trazado_215842" data-name="Trazado 215842" d="M199.975,26.536h-.015a.087.087,0,0,1-.07-.1,6.314,6.314,0,0,1,1.135-2.307.085.085,0,0,1,.12-.015.086.086,0,0,1,.015.122,6.275,6.275,0,0,0-1.1,2.23.088.088,0,0,1-.086.072" fill="#983222"/>
              <path id="Trazado_215843" data-name="Trazado 215843" d="M186.638,26.662h-.006a.087.087,0,0,1-.08-.094,7.329,7.329,0,0,0-.541-2.738.086.086,0,1,1,.158-.066,7.254,7.254,0,0,1,.555,2.818.086.086,0,0,1-.086.08" fill="#983222"/>
              <path id="Trazado_215844" data-name="Trazado 215844" d="M186.314,25.943a.354.354,0,0,1-.2-.054.251.251,0,0,1-.108-.223c0-.376.424-.64.444-.651a.086.086,0,0,1,.118.029.087.087,0,0,1-.028.119s-.361.224-.361.5c0,.06.025.075.033.081.072.05.261.01.375-.033a.087.087,0,0,1,.061.163,1.044,1.044,0,0,1-.331.066" fill="#983222"/>
              <path id="Trazado_215845" data-name="Trazado 215845" d="M200.533,26.033a1.179,1.179,0,0,1-.428-.1.085.085,0,0,1-.044-.112.087.087,0,0,1,.114-.046c.1.045.429.146.538.023.078-.089-.135-.4-.313-.576a.086.086,0,1,1,.123-.121c.092.091.537.564.32.811a.4.4,0,0,1-.31.119" fill="#983222"/>
              <path id="Trazado_215846" data-name="Trazado 215846" d="M189.2,23.419a.751.751,0,0,1,.115-.084,2.842,2.842,0,0,1,.331-.194,5.039,5.039,0,0,1,.493-.217c.093-.03.192-.059.293-.086a2.167,2.167,0,0,1,.306-.073l.314-.044a1.322,1.322,0,0,1,.307-.017,3.31,3.31,0,0,1,.543.038c.315.068.514.13.514.13a.128.128,0,0,1-.035.251h-.024s-.2,0-.486-.013a4.675,4.675,0,0,0-.491.025,1.566,1.566,0,0,0-.275.031l-.283.045a2.229,2.229,0,0,0-.281.06l-.272.064c-.171.058-.343.088-.478.144s-.256.084-.334.116l-.129.048a.132.132,0,0,1-.135-.22Z" fill="#51351b"/>
              <path id="Trazado_215847" data-name="Trazado 215847" d="M194.984,23.146l.115-.1.121-.1a1.872,1.872,0,0,1,.185-.128,3.077,3.077,0,0,1,.518-.264c.1-.033.207-.063.317-.093a1.289,1.289,0,0,1,.334-.062c.113-.012.228-.022.34-.032a1.976,1.976,0,0,1,.328.016l.3.036a1.045,1.045,0,0,1,.263.066c.322.109.523.195.523.195a.129.129,0,0,1-.056.248h-.022s-.214-.008-.515-.039a1.192,1.192,0,0,0-.244-.016l-.27,0a1.612,1.612,0,0,0-.285.01c-.1.012-.193.026-.291.036-.2.013-.383.088-.566.115-.175.065-.348.1-.488.161l-.2.071-.17.068a1.063,1.063,0,0,1-.142.044.135.135,0,0,1-.157-.1.137.137,0,0,1,.046-.129Z" fill="#51351b"/>
              <path id="Trazado_215848" data-name="Trazado 215848" d="M196.852,29.2a6.624,6.624,0,0,1-.374,1.026c-.432.957-1.267,2.238-2.654,2.293a2.86,2.86,0,0,1-2.525-1.682,5.715,5.715,0,0,1-.506-1.174c.087-.03,4.156.2,6.059-.463" fill="#aa2423"/>
              <path id="Trazado_215849" data-name="Trazado 215849" d="M196.852,29.2a6.624,6.624,0,0,1-.374,1.026,10.773,10.773,0,0,1-5.179.611,5.715,5.715,0,0,1-.506-1.174c.087-.03,4.156.2,6.059-.463" fill="#fff"/>
              <path id="Trazado_215850" data-name="Trazado 215850" d="M189.607,71.409a3.879,3.879,0,0,1-2.123-.75.087.087,0,0,1-.023-.121.086.086,0,0,1,.119-.024c1.662,1.1,2.673.606,2.683.6a.087.087,0,0,1,.115.039.083.083,0,0,1-.037.115,1.639,1.639,0,0,1-.734.141" fill="#983222"/>
              <path id="Trazado_215851" data-name="Trazado 215851" d="M193.331,76.831a4.622,4.622,0,0,1,.676.053,1.016,1.016,0,0,1-.676-.053" fill="#761815"/>
              <path id="Trazado_215852" data-name="Trazado 215852" d="M187.975,23.327c-.4,1.24-.7,2.341-.7,2.341s.01-.236,0-.562c-.038-.805-.231-2.2-1.121-2.3-.239-.024-.44.156-.592.457a1.838,1.838,0,0,0-.184.53c-.291-.568.062-1.9.689-3.321a7.65,7.65,0,0,0,1.914,2.853" fill="#4f331b"/>
              <path id="Trazado_215853" data-name="Trazado 215853" d="M201.331,23.186a.807.807,0,0,0-.342.013c-.82.218-1.512,2.251-1.512,2.251a21.474,21.474,0,0,0-.607-2.618,13.182,13.182,0,0,0,2.266-2.49,15.18,15.18,0,0,1,.195,2.844" fill="#4f331b"/>
              <path id="Trazado_215854" data-name="Trazado 215854" d="M195.113,135.694l.014,0a1.348,1.348,0,0,0-.072-.174,1.754,1.754,0,0,1,.058.178" fill="#b75349"/>
              <path id="Trazado_215855" data-name="Trazado 215855" d="M195.113,135.694a1.754,1.754,0,0,0-.058-.178c-.225-.625-.717-1.246-1.088-1.121-.647.215.289,2.594.98,2.217a.59.59,0,0,0,.186-.227,1.166,1.166,0,0,0-.02-.691" fill="#1da8b7"/>
              <path id="Trazado_215856" data-name="Trazado 215856" d="M205.177,135.272a.607.607,0,0,0-.074-.162s.027.068.074.162" fill="#732723"/>
              <path id="Trazado_215857" data-name="Trazado 215857" d="M208.11,135.075a.571.571,0,0,0-.108-.266,2.511,2.511,0,0,0,.108.266" fill="#732723"/>
              <path id="Trazado_215858" data-name="Trazado 215858" d="M208.681,133.9s-.029-.008-.088-.018a.569.569,0,0,1,.088.018" fill="#732723"/>
              <path id="Trazado_215859" data-name="Trazado 215859" d="M208.679,132.628V133.9l-.086-.02a.741.741,0,0,0-.119-.019c-1.263-.17-5.951.55-9.483,1.148-1.775.3-3.257.574-3.863.684-.038-.1-.072-.17-.072-.17-.227-.627-.721-1.248-1.091-1.123.993-.344,1.984-.627,2.952-.862a37.417,37.417,0,0,1,11.762-.906" fill="#a6d6b4"/>
              <path id="Trazado_215860" data-name="Trazado 215860" d="M195.133,136.386a.607.607,0,0,1-.186.227.412.412,0,0,0,.186-.227" fill="#732723"/>
              <path id="Trazado_215861" data-name="Trazado 215861" d="M195.055,135.516" fill="#732723"/>
              <path id="Trazado_215862" data-name="Trazado 215862" d="M198.992,135.005c-1.775.3-3.258.574-3.863.684-.038-.1-.072-.17-.072-.17-.227-.627-.721-1.248-1.091-1.123.993-.344,1.983-.627,2.952-.862.658.5,1.42,1.028,2.074,1.471" fill="#63c4ba"/>
              <path id="Trazado_215863" data-name="Trazado 215863" d="M201.415,133.505a.73.73,0,0,1-.094.008.523.523,0,0,1-.51-.426l-5.9-32.672L187.8,61.067a.521.521,0,0,1,1.025-.187l7.457,41.275,5.555,30.745a.52.52,0,0,1-.42.605" fill="#d0918e"/>
              <path id="Trazado_215864" data-name="Trazado 215864" d="M201.415,133.505a.73.73,0,0,1-.094.008.523.523,0,0,1-.51-.426l-5.9-32.672c.43.543.9,1.129,1.371,1.74l5.555,30.745a.52.52,0,0,1-.42.605" fill="#b97b7b"/>
              <path id="Trazado_215865" data-name="Trazado 215865" d="M208.911,135.518c-.378.27-.658-.145-.8-.445a.557.557,0,0,0-.1-.258,2,2,0,0,0,.1.258.648.648,0,0,1-.107.445c-.262.4-1.776-.41-1.776-.41a.81.81,0,0,1-.391.639c-.28.173-.536-.233-.661-.475a.623.623,0,0,0-.073-.164s.028.07.073.164c.062.2.05.543-.592.746a1.5,1.5,0,0,1-1.517-.271,1.039,1.039,0,0,1-.775.576c-.651.174-1.384-.576-1.384-.576a1.113,1.113,0,0,1-.293.714.751.751,0,0,1-.273.192c-.528.228-1.3-.373-1.377-.436.021.047.11.346-.959.6a2.875,2.875,0,0,1-1.99-.207.791.791,0,0,1-1.067,0,.418.418,0,0,0,.187-.227.99.99,0,0,0-.007-.7c.65-.119,2.312-.42,4.265-.75,3.476-.586,7.866-1.246,9.081-1.082.048.006.091.014.119.019s.065.014.086.02c0,0,.793,1.217.232,1.623" fill="#ffc40c"/>
              <path id="Trazado_215866" data-name="Trazado 215866" d="M200.615,136.462a.75.75,0,0,1-.273.191c-.528.229-1.3-.373-1.377-.435.021.047.11.346-.959.6a2.872,2.872,0,0,1-1.991-.207.79.79,0,0,1-1.066,0,.416.416,0,0,0,.187-.226.99.99,0,0,0-.007-.7c.65-.12,2.312-.42,4.265-.75a9.077,9.077,0,0,0,1.221,1.523" fill="#f7981d"/>
              <path id="Trazado_215867" data-name="Trazado 215867" d="M191.171,67.823a.663.663,0,0,1-.17.123c.021.029.037.059.055.088a1.514,1.514,0,0,1-.158,1.644l-.032.041a1.244,1.244,0,0,1,.052.135,1.356,1.356,0,0,1,.083.477.955.955,0,0,1-.7.863c-.128.041-.087.994-1.645.865s-3.376-2.166-3.376-2.166C183.6,68.985,181,67.946,181,67.946a8.541,8.541,0,0,1-.162-1.174,6.46,6.46,0,0,1,2-5.357c.043-.043.066-.074.066-.088l3.719,2.853c2.728-2.16,3.725-1.558,4.459-.388a3.433,3.433,0,0,1,.07,2.724c-.033.08-.053.135-.064.162l-.006.018c.432.609.256.961.09,1.127" fill="#f7981d"/>
              <path id="Trazado_215868" data-name="Trazado 215868" d="M190.918,69.854a3.365,3.365,0,0,1-1.1.184,3.708,3.708,0,0,1-2.448-.965.086.086,0,0,1-.009-.123.088.088,0,0,1,.121-.01,3.375,3.375,0,0,0,3.418.738l-.032.041a1.244,1.244,0,0,1,.052.135" fill="#983222"/>
              <path id="Trazado_215869" data-name="Trazado 215869" d="M191,67.946c.02.029.037.059.055.088a1.757,1.757,0,0,1-.319.025,3.918,3.918,0,0,1-2.4-1.086.084.084,0,0,1-.009-.121.083.083,0,0,1,.121-.01c1.443,1.174,2.359,1.094,2.718.981a.663.663,0,0,1-.17.123" fill="#983222"/>
              <path id="Trazado_215870" data-name="Trazado 215870" d="M191.151,66.516l-.064.162a3.723,3.723,0,0,1-1.767-1.916.089.089,0,0,1,.037-.119.084.084,0,0,1,.117.043,3.493,3.493,0,0,0,1.677,1.83" fill="#983222"/>
              <path id="Trazado_215871" data-name="Trazado 215871" d="M191,70.331a.955.955,0,0,1-.7.863c-.128.041-.087.994-1.645.866s-3.376-2.166-3.376-2.166C183.6,68.985,181,67.946,181,67.946a8.541,8.541,0,0,1-.162-1.174c1.342.85,6.816,4.44,10.164,3.559" fill="#dd8426"/>
              <path id="Trazado_215872" data-name="Trazado 215872" d="M201.451,77.221s-.295.408-.877,1.15l-.27.346c-.409.512-.919,1.143-1.537,1.879-1.775,2.123-3.507,4.242-5.193,4.719-1.316.371-2.281.107-2.347-.432a.6.6,0,0,1,.1-.412.5.5,0,0,1,.064-.1,1.108,1.108,0,0,1-.14-.066h0a1.128,1.128,0,0,1-.66-1.408l-.02-.018c-.019-.021-.064-.062-.117-.125a1.741,1.741,0,0,1-.516-1.668c0-.006,0-.006,0-.006a.433.433,0,0,1,.042-.087s-.036-.036-.091-.1a1.6,1.6,0,0,1-.255-1.94,4.345,4.345,0,0,1,3.7-2.121,4.622,4.622,0,0,1,.676.053s1.73-3.037,2.378-4.205c.016-.029.031-.059.047-.086.057-.1.112-.2.164-.3.5-.947.741-1.519.741-1.519a1.5,1.5,0,0,1,.3.078,3.265,3.265,0,0,1,.854.474,6.258,6.258,0,0,1,1.791,2.344,11.506,11.506,0,0,1,1.138,3.235.235.235,0,0,1,.01.062,2.186,2.186,0,0,1,.022.252" fill="#f7981d"/>
              <path id="Trazado_215873" data-name="Trazado 215873" d="M192.1,79.829a.087.087,0,0,1-.064.1,5.338,5.338,0,0,0-2.092,1.144.392.392,0,0,1,.042-.088s-.036-.035-.091-.1a5.523,5.523,0,0,1,2.1-1.128.085.085,0,0,1,.1.066" fill="#983222"/>
              <path id="Trazado_215874" data-name="Trazado 215874" d="M192.94,81.524a.085.085,0,0,1-.072.1,3.98,3.98,0,0,0-2.3,1.254c-.02-.022-.065-.063-.117-.125a4.1,4.1,0,0,1,2.392-1.3.088.088,0,0,1,.1.076" fill="#983222"/>
              <path id="Trazado_215875" data-name="Trazado 215875" d="M193.126,83.593a3.313,3.313,0,0,1-1.8.879.51.51,0,0,1,.065-.1,1.076,1.076,0,0,1-.141-.066,3.078,3.078,0,0,0,1.765-.842.086.086,0,1,1,.11.133" fill="#983222"/>
              <path id="Trazado_215876" data-name="Trazado 215876" d="M198.49,71.329c-1,1.291-3.8,5.346-4.482,5.555,0,0,1.73-3.037,2.378-4.205.016-.03.031-.059.047-.086.057-.1.112-.2.165-.3.5-.947.74-1.52.74-1.52a1.574,1.574,0,0,1,.3.078,3.274,3.274,0,0,1,.854.475" fill="#dd8426"/>
              <path id="Trazado_215877" data-name="Trazado 215877" d="M201.451,77.221s-.295.408-.877,1.15l-.27.346c-.409.512-.919,1.143-1.537,1.879-1.775,2.123-3.507,4.242-5.193,4.719-1.316.371-2.281.107-2.347-.432.661-.223,1.536-.519,2.683-.914,2.926-1,6.3-5.369,7.509-7.062a.235.235,0,0,1,.01.062,2.186,2.186,0,0,1,.022.252" fill="#dd8426"/>
              <path id="Trazado_215878" data-name="Trazado 215878" d="M218.6,132.991l-.477,1.342h-5.841s2.9-3.031,6.318-1.342" fill="#d24c27"/>
              <path id="Trazado_215879" data-name="Trazado 215879" d="M217.783,133.4a.111.111,0,0,0,.049-.039.289.289,0,0,1-.049.039" fill="#7a1715"/>
              <path id="Trazado_215880" data-name="Trazado 215880" d="M221.892,100.358a17.051,17.051,0,0,0,2.357.361c1.842.2,4.506.409,7.352.555,2.725.141,5.607.221,8.083.182.217,0,.432-.008.647-.014,2.3-.059,4.075-.156,5.412-.252.521-.039.978-.08,1.373-.119,1.527-.149,2.126-.276,2.126-.276.347-1.558-2.81-20.818-3.808-24.234s-4.6-8.355-4.6-8.355c-.032-.512-.084-1.1-.146-1.727-.156-1.517-.387-3.293-.619-4.928-.392-2.751-.779-5.1-.779-5.1-6.534.192-9.493-.6-9.5-.6s-.3.64-.658,1.469h0c-.531,1.25-1.18,2.924-1.051,3.445a6.684,6.684,0,0,0,1.418,2.067c.178.195.295.312.295.312-.107,1.43-1.886,13.633-3.271,18.4s-4.633,18.822-4.633,18.822" fill="#a6ddeb"/>
              <path id="Trazado_215881" data-name="Trazado 215881" d="M228.083,60.763a6.651,6.651,0,0,0,1.418,2.066c1.863.594,2.137.049,2.137.049-2.614-.736-2.549-4.693-2.5-5.56-.531,1.25-1.18,2.924-1.051,3.445" fill="#66c8ce"/>
              <path id="Trazado_215882" data-name="Trazado 215882" d="M236.411,62.878s1.458,1.787,3.272.984a38.517,38.517,0,0,0,.513,5.618,62.181,62.181,0,0,1,4.937,16.009c1.207,6.955,1.769,12.914,1.983,15.582,1.527-.148,2.126-.275,2.126-.275.346-1.559-2.811-20.818-3.808-24.234s-4.6-8.356-4.6-8.356c-.031-.512-.084-1.1-.145-1.726-.156-1.518-.388-3.293-.619-4.928a4.335,4.335,0,0,1-3.661,1.326" fill="#66c8ce"/>
              <path id="Trazado_215883" data-name="Trazado 215883" d="M244.4,74.483s.3,1.213.738,1.34,2.725-2.164,5.584-5.065a57.759,57.759,0,0,0,5.494-6.752c-.646-2.291-6.359-9.128-6.359-9.128A9.182,9.182,0,0,0,247.3,57.04a10.357,10.357,0,0,0-.661.9,5.82,5.82,0,0,0-.9,1.871,20.878,20.878,0,0,0,4.226,3.765s-2.007,3.517-3.136,5.592l0,.007c-.048.082-.093.162-.136.243a52.459,52.459,0,0,0-2.295,5.064" fill="#f1b5ab"/>
              <path id="Trazado_215884" data-name="Trazado 215884" d="M229.8,55.847a14.517,14.517,0,0,0,1.717.305c.107.013.22.027.34.045a48.326,48.326,0,0,0,6.083.285c.113,0,.231,0,.348,0,.326-.008.662-.014,1.009-.026,0,0,.39,2.366.786,5.135.2,1.447.408,3.006.56,4.392.018.17.035.338.052.5.024-.107.052-.22.08-.34.765-3.253,2.212-9.356,2.212-9.356a35.577,35.577,0,0,0,2.756,3.029s.315-.738.775-1.563a10.991,10.991,0,0,1,.782-1.209,9.263,9.263,0,0,1,2.669-2.021c-.3-.369-4.313-5.768-6.244-6.934a27.243,27.243,0,0,0-2.943-1.506c-.107-.052-.215-.095-.322-.142a17.018,17.018,0,0,0-2.822-1s-1.762.139-2.627.31a6.385,6.385,0,0,0-.941.258,4,4,0,0,0-.389.156,3.055,3.055,0,0,0-1.461,1.239c-.627,1.088-1.076,1.246-1.143,2.769a39.642,39.642,0,0,1-1.277,5.678" fill="#235daa"/>
              <path id="Trazado_215885" data-name="Trazado 215885" d="M237.936,56.482a.175.175,0,0,0,.131.164.143.143,0,0,0,.041,0,.172.172,0,0,0,.167-.127l.009-.045,2.494-9.9c-.108-.053-.215-.1-.322-.143l-2.518,10a.37.37,0,0,0,0,.047" fill="#90d6e9"/>
              <path id="Trazado_215886" data-name="Trazado 215886" d="M229.12,42.415c1.174,1.211,3.473,1.561,5.48.961a5.128,5.128,0,0,0,.555-.193c.1-.039.192-.081.285-.122a8.463,8.463,0,0,0,3.088-2.7c.269-.374.418-.626.418-.626a1.6,1.6,0,0,0,1.035-.4c1.146-.992,1.168-3.508.26-3.927-1.122-.52-1.295.866-1.295.866a10.464,10.464,0,0,0-1.492-3.476,3.98,3.98,0,0,0-.285-.334c-.957-.988-2.457-2.364-3.043-2.89h0c-.152-.145-.244-.225-.244-.225-3.332.734-4.5.259-4.5.259s-.041.126-.114.337c-.031.1-.074.214-.117.349-.414,1.216-1.265,3.777-1.718,5.288a8.476,8.476,0,0,0,1.689,6.838" fill="#f1b5ab"/>
              <path id="Trazado_215887" data-name="Trazado 215887" d="M240.505,112.522c.215,5.451,0,21.373,0,21.373h1.038c.128,0,5.45-17.693,5.667-21.937a12.466,12.466,0,0,0-2.336-7.528l.869-3.24c-.412.031-.866.059-1.361.09-1.118.062-2.457.121-4.051.162-.215.006-.43.012-.647.014.152,1.492.637,6.492.821,11.066" fill="#263b7f"/>
              <path id="Trazado_215888" data-name="Trazado 215888" d="M217.349,132.729l1.207.254.047.01s4.328-7.231,6.752-10.69,4.848-7.791,5.238-10.994a26.979,26.979,0,0,0-.564-7.488l1.572-2.547c-.721-.039-1.428-.076-2.113-.119-2.026-.131-3.86-.287-5.239-.436-.246,1.6-1.107,7.225-1.879,11.889-.908,5.5-5.021,20.121-5.021,20.121" fill="#263b7f"/>
              <path id="Trazado_215889" data-name="Trazado 215889" d="M240.886,74.657c.311.172,1.606-.783,2.561-.479,0,0-1.731.909-1.516,1.426.18.434,1.655-.217,2.039-.422-.3.256-1.152,1.364-.959,1.633.219.307,1.6-.986,1.6-.986s-.565,1.16-.219,1.508.738-1.514.738-1.514a8.742,8.742,0,0,0-.738-1.34c-.495-.668-1.121-1.775-1.859-1.474s-1.96,1.474-1.651,1.648" fill="#f1b5ab"/>
              <path id="Trazado_215890" data-name="Trazado 215890" d="M220.943,64.052c.205,1.9.941,2.756,2.029,2.961a4.3,4.3,0,0,0,1.78-.106c2.033-.476,2.812-3.156,3.5-5.712s2.381-7.92,2.684-9.906a13.9,13.9,0,0,0,.172-3.207,1.583,1.583,0,0,0,.82-.348.128.128,0,0,0,.057-.088c.018-.166-.35-.357-.672-.5.506.178,1.272.4,1.44.2.253-.292-1.167-1.447-1.25-1.511.091.033,1.736.726,1.943.515s-1.471-1.25-1.67-1.375c.213.09,2.092.881,2.287.555.207-.348-1.853-1.611-2.521-1.863a1.282,1.282,0,0,0-1.254.392s-.955-.173-.91.559a1.362,1.362,0,0,0-.692,1.432,9.711,9.711,0,0,0,.647,2.031c-.082.131-3.85,6.017-5.45,8.308s-3.248,4.848-2.943,7.662" fill="#f1b5ab"/>
              <path id="Trazado_215891" data-name="Trazado 215891" d="M234.6,43.376l.07,1.045.162,2.449c.954.477,2.774-.734,2.774-1.168,0-.2.19-1.314.4-2.478.25-1.4.523-2.867.523-2.867a8.461,8.461,0,0,1-3.087,2.705,6.051,6.051,0,0,1-.84.314" fill="#f1b5ab"/>
              <path id="Trazado_215892" data-name="Trazado 215892" d="M226.87,28.392a.366.366,0,0,0,0,.066c.055.852,1.236,1.4,2.392,1.482.073-.211.114-.337.114-.337s1.168.475,4.5-.259c0,0,2.078,1.862,3.289,3.115a7.556,7.556,0,0,1,1.466,2.726c.207.627.311,1.084.311,1.084s.148-1.205,1.08-.945a1.325,1.325,0,0,1,.215.079c.46.212.678.959.636,1.779a3.458,3.458,0,0,1-.574,1.794,2.374,2.374,0,0,1-.322.354,6.852,6.852,0,0,1,.432,1.027c.825,2.359-1.731,4.351-3.07,5.605a5.229,5.229,0,0,0-1.377,4.972v0a2.764,2.764,0,0,0,1.119,1.387,5.112,5.112,0,0,0,4.63.563c-1.343-1.039-.477-3.377,1.428-4.459s2.769-1.907,2.81-4.817-3.416-5.266-3.416-5.266l-.935-1.808a.2.2,0,0,0-.015-.034l-.02-.039-.461-.888c.238-1.12.824-3.941-.221-6.233s-4.107-3.848-8.171-3.462-5.844,1.517-5.844,2.51" fill="#721813"/>
              <path id="Trazado_215893" data-name="Trazado 215893" d="M238.636,35.185c.207.627.311,1.084.311,1.084s.172-1.386,1.295-.866c.812.374.878,2.438.062,3.573.865-.509,1.831-1.355,1.3-2.437a.175.175,0,0,0-.015-.035l-.02-.039a2.6,2.6,0,0,0-2.932-1.28" fill="#983222"/>
              <path id="Trazado_215894" data-name="Trazado 215894" d="M231.513,56.138s0,.01,0,.014a.163.163,0,0,0,.133.189.094.094,0,0,0,.033,0,.174.174,0,0,0,.17-.135l0-.013,2.213-10.192a4,4,0,0,0-.389.156Z" fill="#90d6e9"/>
              <path id="Trazado_215895" data-name="Trazado 215895" d="M249.966,63.577s-2.008,3.518-3.136,5.592c1.793-2.5,4.1-5.03,4.1-5.03-1.223-.9-3.443-4.675-4.3-6.2a5.851,5.851,0,0,0-.9,1.871,20.838,20.838,0,0,0,4.227,3.765" fill="#f5948d"/>
              <path id="Trazado_215896" data-name="Trazado 215896" d="M240.886,74.657c.311.172,1.606-.783,2.561-.479,0,0-1.731.909-1.516,1.426.18.434,1.655-.217,2.039-.422-.3.256-1.152,1.364-.959,1.633.219.307,1.6-.986,1.6-.986s-.565,1.16-.219,1.508.738-1.514.738-1.514a8.742,8.742,0,0,0-.738-1.34c-.495-.668-1.121-1.775-1.859-1.474s-1.96,1.474-1.651,1.648" fill="#f5948d"/>
              <path id="Trazado_215897" data-name="Trazado 215897" d="M222.972,67.013a4.309,4.309,0,0,0,1.779-.105c2.034-.477,2.813-3.157,3.5-5.713s2.381-7.92,2.684-9.906a13.9,13.9,0,0,0,.172-3.207,1.586,1.586,0,0,0,.82-.348.128.128,0,0,0,.057-.088,1.979,1.979,0,0,1-1.887-.412,11.8,11.8,0,0,1,0,4.557,31.038,31.038,0,0,1-4.037,9.183,39.709,39.709,0,0,0-3.092,6.039" fill="#f5948d"/>
              <path id="Trazado_215898" data-name="Trazado 215898" d="M234.6,43.376l.07,1.045a5.608,5.608,0,0,0,3.334-1.2c.25-1.4.523-2.867.523-2.867a8.461,8.461,0,0,1-3.087,2.705,6.051,6.051,0,0,1-.84.314" fill="#f5948d"/>
              <path id="Trazado_215899" data-name="Trazado 215899" d="M235.156,43.183c.1-.039.191-.08.285-.121a8.474,8.474,0,0,0,3.088-2.705c.269-.374.418-.626.418-.626a1.6,1.6,0,0,0,1.035-.4c1.146-.991,1.168-3.508.26-3.927-1.123-.519-1.295.866-1.295.866a10.454,10.454,0,0,0-1.492-3.475,10.007,10.007,0,0,1,.322,6.044,9.244,9.244,0,0,1-2.621,4.345" fill="#f5948d"/>
              <path id="Trazado_215900" data-name="Trazado 215900" d="M229.15,30.29a13.481,13.481,0,0,0,4.975-.721c-.153-.144-.245-.224-.245-.224-3.332.733-4.5.259-4.5.259s-.041.125-.113.336c-.031.1-.074.214-.117.35" fill="#f5948d"/>
              <path id="Trazado_215901" data-name="Trazado 215901" d="M231.984,38.639c.092,0,.186,0,.285-.005a.088.088,0,0,0,.084-.09.089.089,0,0,0-.09-.083,3.092,3.092,0,0,1-1.849-.309,25.926,25.926,0,0,0,1.185-3.59.09.09,0,0,0-.092-.082.085.085,0,0,0-.082.083,24.916,24.916,0,0,1-1.2,3.565.086.086,0,0,0,.01.1c.014.016.371.409,1.744.409" fill="#983222"/>
              <path id="Trazado_215902" data-name="Trazado 215902" d="M237.343,33.88a3.027,3.027,0,0,0-3.521-1.234s.179.269,1.755.64,1.766.594,1.766.594" fill="#721813"/>
              <path id="Trazado_215903" data-name="Trazado 215903" d="M231.558,32.877a2.819,2.819,0,0,0-2.012-.507c-1.123.187-1.217.805-1.217.805a17.51,17.51,0,0,1,3.229-.3" fill="#721813"/>
              <path id="Trazado_215904" data-name="Trazado 215904" d="M235.583,39.644a6.759,6.759,0,0,1-3.02.713,7.091,7.091,0,0,1-2.892-.483,3.8,3.8,0,0,0,2.955,2.193c2.07.145,2.957-2.423,2.957-2.423" fill="#fff"/>
              <path id="Trazado_215905" data-name="Trazado 215905" d="M239.536,38.639h.01a.087.087,0,0,0,.076-.1,4.828,4.828,0,0,1,.647-2.3.088.088,0,0,0-.032-.119.085.085,0,0,0-.117.033,4.873,4.873,0,0,0-.67,2.41.086.086,0,0,0,.086.076" fill="#983222"/>
              <path id="Trazado_215906" data-name="Trazado 215906" d="M239.862,37.9a.408.408,0,0,0,.412-.209c.131-.309-.308-.7-.358-.746a.087.087,0,0,0-.115.13c.1.09.383.384.313.549s-.394.1-.5.07a.086.086,0,0,0-.047.166,1.193,1.193,0,0,0,.3.04" fill="#983222"/>
              <path id="Trazado_215907" data-name="Trazado 215907" d="M234.742,34.968c0,.486.174.881.389.881s.386-.4.386-.881-.173-.882-.386-.882-.389.4-.389.882" fill="#1e1724"/>
              <path id="Trazado_215908" data-name="Trazado 215908" d="M229.8,34.794c0,.582.174,1.055.387,1.055s.386-.473.386-1.055-.173-1.055-.386-1.055-.387.472-.387,1.055" fill="#1e1724"/>
              <path id="Trazado_215909" data-name="Trazado 215909" d="M240.079,61.587c.2,1.447.408,3.006.561,4.393l.131.16c.765-3.254,2.212-9.357,2.212-9.357a35.752,35.752,0,0,0,2.756,3.029s.316-.738.776-1.562c-1.1-.891-3.577-3.043-3.978-4.77,0,0-.188,5.483-2.458,8.107" fill="#05509c"/>
              <path id="Trazado_215910" data-name="Trazado 215910" d="M237.343,45.962a5.235,5.235,0,0,0-1.377,4.973,5,5,0,0,1,2.562-4.5c3.057-1.454,4.386-5.941,2.71-8.629-.128-.207-.249-.415-.36-.626a3.469,3.469,0,0,1-.575,1.794,2.322,2.322,0,0,1-.322.354,6.886,6.886,0,0,1,.433,1.027c.824,2.359-1.732,4.351-3.071,5.605" fill="#661513"/>
              <path id="Trazado_215911" data-name="Trazado 215911" d="M226.874,28.459c.055.852,1.236,1.4,2.393,1.481.072-.211.113-.336.113-.336s1.168.474,4.5-.259c0,0,2.078,1.862,3.289,3.115a7.556,7.556,0,0,1,1.466,2.726c.207.627.311,1.084.311,1.084s.148-1.206,1.08-.946c-.766-1.9-1.336-3.732-2.941-5.01a10.338,10.338,0,0,0-10.211-1.855" fill="#661513"/>
              <path id="Trazado_215912" data-name="Trazado 215912" d="M224.474,120.311c-2.416,4.746-4.74,10.16-5.918,12.672l.047.01s4.328-7.231,6.752-10.69,4.848-7.791,5.238-10.994a26.979,26.979,0,0,0-.564-7.488l1.572-2.547c-.721-.039-1.428-.076-2.113-.119l-.627,2.8c.953,3.463-1.125,9.955-4.387,16.359" fill="#212a60"/>
              <path id="Trazado_215913" data-name="Trazado 215913" d="M241.186,133.9h.356c.128,0,5.451-17.693,5.667-21.937a12.468,12.468,0,0,0-2.335-7.528l.869-3.24c-.412.031-.867.059-1.362.09-.007,1.605.014,4.316.014,4.316s1.6,1.992.738,9c-.765,6.188-3.348,16.875-3.947,19.3" fill="#212a60"/>
              <path id="Trazado_215914" data-name="Trazado 215914" d="M242.189,131.928c.4,1.281.607,2.279.607,2.279a25.789,25.789,0,0,1-3.461-.217l1.168-2.211Z" fill="#d24c27"/>
              <path id="Trazado_215915" data-name="Trazado 215915" d="M161.7,95.284,160.549,134.9s-.778-.008-1.706-.012c-1.249-.009-2.77-.011-3.015.012-.372.031,4.3-29.7,5.561-37.676.2-1.232.309-1.945.309-1.945" fill="#ea6b24"/>
              <path id="Trazado_215916" data-name="Trazado 215916" d="M175.094,134.9h-5.472l-1.016-2.295.2-4.082h4.76Z" fill="#ea6b24"/>
              <g id="Grupo_155690" data-name="Grupo 155690" opacity="0.4" style="mix-blend-mode: multiply;isolation: isolate">
                <g id="Grupo_155689" data-name="Grupo 155689">
                  <g id="Grupo_155688" data-name="Grupo 155688" clip-path="url(#clip-path-3)">
                    <path id="Trazado_215917" data-name="Trazado 215917" d="M161.389,97.229c.195-1.233.309-1.945.309-1.945l-1.15,39.621s-.777-.008-1.706-.012Z" fill="#845857"/>
                  </g>
                </g>
              </g>
              <g id="Grupo_155693" data-name="Grupo 155693" opacity="0.4" style="mix-blend-mode: multiply;isolation: isolate">
                <g id="Grupo_155692" data-name="Grupo 155692">
                  <g id="Grupo_155691" data-name="Grupo 155691" clip-path="url(#clip-path-4)">
                    <path id="Trazado_215918" data-name="Trazado 215918" d="M171.682,134.9h-2.061l-1.016-2.295.2-4.082h2.066Z" fill="#845857"/>
                  </g>
                </g>
              </g>
              <path id="Trazado_215919" data-name="Trazado 215919" d="M185.847,134.825h-8.47v-6.3h-8.572l-.312,6.377h-7.945l1.15-39.621h18.085Z" fill="#f5a42a"/>
              <path id="Rectángulo_50430" data-name="Rectángulo 50430" d="M.482,0H11.109a.484.484,0,0,1,.484.484V1.769a.484.484,0,0,1-.484.484H.484A.484.484,0,0,1,0,1.769V.482A.482.482,0,0,1,.482,0Z" transform="translate(165.595 97.757)" fill="#ea6b24"/>
              <path id="Trazado_215920" data-name="Trazado 215920" d="M185.847,134.825h-7.083l.524-39.541h.495Z" fill="#f79738"/>
              <path id="Trazado_215921" data-name="Trazado 215921" d="M163.02,118.927h18.191l-9.82-13.521Z" fill="#93d6e8"/>
              <path id="Trazado_215922" data-name="Trazado 215922" d="M179.315,118H164.8a.119.119,0,0,1-.1-.062.121.121,0,0,1,0-.123l6.675-10.784a.124.124,0,0,1,.1-.056.131.131,0,0,1,.1.049l7.814,10.763a.116.116,0,0,1,.045.092.121.121,0,0,1-.121.121m-14.295-.242h14.053l-7.586-10.445Z" fill="#3a68b1"/>
              <path id="Trazado_215923" data-name="Trazado 215923" d="M184.713,133.641a.15.15,0,0,1-.026.1.144.144,0,0,1-.093.039h-6.36a.121.121,0,0,1-.122-.119v-6H167.487v6.08a.12.12,0,0,1-.121.119H161.7a.124.124,0,0,1-.087-.037.109.109,0,0,1-.034-.086l1.295-38.453h.242l-1.291,38.336h5.422v-6.079a.122.122,0,0,1,.121-.121h10.868a.12.12,0,0,1,.121.121v6h6.1l-5.7-38.253h.24Z" fill="#ffc40c"/>
              <path id="Trazado_215924" data-name="Trazado 215924" d="M164.509,98.886c0,.488-.2.885-.451.885s-.454-.4-.454-.885.2-.887.454-.887.451.4.451.887" fill="#ffc40c"/>
              <path id="Trazado_215925" data-name="Trazado 215925" d="M178.727,98.886c0,.488-.2.885-.453.885s-.453-.4-.453-.885.2-.887.453-.887.453.4.453.887" fill="#ffc40c"/>
              <path id="Trazado_215926" data-name="Trazado 215926" d="M171.391,115.546l-1.248-4.828h3.341l-1.368,4.828Z" fill="#416db4"/>
              <path id="Trazado_215927" data-name="Trazado 215927" d="M171.21,116.675a.6.6,0,1,1,.6.6.6.6,0,0,1-.6-.6" fill="#416db4"/>
              <path id="Trazado_215928" data-name="Trazado 215928" d="M265.972,118.017l-.342,2.039-2.316,13.861a35.052,35.052,0,0,1-5.871.821,32.648,32.648,0,0,1-9.709-.821l-1.834-15.24-.08-.66Z" fill="#f7981d"/>
              <path id="Trazado_215929" data-name="Trazado 215929" d="M265.972,118.017l-.342,2.039a34.515,34.515,0,0,1-5.351.551,48.556,48.556,0,0,1-14.379-1.93l-.08-.66Z" fill="#dd8426"/>
              <path id="Trazado_215930" data-name="Trazado 215930" d="M265.972,118.017l-.342,2.039-2.316,13.861a35.052,35.052,0,0,1-5.871.821,140.924,140.924,0,0,0,2.836-14.131c.123-.914.222-1.789.289-2.59Z" fill="#dd8426"/>
              <path id="Trazado_215931" data-name="Trazado 215931" d="M255.046,117.058h-1.957s-.354-1.816-.707-3.619c-.326-1.662-.649-3.313-.686-3.5a2.3,2.3,0,0,0,1.674.316l1.194,4.85Z" fill="#055257"/>
              <path id="Trazado_215932" data-name="Trazado 215932" d="M255.046,117.058h-1.957s-.354-1.816-.707-3.619a14.432,14.432,0,0,0,2.182,1.664Z" fill="#014245"/>
              <path id="Trazado_215933" data-name="Trazado 215933" d="M256.683,106.586l-1.055.24-1.22.278-.639-2.075a2.9,2.9,0,0,0,1.859-.392,1.956,1.956,0,0,0,.453-.354Z" fill="#1da8b7"/>
              <path id="Trazado_215934" data-name="Trazado 215934" d="M256.683,106.586l-1.055.24v-2.189a1.956,1.956,0,0,0,.453-.354Z" fill="#055257"/>
              <path id="Trazado_215935" data-name="Trazado 215935" d="M250.339,117.058h-4.412l.623-4.809h2.316Z" fill="#d64e27"/>
              <path id="Trazado_215936" data-name="Trazado 215936" d="M250.339,117.058h-2l-.262-4.809h.785Z" fill="#c23827"/>
              <path id="Trazado_215937" data-name="Trazado 215937" d="M245.417,110.574c-.312,1.559-1.572,2.08-1.738,1.928-.2-.186-.119-.453.318-1.168a3.72,3.72,0,0,0,.393-1.6c.009-.217.006-.361.006-.361l1.078.127a3.823,3.823,0,0,1-.057,1.076" fill="#1da8b7"/>
              <path id="Trazado_215938" data-name="Trazado 215938" d="M245.417,110.574c-.3-.262-.771-.637-1.027-.842.009-.217.006-.361.006-.361l1.078.127a3.823,3.823,0,0,1-.057,1.076" fill="#055257"/>
              <path id="Trazado_215939" data-name="Trazado 215939" d="M253.37,110.254l2.791-2.313h3.828l-3.308-1.355-2.274.52-2.711,2.832s.412.556,1.674.316" fill="#a6d6b4"/>
              <path id="Trazado_215940" data-name="Trazado 215940" d="M253.769,105.031s.479-.818,2.313-.748c0,0-.557,1-2.313.748" fill="#a6d6b4"/>
              <path id="Trazado_215941" data-name="Trazado 215941" d="M245.288,107.105h-1.012L244,109.337l1.037.145Z" fill="#0d64a5"/>
              <path id="Trazado_215942" data-name="Trazado 215942" d="M251.7,109.138l-1.781,1.162-4.877-.818.019-.278.153-2.1h4.916l1.1,1.424Z" fill="#2b91be"/>
              <path id="Trazado_215943" data-name="Trazado 215943" d="M251.7,109.138l-1.781,1.162-4.877-.818.019-.278c.95.02,4.338.167,4.338.167l1.828-.844Z" fill="#0d64a5"/>
              <path id="Trazado_215944" data-name="Trazado 215944" d="M249.064,110.146v.8H246v-1.354Z" fill="#1e7ea0"/>
              <path id="Trazado_215945" data-name="Trazado 215945" d="M249.064,110.146v.58L246,109.851v-.258Z" fill="#0c6f88"/>
              <path id="Trazado_215946" data-name="Trazado 215946" d="M248.867,112.25H246.55v-1.3h1.955Z" fill="#f7981d"/>
              <path id="Trazado_215947" data-name="Trazado 215947" d="M248.867,112.25h-.82l-.776-1.3h1.235Z" fill="#dd8426"/>
              <path id="Trazado_215948" data-name="Trazado 215948" d="M244.812,107.756l-.109,1.051-.428-.047-.5-.059.107-1.064.862.111Z" fill="#d64e27"/>
              <path id="Trazado_215949" data-name="Trazado 215949" d="M244.812,107.756l-.109,1.051-.428-.047.467-1.012Z" fill="#c23827"/>
              <path id="Trazado_215950" data-name="Trazado 215950" d="M262.743,117.058h-7.7l-.508-2.053-1.168-4.752,2.791-2.312h3.828l1.926,6.377Z" fill="#1da8b7"/>
              <path id="Trazado_215951" data-name="Trazado 215951" d="M262.743,117.058h-7.7L254.538,115a25.949,25.949,0,0,0,3.519.354,14.385,14.385,0,0,0,3.858-1.041Z" fill="#0b9399"/>
              <path id="Trazado_215952" data-name="Trazado 215952" d="M266.451,117.7a.639.639,0,0,1-.64.639H245.927a.635.635,0,0,1-.637-.639.645.645,0,0,1,.183-.449.669.669,0,0,1,.454-.19h19.884a.642.642,0,0,1,.64.639" fill="#ffc40c"/>
              <path id="Trazado_215953" data-name="Trazado 215953" d="M266.451,117.7a.639.639,0,0,1-.64.639h-7.17l.643-1.278h6.527a.642.642,0,0,1,.64.639" fill="#f7981d"/>
              <path id="Trazado_215954" data-name="Trazado 215954" d="M255.867,117.058c-.026.3-.065.738-.114,1.277-.177,1.989-.514,5.319-.934,7.764-.312,1.8-.674,3.115-1.051,3.066-1.158-.156-.716-3.437-.8-3.558s-1,3.711-1.994,3.551c-.955-.153-.08-3.676-.006-3.971-.128.279-1.585,3.476-2.386,3.131-.836-.358.6-4.424.625-4.541s-2.024,2.908-2.66,2.6.117-1.306.72-3.324a40.288,40.288,0,0,1,1.991-4.719c.25-.521.468-.968.623-1.277Z" fill="#77c7d7"/>
              <path id="Trazado_215955" data-name="Trazado 215955" d="M268.808,124.326c-.225-.392-1.486-.406-2.629-.6-.113-.017-.224-.039-.338-.062-.172-.039-.342-.08-.5-.131a.049.049,0,0,1-.017-.006c-.815-.265-1.811-.76-2.614-.961-.115-.031-.222-.052-.328-.07a2.03,2.03,0,0,0-.3-.025.768.768,0,0,0-.676.3l-.619-1.9-.1-.326-.523-1.613-.106-.319-.5-1.548a3.323,3.323,0,0,1,1.32-.145,1.152,1.152,0,0,1,.475.174.517.517,0,0,1,.119.09,4.6,4.6,0,0,1,.985-1.244,2.151,2.151,0,0,1,.269-.17,2.576,2.576,0,0,1,1.262-.313c.074,0,.154,0,.234.006s.137.01.2.02a3.184,3.184,0,0,1,2.139,1.267,3.114,3.114,0,0,1,.191.254,11.709,11.709,0,0,1,1.311,2.66c.039.094.07.184.1.274,0,.007.006.019.01.029a10.991,10.991,0,0,1,.588,3.133v0c.022.377.027.705.035.947,0,.117.006.211.008.283" fill="#d64e27"/>
              <path id="Trazado_215956" data-name="Trazado 215956" d="M268.843,124.513a.259.259,0,0,0-.035-.185.616.616,0,0,0,.023.169c.016.008.02.014.012.016" fill="#675352"/>
              <path id="Trazado_215957" data-name="Trazado 215957" d="M268.831,124.5c0,.008.008.018.012.016s0-.008-.012-.016" fill="#675352"/>
              <path id="Trazado_215958" data-name="Trazado 215958" d="M268.831,124.5a.551.551,0,0,1-.023-.17c-.282-.5-2.2-.392-3.465-.8l-.012,0-.006,0c-1.4-.455-3.346-1.59-3.922-.761-.265.384,1.5.837,2.8,1.271s4.524,1.195,4.643.477c0,0-.008-.008-.012-.016" fill="#c23827"/>
              <path id="Trazado_215959" data-name="Trazado 215959" d="M267.886,134.82l-4.586,1.117a12.258,12.258,0,0,1,.2,1.262l4.627-.926Z" fill="#f06080"/>
              <path id="Trazado_215960" data-name="Trazado 215960" d="M258.642,135.75l.033,1.131,4.824.318-.2-1.262Z" fill="#b72d4c"/>
              <path id="Trazado_215961" data-name="Trazado 215961" d="M263.3,134c-.146-.076-4.658,1.746-4.658,1.746l4.658.188,4.586-1.118s-4.437-.738-4.586-.816" fill="#ed3455"/>
              <path id="Trazado_215962" data-name="Trazado 215962" d="M257.443,127c-1.428.219-.875-4.424-.775-5.193-.118.689-.764,4.39-1.741,4.316a.337.337,0,0,1-.107-.027c-.834-.391.107-4.6.213-5.075-.137.44-1.236,3.93-2.061,3.747-.879-.2,0-4.666,0-4.666s-1.713,3.789-2.633,3.468c-.621-.216.11-3.254.721-5.238.16-.521.315-.969.428-1.277h7.164c.008.3.018.742.021,1.277.024,2.9-.083,8.49-1.23,8.668" fill="#a6ddeb"/>
              <path id="Trazado_215963" data-name="Trazado 215963" d="M262.712,122.566a3.231,3.231,0,0,0-.328-.07c-.09-.592-.17-1.137-.252-1.647h0c-.016-.109-.031-.213-.051-.316-.109-.623-.226-1.2-.369-1.711h0c-.027-.108-.058-.207-.09-.311a6.189,6.189,0,0,0-.74-1.6,1.152,1.152,0,0,1,.475.174,6.728,6.728,0,0,1,.584,1.38c.033.1.06.2.092.307a17.822,17.822,0,0,1,.375,1.744c.017.108.035.213.052.32.084.518.164,1.067.25,1.663,0,.023.006.043.01.066" fill="#eb5729"/>
              <path id="Trazado_215964" data-name="Trazado 215964" d="M266.179,123.726c-.113-.018-.225-.039-.338-.062a18.76,18.76,0,0,0-.969-3.073c-.045-.1-.086-.207-.127-.306-.294-.7-.607-1.354-.916-1.944-.048-.1-.1-.193-.148-.285-.48-.91-.928-1.65-1.229-2.125a2.427,2.427,0,0,1,.27-.17c.311.492.772,1.254,1.266,2.192.048.093.1.189.15.287.313.611.631,1.283.932,2,.041.1.082.2.125.3a18.455,18.455,0,0,1,.984,3.186" fill="#eb5729"/>
              <path id="Trazado_215965" data-name="Trazado 215965" d="M268.8,124.043a28.131,28.131,0,0,0-1.783-3.828c-.053-.1-.108-.193-.16-.289-.451-.805-.912-1.57-1.348-2.25-.057-.092-.113-.182-.172-.268-.529-.818-1-1.5-1.353-1.959.074,0,.154,0,.234.006s.137.01.2.02c.356.468.774,1.082,1.223,1.783.056.09.111.18.168.269.447.713.916,1.5,1.369,2.329.051.093.105.193.156.292.531.975,1.026,1.985,1.428,2.944v0c.021.377.027.705.035.947" fill="#eb5729"/>
              <path id="Trazado_215966" data-name="Trazado 215966" d="M266.751,117c-.262.166-.578.348-.939.531-.1.051-.2.1-.3.149a12.735,12.735,0,0,1-1.371.564c-.1.035-.2.067-.309.1a12.6,12.6,0,0,1-1.805.431l-.316.049h0a12.172,12.172,0,0,1-1.545.1l-.105-.319a11.194,11.194,0,0,0,1.56-.093c.108-.014.213-.03.319-.045a11.2,11.2,0,0,0,1.748-.41c.105-.034.209-.065.306-.1a11.759,11.759,0,0,0,1.35-.545c.1-.051.207-.1.307-.15.355-.18.66-.356.916-.516.066.08.13.164.191.254" fill="#eb5729"/>
              <path id="Trazado_215967" data-name="Trazado 215967" d="M268.177,119.959c-.246.059-.529.123-.84.189-.1.024-.209.045-.32.067-.547.113-1.162.226-1.822.326-.106.02-.215.033-.323.051-.769.109-1.586.2-2.42.246-.1,0-.212.01-.32.012h0q-.424.02-.855.019c-.162,0-.326,0-.489-.006l-.1-.326c.459.02.928.018,1.394,0,.108,0,.213-.008.323-.015.8-.039,1.6-.127,2.345-.233.108-.012.219-.027.325-.047.648-.1,1.25-.205,1.787-.312.111-.026.218-.049.324-.071.326-.07.623-.138.881-.2.039.094.07.184.1.274,0,.008.006.019.01.029" fill="#eb5729"/>
            </g>
          </g>
        </g>
      </g>
    </g>
  </g>
</svg>
