<svg xmlns="http://www.w3.org/2000/svg" xmlns:xlink="http://www.w3.org/1999/xlink" width="610.001" height="576.842" viewBox="0 0 610.001 576.842">
  <defs>
    <clipPath id="clip-path">
      <rect id="Rectángulo_50280" data-name="Rectángulo 50280" width="32.009" height="32.027" fill="none"/>
    </clipPath>
    <clipPath id="clip-path-2">
      <rect id="Rectángulo_50281" data-name="Rectángulo 50281" width="5.908" height="12.236" fill="none"/>
    </clipPath>
    <clipPath id="clip-path-3">
      <rect id="Rectángulo_50283" data-name="Rectángulo 50283" width="3.413" height="7.571" fill="none"/>
    </clipPath>
    <clipPath id="clip-path-4">
      <rect id="Rectángulo_50284" data-name="Rectángulo 50284" width="3.412" height="7.571" fill="none"/>
    </clipPath>
    <clipPath id="clip-path-5">
      <rect id="Rectángulo_50285" data-name="Rectángulo 50285" width="27.164" height="14.953" fill="none"/>
    </clipPath>
    <clipPath id="clip-path-6">
      <rect id="Rectángulo_50286" data-name="Rectángulo 50286" width="3.411" height="7.571" fill="none"/>
    </clipPath>
    <clipPath id="clip-path-8">
      <rect id="Rectángulo_50288" data-name="Rectángulo 50288" width="32.01" height="32.027" fill="none"/>
    </clipPath>
  </defs>
  <g id="Grupo_156437" data-name="Grupo 156437" transform="translate(-494.999 -30103.75)">
    <path id="Trazado_215260" data-name="Trazado 215260" d="M133.589,4.346A128.974,128.974,0,1,1,4.616,133.32,128.974,128.974,0,0,1,133.589,4.346m0-4.315C60.093.031.3,59.825.3,133.32S60.093,266.608,133.589,266.608,266.876,206.816,266.876,133.32,207.084.031,133.589.031" transform="translate(495.132 30103.969)" fill="#dd6747"/>
    <path id="Trazado_215261" data-name="Trazado 215261" d="M122.479,86.229a42.964,42.964,0,0,1-3.5-12.79,26.933,26.933,0,0,1-.1-4.4,13.346,13.346,0,0,1,.355-2.564l-.887.236c.016-.142.029-.236.029-.236l-15.815,4.423L86.742,66.472s.013.093.03.236l-.887-.236a13.5,13.5,0,0,1,.355,2.564,27.12,27.12,0,0,1-.1,4.4,42.919,42.919,0,0,1-3.5,12.79s-1.464,3.752-11.647,5.052a42.336,42.336,0,0,0,2.582,6.511c.216.446.447.906.693,1.376.616,1.179,1.329,2.432,2.147,3.716a44.179,44.179,0,0,0,4.778,6.23c1.88,5.346,6.032,9.834,10.833,10.579a42.713,42.713,0,0,0,6.8.528q1.286-.006,2.515-.093c.411-.029.815-.063,1.217-.1q.6.063,1.217.1,1.23.086,2.517.093a42.739,42.739,0,0,0,6.8-.528c4.8-.745,8.951-5.234,10.831-10.579a44.179,44.179,0,0,0,4.778-6.23c.818-1.284,1.532-2.537,2.147-3.716.493-.942.923-1.838,1.3-2.664a39.7,39.7,0,0,0,1.979-5.224c-10.183-1.3-11.647-5.052-11.647-5.052" transform="translate(526.108 30132.879)" fill="#ff8b66"/>
    <path id="Trazado_215262" data-name="Trazado 215262" d="M204.984,164.718l-28.606-28.606-2.445,77.246a129.326,129.326,0,0,1-111.5-.129l-.316-10.067-2.129-67.049-3.768,3.768H35.131c4.4-20.279,13.62-41.162,33.8-51.819,7.335-3.869,18.165-4.818,21.588-5.034a1.533,1.533,0,0,1,1.5.906,56.957,56.957,0,0,0,2.819,5.494.908.908,0,0,1,.374.633c4.085,6.918,11.736,16.841,23.112,19.962,11.376-3.121,19.013-13.045,23.112-19.962a.908.908,0,0,1,.374-.633,56.95,56.95,0,0,0,2.819-5.494,1.526,1.526,0,0,1,1.481-.906c3.437.216,14.253,1.165,21.6,5.034,28.793,15.216,35.279,51.258,37.278,76.657" transform="translate(510.395 30140.133)" fill="#703311"/>
    <path id="Trazado_215263" data-name="Trazado 215263" d="M87.223,113.117s16.7,33.867,37.186,52.282c0,0-24.788-7.8-37.186-52.282" transform="translate(533.222 30153.318)" fill="#662c10"/>
    <path id="Trazado_215264" data-name="Trazado 215264" d="M83.154,132.1s18.132,24.33,42.029,28.339c0,0-29.023,2.479-42.029-28.339" transform="translate(531.439 30161.637)" fill="#662c10"/>
    <g id="Grupo_155423" data-name="Grupo 155423" transform="translate(642.069 30266.436)" opacity="0.2">
      <g id="Grupo_155422" data-name="Grupo 155422">
        <g id="Grupo_155421" data-name="Grupo 155421" clip-path="url(#clip-path)">
          <path id="Trazado_215265" data-name="Trazado 215265" d="M118.262,113.117h-16s.495,18.855,2.482,22.151,11.143,9.978,13.522,9.875c2.379.1,11.534-6.577,13.522-9.875s2.482-22.151,2.482-22.151Z" transform="translate(-102.258 -113.117)" fill="#dd6747"/>
        </g>
      </g>
    </g>
    <path id="Trazado_215266" data-name="Trazado 215266" d="M114.363,73.043a26.346,26.346,0,0,1-.06-4.4l-.659-1.264L97.963,71.555,82.284,67.376l-.659,1.264a27.12,27.12,0,0,1-.1,4.4c2.129,3.452,7.368,10.046,16.422,10.067h.043c9.055-.022,14.25-6.616,16.378-10.067" transform="translate(530.723 30133.275)" fill="#dd6747"/>
    <g id="Grupo_155426" data-name="Grupo 155426" transform="translate(646.586 30286.227)" opacity="0.7">
      <g id="Grupo_155425" data-name="Grupo 155425">
        <g id="Grupo_155424" data-name="Grupo 155424" clip-path="url(#clip-path-2)">
          <path id="Trazado_215267" data-name="Trazado 215267" d="M105.4,127.98a8.319,8.319,0,0,1,2.478,5.552c.217,2.958-.419,5.747,2.218,5.573,2.323-.152,1.5-6.742-4.162-12.228Z" transform="translate(-105.399 -126.877)" fill="#b3ddff"/>
        </g>
      </g>
    </g>
    <path id="Trazado_215268" data-name="Trazado 215268" d="M90.082,168.781l-13.6-6.581a2.427,2.427,0,0,1-1.128-3.242l14.067-29.068a2.427,2.427,0,0,1,3.242-1.128l13.6,6.581a2.427,2.427,0,0,1,1.128,3.242L93.324,167.654a2.427,2.427,0,0,1-3.242,1.128" transform="translate(527.915 30160.068)" fill="#b3ddff"/>
    <rect id="Rectángulo_50282" data-name="Rectángulo 50282" width="12.681" height="7.41" transform="translate(624.044 30290.506) rotate(-64.171)" fill="#66b2d3"/>
    <path id="Trazado_215269" data-name="Trazado 215269" d="M111.926,130.426l-.534,1.1-18.551-8.977a1.984,1.984,0,1,1,1.746-3.562,89.644,89.644,0,0,1,17.339,11.437" transform="translate(535.193 30155.801)" fill="#71bae2"/>
    <path id="Trazado_215270" data-name="Trazado 215270" d="M99.866,127.584l-6.9-3.341a1.258,1.258,0,0,1-.584-1.681l.515-1.064,9.17,4.437L101.548,127a1.258,1.258,0,0,1-1.681.584" transform="translate(535.426 30156.992)" fill="#52a3bf"/>
    <path id="Trazado_215271" data-name="Trazado 215271" d="M91.052,128.325l6.9,3.341a1.258,1.258,0,0,1,.584,1.681l-.515,1.064-9.17-4.437.515-1.066a1.259,1.259,0,0,1,1.681-.584" transform="translate(533.938 30159.928)" fill="#52a3bf"/>
    <path id="Trazado_215272" data-name="Trazado 215272" d="M75.819,46.04s1.779,5.966,3.24,13.736c.807,4.292.187,6.437-3.611,5.846C72.5,65.165,65,56.331,67.561,48.743c.6-1.772,3.744-4.91,8.258-2.7" transform="translate(524.376 30123.594)" fill="#ff8b66"/>
    <path id="Trazado_215273" data-name="Trazado 215273" d="M70.679,49.354a10.011,10.011,0,0,1,2.091,3.726,16.8,16.8,0,0,1,.641,4.545c.016.4.679.541.742.1a10.8,10.8,0,0,0-.575-4.939,10.414,10.414,0,0,0-2.369-3.964c-.341-.347-.856.175-.531.531" transform="translate(525.927 30125.096)" fill="#dd6747"/>
    <path id="Trazado_215274" data-name="Trazado 215274" d="M70.715,51.5c-.081-.01.04.007.045.009.037.006.073.014.111.023a1.584,1.584,0,0,1,.2.056c.066.023.132.049.2.073.019.007.125.052.037.014.03.011.059.026.088.039a3.821,3.821,0,0,1,.4.216c.058.036.112.073.168.112.019.013.1.075.037.026l.1.078a3.907,3.907,0,0,1,.335.319c.053.058.106.116.157.178.01.012.082.1.059.072s.036.05.042.059c.206.283.4.64.574.876a.4.4,0,0,0,.719-.3,2.592,2.592,0,0,0-.519-1.076,4.357,4.357,0,0,0-.768-.81,3.6,3.6,0,0,0-.974-.57,2.3,2.3,0,0,0-.519-.128c-.049-.006-.049-.006,0,0l-.109-.016-.112-.013c-.088-.009-.175-.012-.263-.012a.388.388,0,1,0,0,.777" transform="translate(525.818 30125.979)" fill="#dd6747"/>
    <path id="Trazado_215275" data-name="Trazado 215275" d="M114.347,65.627c-.181.026-.347.043-.511.06-3.337.321-3.875-1.819-3.1-5.91.1-.555.207-1.092.311-1.629,1.4-6.958,2.93-12.105,2.93-12.105,4.515-2.209,7.66.928,8.258,2.7,2.564,7.582-4.939,16.421-7.886,16.88" transform="translate(543.389 30123.594)" fill="#ff8b66"/>
    <path id="Trazado_215276" data-name="Trazado 215276" d="M115.944,48.824a10.414,10.414,0,0,0-2.369,3.964A10.8,10.8,0,0,0,113,57.726c.063.436.726.306.742-.1a16.8,16.8,0,0,1,.641-4.545,10.011,10.011,0,0,1,2.091-3.726c.325-.355-.19-.877-.531-.531" transform="translate(544.48 30125.096)" fill="#dd6747"/>
    <path id="Trazado_215277" data-name="Trazado 215277" d="M116.438,50.726c-.082,0-.163,0-.244.01l-.112.012-.128.017c.042,0,.047-.006.017,0a2.446,2.446,0,0,0-.538.129,3.565,3.565,0,0,0-.974.571,4.37,4.37,0,0,0-.769.81,2.6,2.6,0,0,0-.518,1.076.4.4,0,0,0,.719.3,1.964,1.964,0,0,0,.16-.229c.043-.072.086-.144.128-.217.083-.142.177-.278.273-.411l.065-.089c-.05.069.024-.03.036-.043.055-.066.111-.132.17-.194a3.7,3.7,0,0,1,.335-.319l.079-.065c.026-.02.022-.017-.01.009.016-.013.032-.024.049-.036.06-.043.121-.085.184-.124a3.616,3.616,0,0,1,.381-.207l.106-.049c-.089.039.029-.01.037-.013l.18-.068a1.989,1.989,0,0,1,.219-.063l.111-.023c.016,0,.122-.017.045-.007a.4.4,0,0,0,.388-.388.393.393,0,0,0-.388-.388" transform="translate(544.59 30125.979)" fill="#dd6747"/>
    <g id="Grupo_155429" data-name="Grupo 155429" transform="translate(653.813 30181.742)" opacity="0.5">
      <g id="Grupo_155428" data-name="Grupo 155428">
        <g id="Grupo_155427" data-name="Grupo 155427" clip-path="url(#clip-path-3)">
          <path id="Trazado_215278" data-name="Trazado 215278" d="M113.837,61.767c-3.337.321-3.873-1.819-3.1-5.91.1-.555.209-1.092.312-1.629l.676.278s.035,7.079,2.114,7.262" transform="translate(-110.424 -54.228)" fill="#dd6747"/>
        </g>
      </g>
    </g>
    <g id="Grupo_155432" data-name="Grupo 155432" transform="translate(600.333 30181.742)" opacity="0.5">
      <g id="Grupo_155431" data-name="Grupo 155431">
        <g id="Grupo_155430" data-name="Grupo 155430" clip-path="url(#clip-path-4)">
          <path id="Trazado_215279" data-name="Trazado 215279" d="M73.239,61.767c3.337.321,3.873-1.819,3.1-5.91-.1-.555-.209-1.092-.312-1.629l-.676.278s-.035,7.079-2.114,7.262" transform="translate(-73.239 -54.228)" fill="#dd6747"/>
        </g>
      </g>
    </g>
    <path id="Trazado_215280" data-name="Trazado 215280" d="M103.212,32.159H69.6s2.863,9.729,4.831,20.715c3.281,18.307,4.05,41.773,28.784,41.773,24.985,0,25.518-23.41,28.767-41.746,1.924-10.857,4.85-20.742,4.85-20.742Z" transform="translate(525.498 30117.842)" fill="#ff8b66"/>
    <path id="Trazado_215281" data-name="Trazado 215281" d="M121.648,27.569c-5.957-11.591-11.445,8.015-11.445,8.015l.339.851-2.769.722c3.744,1.519,7.474,19.363,7.474,19.363l2.668-1.632v-.012l.007.016s9.683-15.733,3.726-27.323" transform="translate(542.228 30114.225)" fill="#072735"/>
    <path id="Trazado_215282" data-name="Trazado 215282" d="M80.007,46.111c2.947-2.2,7.6-2.925,10.742-1.214.272.148,1.392.454,1.641-.554.147-.6-.8-1.284-1.043-1.45-3.393-2.334-9.721-.933-12.258,2.2-.173.214-.355.962-.049,1.179.237.17.769-.014.966-.161" transform="translate(529.564 30122.037)" fill="#072735"/>
    <path id="Trazado_215283" data-name="Trazado 215283" d="M109.892,46.111c-2.947-2.2-7.6-2.925-10.742-1.214-.272.148-1.392.454-1.64-.554-.148-.6.8-1.284,1.043-1.45,3.391-2.334,9.719-.933,12.256,2.2.173.214.355.962.049,1.179-.237.17-.769-.014-.966-.161" transform="translate(537.723 30122.037)" fill="#072735"/>
    <path id="Trazado_215284" data-name="Trazado 215284" d="M86.521,48.549c-.01,1.568-.9,2.832-1.989,2.825s-1.962-1.283-1.953-2.849.9-2.833,1.989-2.826,1.963,1.283,1.953,2.851" transform="translate(531.187 30123.775)" fill="#072735"/>
    <path id="Trazado_215285" data-name="Trazado 215285" d="M100.458,48.549c.01,1.568.9,2.832,1.989,2.825s1.963-1.283,1.953-2.849-.9-2.833-1.989-2.826-1.963,1.283-1.953,2.851" transform="translate(539.022 30123.775)" fill="#072735"/>
    <path id="Trazado_215286" data-name="Trazado 215286" d="M90.95,58.311s.726,1.089,2.9,1.089a3.477,3.477,0,0,0,2.927-1.089" transform="translate(534.855 30129.303)" fill="none" stroke="#dd6747" stroke-linecap="round" stroke-miterlimit="10" stroke-width="0.451"/>
    <path id="Trazado_215287" data-name="Trazado 215287" d="M37.642,167.27a259.3,259.3,0,0,0,31.383-7.023c16.413-4.822,17.988-5.025,26.634-13.371s17.786-25,23.447-26.818c2.413-.775,8.329-2.546,10.247-2.2,3.3.922,11.152,4.473,8.675,6.2-.979.683-2.2.988-7.9-.949a27.377,27.377,0,0,0-7.188,2.3L120.3,129.69s5.493,2.536,7.27,3.652,6.161,11.238,7.177,14.043c.59,1.625-.237,4.178-4.689,2.193,0,0,2.239,2.871,2.307,4.129-.57.989-2.786,2.127-5.078.1,0,0,2.472,2.771,1.782,3.761-1.618,1.319-4.748.331-8.06-2.068s-4.5-3.114-4.5-3.114a26.281,26.281,0,0,1-8.286,9.8c-5.911,4.257-4.876.943-10.234,4.187s-39.341,34.363-63.658,35.973-21.25-30.122,3.306-35.082" transform="translate(502.706 30155.377)" fill="#ff8b66"/>
    <path id="Trazado_215288" data-name="Trazado 215288" d="M17.9,179.14S22,157.435,34.7,131.294l31.4,11.711s-5.274,15.822-10.067,24.69" transform="translate(502.842 30161.285)" fill="#ff8b66"/>
    <path id="Trazado_215289" data-name="Trazado 215289" d="M176.786,175.421,144.6,167.7c-1.409-2.6-2.848-5.782-4.185-8.989-3.25-7.781-5.882-15.705-5.882-15.705l31.4-11.707c3.006,6.156,5.48,11.937,7.507,17.172l.014.014c.029.086.158.446.374,1.036a75.576,75.576,0,0,1,2.991,11.29c.863,4.8,1.222,10.211-.029,14.612" transform="translate(553.953 30161.285)" fill="#ff8b66"/>
    <path id="Trazado_215290" data-name="Trazado 215290" d="M199.013,168.554c0,.029-.014.043-.029.072a21.043,21.043,0,0,1-1.438,3.337c-.115.216-.245.431-.374.647-.072.115-.129.216-.2.331-3.035,4.962-8.586,8.917-18.61,8.485h-.014c-14.986-2.459-33.194-6.386-37.02-6.688-5.638-.431-10.168,5.321-12.325,7.594s-11.707,9.1-14.627,8.874c-2.488-.173-3.092-1.611-1.7-4.228a.014.014,0,0,1,.014-.014,27.747,27.747,0,0,1,2.6-2.991,14.572,14.572,0,0,1-4.6,1.237,102.772,102.772,0,0,1-11.808-1.8c-3.294-.748-10.988-5.436-11.276-5.854a2.6,2.6,0,0,1,.475-2.991c-4.746-1.64-4.818-4.1-3.639-5.019,1.611-1.28,4.832-.072,5.163.014-1.352-.59-2-1.582-1.611-2.675.23-.69.748-1.553,5.94-.187,2.848.748,8.428,3.6,13.721.906,2.977-1.524,8.96-6.343,12.139-7.464,4.789-1.712,8.011-2.085,14.3-1.755,3.365.173,15.705-3.365,28.549-6.544,11.1-2.747,22.594-5.235,28.98-4.832,0,0,3.739.547,7.421,6.932.863,4.8,1.222,10.211-.029,14.612" transform="translate(531.726 30168.152)" fill="#ff8b66"/>
    <path id="Trazado_215291" data-name="Trazado 215291" d="M86.568,169.373a2.952,2.952,0,0,1-.142-.319,3.441,3.441,0,0,1-.232-.969,2.058,2.058,0,0,1,.419-1.519,2.809,2.809,0,0,1,1.87-.869,8.755,8.755,0,0,1,2.4.1,20.825,20.825,0,0,1,2.584.585c1.757.506,3.6,1.12,5.434,1.749a35.842,35.842,0,0,0,5.4,1.575,11.252,11.252,0,0,0,4.8-.393,25.742,25.742,0,0,0,3.3-1.139c.78-.328,1.217-.544,1.217-.544a20.571,20.571,0,0,1-4.412,2.047,11.674,11.674,0,0,1-5,.63,36,36,0,0,1-5.544-1.506c-1.841-.62-3.654-1.293-5.385-1.812-.866-.246-1.7-.49-2.5-.656-.4-.1-.784-.138-1.158-.2a8.279,8.279,0,0,0-1.1-.026,2.678,2.678,0,0,0-1.7.64,1.856,1.856,0,0,0-.483,1.323,3.522,3.522,0,0,0,.227,1.294" transform="translate(532.767 30176.342)" fill="#dd6747"/>
    <path id="Trazado_215292" data-name="Trazado 215292" d="M84.177,162.968a2.04,2.04,0,0,1,1.1-.621,7.342,7.342,0,0,1,3.351.081c1.372.316,2.876.867,4.548,1.294,1.661.46,3.427.965,5.212,1.389s3.565.874,5.255,1.113a14.935,14.935,0,0,0,2.432.193,11.849,11.849,0,0,0,2.17-.207,16.218,16.218,0,0,0,3.17-.922,12.376,12.376,0,0,0,1.151-.526,8.238,8.238,0,0,1-1.087.662,13.416,13.416,0,0,1-3.144,1.2,12.477,12.477,0,0,1-2.248.345,11.665,11.665,0,0,1-2.53-.117,43.18,43.18,0,0,1-5.339-1.069c-1.788-.473-3.564-.978-5.208-1.525s-3.151-1.159-4.454-1.539a7.223,7.223,0,0,0-3.256-.278,2.01,2.01,0,0,0-1.12.522" transform="translate(531.887 30174.824)" fill="#dd6747"/>
    <path id="Trazado_215293" data-name="Trazado 215293" d="M104.011,176.949s.387-.627,1.056-1.5a21.1,21.1,0,0,1,2.725-2.989c1.138-.923,2.316-1.768,3.222-2.386s1.546-.981,1.546-.981-.495.545-1.292,1.3-1.89,1.72-3.016,2.623c-1.057.923-2.091,1.966-2.886,2.707s-1.355,1.227-1.355,1.227" transform="translate(540.579 30177.85)" fill="#dd6747"/>
    <path id="Trazado_215294" data-name="Trazado 215294" d="M90.277,161.913s-.36-1.348.3-1.858,1.559-.329,3.626,0a72.406,72.406,0,0,0,7.551.771c4.576.233,6.532-.946,6.532-.946s-1.468,2.963-1.468,3.112-2.426,2.277-3.775,2.157A51.269,51.269,0,0,1,97.8,164.4c-1.527-.329-3.295-.6-4.135-.78s-3.026-.869-3.026-.869" transform="translate(534.517 30173.748)" fill="#ff8b66"/>
    <path id="Trazado_215295" data-name="Trazado 215295" d="M90.456,160.52l2.761.6c1.653.355,3.86.808,6.074,1.064a21.022,21.022,0,0,0,3.259.135c1.04-.033,2.024-.086,2.855-.2a17.915,17.915,0,0,0,2.76-.523,11.432,11.432,0,0,1-2.691.922,21.179,21.179,0,0,1-2.9.434,17.085,17.085,0,0,1-3.367-.053,32.113,32.113,0,0,1-6.1-1.389,28.251,28.251,0,0,1-2.656-.994" transform="translate(534.639 30174.092)" fill="#dd6747"/>
    <g id="Grupo_155435" data-name="Grupo 155435" transform="translate(635.46 30332.805)" opacity="0.7">
      <g id="Grupo_155434" data-name="Grupo 155434">
        <g id="Grupo_155433" data-name="Grupo 155433" clip-path="url(#clip-path-5)">
          <path id="Trazado_215296" data-name="Trazado 215296" d="M106.219,160.771c-3.882.912-7.955,3.056-8.494,5.842s2.472,7.417,8.314,7.6,19.686-3.417,18.741-10.112c-.551-3.913-5.55-3.656-7.191-4.154-5.123-1.555-7.489-.085-11.37.827" transform="translate(-97.663 -159.263)" fill="#b3ddff"/>
        </g>
      </g>
    </g>
    <path id="Trazado_215297" data-name="Trazado 215297" d="M68.51,88.264s-20.763,10.644-42.1,67.769c0,0,25.046,12.081,38.592,12.54Z" transform="translate(506.575 30142.428)" fill="#703311"/>
    <path id="Trazado_215298" data-name="Trazado 215298" d="M130.259,88.264s20.763,10.644,42.1,67.769c0,0-25.218,12.036-38.763,12.5Z" transform="translate(552.081 30142.428)" fill="#703311"/>
    <path id="Trazado_215299" data-name="Trazado 215299" d="M28.122,157.545a30.982,30.982,0,0,1,5.388-2.907,38.318,38.318,0,0,1,5.96-2.013c2.238-.564,4.63-1.067,7.03-1.54,4.805-.906,9.6-1.8,13.178-2.586,1.785-.4,3.275-.731,4.31-1l1.625-.429-1.592.541c-1.018.328-2.475.8-4.251,1.271s-3.854.982-6.1,1.464l-7.036,1.435c-2.4.467-4.8.92-7.01,1.454a49.9,49.9,0,0,0-5.959,1.792,39.218,39.218,0,0,0-5.546,2.515" transform="translate(507.323 30168.199)" fill="#dd6747"/>
    <path id="Trazado_215300" data-name="Trazado 215300" d="M135.789,152.647s2.006-.744,5.1-1.6c1.548-.421,3.36-.895,5.323-1.317l3.039-.584c1.041-.164,2.093-.377,3.158-.5s2.129-.263,3.184-.326c1.051-.1,2.09-.154,3.1-.164a24.416,24.416,0,0,1,2.9.056,22.28,22.28,0,0,1,2.59.269,12.056,12.056,0,0,1,2.153.454,7.664,7.664,0,0,1,1.606.529l1.345.6-1.392-.466a7.524,7.524,0,0,0-1.621-.4,15.812,15.812,0,0,0-2.143-.314,35.049,35.049,0,0,0-5.423-.1c-.994.024-2.019.1-3.059.209-1.041.078-2.094.23-3.147.37-1.059.108-2.1.3-3.141.45l-3.029.535c-1.956.393-3.79.735-5.347,1.1-3.124.689-5.2,1.212-5.2,1.212" transform="translate(554.504 30168.66)" fill="#dd6747"/>
    <path id="Trazado_215301" data-name="Trazado 215301" d="M105.458,64.7c-1.852.975-5.61,1.693-9.369,1.693s-7.525-.716-9.38-1.693c0,0-.781-.426-.831-.335s.585.713.823.909c1.825,1.5,5.835,2.525,9.379,2.527h.01c3.542,0,7.552-1.028,9.377-2.527.237-.2.879-.811.824-.909s-.833.335-.833.335" transform="translate(532.631 30131.949)" fill="#c9593f"/>
    <path id="Trazado_215302" data-name="Trazado 215302" d="M74.555,25.6s-3.446-3.859-1.089-10.172c1.768-4.735,7.423-7.418,13.273-5.178,6.727,2.577,15.372-2.373,22.2,1.7a36.509,36.509,0,0,0,12.225,5.034c9.888,1.736,15.82-4.494,22.469,6.381,6.423,10.508-6.13,27.057-26.255,26.518s-29.689-9.2-37.491-5.947-9.058-11.312-9.058-11.312Z" transform="translate(526.04 30107.889)" fill="#072735"/>
    <path id="Trazado_215303" data-name="Trazado 215303" d="M82.37,38.335,77.3,20.923S64.58,16.6,64.561,28.008c-.009,5.993,4.182,8.382,5.6,12.525-4.135,13.792,3.8,15.986,3.8,15.986l2.668,1.632s3.731-17.844,7.474-19.363Z" transform="translate(523.291 30112.566)" fill="#072735"/>
    <path id="Trazado_215304" data-name="Trazado 215304" d="M130.331,106.771l1.78,26.815c.413,6.7.826,13.407,1.135,18.435.135,2.518.247,4.617.325,6.087.059,1.471.094,2.313.094,2.313s-.135-.831-.371-2.285c-.2-1.457-.567-3.532-.853-6.039-.3-2.505-.67-5.428-.971-8.567s-.561-6.493-.792-9.85c-.194-3.36-.378-6.719-.463-9.873-.112-3.153-.1-6.1-.118-8.622s.083-4.628.118-6.1c.055-1.473.117-2.313.117-2.313" transform="translate(552.009 30150.539)" fill="#662c10"/>
    <path id="Trazado_215305" data-name="Trazado 215305" d="M56.533,106.771s.062.84.117,2.313c.035,1.471.129,3.575.118,6.1s-.006,5.47-.118,8.622c-.085,3.154-.269,6.514-.463,9.873-.232,3.357-.485,6.711-.792,9.85s-.667,6.062-.971,8.567c-.286,2.507-.649,4.582-.853,6.039-.236,1.454-.371,2.285-.371,2.285s.035-.841.093-2.313c.078-1.47.19-3.568.325-6.087.309-5.028.722-11.731,1.135-18.435l1.781-26.815" transform="translate(518.312 30150.539)" fill="#662c10"/>
    <path id="Trazado_215306" data-name="Trazado 215306" d="M85.872,134.6a12.381,12.381,0,0,1,2.5.938,17.311,17.311,0,0,1,2.377,1.374,8.861,8.861,0,0,1,1.233.971,12.418,12.418,0,0,1,1.04,1.273,48.447,48.447,0,0,1,3.118,4.942c.771,1.394,1.228,2.354,1.228,2.354l-1.552-2.15c-.909-1.3-2.121-3.036-3.361-4.723-.314-.417-.649-.826-.954-1.175a10.556,10.556,0,0,0-1.143-.949c-.781-.587-1.53-1.115-2.2-1.532-1.333-.836-2.282-1.322-2.282-1.322" transform="translate(532.63 30162.734)" fill="#dd6747"/>
    <path id="Trazado_215307" data-name="Trazado 215307" d="M86.419,130.359a31.289,31.289,0,0,1,2.918,1.133c.854.391,1.85.857,2.878,1.441.511.295,1.036.613,1.55.968.269.183.486.354.782.582a5.844,5.844,0,0,1,.666.729,27.224,27.224,0,0,1,1.963,3.147c.575,1.025,1.041,2.018,1.455,2.858.81,1.693,1.263,2.862,1.263,2.862s-.667-1.06-1.625-2.666c-.482-.8-1.044-1.733-1.648-2.733s-1.25-2.064-1.972-3.029a4.8,4.8,0,0,0-.584-.659c-.2-.148-.462-.367-.7-.529-.485-.358-.981-.69-1.471-1-.977-.623-1.914-1.175-2.733-1.621-1.631-.909-2.743-1.486-2.743-1.486" transform="translate(532.87 30160.875)" fill="#dd6747"/>
    <path id="Trazado_215308" data-name="Trazado 215308" d="M76.843,33.969c5.2-.994,10.16,1.289,14.615,3.735,4.23,2.321,8.369,4.776,13.148,5.779a28.758,28.758,0,0,0,13.794-.463c3.468-1,6.889-2.915,8.024-6.551.413-1.323-1.661-1.89-2.072-.571-1.244,3.982-6.3,5.26-9.939,5.795a26.643,26.643,0,0,1-14.231-1.851c-7.8-3.318-14.845-9.675-23.909-7.945-1.358.259-.782,2.331.571,2.072" transform="translate(528.084 30117.6)" fill="#072735"/>
    <path id="Trazado_215309" data-name="Trazado 215309" d="M80.692,17.467c-4.612-1.543-11.136-2.141-14.5,2.108a10.88,10.88,0,0,0-2.177,7.115c.07,2.387.679,4.926,2.5,6.6,1.017.933,2.541-.582,1.52-1.52a7.148,7.148,0,0,1-1.873-5.344A8.474,8.474,0,0,1,68,20.745a6.867,6.867,0,0,1,5.232-2.2,19.007,19.007,0,0,1,6.89,1c1.315.439,1.878-1.635.571-2.072" transform="translate(523.048 30110.898)" fill="#072735"/>
    <path id="Trazado_215310" data-name="Trazado 215310" d="M369.112,4.315A128.974,128.974,0,1,1,240.139,133.289,128.975,128.975,0,0,1,369.112,4.315m0-4.315c-73.5,0-133.288,59.794-133.288,133.289s59.792,133.288,133.288,133.288S502.4,206.785,502.4,133.289,442.607,0,369.112,0" transform="translate(598.341 30103.75)" fill="#dd6747"/>
    <path id="Trazado_215311" data-name="Trazado 215311" d="M357.938,86.229a43.007,43.007,0,0,1-3.5-12.79,26.924,26.924,0,0,1-.1-4.4,13.346,13.346,0,0,1,.355-2.564l-.887.236c.016-.142.029-.236.029-.236l-15.815,4.423L322.2,66.472s.013.093.03.236l-.887-.236a13.493,13.493,0,0,1,.355,2.564,27.124,27.124,0,0,1-.1,4.4,42.922,42.922,0,0,1-3.5,12.79s-1.464,3.752-11.647,5.052a42.334,42.334,0,0,0,2.582,6.511c.216.446.447.906.693,1.376.616,1.179,1.329,2.432,2.147,3.716a44.175,44.175,0,0,0,4.778,6.23c1.881,5.346,6.032,9.834,10.833,10.579a42.714,42.714,0,0,0,6.8.528q1.286-.006,2.517-.093.615-.043,1.215-.1.6.063,1.217.1,1.23.086,2.517.093a42.739,42.739,0,0,0,6.8-.528c4.8-.745,8.951-5.234,10.831-10.579a44.077,44.077,0,0,0,4.778-6.23c.82-1.284,1.532-2.537,2.147-3.716.493-.942.923-1.838,1.3-2.664a39.7,39.7,0,0,0,1.979-5.224c-10.182-1.3-11.647-5.052-11.647-5.052" transform="translate(629.289 30132.879)" fill="#ff8b66"/>
    <path id="Trazado_215312" data-name="Trazado 215312" d="M440.443,164.718l-28.606-28.606-2.445,77.246a129.325,129.325,0,0,1-111.5-.129l-.316-10.067-2.129-67.049-3.768,3.768H270.59c4.4-20.279,13.62-41.162,33.8-51.819,7.335-3.869,18.165-4.818,21.588-5.034a1.533,1.533,0,0,1,1.5.906,56.953,56.953,0,0,0,2.819,5.494.908.908,0,0,1,.374.633c4.085,6.918,11.736,16.841,23.112,19.962,11.376-3.121,19.013-13.045,23.112-19.962a.908.908,0,0,1,.374-.633,56.953,56.953,0,0,0,2.819-5.494,1.526,1.526,0,0,1,1.481-.906c3.437.216,14.253,1.165,21.6,5.034,28.793,15.216,35.279,51.258,37.279,76.657" transform="translate(613.575 30140.133)" fill="#703311"/>
    <path id="Trazado_215313" data-name="Trazado 215313" d="M322.682,113.117s16.7,33.867,37.186,52.282c0,0-24.788-7.8-37.186-52.282" transform="translate(636.403 30153.318)" fill="#662c10"/>
    <path id="Trazado_215314" data-name="Trazado 215314" d="M318.614,132.1s18.132,24.33,42.029,28.339c0,0-29.023,2.479-42.029-28.339" transform="translate(634.62 30161.637)" fill="#662c10"/>
    <path id="Trazado_215315" data-name="Trazado 215315" d="M349.822,73.043a26.34,26.34,0,0,1-.06-4.4l-.659-1.264-15.681,4.179-15.679-4.179-.659,1.264a27.122,27.122,0,0,1-.1,4.4c2.129,3.452,7.368,10.046,16.421,10.067h.043c9.055-.022,14.25-6.616,16.378-10.067" transform="translate(633.904 30133.275)" fill="#dd6747"/>
    <path id="Trazado_215316" data-name="Trazado 215316" d="M311.278,46.04s1.779,5.966,3.24,13.736c.807,4.292.187,6.437-3.611,5.846-2.947-.457-10.447-9.292-7.887-16.88.6-1.772,3.744-4.91,8.258-2.7" transform="translate(627.557 30123.594)" fill="#ff8b66"/>
    <path id="Trazado_215317" data-name="Trazado 215317" d="M306.138,49.354a10.01,10.01,0,0,1,2.091,3.726,16.8,16.8,0,0,1,.641,4.545c.016.4.679.541.742.1a10.8,10.8,0,0,0-.575-4.939,10.413,10.413,0,0,0-2.369-3.964c-.341-.347-.856.175-.531.531" transform="translate(629.108 30125.096)" fill="#dd6747"/>
    <path id="Trazado_215318" data-name="Trazado 215318" d="M306.174,51.5c-.081-.01.04.007.045.009.037.006.073.014.111.023a1.585,1.585,0,0,1,.2.056c.066.023.132.049.2.073.019.007.125.052.037.014.03.011.059.026.088.039a3.827,3.827,0,0,1,.4.216c.058.036.112.073.168.112.019.013.1.075.037.026l.1.078a3.9,3.9,0,0,1,.335.319c.053.058.106.116.157.178.01.012.082.1.059.072s.036.05.042.059c.206.283.4.64.574.876a.4.4,0,0,0,.719-.3,2.592,2.592,0,0,0-.519-1.076,4.358,4.358,0,0,0-.768-.81,3.6,3.6,0,0,0-.974-.57,2.305,2.305,0,0,0-.519-.128c-.049-.006-.049-.006,0,0l-.109-.016-.112-.013c-.088-.009-.176-.012-.263-.012a.388.388,0,0,0,0,.777" transform="translate(628.999 30125.979)" fill="#dd6747"/>
    <path id="Trazado_215319" data-name="Trazado 215319" d="M349.807,65.627c-.181.026-.347.043-.511.06-3.337.321-3.875-1.819-3.1-5.91.1-.555.207-1.092.311-1.629,1.4-6.958,2.93-12.105,2.93-12.105,4.515-2.209,7.66.928,8.258,2.7,2.564,7.582-4.939,16.421-7.886,16.88" transform="translate(646.57 30123.594)" fill="#ff8b66"/>
    <path id="Trazado_215320" data-name="Trazado 215320" d="M351.4,48.824a10.413,10.413,0,0,0-2.369,3.964,10.8,10.8,0,0,0-.575,4.939c.063.436.726.306.742-.1a16.8,16.8,0,0,1,.641-4.545,10.01,10.01,0,0,1,2.091-3.726c.325-.355-.19-.877-.531-.531" transform="translate(647.662 30125.096)" fill="#dd6747"/>
    <path id="Trazado_215321" data-name="Trazado 215321" d="M351.9,50.726c-.082,0-.163,0-.244.01l-.112.012-.128.017c.042,0,.047-.006.017,0a2.446,2.446,0,0,0-.538.129,3.564,3.564,0,0,0-.974.571,4.315,4.315,0,0,0-.768.81,2.584,2.584,0,0,0-.519,1.076.4.4,0,0,0,.719.3,1.962,1.962,0,0,0,.16-.229c.043-.072.086-.144.128-.217.083-.142.177-.278.273-.411l.065-.089c-.05.069.024-.03.036-.043.055-.066.111-.132.17-.194a3.7,3.7,0,0,1,.335-.319l.079-.065c.026-.02.022-.017-.01.009a.6.6,0,0,1,.049-.036c.06-.043.121-.085.184-.124a3.613,3.613,0,0,1,.381-.207l.106-.049c-.089.039.029-.01.037-.013l.18-.068a1.987,1.987,0,0,1,.219-.063l.111-.023c.016,0,.122-.017.045-.007a.4.4,0,0,0,.388-.388.393.393,0,0,0-.388-.388" transform="translate(647.771 30125.979)" fill="#dd6747"/>
    <g id="Grupo_155438" data-name="Grupo 155438" transform="translate(992.454 30181.742)" opacity="0.5">
      <g id="Grupo_155437" data-name="Grupo 155437">
        <g id="Grupo_155436" data-name="Grupo 155436" clip-path="url(#clip-path-6)">
          <path id="Trazado_215322" data-name="Trazado 215322" d="M349.3,61.767c-3.337.321-3.873-1.819-3.1-5.91.1-.555.209-1.092.312-1.629l.676.278s.034,7.079,2.114,7.262" transform="translate(-345.884 -54.228)" fill="#dd6747"/>
        </g>
      </g>
    </g>
    <g id="Grupo_155441" data-name="Grupo 155441" transform="translate(938.973 30181.742)" opacity="0.5">
      <g id="Grupo_155440" data-name="Grupo 155440">
        <g id="Grupo_155439" data-name="Grupo 155439" clip-path="url(#clip-path-3)">
          <path id="Trazado_215323" data-name="Trazado 215323" d="M308.7,61.767c3.337.321,3.873-1.819,3.1-5.91-.1-.555-.209-1.092-.312-1.629l-.676.278s-.035,7.079-2.114,7.262" transform="translate(-308.698 -54.228)" fill="#dd6747"/>
        </g>
      </g>
    </g>
    <path id="Trazado_215324" data-name="Trazado 215324" d="M338.672,32.159H305.055s2.863,9.729,4.832,20.715c3.281,18.307,4.05,41.773,28.784,41.773,24.985,0,25.518-23.41,28.767-41.746,1.923-10.857,4.848-20.742,4.848-20.742Z" transform="translate(628.678 30117.842)" fill="#ff8b66"/>
    <path id="Trazado_215325" data-name="Trazado 215325" d="M357.107,27.569c-5.957-11.591-11.445,8.015-11.445,8.015l.339.851-2.769.722c3.745,1.519,7.474,19.363,7.474,19.363l2.668-1.632v-.012l.007.016s9.683-15.733,3.726-27.323" transform="translate(645.409 30114.225)" fill="#072735"/>
    <path id="Trazado_215326" data-name="Trazado 215326" d="M315.467,46.111c2.947-2.2,7.6-2.925,10.742-1.214.272.148,1.392.454,1.64-.554.147-.6-.8-1.284-1.043-1.45-3.391-2.334-9.719-.933-12.256,2.2-.173.214-.355.962-.049,1.179.237.17.769-.014.966-.161" transform="translate(632.745 30122.037)" fill="#072735"/>
    <path id="Trazado_215327" data-name="Trazado 215327" d="M345.353,46.111c-2.947-2.2-7.6-2.925-10.742-1.214-.272.148-1.394.454-1.641-.554-.147-.6.8-1.284,1.043-1.45,3.393-2.334,9.721-.933,12.258,2.2.173.214.355.962.049,1.179-.237.17-.769-.014-.966-.161" transform="translate(640.904 30122.037)" fill="#072735"/>
    <path id="Trazado_215328" data-name="Trazado 215328" d="M321.98,48.549c-.01,1.568-.9,2.832-1.989,2.825s-1.962-1.283-1.953-2.849.9-2.833,1.989-2.826,1.963,1.283,1.953,2.851" transform="translate(634.368 30123.775)" fill="#072735"/>
    <path id="Trazado_215329" data-name="Trazado 215329" d="M335.917,48.549c.01,1.568.9,2.832,1.989,2.825s1.962-1.283,1.953-2.849-.9-2.833-1.989-2.826-1.963,1.283-1.953,2.851" transform="translate(642.203 30123.775)" fill="#072735"/>
    <path id="Trazado_215330" data-name="Trazado 215330" d="M326.409,58.311s.726,1.089,2.9,1.089a3.477,3.477,0,0,0,2.927-1.089" transform="translate(638.036 30129.303)" fill="none" stroke="#dd6747" stroke-linecap="round" stroke-miterlimit="10" stroke-width="0.451"/>
    <path id="Trazado_215331" data-name="Trazado 215331" d="M253.355,179.14s4.1-21.705,16.806-47.846l31.4,11.711s-5.274,15.822-10.067,24.69" transform="translate(606.023 30161.285)" fill="#ff8b66"/>
    <path id="Trazado_215332" data-name="Trazado 215332" d="M418.4,179.14s-4.1-21.705-16.806-47.846l-31.4,11.711s5.274,15.822,10.068,24.69" transform="translate(657.221 30161.285)" fill="#ff8b66"/>
    <path id="Trazado_215333" data-name="Trazado 215333" d="M303.969,88.264s-20.763,10.644-42.1,67.769c0,0,25.046,12.081,38.591,12.54Z" transform="translate(609.756 30142.428)" fill="#703311"/>
    <path id="Trazado_215334" data-name="Trazado 215334" d="M365.718,88.264s20.764,10.644,42.1,67.769c0,0-25.218,12.036-38.763,12.5Z" transform="translate(655.262 30142.428)" fill="#703311"/>
    <path id="Trazado_215335" data-name="Trazado 215335" d="M340.917,64.7c-1.852.975-5.61,1.693-9.369,1.693s-7.525-.716-9.379-1.693c0,0-.782-.426-.833-.335s.587.713.823.909c1.827,1.5,5.835,2.525,9.379,2.527h.01c3.542,0,7.552-1.028,9.377-2.527.237-.2.879-.811.824-.909s-.833.335-.833.335" transform="translate(635.812 30131.949)" fill="#c9593f"/>
    <path id="Trazado_215336" data-name="Trazado 215336" d="M310.014,25.6s-3.446-3.859-1.089-10.172c1.769-4.735,7.424-7.418,13.275-5.178,6.725,2.577,15.37-2.373,22.2,1.7a36.509,36.509,0,0,0,12.225,5.034c9.888,1.736,15.82-4.494,22.469,6.381,6.423,10.508-6.13,27.057-26.255,26.518s-29.689-9.2-37.491-5.947-9.058-11.312-9.058-11.312Z" transform="translate(629.22 30107.889)" fill="#072735"/>
    <path id="Trazado_215337" data-name="Trazado 215337" d="M317.829,38.335l-5.067-17.412S300.039,16.6,300.02,28.008c-.009,5.993,4.182,8.382,5.6,12.525-4.135,13.792,3.8,15.986,3.8,15.986l2.668,1.632s3.731-17.844,7.474-19.363Z" transform="translate(626.472 30112.566)" fill="#072735"/>
    <path id="Trazado_215338" data-name="Trazado 215338" d="M365.79,106.771s.89,13.407,1.781,26.815c.413,6.7.826,13.407,1.135,18.435.135,2.518.247,4.617.325,6.087.059,1.471.094,2.313.094,2.313s-.135-.831-.371-2.285c-.2-1.457-.567-3.532-.853-6.039-.3-2.505-.67-5.428-.971-8.567s-.561-6.493-.792-9.85c-.194-3.36-.378-6.719-.463-9.873-.112-3.153-.1-6.1-.118-8.622s.083-4.628.118-6.1c.055-1.473.116-2.313.116-2.313" transform="translate(655.19 30150.539)" fill="#662c10"/>
    <path id="Trazado_215339" data-name="Trazado 215339" d="M291.993,106.771s.062.84.117,2.313c.034,1.471.129,3.575.116,6.1s-.006,5.47-.116,8.622c-.085,3.154-.269,6.514-.463,9.873-.231,3.357-.485,6.711-.792,9.85s-.667,6.062-.971,8.567c-.286,2.507-.649,4.582-.853,6.039-.236,1.454-.371,2.285-.371,2.285s.035-.841.093-2.313c.078-1.47.19-3.568.325-6.087.309-5.028.722-11.731,1.135-18.435l1.78-26.815" transform="translate(621.494 30150.539)" fill="#662c10"/>
    <path id="Trazado_215340" data-name="Trazado 215340" d="M312.384,33.969c5.2-.994,10.16,1.289,14.615,3.735,4.23,2.321,8.369,4.776,13.148,5.779a28.758,28.758,0,0,0,13.794-.463c3.467-1,6.889-2.915,8.022-6.551.414-1.323-1.66-1.89-2.071-.571-1.244,3.982-6.3,5.26-9.939,5.795a26.643,26.643,0,0,1-14.231-1.851c-7.8-3.318-14.845-9.675-23.909-7.945-1.358.259-.782,2.331.571,2.072" transform="translate(631.3 30117.6)" fill="#072735"/>
    <path id="Trazado_215341" data-name="Trazado 215341" d="M315.666,17.467c-4.612-1.543-11.136-2.141-14.5,2.108a10.88,10.88,0,0,0-2.177,7.115c.07,2.387.679,4.926,2.5,6.6,1.017.933,2.541-.582,1.52-1.52a7.155,7.155,0,0,1-1.874-5.344,8.475,8.475,0,0,1,1.844-5.677,6.867,6.867,0,0,1,5.232-2.2,19.007,19.007,0,0,1,6.89,1c1.315.439,1.878-1.635.571-2.072" transform="translate(626.016 30110.898)" fill="#072735"/>
    <g id="Grupo_155444" data-name="Grupo 155444" transform="translate(982.867 30266.436)" opacity="0.2">
      <g id="Grupo_155443" data-name="Grupo 155443">
        <g id="Grupo_155442" data-name="Grupo 155442" clip-path="url(#clip-path-8)">
          <path id="Trazado_215342" data-name="Trazado 215342" d="M355.223,113.117h-16s.495,18.855,2.482,22.151,11.143,9.978,13.522,9.875c2.379.1,11.534-6.577,13.522-9.875s2.482-22.151,2.482-22.151Z" transform="translate(-339.218 -113.117)" fill="#dd6747"/>
        </g>
      </g>
    </g>
    <path id="Trazado_215343" data-name="Trazado 215343" d="M351.466,104.742s-6.6,2.738-23.069,2.956v27.835c10.782-.578,18.422-7.319,22.741-12.409Z" transform="translate(638.907 30149.648)" fill="#66e2ca"/>
    <path id="Trazado_215344" data-name="Trazado 215344" d="M425.065,182.261c-8.993-19.15-23.552-33.208-32.857-44.008-5.294-6.145-10.443-21.16-15.18-27.338a38.149,38.149,0,0,0-11.71-10.021c-1.339-.731-4.152-2.15-7.272-3.685l-4.7,3.969a60.278,60.278,0,0,1,7.509,5.915c2.41,2.246,6.371,5.382,5.487,8.864-.506,2.029-3.072,2.774-5.658,3.036a68.351,68.351,0,0,1-4.507-7.916c-1.65-3.783-6.56-6.711-8.517-5.316-1.978,1.409-.361,4.054.754,6.623s3.7,9.5,5.32,11.7,9.932,7.39,9.932,7.39a26.642,26.642,0,0,1,5.721,5.531c14.481,18.767,10.7,45.544,29.053,70.771,10.879,14.965,41.269,5.677,26.627-25.518" transform="translate(646.939 30146.348)" fill="#ff8b66"/>
    <path id="Trazado_215345" data-name="Trazado 215345" d="M343.576,106.351s5.106-4.661,9.018-1.224c9.728,8.55,9.728,31.562.719,32.55-5.26.578-8.018-7.824-9.461-14.592" transform="translate(645.559 30149.264)" fill="none" stroke="#66e2ca" stroke-miterlimit="10" stroke-width="0.935"/>
    <path id="Trazado_215346" data-name="Trazado 215346" d="M369.877,100.131c-2.305-1.9-16.233,4.725-17.109,7.507s3.422,10.473,5.3,12.249,9.008-1.033,11.189-1.877l10.311.805s-7.39-16.785-9.7-18.685" transform="translate(649.536 30147.48)" fill="#ff8b66"/>
    <path id="Trazado_215347" data-name="Trazado 215347" d="M358.761,97.486a7.82,7.82,0,0,0-2.061-.833,2.336,2.336,0,0,0-1.149,0,4.5,4.5,0,0,0-1.821,1.031l-.145.132c-4.221,3.923-8.408,8.038-8.487,8.845-.128,1.4,3.25,3.39,8.849-1.457,1.171-1.01,2.16-2.328,3.42-3.217l-.6-1.781c.375.039.847.032.847.032Z" transform="translate(646.224 30146.072)" fill="#ff8b66"/>
    <path id="Trazado_215348" data-name="Trazado 215348" d="M364.982,102.182s-1.214,1.028-2.983,2.628c-.883.8-1.907,1.742-2.961,2.79-.522.526-1.061,1.077-1.549,1.673a2.812,2.812,0,0,0-.574.92,2.769,2.769,0,0,0,.1,1.07,20.532,20.532,0,0,0,1.832,4.213c.355.647.719,1.261,1.087,1.822.368.529.741,1.155,1.116,1.317a3.328,3.328,0,0,0,1.346-.017,10.563,10.563,0,0,0,1.172-.282c.647-.2,1-.342,1-.342l.306.791s-.388.15-1.076.345a11.3,11.3,0,0,1-1.271.282,3.446,3.446,0,0,1-1.868-.111,4.489,4.489,0,0,1-1.325-1.605c-.36-.6-.708-1.234-1.047-1.907a21.041,21.041,0,0,1-1.724-4.4,3.051,3.051,0,0,1-.059-1.286,3.1,3.1,0,0,1,.69-1.054c.528-.6,1.089-1.128,1.635-1.64,1.1-1.015,2.156-1.92,3.069-2.688,1.828-1.535,3.078-2.518,3.078-2.518" transform="translate(651.206 30148.527)" fill="#dd6747"/>
    <path id="Trazado_215349" data-name="Trazado 215349" d="M365.876,100.113s-1.871.657-4.589,1.857a46.816,46.816,0,0,0-4.525,2.271,17.466,17.466,0,0,0-2.343,1.6,3.5,3.5,0,0,0-1.5,2.287,7.085,7.085,0,0,0,.429,2.809,19.625,19.625,0,0,0,1.1,2.6,33.905,33.905,0,0,0,2.594,4.3c.207.279.443.631.591.667a1.372,1.372,0,0,0,.735.091,5.042,5.042,0,0,0,1.384-.4,8.3,8.3,0,0,0,1.155-.591l.436.726a9.028,9.028,0,0,1-1.289.608,5.791,5.791,0,0,1-1.624.407,2.069,2.069,0,0,1-1.138-.206,2.7,2.7,0,0,1-.815-.906,34.556,34.556,0,0,1-2.53-4.454,20.061,20.061,0,0,1-1.056-2.7,7.453,7.453,0,0,1-.37-3.006,3.875,3.875,0,0,1,1.7-2.485,17.615,17.615,0,0,1,2.423-1.563,47.08,47.08,0,0,1,4.6-2.166c2.751-1.133,4.638-1.742,4.638-1.742" transform="translate(649.46 30147.621)" fill="#dd6747"/>
    <path id="Trazado_215350" data-name="Trazado 215350" d="M366.5,103.369l-1.06,1.076c-.68.679-1.625,1.674-2.741,2.875-.552.6-1.149,1.264-1.71,2a5.892,5.892,0,0,0-.721,1.151,2.312,2.312,0,0,0,.056,1.261,21.194,21.194,0,0,0,2.927,5.562,9.3,9.3,0,0,0,.936,1.212l.037.035.007.01,0,0c-.04-.016.1.043-.091-.033l.05.01c.062.011.151.039.157.01a.107.107,0,0,1,.068-.02l.171-.045a5.369,5.369,0,0,0,.715-.25,15.294,15.294,0,0,0,2.7-1.489,8.415,8.415,0,0,0,2.1-1.884,1.6,1.6,0,0,0-.131-2.1,2.7,2.7,0,0,0-1.855-.827,3.329,3.329,0,0,0-1.622.331,4.515,4.515,0,0,0-.941.57l-.311.243s.1-.1.282-.278a3.969,3.969,0,0,1,.895-.683,3.58,3.58,0,0,1,1.7-.5,2.931,2.931,0,0,1,2.2.814,2.157,2.157,0,0,1,.306,2.758,7.868,7.868,0,0,1-2.2,2.156,15.959,15.959,0,0,1-2.817,1.614,6.035,6.035,0,0,1-.814.3l-.223.06a2.418,2.418,0,0,1-.338.032.824.824,0,0,1-.247-.024l-.05-.009c-.2-.079-.063-.029-.111-.049l-.016-.012-.032-.023-.121-.095a8.873,8.873,0,0,1-1.106-1.358,29.147,29.147,0,0,1-1.7-2.852,14.9,14.9,0,0,1-1.238-3.01,2.825,2.825,0,0,1,.017-1.714,6.419,6.419,0,0,1,.877-1.264c.624-.733,1.26-1.365,1.85-1.946,1.182-1.158,2.244-2.035,2.97-2.664s1.172-.956,1.172-.956" transform="translate(652.529 30149.047)" fill="#dd6747"/>
    <path id="Trazado_215351" data-name="Trazado 215351" d="M365.208,110.127a11.556,11.556,0,0,0-.384-1.343,6.435,6.435,0,0,0-.61-1.279,6.594,6.594,0,0,1,.982,1.077,12.51,12.51,0,0,1,.8,1.248Z" transform="translate(654.603 30150.859)" fill="#dd6747"/>
    <path id="Trazado_215352" data-name="Trazado 215352" d="M387.763,136.37s1.184,1.194,2.842,3.085c.817.956,1.792,2.055,2.771,3.285s2.019,2.547,3.032,3.886c.99,1.355,1.952,2.731,2.838,4.033s1.632,2.572,2.274,3.656c.332.535.584,1.059.826,1.51s.44.851.592,1.187l.479,1.051s-.226-.354-.623-.972c-.19-.312-.427-.687-.719-1.106s-.607-.9-.958-1.417c-.7-1.04-1.571-2.213-2.475-3.491s-1.9-2.619-2.912-3.946c-.978-1.356-1.983-2.691-2.931-3.939l-2.563-3.439c-1.5-2.016-2.472-3.383-2.472-3.383" transform="translate(664.922 30163.51)" fill="#dd6747"/>
    <path id="Trazado_215353" data-name="Trazado 215353" d="M312.655,104.742s6.6,2.738,23.069,2.956v27.835c-10.781-.578-18.422-7.319-22.741-12.409Z" transform="translate(632.009 30149.648)" fill="#66e2ca"/>
    <path id="Trazado_215354" data-name="Trazado 215354" d="M257.087,182.261c8.993-19.15,23.552-33.208,32.857-44.008,5.294-6.145,10.443-21.16,15.18-27.338a38.148,38.148,0,0,1,11.71-10.021c1.339-.731,4.152-2.15,7.272-3.685l4.7,3.969a60.276,60.276,0,0,0-7.509,5.915c-2.41,2.246-6.371,5.382-5.487,8.864.506,2.029,3.072,2.774,5.659,3.036a68.553,68.553,0,0,0,4.507-7.916c1.65-3.783,6.558-6.711,8.516-5.316,1.978,1.409.361,4.054-.754,6.623s-3.7,9.5-5.32,11.7-9.932,7.39-9.932,7.39a26.643,26.643,0,0,0-5.721,5.531c-14.481,18.767-10.7,45.544-29.053,70.771-10.879,14.965-41.269,5.677-26.627-25.518" transform="translate(605.944 30146.348)" fill="#ff8b66"/>
    <path id="Trazado_215355" data-name="Trazado 215355" d="M318.514,106.351s-5.106-4.661-9.018-1.224c-9.728,8.55-9.728,31.562-.719,32.55,5.26.578,8.018-7.824,9.461-14.592" transform="translate(627.387 30149.264)" fill="none" stroke="#66e2ca" stroke-miterlimit="10" stroke-width="0.935"/>
    <path id="Trazado_215356" data-name="Trazado 215356" d="M295.417,100.131c2.3-1.9,16.232,4.725,17.108,7.507s-3.422,10.473-5.3,12.249-9.008-1.033-11.189-1.877l-10.312.805s7.391-16.785,9.7-18.685" transform="translate(620.206 30147.48)" fill="#ff8b66"/>
    <path id="Trazado_215357" data-name="Trazado 215357" d="M302.495,97.486a7.792,7.792,0,0,1,2.061-.833,2.336,2.336,0,0,1,1.149,0,4.488,4.488,0,0,1,1.819,1.031l.147.132c4.221,3.923,8.406,8.038,8.487,8.845.127,1.4-3.252,3.39-8.851-1.457-1.171-1.01-2.16-2.328-3.419-3.217l.6-1.781c-.374.039-.846.032-.846.032Z" transform="translate(627.557 30146.072)" fill="#ff8b66"/>
    <path id="Trazado_215358" data-name="Trazado 215358" d="M294.706,102.182s1.25.984,3.078,2.518c.913.768,1.972,1.673,3.069,2.688.546.512,1.107,1.043,1.635,1.64a3.1,3.1,0,0,1,.69,1.054,3.052,3.052,0,0,1-.059,1.286,21.045,21.045,0,0,1-1.724,4.4c-.339.673-.687,1.312-1.047,1.907a4.489,4.489,0,0,1-1.325,1.605,3.441,3.441,0,0,1-1.867.111,11.336,11.336,0,0,1-1.273-.282c-.687-.2-1.076-.345-1.076-.345l.306-.791s.352.145,1,.342a10.563,10.563,0,0,0,1.172.282,3.329,3.329,0,0,0,1.346.017c.375-.163.748-.788,1.116-1.317.368-.561.732-1.175,1.087-1.822a20.529,20.529,0,0,0,1.832-4.213,2.77,2.77,0,0,0,.1-1.07,2.813,2.813,0,0,0-.574-.92c-.488-.6-1.027-1.146-1.549-1.673-1.054-1.048-2.078-1.99-2.961-2.79-1.769-1.6-2.983-2.628-2.983-2.628" transform="translate(624.143 30148.527)" fill="#dd6747"/>
    <path id="Trazado_215359" data-name="Trazado 215359" d="M295.3,100.113s1.887.608,4.638,1.742a47.083,47.083,0,0,1,4.6,2.166,17.619,17.619,0,0,1,2.423,1.563,3.875,3.875,0,0,1,1.7,2.485,7.452,7.452,0,0,1-.37,3.006,20.049,20.049,0,0,1-1.056,2.7,34.552,34.552,0,0,1-2.53,4.454,2.7,2.7,0,0,1-.815.906,2.068,2.068,0,0,1-1.138.206,5.814,5.814,0,0,1-1.625-.407,9.054,9.054,0,0,1-1.287-.608l.436-.726a8.3,8.3,0,0,0,1.155.591,5.043,5.043,0,0,0,1.384.4,1.372,1.372,0,0,0,.735-.091c.148-.036.384-.388.591-.667a33.905,33.905,0,0,0,2.595-4.3,19.616,19.616,0,0,0,1.1-2.6,7.083,7.083,0,0,0,.429-2.809,3.5,3.5,0,0,0-1.5-2.287,17.459,17.459,0,0,0-2.343-1.6,46.656,46.656,0,0,0-4.526-2.271c-2.717-1.2-4.588-1.857-4.588-1.857" transform="translate(624.402 30147.621)" fill="#dd6747"/>
    <path id="Trazado_215360" data-name="Trazado 215360" d="M294.1,103.369s.436.337,1.172.956,1.788,1.506,2.97,2.664c.59.581,1.225,1.212,1.849,1.946a6.413,6.413,0,0,1,.877,1.264,2.826,2.826,0,0,1,.017,1.714,14.894,14.894,0,0,1-1.238,3.01,29.153,29.153,0,0,1-1.7,2.852,8.875,8.875,0,0,1-1.106,1.358l-.121.095-.032.023-.016.012c-.047.02.086-.03-.111.049l-.05.009a.824.824,0,0,1-.247.024,2.418,2.418,0,0,1-.338-.032l-.223-.06a6.033,6.033,0,0,1-.814-.3,15.955,15.955,0,0,1-2.817-1.614,7.866,7.866,0,0,1-2.2-2.156,2.157,2.157,0,0,1,.306-2.758,2.931,2.931,0,0,1,2.2-.814,3.58,3.58,0,0,1,1.7.5,3.97,3.97,0,0,1,.895.683c.184.18.282.278.282.278l-.311-.243a4.513,4.513,0,0,0-.941-.57,3.329,3.329,0,0,0-1.622-.331,2.7,2.7,0,0,0-1.855.827,1.6,1.6,0,0,0-.131,2.1,8.414,8.414,0,0,0,2.1,1.884,15.3,15.3,0,0,0,2.7,1.489,5.3,5.3,0,0,0,.715.25l.171.045a.109.109,0,0,1,.068.02c.006.029.095,0,.157-.01l.05-.01c-.19.076-.05.017-.091.033l0,0,.009-.01.037-.035a9.3,9.3,0,0,0,.936-1.212,21.2,21.2,0,0,0,2.927-5.562,2.325,2.325,0,0,0,.056-1.261,5.9,5.9,0,0,0-.721-1.151c-.561-.735-1.158-1.4-1.71-2-1.116-1.2-2.061-2.2-2.741-2.875l-1.06-1.076" transform="translate(621.908 30149.047)" fill="#dd6747"/>
    <path id="Trazado_215361" data-name="Trazado 215361" d="M291.636,109.831a12.388,12.388,0,0,1,.8-1.248,6.568,6.568,0,0,1,.984-1.077,6.445,6.445,0,0,0-.611,1.279,11.385,11.385,0,0,0-.383,1.343Z" transform="translate(622.798 30150.859)" fill="#dd6747"/>
    <path id="Trazado_215362" data-name="Trazado 215362" d="M274.1,136.37s-.977,1.366-2.472,3.383l-2.563,3.439c-.948,1.248-1.953,2.583-2.931,3.939-1.013,1.327-2,2.672-2.912,3.946s-1.778,2.451-2.475,3.491c-.351.519-.672,1-.958,1.417s-.531.794-.719,1.106c-.4.618-.623.972-.623.972l.479-1.051c.152-.335.348-.736.592-1.187s.493-.975.826-1.51c.641-1.084,1.386-2.354,2.274-3.656s1.848-2.678,2.838-4.033c1.013-1.339,2.052-2.655,3.032-3.886s1.955-2.328,2.771-3.285c1.658-1.891,2.842-3.085,2.842-3.085" transform="translate(608.253 30163.51)" fill="#dd6747"/>
    <path id="Trazado_215363" data-name="Trazado 215363" d="M133.589,220.044A128.974,128.974,0,1,1,4.616,349.018,128.974,128.974,0,0,1,133.589,220.044m0-4.315C60.093,215.729.3,275.523.3,349.018S60.093,482.306,133.589,482.306s133.288-59.792,133.288-133.288S207.084,215.729,133.589,215.729" transform="translate(495.132 30198.285)" fill="#dd6747"/>
    <path id="Trazado_215364" data-name="Trazado 215364" d="M10.973,349.9s22.089.219,50.208-7.134l-5.353-33.085s-16.545,2.081-26.18,5.051" transform="translate(499.808 30239.455)" fill="#ff8b66"/>
    <path id="Trazado_215365" data-name="Trazado 215365" d="M91.552,298.722s-22.6,1.867-58.833,14.963c0,0,1.543,29.383,8.494,41.016l26.292-7.39Z" transform="translate(509.338 30234.652)" fill="#703311"/>
    <path id="Trazado_215366" data-name="Trazado 215366" d="M190.279,349.9s-22.09.219-50.208-7.134l5.353-33.085s16.545,2.081,26.18,5.051" transform="translate(556.381 30239.455)" fill="#ff8b66"/>
    <path id="Trazado_215367" data-name="Trazado 215367" d="M112.328,298.722s22.6,1.867,58.833,14.963c0,0-1.543,29.383-8.5,41.016l-26.29-7.39Z" transform="translate(544.223 30234.652)" fill="#703311"/>
    <path id="Trazado_215368" data-name="Trazado 215368" d="M122.516,301.924a42.962,42.962,0,0,1-3.5-12.79,26.931,26.931,0,0,1-.1-4.4,13.346,13.346,0,0,1,.355-2.564l-.887.236c.016-.144.029-.236.029-.236l-15.815,4.422-15.815-4.422s.013.092.03.236l-.887-.236a13.5,13.5,0,0,1,.355,2.564,27.118,27.118,0,0,1-.1,4.4,42.963,42.963,0,0,1-3.5,12.79s-1.464,3.752-11.647,5.052a42.311,42.311,0,0,0,2.582,6.512c.216.444.447.9.693,1.375.616,1.179,1.329,2.432,2.147,3.716a44.176,44.176,0,0,0,4.778,6.23c1.88,5.346,6.03,9.835,10.831,10.579a42.74,42.74,0,0,0,6.806.528q1.286-.007,2.515-.093.615-.043,1.217-.1.6.062,1.217.1,1.23.086,2.517.093a42.735,42.735,0,0,0,6.8-.528c4.8-.745,8.951-5.234,10.831-10.579a44.175,44.175,0,0,0,4.778-6.23c.818-1.284,1.532-2.537,2.147-3.716.493-.942.923-1.838,1.3-2.664a39.707,39.707,0,0,0,1.979-5.224c-10.183-1.3-11.647-5.052-11.647-5.052" transform="translate(526.124 30227.398)" fill="#ff8b66"/>
    <path id="Trazado_215369" data-name="Trazado 215369" d="M168.838,309.452v42.355l-2.446,77.246a129.322,129.322,0,0,1-111.5-.129l-.316-10.067-2.129-67.049V309.7a52.808,52.808,0,0,1,8.946-5.94c7.335-3.869,18.165-4.818,21.588-5.034a1.52,1.52,0,0,1,1.5.906,56.952,56.952,0,0,0,2.819,5.494.913.913,0,0,1,.374.633c4.085,6.918,11.736,16.841,23.112,19.962,11.376-3.121,19.013-13.045,23.112-19.962a.9.9,0,0,1,.374-.633,57.293,57.293,0,0,0,2.819-5.494,1.525,1.525,0,0,1,1.481-.906c3.437.216,14.251,1.165,21.6,5.034a55.482,55.482,0,0,1,8.674,5.7" transform="translate(517.982 30234.652)" fill="#703311"/>
    <path id="Trazado_215370" data-name="Trazado 215370" d="M87.261,328.812s16.7,33.868,37.186,52.282c0,0-24.788-7.8-37.186-52.282" transform="translate(533.239 30247.84)" fill="#662c10"/>
    <path id="Trazado_215371" data-name="Trazado 215371" d="M83.192,347.791s18.132,24.33,42.029,28.339c0,0-29.023,2.479-42.029-28.339" transform="translate(531.456 30256.156)" fill="#662c10"/>
    <path id="Trazado_215372" data-name="Trazado 215372" d="M114.4,288.737a26.5,26.5,0,0,1-.06-4.4l-.659-1.264L98,287.249,82.321,283.07l-.659,1.264a27.121,27.121,0,0,1-.1,4.4c2.129,3.452,7.368,10.046,16.422,10.067h.043c9.055-.022,14.25-6.616,16.378-10.067" transform="translate(530.739 30227.795)" fill="#dd6747"/>
    <path id="Trazado_215373" data-name="Trazado 215373" d="M75.857,261.734s1.779,5.966,3.24,13.736c.807,4.292.187,6.437-3.611,5.846-2.947-.457-10.447-9.292-7.887-16.88.6-1.773,3.744-4.91,8.258-2.7" transform="translate(524.393 30218.111)" fill="#ff8b66"/>
    <path id="Trazado_215374" data-name="Trazado 215374" d="M70.716,265.048a10.011,10.011,0,0,1,2.091,3.726,16.8,16.8,0,0,1,.641,4.545c.016.4.679.541.742.1a10.8,10.8,0,0,0-.575-4.939,10.413,10.413,0,0,0-2.369-3.964c-.341-.347-.856.176-.531.531" transform="translate(525.943 30219.615)" fill="#dd6747"/>
    <path id="Trazado_215375" data-name="Trazado 215375" d="M70.753,267.2c-.081-.01.04.007.045.009.037.006.073.014.111.023a1.593,1.593,0,0,1,.2.056c.066.023.132.049.2.073.019.007.125.052.037.014.03.011.059.026.088.039a3.818,3.818,0,0,1,.4.216c.058.036.112.073.168.112.019.013.1.075.037.026l.1.078a3.912,3.912,0,0,1,.335.319c.053.058.106.117.157.178.01.011.082.1.059.072s.036.05.042.059c.206.283.4.64.574.876a.4.4,0,0,0,.719-.3,2.592,2.592,0,0,0-.519-1.076,4.355,4.355,0,0,0-.768-.81,3.6,3.6,0,0,0-.974-.57,2.307,2.307,0,0,0-.519-.128c-.049-.006-.049-.006,0,0l-.109-.016-.112-.013c-.088-.009-.175-.011-.263-.011a.388.388,0,1,0,0,.777" transform="translate(525.835 30220.498)" fill="#dd6747"/>
    <path id="Trazado_215376" data-name="Trazado 215376" d="M114.385,281.322c-.181.026-.347.043-.511.06-3.337.321-3.875-1.819-3.1-5.91.1-.555.207-1.092.311-1.629,1.4-6.958,2.93-12.105,2.93-12.105,4.515-2.209,7.66.928,8.258,2.7,2.564,7.582-4.939,16.421-7.886,16.88" transform="translate(543.406 30218.113)" fill="#ff8b66"/>
    <path id="Trazado_215377" data-name="Trazado 215377" d="M115.982,264.518a10.413,10.413,0,0,0-2.369,3.964,10.8,10.8,0,0,0-.575,4.939c.063.436.726.306.742-.1a16.8,16.8,0,0,1,.641-4.545,10.011,10.011,0,0,1,2.091-3.726c.325-.355-.19-.877-.531-.531" transform="translate(544.497 30219.615)" fill="#dd6747"/>
    <path id="Trazado_215378" data-name="Trazado 215378" d="M116.476,266.421c-.082,0-.163,0-.244.01l-.112.011-.128.017c.042,0,.047-.006.017,0a2.449,2.449,0,0,0-.538.129,3.566,3.566,0,0,0-.974.571,4.371,4.371,0,0,0-.769.81,2.6,2.6,0,0,0-.518,1.076.4.4,0,0,0,.719.3,1.962,1.962,0,0,0,.16-.229c.043-.072.086-.144.128-.217.083-.142.177-.278.273-.411l.065-.089c-.05.069.024-.03.036-.043.055-.066.111-.132.17-.194a3.7,3.7,0,0,1,.335-.319l.079-.065c.026-.02.022-.017-.01.009a.6.6,0,0,1,.049-.036c.06-.043.121-.085.184-.124a3.6,3.6,0,0,1,.381-.207l.106-.049c-.089.039.029-.01.037-.013l.18-.068a1.893,1.893,0,0,1,.219-.063l.111-.023c.016,0,.122-.017.045-.007a.4.4,0,0,0,.388-.388.393.393,0,0,0-.388-.388" transform="translate(544.607 30220.498)" fill="#dd6747"/>
    <g id="Grupo_155447" data-name="Grupo 155447" transform="translate(653.868 30491.957)" opacity="0.5">
      <g id="Grupo_155446" data-name="Grupo 155446">
        <g id="Grupo_155445" data-name="Grupo 155445" clip-path="url(#clip-path-3)">
          <path id="Trazado_215379" data-name="Trazado 215379" d="M113.875,277.462c-3.337.321-3.873-1.819-3.1-5.91.1-.555.209-1.092.312-1.629l.676.278s.035,7.079,2.114,7.262" transform="translate(-110.462 -269.923)" fill="#dd6747"/>
        </g>
      </g>
    </g>
    <g id="Grupo_155450" data-name="Grupo 155450" transform="translate(600.388 30491.957)" opacity="0.5">
      <g id="Grupo_155449" data-name="Grupo 155449">
        <g id="Grupo_155448" data-name="Grupo 155448" clip-path="url(#clip-path-4)">
          <path id="Trazado_215380" data-name="Trazado 215380" d="M73.277,277.462c3.337.321,3.873-1.819,3.1-5.91-.1-.555-.209-1.092-.312-1.629l-.676.278s-.035,7.079-2.114,7.262" transform="translate(-73.277 -269.923)" fill="#dd6747"/>
        </g>
      </g>
    </g>
    <path id="Trazado_215381" data-name="Trazado 215381" d="M103.249,247.854H69.634s2.863,9.73,4.831,20.715c3.281,18.307,4.05,41.773,28.784,41.773,24.985,0,25.518-23.41,28.767-41.745,1.924-10.857,4.85-20.742,4.85-20.742Z" transform="translate(525.514 30212.363)" fill="#ff8b66"/>
    <path id="Trazado_215382" data-name="Trazado 215382" d="M121.686,243.264c-5.957-11.591-11.445,8.015-11.445,8.015l.339.851-2.769.722c3.744,1.519,7.474,19.363,7.474,19.363l2.668-1.632v-.011l.007.016s9.683-15.733,3.726-27.323" transform="translate(542.244 30208.744)" fill="#072735"/>
    <path id="Trazado_215383" data-name="Trazado 215383" d="M80.045,261.806c2.947-2.2,7.6-2.925,10.742-1.214.272.148,1.394.454,1.641-.554.147-.6-.8-1.284-1.043-1.45-3.393-2.334-9.721-.933-12.258,2.2-.173.214-.355.962-.049,1.179.237.17.769-.014.966-.161" transform="translate(529.581 30216.557)" fill="#072735"/>
    <path id="Trazado_215384" data-name="Trazado 215384" d="M109.931,261.806c-2.947-2.2-7.6-2.925-10.742-1.214-.272.148-1.394.454-1.641-.554-.147-.6.8-1.284,1.043-1.45,3.393-2.334,9.721-.933,12.258,2.2.173.214.355.962.049,1.179-.237.17-.769-.014-.966-.161" transform="translate(537.74 30216.557)" fill="#072735"/>
    <path id="Trazado_215385" data-name="Trazado 215385" d="M86.558,264.244c-.01,1.568-.9,2.832-1.989,2.825s-1.962-1.283-1.953-2.851.9-2.832,1.989-2.825,1.963,1.283,1.953,2.851" transform="translate(531.203 30218.295)" fill="#072735"/>
    <path id="Trazado_215386" data-name="Trazado 215386" d="M100.5,264.244c.01,1.568.9,2.832,1.989,2.825s1.962-1.283,1.953-2.851-.9-2.832-1.989-2.825-1.963,1.283-1.953,2.851" transform="translate(539.038 30218.295)" fill="#072735"/>
    <path id="Trazado_215387" data-name="Trazado 215387" d="M90.988,274.006s.726,1.089,2.9,1.089a3.477,3.477,0,0,0,2.927-1.089" transform="translate(534.872 30223.822)" fill="none" stroke="#dd6747" stroke-linecap="round" stroke-miterlimit="10" stroke-width="0.451"/>
    <path id="Trazado_215388" data-name="Trazado 215388" d="M105.5,280.394c-1.852.975-5.61,1.693-9.369,1.693s-7.525-.716-9.38-1.693c0,0-.781-.426-.833-.335s.587.713.824.909c1.825,1.5,5.835,2.524,9.377,2.527h.011c3.542,0,7.552-1.028,9.377-2.527.237-.2.879-.811.824-.909s-.833.335-.833.335" transform="translate(532.647 30226.469)" fill="#c9593f"/>
    <path id="Trazado_215389" data-name="Trazado 215389" d="M74.594,241.294s-3.446-3.859-1.09-10.172c1.77-4.735,7.425-7.418,13.276-5.178,6.724,2.577,15.369-2.373,22.2,1.7a36.534,36.534,0,0,0,12.225,5.034c9.888,1.736,15.82-4.494,22.471,6.381,6.423,10.508-6.131,27.057-26.255,26.518s-29.69-9.2-37.491-5.947-9.059-11.312-9.059-11.312Z" transform="translate(526.056 30202.41)" fill="#072735"/>
    <path id="Trazado_215390" data-name="Trazado 215390" d="M82.407,254.029,77.34,236.617S64.616,232.292,64.6,243.7c-.01,5.993,4.181,8.382,5.6,12.525-4.135,13.792,3.8,15.986,3.8,15.986l2.668,1.632S80.4,256,84.146,254.483Z" transform="translate(523.308 30207.086)" fill="#072735"/>
    <path id="Trazado_215391" data-name="Trazado 215391" d="M76.962,249.664c5.2-.994,10.16,1.289,14.615,3.735,4.23,2.321,8.369,4.776,13.148,5.779a28.758,28.758,0,0,0,13.794-.463c3.468-1,6.889-2.915,8.022-6.551.414-1.323-1.66-1.89-2.071-.571-1.243,3.982-6.3,5.26-9.939,5.795a26.643,26.643,0,0,1-14.231-1.851c-7.8-3.318-14.845-9.675-23.909-7.945-1.358.259-.782,2.331.571,2.072" transform="translate(528.136 30212.119)" fill="#072735"/>
    <path id="Trazado_215392" data-name="Trazado 215392" d="M80.245,233.162c-4.612-1.543-11.136-2.14-14.5,2.108a10.88,10.88,0,0,0-2.177,7.115c.07,2.387.679,4.926,2.5,6.6,1.017.933,2.541-.582,1.52-1.52a7.148,7.148,0,0,1-1.873-5.344,8.473,8.473,0,0,1,1.842-5.677,6.866,6.866,0,0,1,5.232-2.2,19.007,19.007,0,0,1,6.89,1c1.315.439,1.878-1.635.571-2.072" transform="translate(522.852 30205.418)" fill="#072735"/>
    <g id="Grupo_155453" data-name="Grupo 155453" transform="translate(644.282 30576.65)" opacity="0.2">
      <g id="Grupo_155452" data-name="Grupo 155452">
        <g id="Grupo_155451" data-name="Grupo 155451" clip-path="url(#clip-path-8)">
          <path id="Trazado_215393" data-name="Trazado 215393" d="M119.8,328.812h-16s.495,18.855,2.482,22.151,11.143,9.978,13.522,9.875c2.379.1,11.534-6.577,13.522-9.875s2.482-22.151,2.482-22.151Z" transform="translate(-103.797 -328.812)" fill="#dd6747"/>
        </g>
      </g>
    </g>
    <path id="Trazado_215394" data-name="Trazado 215394" d="M116.044,275.377s-6.6,2.738-23.069,2.956v27.835c10.781-.577,18.422-7.319,22.741-12.407Z" transform="translate(535.743 30224.424)" fill="#66e2ca"/>
    <path id="Trazado_215395" data-name="Trazado 215395" d="M128.882,332.549a128.106,128.106,0,0,1,26.531,7.329,128.04,128.04,0,0,1-26.531-7.329" transform="translate(551.478 30249.477)" fill="#662c10"/>
    <path id="Trazado_215396" data-name="Trazado 215396" d="M208.437,336.771c-11.549-17.726-27.908-29.64-38.615-39.053-6.092-5.356-13.263-19.517-18.809-24.982a38.166,38.166,0,0,0-12.98-8.31c-1.427-.538-4.41-1.556-7.71-2.646l-4.109,4.581a60.547,60.547,0,0,1,8.252,4.822c2.7,1.893,7.053,4.453,6.659,8.021-.223,2.08-2.661,3.174-5.186,3.79a68.446,68.446,0,0,1-5.557-7.218c-2.156-3.519-7.423-5.743-9.169-4.09-1.763,1.668.2,4.064,1.661,6.456s4.979,8.9,6.883,10.856,10.857,5.947,10.857,5.947a26.591,26.591,0,0,1,6.429,4.69c16.934,16.59,16.883,43.631,38.541,66.086,12.839,13.321,41.658-.072,22.852-28.948" transform="translate(547.812 30218.465)" fill="#ff8b66"/>
    <path id="Trazado_215397" data-name="Trazado 215397" d="M108.615,281.64s2.792-17.684,11.287-16.923c10.129.906,8.811,16.639.511,25.508-2.858,3.053-6.846,5.423-12.065,7.794" transform="translate(542.479 30219.74)" fill="none" stroke="#66e2ca" stroke-miterlimit="10" stroke-width="0.935"/>
    <path id="Trazado_215398" data-name="Trazado 215398" d="M142.515,263.244c-2.544-1.563-15.425,6.919-15.908,9.8s4.834,9.9,6.942,11.4,8.779-2.267,10.823-3.4l10.325-.624s-9.637-15.606-12.182-17.169" transform="translate(550.467 30219.023)" fill="#ff8b66"/>
    <path id="Trazado_215399" data-name="Trazado 215399" d="M131.073,261.949a7.828,7.828,0,0,0-2.157-.541,2.356,2.356,0,0,0-1.138.158,4.534,4.534,0,0,0-1.661,1.273l-.125.151c-3.64,4.469-7.218,9.121-7.185,9.932.068,1.408,3.688,2.91,8.565-2.664,1.02-1.162,1.818-2.6,2.943-3.659l-.84-1.68c.377-.014.844-.086.844-.086Z" transform="translate(547.062 30218.295)" fill="#ff8b66"/>
    <path id="Trazado_215400" data-name="Trazado 215400" d="M137.962,265.63a92.816,92.816,0,0,0-6.009,7.387c-.587.856-1.2,1.648-.624,2.705a23.967,23.967,0,0,0,4.476,6.37,1.053,1.053,0,0,0,1.122.338,9.783,9.783,0,0,0,2.81-1.1l.411.741a10.465,10.465,0,0,1-3.111,1.142,1.859,1.859,0,0,1-1.755-.581,24.445,24.445,0,0,1-4.387-6.739,2.177,2.177,0,0,1-.1-1.7,8.693,8.693,0,0,1,.876-1.373,92.731,92.731,0,0,1,6.292-7.185" transform="translate(552.254 30220.152)" fill="#dd6747"/>
    <path id="Trazado_215401" data-name="Trazado 215401" d="M138.55,263.662c-3.944,2.258-8.225,4.438-11.156,7.991-2.186,3.046,2.872,8.493,4.847,10.779.994,1.438,2.754-.019,3.8-.765l.532.66c-1.306.969-3.58,2.385-4.834.574-2.057-2.524-7.07-8.182-4.625-11.451,3.045-3.529,7.405-5.611,11.441-7.788" transform="translate(550.413 30219.289)" fill="#dd6747"/>
    <path id="Trazado_215402" data-name="Trazado 215402" d="M139.655,266.533a63.115,63.115,0,0,0-4.923,7.2c-.768,1.3.28,2.546.931,3.667a23.5,23.5,0,0,0,3.839,4.471,12.573,12.573,0,0,0,5.012-3.958,1.81,1.81,0,0,0-1-3.022,3.714,3.714,0,0,0-3.757,1.424,3.827,3.827,0,0,1,3.859-1.827c5.142,1.839-1.077,7.05-3.738,8.124a.948.948,0,0,1-.853-.073,20.863,20.863,0,0,1-4-4.72,6.458,6.458,0,0,1-1.279-3.233c1.093-3.191,3.8-5.563,5.915-8.053" transform="translate(553.606 30220.547)" fill="#dd6747"/>
    <path id="Trazado_215403" data-name="Trazado 215403" d="M139.625,273.108a8.207,8.207,0,0,0-1.346-2.458,8.585,8.585,0,0,1,2.093,2.058Z" transform="translate(555.595 30222.352)" fill="#dd6747"/>
    <path id="Trazado_215404" data-name="Trazado 215404" d="M149.754,306.1c4.015,8.629,7.379,17.561,12.061,25.863-5.659-7.7-9.115-16.84-12.061-25.863" transform="translate(560.624 30237.889)" fill="#dd6747"/>
    <path id="Trazado_215405" data-name="Trazado 215405" d="M76.939,275.377s6.6,2.738,23.069,2.956v27.835c-10.781-.577-18.422-7.319-22.741-12.407Z" transform="translate(528.716 30224.424)" fill="#66e2ca"/>
    <path id="Trazado_215406" data-name="Trazado 215406" d="M65.157,332.549a128.135,128.135,0,0,1-26.531,7.331,128.019,128.019,0,0,1,26.531-7.331" transform="translate(511.926 30249.477)" fill="#662c10"/>
    <path id="Trazado_215407" data-name="Trazado 215407" d="M6.193,336.771c11.549-17.726,27.91-29.64,38.616-39.053,6.091-5.356,13.262-19.517,18.807-24.982a38.179,38.179,0,0,1,12.98-8.31c1.427-.538,4.411-1.556,7.71-2.646l4.109,4.581a60.459,60.459,0,0,0-8.252,4.822c-2.7,1.893-7.053,4.453-6.659,8.021.224,2.08,2.661,3.174,5.188,3.79a68.6,68.6,0,0,0,5.554-7.218c2.157-3.519,7.424-5.743,9.17-4.09,1.763,1.668-.2,4.064-1.66,6.456s-4.981,8.9-6.883,10.856-10.857,5.947-10.857,5.947a26.6,26.6,0,0,0-6.43,4.69C50.653,316.224,50.7,343.265,29.045,365.72c-12.839,13.321-41.658-.072-22.852-28.948" transform="translate(495 30218.465)" fill="#ff8b66"/>
    <path id="Trazado_215408" data-name="Trazado 215408" d="M83.046,281.64s-2.792-17.684-11.287-16.923c-10.129.906-8.81,16.639-.511,25.508,2.858,3.053,6.846,5.423,12.065,7.794" transform="translate(523.304 30219.74)" fill="none" stroke="#66e2ca" stroke-miterlimit="10" stroke-width="0.935"/>
    <path id="Trazado_215409" data-name="Trazado 215409" d="M52.008,263.244c2.543-1.563,15.425,6.919,15.907,9.8s-4.834,9.9-6.942,11.4-8.779-2.267-10.821-3.4l-10.325-.624s9.637-15.606,12.182-17.169" transform="translate(512.452 30219.023)" fill="#ff8b66"/>
    <path id="Trazado_215410" data-name="Trazado 215410" d="M58.62,261.949a7.828,7.828,0,0,1,2.157-.541,2.356,2.356,0,0,1,1.138.158,4.533,4.533,0,0,1,1.661,1.273l.125.151c3.64,4.469,7.218,9.121,7.185,9.932-.068,1.408-3.688,2.91-8.565-2.664-1.02-1.162-1.818-2.6-2.943-3.659l.84-1.68c-.377-.014-.844-.086-.844-.086Z" transform="translate(520.688 30218.295)" fill="#ff8b66"/>
    <path id="Trazado_215411" data-name="Trazado 215411" d="M50.886,265.63a93.036,93.036,0,0,1,6.292,7.185,8.687,8.687,0,0,1,.874,1.373,2.171,2.171,0,0,1-.1,1.7,24.44,24.44,0,0,1-4.385,6.739,1.859,1.859,0,0,1-1.756.581,10.456,10.456,0,0,1-3.109-1.142l.411-.741a9.792,9.792,0,0,0,2.809,1.1,1.058,1.058,0,0,0,1.123-.338,24,24,0,0,0,4.476-6.37c.575-1.056-.037-1.851-.626-2.705a93.12,93.12,0,0,0-6.007-7.387" transform="translate(516.341 30220.152)" fill="#dd6747"/>
    <path id="Trazado_215412" data-name="Trazado 215412" d="M51.091,263.662c4.034,2.177,8.4,4.26,11.441,7.788,2.445,3.266-2.566,8.926-4.625,11.451-1.257,1.809-3.525.4-4.834-.574l.532-.66c1.04.748,2.8,2.2,3.8.765,1.972-2.287,7.033-7.729,4.847-10.779-2.931-3.552-7.211-5.733-11.156-7.991" transform="translate(517.389 30219.289)" fill="#dd6747"/>
    <path id="Trazado_215413" data-name="Trazado 215413" d="M49.91,266.533c2.12,2.488,4.822,4.861,5.915,8.053a6.445,6.445,0,0,1-1.279,3.233,20.83,20.83,0,0,1-4,4.72.953.953,0,0,1-.853.073c-2.659-1.072-8.88-6.286-3.738-8.124a3.827,3.827,0,0,1,3.859,1.827,3.714,3.714,0,0,0-3.757-1.424,1.81,1.81,0,0,0-1,3.022,12.564,12.564,0,0,0,5.012,3.958A23.5,23.5,0,0,0,53.9,277.4c.652-1.122,1.7-2.366.931-3.666a63,63,0,0,0-4.923-7.2" transform="translate(514.271 30220.547)" fill="#dd6747"/>
    <path id="Trazado_215414" data-name="Trazado 215414" d="M46.22,272.708a8.586,8.586,0,0,1,2.093-2.058,8.207,8.207,0,0,0-1.346,2.458Z" transform="translate(515.254 30222.352)" fill="#dd6747"/>
    <path id="Trazado_215415" data-name="Trazado 215415" d="M39.876,306.1c-2.945,9.023-6.4,18.168-12.061,25.863,4.681-8.3,8.045-17.234,12.061-25.863" transform="translate(507.189 30237.889)" fill="#dd6747"/>
    <path id="Trazado_215416" data-name="Trazado 215416" d="M369.009,220.044A128.974,128.974,0,1,1,240.036,349.018,128.975,128.975,0,0,1,369.009,220.044m0-4.315c-73.5,0-133.288,59.794-133.288,133.289s59.792,133.288,133.288,133.288S502.3,422.514,502.3,349.018,442.5,215.729,369.009,215.729" transform="translate(598.296 30198.285)" fill="#dd6747"/>
    <path id="Trazado_215417" data-name="Trazado 215417" d="M357.936,301.924a43.006,43.006,0,0,1-3.5-12.79,26.927,26.927,0,0,1-.1-4.4,13.346,13.346,0,0,1,.355-2.564l-.887.236c.016-.144.029-.236.029-.236l-15.815,4.422L322.2,282.167s.013.092.03.236l-.887-.236a13.5,13.5,0,0,1,.355,2.564,27.113,27.113,0,0,1-.105,4.4,42.918,42.918,0,0,1-3.5,12.79s-1.464,3.752-11.647,5.052a42.33,42.33,0,0,0,2.582,6.511c.216.446.447.906.693,1.376.616,1.179,1.329,2.432,2.147,3.716a44.175,44.175,0,0,0,4.778,6.23c1.881,5.346,6.032,9.835,10.833,10.579a42.709,42.709,0,0,0,6.8.528q1.286-.007,2.515-.093.617-.043,1.217-.1.6.062,1.217.1,1.23.086,2.517.093a42.734,42.734,0,0,0,6.8-.528c4.8-.745,8.951-5.234,10.831-10.579a44.061,44.061,0,0,0,4.778-6.23c.818-1.284,1.532-2.537,2.147-3.716.493-.942.923-1.838,1.3-2.664a39.7,39.7,0,0,0,1.979-5.224c-10.182-1.3-11.647-5.052-11.647-5.052" transform="translate(629.288 30227.398)" fill="#ff8b66"/>
    <path id="Trazado_215418" data-name="Trazado 215418" d="M404.257,309.452v42.355l-2.445,77.246a129.326,129.326,0,0,1-111.5-.129l-.316-10.067-2.129-67.049V309.7a52.807,52.807,0,0,1,8.946-5.94c7.335-3.869,18.165-4.818,21.588-5.034a1.52,1.52,0,0,1,1.5.906,56.94,56.94,0,0,0,2.819,5.494.908.908,0,0,1,.374.633c4.085,6.918,11.736,16.841,23.112,19.962,11.376-3.121,19.013-13.045,23.112-19.962a.908.908,0,0,1,.374-.633,56.947,56.947,0,0,0,2.819-5.494,1.526,1.526,0,0,1,1.481-.906c3.437.216,14.253,1.165,21.6,5.034a55.4,55.4,0,0,1,8.672,5.7" transform="translate(621.145 30234.652)" fill="#703311"/>
    <path id="Trazado_215419" data-name="Trazado 215419" d="M322.68,328.812s16.7,33.867,37.186,52.282c0,0-24.788-7.8-37.186-52.282" transform="translate(636.402 30247.84)" fill="#662c10"/>
    <path id="Trazado_215420" data-name="Trazado 215420" d="M318.612,347.791s18.132,24.33,42.029,28.339c0,0-29.023,2.479-42.029-28.339" transform="translate(634.619 30256.156)" fill="#662c10"/>
    <path id="Trazado_215421" data-name="Trazado 215421" d="M349.82,288.737a26.334,26.334,0,0,1-.06-4.4l-.659-1.266-15.681,4.181-15.679-4.181-.659,1.266a27.11,27.11,0,0,1-.105,4.4c2.129,3.452,7.368,10.046,16.422,10.067v0l.022,0,.021,0v0c9.055-.022,14.25-6.616,16.378-10.067" transform="translate(633.903 30227.795)" fill="#dd6747"/>
    <path id="Trazado_215422" data-name="Trazado 215422" d="M311.277,261.734s1.779,5.966,3.24,13.736c.807,4.292.187,6.437-3.611,5.846-2.947-.457-10.447-9.292-7.887-16.88.6-1.773,3.744-4.91,8.258-2.7" transform="translate(627.557 30218.111)" fill="#ff8b66"/>
    <path id="Trazado_215423" data-name="Trazado 215423" d="M306.137,265.048a10.012,10.012,0,0,1,2.091,3.726,16.8,16.8,0,0,1,.641,4.545c.016.4.679.541.742.1a10.8,10.8,0,0,0-.575-4.939,10.413,10.413,0,0,0-2.369-3.964c-.341-.347-.856.176-.531.531" transform="translate(629.107 30219.615)" fill="#dd6747"/>
    <path id="Trazado_215424" data-name="Trazado 215424" d="M306.174,267.2c-.082-.01.039.007.043.009l.111.023a1.466,1.466,0,0,1,.2.056c.068.023.132.049.2.073.019.007.125.052.037.014.03.011.06.026.088.039a3.985,3.985,0,0,1,.4.216c.056.036.111.073.167.112.019.013.1.075.037.026l.1.078a3.908,3.908,0,0,1,.335.319c.053.058.108.117.157.178.01.011.082.1.059.072s.036.05.042.059c.206.283.4.64.575.876a.4.4,0,0,0,.719-.3,2.594,2.594,0,0,0-.521-1.076,4.308,4.308,0,0,0-.768-.81,3.577,3.577,0,0,0-.974-.57,2.306,2.306,0,0,0-.519-.128c-.049-.006-.049-.006,0,0l-.109-.016-.112-.013c-.088-.009-.175-.011-.262-.011a.388.388,0,1,0,0,.777" transform="translate(628.998 30220.498)" fill="#dd6747"/>
    <path id="Trazado_215425" data-name="Trazado 215425" d="M349.805,281.322c-.181.026-.347.043-.511.06-3.337.321-3.875-1.819-3.1-5.91.1-.555.207-1.092.311-1.629,1.4-6.958,2.93-12.105,2.93-12.105,4.514-2.209,7.66.928,8.258,2.7,2.564,7.582-4.939,16.421-7.886,16.88" transform="translate(646.569 30218.113)" fill="#ff8b66"/>
    <path id="Trazado_215426" data-name="Trazado 215426" d="M351.4,264.518a10.414,10.414,0,0,0-2.369,3.964,10.8,10.8,0,0,0-.575,4.939c.063.436.726.306.742-.1a16.8,16.8,0,0,1,.641-4.545,10.012,10.012,0,0,1,2.091-3.726c.325-.355-.19-.877-.531-.531" transform="translate(647.661 30219.615)" fill="#dd6747"/>
    <path id="Trazado_215427" data-name="Trazado 215427" d="M351.9,266.421c-.082,0-.163,0-.245.01l-.112.011-.128.017c.042,0,.047-.006.017,0a2.448,2.448,0,0,0-.538.129,3.565,3.565,0,0,0-.974.571,4.316,4.316,0,0,0-.768.81,2.584,2.584,0,0,0-.519,1.076.4.4,0,0,0,.719.3,1.961,1.961,0,0,0,.16-.229c.043-.072.086-.144.128-.217.083-.142.177-.278.273-.411l.065-.089c-.05.069.024-.03.036-.043.055-.066.111-.132.17-.194a3.706,3.706,0,0,1,.335-.319l.079-.065c.026-.02.022-.017-.01.009.016-.013.032-.024.049-.036.06-.043.121-.085.184-.124a3.594,3.594,0,0,1,.381-.207l.106-.049c-.089.039.029-.01.037-.013l.18-.068a1.978,1.978,0,0,1,.219-.063l.111-.023c.016,0,.122-.017.045-.007a.4.4,0,0,0,.388-.388.393.393,0,0,0-.388-.388" transform="translate(647.77 30220.498)" fill="#dd6747"/>
    <g id="Grupo_155456" data-name="Grupo 155456" transform="translate(992.451 30491.957)" opacity="0.5">
      <g id="Grupo_155455" data-name="Grupo 155455">
        <g id="Grupo_155454" data-name="Grupo 155454" clip-path="url(#clip-path-6)">
          <path id="Trazado_215428" data-name="Trazado 215428" d="M349.294,277.462c-3.337.321-3.873-1.819-3.1-5.91.1-.555.209-1.092.312-1.629l.676.278s.035,7.079,2.114,7.262" transform="translate(-345.882 -269.923)" fill="#dd6747"/>
        </g>
      </g>
    </g>
    <g id="Grupo_155459" data-name="Grupo 155459" transform="translate(938.971 30491.957)" opacity="0.5">
      <g id="Grupo_155458" data-name="Grupo 155458">
        <g id="Grupo_155457" data-name="Grupo 155457" clip-path="url(#clip-path-6)">
          <path id="Trazado_215429" data-name="Trazado 215429" d="M308.7,277.462c3.335.321,3.872-1.819,3.1-5.91-.1-.555-.209-1.092-.312-1.629l-.676.278s-.034,7.079-2.113,7.262" transform="translate(-308.697 -269.923)" fill="#dd6747"/>
        </g>
      </g>
    </g>
    <path id="Trazado_215430" data-name="Trazado 215430" d="M338.669,247.854H305.054s2.864,9.73,4.831,20.715c3.281,18.307,4.05,41.773,28.784,41.773,24.985,0,25.518-23.41,28.767-41.745,1.924-10.857,4.85-20.742,4.85-20.742Z" transform="translate(628.678 30212.363)" fill="#ff8b66"/>
    <path id="Trazado_215431" data-name="Trazado 215431" d="M357.106,243.264c-5.958-11.591-11.445,8.015-11.445,8.015l.338.851-2.767.722c3.744,1.519,7.473,19.363,7.473,19.363l2.669-1.632v-.011l.007.016s9.684-15.733,3.726-27.323" transform="translate(645.408 30208.744)" fill="#072735"/>
    <path id="Trazado_215432" data-name="Trazado 215432" d="M315.465,261.806c2.947-2.2,7.6-2.925,10.742-1.214.272.148,1.392.454,1.64-.554.148-.6-.8-1.284-1.041-1.45-3.393-2.334-9.721-.933-12.258,2.2-.173.214-.355.962-.049,1.179.237.17.769-.014.966-.161" transform="translate(632.744 30216.557)" fill="#072735"/>
    <path id="Trazado_215433" data-name="Trazado 215433" d="M345.35,261.806c-2.947-2.2-7.6-2.925-10.742-1.214-.272.148-1.392.454-1.64-.554-.147-.6.8-1.284,1.043-1.45,3.391-2.334,9.719-.933,12.256,2.2.173.214.355.962.049,1.179-.237.17-.769-.014-.966-.161" transform="translate(640.904 30216.557)" fill="#072735"/>
    <path id="Trazado_215434" data-name="Trazado 215434" d="M321.978,264.244c-.01,1.568-.9,2.832-1.989,2.825s-1.962-1.283-1.953-2.851.9-2.832,1.989-2.825,1.963,1.283,1.953,2.851" transform="translate(634.367 30218.295)" fill="#072735"/>
    <path id="Trazado_215435" data-name="Trazado 215435" d="M335.915,264.244c.01,1.568.9,2.832,1.989,2.825s1.962-1.283,1.953-2.851-.9-2.832-1.989-2.825-1.963,1.283-1.953,2.851" transform="translate(642.202 30218.295)" fill="#072735"/>
    <path id="Trazado_215436" data-name="Trazado 215436" d="M326.408,274.006s.726,1.089,2.9,1.089a3.477,3.477,0,0,0,2.927-1.089" transform="translate(638.036 30223.822)" fill="none" stroke="#dd6747" stroke-linecap="round" stroke-miterlimit="10" stroke-width="0.451"/>
    <path id="Trazado_215437" data-name="Trazado 215437" d="M340.916,280.394c-1.852.975-5.61,1.693-9.368,1.693s-7.525-.716-9.379-1.693c0,0-.782-.426-.833-.335s.587.713.823.909c1.825,1.5,5.835,2.524,9.379,2.527h.01c3.542,0,7.552-1.028,9.377-2.527.237-.2.879-.811.824-.909s-.833.335-.833.335" transform="translate(635.812 30226.469)" fill="#c9593f"/>
    <path id="Trazado_215438" data-name="Trazado 215438" d="M310.012,241.294s-3.446-3.857-1.089-10.172c1.769-4.735,7.424-7.418,13.275-5.178,6.725,2.577,15.37-2.373,22.2,1.7a36.511,36.511,0,0,0,12.225,5.034c9.888,1.736,15.82-4.494,22.469,6.383,6.423,10.506-6.13,27.056-26.255,26.516s-29.689-9.2-37.491-5.947-9.058-11.312-9.058-11.312Z" transform="translate(629.22 30202.41)" fill="#072735"/>
    <path id="Trazado_215439" data-name="Trazado 215439" d="M317.827,254.029l-5.067-17.412s-12.724-4.325-12.743,7.085c-.009,5.993,4.182,8.382,5.6,12.525-4.135,13.792,3.8,15.986,3.8,15.986l2.668,1.632s3.731-17.844,7.474-19.363Z" transform="translate(626.471 30207.086)" fill="#072735"/>
    <path id="Trazado_215440" data-name="Trazado 215440" d="M312.382,249.664c5.2-.994,10.16,1.289,14.617,3.735,4.228,2.321,8.367,4.776,13.147,5.779a28.758,28.758,0,0,0,13.794-.463c3.468-1,6.889-2.915,8.024-6.551.413-1.323-1.661-1.89-2.072-.571-1.243,3.982-6.3,5.26-9.939,5.795a26.643,26.643,0,0,1-14.231-1.851c-7.8-3.318-14.845-9.675-23.909-7.945-1.358.259-.782,2.331.571,2.072" transform="translate(631.299 30212.119)" fill="#072735"/>
    <path id="Trazado_215441" data-name="Trazado 215441" d="M315.664,233.162c-4.612-1.543-11.136-2.141-14.5,2.108a10.88,10.88,0,0,0-2.177,7.115c.07,2.387.679,4.926,2.5,6.6,1.017.933,2.541-.582,1.52-1.52a7.148,7.148,0,0,1-1.873-5.344,8.473,8.473,0,0,1,1.842-5.677,6.861,6.861,0,0,1,5.232-2.2,19.007,19.007,0,0,1,6.89,1c1.314.439,1.878-1.635.571-2.072" transform="translate(626.016 30205.418)" fill="#072735"/>
    <g id="Grupo_155462" data-name="Grupo 155462" transform="translate(982.866 30576.65)" opacity="0.2">
      <g id="Grupo_155461" data-name="Grupo 155461">
        <g id="Grupo_155460" data-name="Grupo 155460" clip-path="url(#clip-path)">
          <path id="Trazado_215442" data-name="Trazado 215442" d="M355.221,328.812h-16s.495,18.855,2.482,22.151,11.143,9.978,13.522,9.875c2.379.1,11.534-6.577,13.522-9.875s2.482-22.151,2.482-22.151Z" transform="translate(-339.217 -328.812)" fill="#dd6747"/>
        </g>
      </g>
    </g>
    <path id="Trazado_215443" data-name="Trazado 215443" d="M246.393,349.9s22.09.219,50.208-7.134l-5.353-33.085s-16.545,2.081-26.18,5.051" transform="translate(602.972 30239.455)" fill="#ff8b66"/>
    <path id="Trazado_215444" data-name="Trazado 215444" d="M326.972,298.722s-22.6,1.867-58.833,14.962c0,0,1.543,29.384,8.5,41.018l26.29-7.39Z" transform="translate(612.501 30234.652)" fill="#703311"/>
    <path id="Trazado_215445" data-name="Trazado 215445" d="M425.7,349.9s-22.09.219-50.208-7.134l5.353-33.085s16.545,2.081,26.18,5.051" transform="translate(659.544 30239.455)" fill="#ff8b66"/>
    <path id="Trazado_215446" data-name="Trazado 215446" d="M347.748,298.722s22.6,1.867,58.833,14.962c0,0-1.543,29.384-8.494,41.018l-26.292-7.39Z" transform="translate(647.387 30234.652)" fill="#703311"/>
    <path id="Trazado_215447" data-name="Trazado 215447" d="M347.56,270.447c-6.437,0-6.2-1.8-11.014-1.8s-4.578,1.8-11.015,1.8a39.928,39.928,0,0,0-16.141,3.7c5.334,30.4,27.156,28.006,27.156,28.006s21.822,2.4,27.155-28.006a39.92,39.92,0,0,0-16.141-3.7" transform="translate(630.578 30221.475)" fill="#66e2ca"/>
    <path id="Trazado_215448" data-name="Trazado 215448" d="M308.32,262.261s.184,3.808,2.331,15.4" transform="translate(630.109 30218.676)" fill="none" stroke="#66e2ca" stroke-linecap="round" stroke-miterlimit="10" stroke-width="0.935"/>
    <path id="Trazado_215449" data-name="Trazado 215449" d="M349.082,262.281s-.3,3.78-2.448,15.369" transform="translate(646.899 30218.684)" fill="none" stroke="#66e2ca" stroke-linecap="round" stroke-miterlimit="10" stroke-width="0.935"/>
    <path id="Trazado_215450" data-name="Trazado 215450" d="M338.342,276.151l-5.474,3.8,5.474,3.8v-1.733H343.8v-4.135h-5.462Z" transform="translate(640.867 30224.762)" fill="#f22020"/>
    <path id="Trazado_215451" data-name="Trazado 215451" d="M321.534,276.151l5.474,3.8-5.474,3.8v-1.733h-5.462v-4.135h5.462Z" transform="translate(633.506 30224.762)" fill="#f22020"/>
    <path id="Trazado_215452" data-name="Trazado 215452" d="M434.518,362.627C405.851,347.32,396.241,317,374.169,305.98c-3.561-1.782-8.159.87-13.972-4.072-.079,4.007-8.56.752-10.454-.056a3.574,3.574,0,0,1-2.075-1.955,4.535,4.535,0,0,1,.056-3.075,14.606,14.606,0,0,1-2.1-.288,2.912,2.912,0,0,1-1.87-4.033c-.631-.259-2.351-1.222-2.351-1.222-2.106-2.38,4.027-8.188,4.845-8.562,3.88-1.734,13.424-6.783,13.424-6.783a41.09,41.09,0,0,1,5.317,1.967c7.234,3.623,18.875,15.364,26.633,18.72,13.621,5.9,39.124,16.14,56.253,30.005,27.887,22.574,3.617,45.069-13.361,36" transform="translate(644.416 30224.668)" fill="#ff8b66"/>
    <path id="Trazado_215453" data-name="Trazado 215453" d="M364.516,278.852s-12.469-3.922-14.089-4.391-17.018-5.216-17.44-4.077.173,3.265,3.41,5.336,10.433,4.4,10.433,4.4l6.16,4.641Z" transform="translate(640.866 30222.158)" fill="#ff8b66"/>
    <path id="Trazado_215454" data-name="Trazado 215454" d="M341.478,290.028a1.7,1.7,0,0,1-.492-.7,2.51,2.51,0,0,1,.221-2.282,29.667,29.667,0,0,1,1.785-2.6,24.8,24.8,0,0,1,2.366-2.763,3.449,3.449,0,0,1,.834-.637c.26-.121.617-.243.887-.335.577-.2,1.142-.37,1.7-.525,1.1-.318,2.137-.58,3.03-.787,1.788-.41,3-.6,3-.6s-1.13.479-2.846,1.113l-2.944,1.04-1.651.575a8.425,8.425,0,0,0-.8.318,3.313,3.313,0,0,0-.605.473c-.844.811-1.628,1.752-2.36,2.612s-1.392,1.7-1.924,2.423a2.317,2.317,0,0,0-.506,1.921,2.147,2.147,0,0,0,.311.758" transform="translate(644.346 30225.92)" fill="#dd6747"/>
    <path id="Trazado_215455" data-name="Trazado 215455" d="M342.909,290.014s.489-.9,1.343-2.166c.429-.633.952-1.356,1.558-2.1.306-.37.621-.756.984-1.123a4.714,4.714,0,0,1,1.273-1.01,19.274,19.274,0,0,1,2.894-1c.922-.253,1.791-.453,2.538-.6,1.5-.3,2.515-.413,2.515-.413s-.949.381-2.379.9l-2.445.857c-.874.314-1.875.643-2.7,1.028a3.866,3.866,0,0,0-1.1.841c-.341.339-.683.683-1,1.03-.639.7-1.235,1.346-1.746,1.9-1.03,1.117-1.739,1.854-1.739,1.854" transform="translate(645.267 30227.15)" fill="#dd6747"/>
    <path id="Trazado_215456" data-name="Trazado 215456" d="M345.664,292.981s.436-.794,1.2-1.906c.387-.554.859-1.185,1.408-1.834.276-.321.564-.656.886-.975a7.975,7.975,0,0,1,1.063-.9,16.6,16.6,0,0,1,2.409-1.228c.78-.332,1.52-.6,2.162-.811,1.286-.417,2.17-.607,2.17-.607s-.787.446-1.973,1.073l-2.028,1.048c-.726.383-1.545.8-2.225,1.241a6.875,6.875,0,0,0-.985.8l-.906.887-1.592,1.632c-.941.955-1.592,1.583-1.592,1.583" transform="translate(646.474 30228.516)" fill="#dd6747"/>
    <path id="Trazado_215457" data-name="Trazado 215457" d="M350.673,291.119a6.594,6.594,0,0,1,1.329.132,7.219,7.219,0,0,1,2.733,1.143,3.971,3.971,0,0,1,1.138,1.225,2.873,2.873,0,0,1,.295.744,3.877,3.877,0,0,1,.032.716,2.292,2.292,0,0,1-.367.946c-.127.2-.207.3-.207.3s.013-.141.047-.364a2.678,2.678,0,0,0,.052-.393c-.014-.154-.032-.319-.032-.492-.047-.164-.1-.341-.155-.528a3.866,3.866,0,0,0-.318-.515,4.533,4.533,0,0,0-1-.932,18.58,18.58,0,0,0-2.382-1.381l-1.163-.608" transform="translate(648.669 30231.322)" fill="#dd6747"/>
    <path id="Trazado_215458" data-name="Trazado 215458" d="M352.058,292.37s.112-.206.288-.466a9,9,0,0,1,.709-.925,5.526,5.526,0,0,1,.841-.782,3.017,3.017,0,0,1,.434-.268,3.009,3.009,0,0,0-.276.41,4.994,4.994,0,0,0-.409.979,8.182,8.182,0,0,0-.237,1.021,4.484,4.484,0,0,0-.056.454Z" transform="translate(649.276 30230.801)" fill="#dd6747"/>
    <path id="Trazado_215459" data-name="Trazado 215459" d="M258.472,362.627C287.138,347.32,296.749,317,318.821,305.98c3.561-1.782,8.159.87,13.974-4.072.078,4.007,8.559.752,10.453-.056a3.574,3.574,0,0,0,2.075-1.955,4.526,4.526,0,0,0-.056-3.075,14.7,14.7,0,0,0,2.1-.288,2.912,2.912,0,0,0,1.868-4.033c.631-.259,2.351-1.222,2.351-1.222,2.106-2.38-4.027-8.188-4.845-8.562-3.88-1.734-13.424-6.783-13.424-6.783A41.09,41.09,0,0,0,328,277.9c-7.234,3.623-18.875,15.364-26.633,18.72-13.621,5.9-39.124,16.14-56.253,30.005-27.887,22.574-3.617,45.069,13.361,36" transform="translate(596.843 30224.668)" fill="#ff8b66"/>
    <path id="Trazado_215460" data-name="Trazado 215460" d="M301.671,278.852s12.469-3.922,14.089-4.391,17.018-5.216,17.44-4.077-.173,3.265-3.41,5.336-10.433,4.4-10.433,4.4l-6.16,4.641Z" transform="translate(627.196 30222.158)" fill="#ff8b66"/>
    <path id="Trazado_215461" data-name="Trazado 215461" d="M319.331,290.028a2.144,2.144,0,0,0,.311-.758,2.312,2.312,0,0,0-.506-1.921c-.532-.725-1.2-1.549-1.924-2.423s-1.516-1.8-2.36-2.612a3.268,3.268,0,0,0-.605-.473,8.425,8.425,0,0,0-.8-.318l-1.651-.575-2.943-1.04c-1.717-.634-2.848-1.113-2.848-1.113s1.212.193,3,.6c.893.207,1.929.467,3.03.787.554.155,1.12.326,1.7.525.27.092.627.214.887.335a3.488,3.488,0,0,1,.836.637,24.937,24.937,0,0,1,2.364,2.763,29.687,29.687,0,0,1,1.785,2.6,2.51,2.51,0,0,1,.221,2.282,1.7,1.7,0,0,1-.492.7" transform="translate(629.094 30225.92)" fill="#dd6747"/>
    <path id="Trazado_215462" data-name="Trazado 215462" d="M317.628,290.014s-.709-.736-1.739-1.854c-.511-.558-1.107-1.208-1.746-1.9-.318-.347-.66-.69-1-1.03a3.865,3.865,0,0,0-1.1-.841c-.823-.385-1.824-.715-2.7-1.028L306.9,282.5c-1.43-.519-2.379-.9-2.379-.9s1.017.116,2.515.413c.748.15,1.617.35,2.538.6a19.275,19.275,0,0,1,2.894,1,4.714,4.714,0,0,1,1.273,1.01c.362.367.677.754.984,1.123.605.745,1.129,1.468,1.558,2.1.853,1.268,1.343,2.166,1.343,2.166" transform="translate(628.445 30227.15)" fill="#dd6747"/>
    <path id="Trazado_215463" data-name="Trazado 215463" d="M314.323,292.981s-.651-.629-1.592-1.583l-1.592-1.632-.906-.887a6.88,6.88,0,0,0-.985-.8c-.68-.444-1.5-.859-2.225-1.241L305,285.789c-1.187-.627-1.973-1.073-1.973-1.073s.884.19,2.17.607c.641.21,1.382.479,2.162.811a16.6,16.6,0,0,1,2.409,1.228,7.977,7.977,0,0,1,1.063.9c.322.319.61.654.886.975.549.649,1.021,1.28,1.408,1.834.768,1.112,1.2,1.906,1.2,1.906" transform="translate(627.788 30228.516)" fill="#dd6747"/>
    <path id="Trazado_215464" data-name="Trazado 215464" d="M307.556,291.119l-1.164.608a18.582,18.582,0,0,0-2.382,1.381,4.532,4.532,0,0,0-1,.932,3.863,3.863,0,0,0-.318.515c-.056.187-.108.364-.155.528,0,.173-.017.338-.032.492a2.5,2.5,0,0,0,.052.393c.035.223.047.364.047.364s-.081-.1-.209-.3a2.313,2.313,0,0,1-.365-.946,3.758,3.758,0,0,1,.032-.716,2.874,2.874,0,0,1,.295-.744,3.972,3.972,0,0,1,1.138-1.225,7.219,7.219,0,0,1,2.733-1.143,6.6,6.6,0,0,1,1.329-.132" transform="translate(627.351 30231.322)" fill="#dd6747"/>
    <path id="Trazado_215465" data-name="Trazado 215465" d="M303.885,292.794s-.01-.168-.058-.454a8.154,8.154,0,0,0-.236-1.021,5.033,5.033,0,0,0-.408-.979,2.929,2.929,0,0,0-.278-.41,2.93,2.93,0,0,1,.434.268,5.394,5.394,0,0,1,.841.782,9.172,9.172,0,0,1,.709.925c.177.26.288.466.288.466Z" transform="translate(627.737 30230.801)" fill="#dd6747"/>
    <path id="Trazado_215466" data-name="Trazado 215466" d="M284.164,312.809s-1.461,2.163-3.869,5.248c-1.221,1.526-2.622,3.331-4.23,5.175s-3.344,3.793-5.119,5.708c-1.815,1.877-3.672,3.713-5.458,5.39s-3.555,3.128-5.067,4.372l-2.131,1.615c-.627.489-1.224.849-1.69,1.179l-1.493.989,1.391-1.129c.439-.362,1-.762,1.589-1.3l2.015-1.737c1.458-1.294,3.105-2.859,4.86-4.548s3.567-3.549,5.346-5.442c1.795-1.878,3.568-3.78,5.183-5.6s3.147-3.509,4.422-4.986l4.25-4.933" transform="translate(606.791 30240.826)" fill="#dd6747"/>
    <path id="Trazado_215467" data-name="Trazado 215467" d="M381.24,312.809l4.25,4.933c1.276,1.477,2.8,3.171,4.422,4.986s3.39,3.726,5.185,5.6c1.779,1.893,3.6,3.749,5.344,5.442s3.4,3.253,4.86,4.548l2.015,1.737c.587.535,1.151.935,1.589,1.3l1.392,1.129L408.8,341.5c-.466-.331-1.063-.69-1.69-1.179l-2.131-1.615c-1.512-1.244-3.282-2.7-5.067-4.372s-3.643-3.514-5.458-5.39c-1.775-1.916-3.525-3.852-5.119-5.708s-3.009-3.649-4.23-5.175c-2.408-3.085-3.869-5.248-3.869-5.248" transform="translate(662.064 30240.826)" fill="#dd6747"/>
    <rect id="Rectángulo_50295" data-name="Rectángulo 50295" width="610" height="576.841" transform="translate(495 30103.75)" fill="none"/>
    <rect id="Rectángulo_50296" data-name="Rectángulo 50296" width="610" height="576.841" transform="translate(495 30103.75)" fill="none"/>
    <g id="Grupo_155467" data-name="Grupo 155467" transform="translate(201 -12)">
      <rect id="Rectángulo_50297" data-name="Rectángulo 50297" width="50" height="50" transform="translate(294 30116)" fill="#ff9d00"/>
      <text id="_1." data-name="1." transform="translate(307 30150)" fill="#12263f" font-size="27" font-family="Roboto-Black, Roboto" font-weight="800"><tspan x="0" y="0">1.</tspan></text>
    </g>
    <g id="Grupo_156433" data-name="Grupo 156433" transform="translate(201 301)">
      <rect id="Rectángulo_50297-2" data-name="Rectángulo 50297" width="50" height="50" transform="translate(294 30116)" fill="#ff9d00"/>
      <text id="_3." data-name="3." transform="translate(307 30150)" fill="#12263f" font-size="27" font-family="Roboto-Black, Roboto" font-weight="800"><tspan x="0" y="0">3.</tspan></text>
    </g>
    <g id="Grupo_155468" data-name="Grupo 155468" transform="translate(540 -12)">
      <rect id="Rectángulo_50297-3" data-name="Rectángulo 50297" width="50" height="50" transform="translate(294 30116)" fill="#ff9d00"/>
      <text id="_2." data-name="2." transform="translate(307 30150)" fill="#12263f" font-size="27" font-family="Roboto-Black, Roboto" font-weight="800"><tspan x="0" y="0">2.</tspan></text>
    </g>
    <g id="Grupo_156432" data-name="Grupo 156432" transform="translate(540 301)">
      <rect id="Rectángulo_50297-4" data-name="Rectángulo 50297" width="50" height="50" transform="translate(294 30116)" fill="#ff9d00"/>
      <text id="_4." data-name="4." transform="translate(307 30150)" fill="#12263f" font-size="27" font-family="Roboto-Black, Roboto" font-weight="800"><tspan x="0" y="0">4.</tspan></text>
    </g>
  </g>
</svg>
