<svg xmlns="http://www.w3.org/2000/svg" xmlns:xlink="http://www.w3.org/1999/xlink" width="295" height="196" viewBox="0 0 295 196">
  <defs>
    <clipPath id="clip-path">
      <rect id="Rect치ngulo_50369" data-name="Rect치ngulo 50369" width="210.107" height="191.231" fill="none"/>
    </clipPath>
  </defs>
  <g id="Grupo_156435" data-name="Grupo 156435" transform="translate(-285 -1771)">
    <rect id="Rect치ngulo_50335" data-name="Rect치ngulo 50335" width="295" height="196" transform="translate(285 1771)" fill="#d7e8fd"/>
    <g id="Grupo_155635" data-name="Grupo 155635" transform="translate(28.451 107.914)">
      <g id="Grupo_155634" data-name="Grupo 155634" transform="translate(298.549 1667.785)">
        <path id="Trazado_215469" data-name="Trazado 215469" d="M352.293,293.134l29.832,53.922,20.82.453h13.894L383.03,285.5Z" transform="translate(-192.839 -156.278)" fill="#323833"/>
        <g id="Grupo_155633" data-name="Grupo 155633">
          <g id="Grupo_155632" data-name="Grupo 155632" clip-path="url(#clip-path)">
            <path id="Trazado_215470" data-name="Trazado 215470" d="M191.049,149.708H74.261a7.4,7.4,0,0,1-7.383-7.382V49.905A17.493,17.493,0,0,1,84.32,32.464h96.315a17.85,17.85,0,0,1,17.8,17.8v92.065a7.4,7.4,0,0,1-7.382,7.382" transform="translate(-36.608 -17.77)" fill="#323833"/>
            <path id="Trazado_215471" data-name="Trazado 215471" d="M202.617,28.865h-84a3.68,3.68,0,0,1-3.669-3.669V19.638a3.68,3.68,0,0,1,3.669-3.669h84a3.68,3.68,0,0,1,3.669,3.669V25.2a3.68,3.68,0,0,1-3.669,3.669" transform="translate(-62.92 -8.741)" fill="#f25333"/>
            <path id="Trazado_215472" data-name="Trazado 215472" d="M134.014,17.568h0a1.816,1.816,0,0,1-1.81-1.81V3.31a1.81,1.81,0,1,1,3.621,0V15.757a1.816,1.816,0,0,1-1.81,1.81" transform="translate(-72.366 -0.821)" fill="#fff9f3"/>
            <path id="Trazado_215473" data-name="Trazado 215473" d="M181.514,16.568h0a1.816,1.816,0,0,1-1.81-1.81V2.31a1.81,1.81,0,1,1,3.621,0V14.757a1.816,1.816,0,0,1-1.81,1.81" transform="translate(-98.367 -0.274)" fill="#fff9f3"/>
            <path id="Trazado_215474" data-name="Trazado 215474" d="M279.014,16.068h0a1.816,1.816,0,0,1-1.81-1.81V1.81a1.81,1.81,0,0,1,3.621,0V14.257a1.816,1.816,0,0,1-1.81,1.81" transform="translate(-151.737)" fill="#fff9f3"/>
            <path id="Trazado_215475" data-name="Trazado 215475" d="M191.486,157.284h-91.11A10.394,10.394,0,0,1,90.013,146.92v-77.5a10.394,10.394,0,0,1,10.364-10.364h91.11A10.394,10.394,0,0,1,201.85,69.422v77.5a10.394,10.394,0,0,1-10.364,10.364" transform="translate(-49.272 -32.327)" fill="#d8d1cb"/>
            <path id="Trazado_215476" data-name="Trazado 215476" d="M185.789,153.544H97.038a10.054,10.054,0,0,1-10.025-10.025V69.1A10.054,10.054,0,0,1,97.038,59.073h88.751A10.054,10.054,0,0,1,195.814,69.1v74.421a10.054,10.054,0,0,1-10.025,10.025" transform="translate(-47.629 -32.336)" fill="#fff9f3"/>
            <path id="Trazado_215477" data-name="Trazado 215477" d="M230.514,16.068h0a1.816,1.816,0,0,1-1.81-1.81V1.81a1.81,1.81,0,0,1,3.621,0V14.257a1.816,1.816,0,0,1-1.81,1.81" transform="translate(-125.189)" fill="#fff9f3"/>
            <path id="Trazado_215478" data-name="Trazado 215478" d="M130.455,114.926H117.41a2,2,0,0,1-1.995-1.995V99.495A2,2,0,0,1,117.41,97.5h13.045a2,2,0,0,1,1.995,1.995v13.436a2,2,0,0,1-1.995,1.995" transform="translate(-63.176 -53.37)" fill="#f47b67"/>
            <path id="Trazado_215479" data-name="Trazado 215479" d="M181.5,114.926H168.454a2,2,0,0,1-2-1.995V99.495a2,2,0,0,1,2-1.995H181.5a2,2,0,0,1,1.994,1.995v13.436a2,2,0,0,1-1.994,1.995" transform="translate(-91.117 -53.37)" fill="#94f2f2"/>
            <path id="Trazado_215480" data-name="Trazado 215480" d="M229.516,114.926H216.471a2,2,0,0,1-1.995-1.995V99.495a2,2,0,0,1,1.995-1.995h13.045a2,2,0,0,1,1.995,1.995v13.436a2,2,0,0,1-1.995,1.995" transform="translate(-117.401 -53.37)" fill="#94f2f2"/>
            <path id="Trazado_215481" data-name="Trazado 215481" d="M278.4,114.926H265.353a2,2,0,0,1-1.995-1.995V99.495a2,2,0,0,1,1.995-1.995H278.4a2,2,0,0,1,1.995,1.995v13.436a2,2,0,0,1-1.995,1.995" transform="translate(-144.158 -53.37)" fill="#94f2f2"/>
            <path id="Trazado_215482" data-name="Trazado 215482" d="M130.455,168.426H117.41a2,2,0,0,1-1.995-1.995V152.995A2,2,0,0,1,117.41,151h13.045a2,2,0,0,1,1.995,1.995v13.436a2,2,0,0,1-1.995,1.995" transform="translate(-63.176 -82.655)" fill="#f47b67"/>
            <path id="Trazado_215483" data-name="Trazado 215483" d="M181.5,168.426H168.454a2,2,0,0,1-2-1.995V152.995a2,2,0,0,1,2-1.995H181.5a2,2,0,0,1,1.994,1.995v13.436a2,2,0,0,1-1.994,1.995" transform="translate(-91.117 -82.655)" fill="#d8d1cb"/>
            <path id="Trazado_215484" data-name="Trazado 215484" d="M229.516,168.426H216.471a2,2,0,0,1-1.995-1.995V152.995A2,2,0,0,1,216.471,151h13.045a2,2,0,0,1,1.995,1.995v13.436a2,2,0,0,1-1.995,1.995" transform="translate(-117.401 -82.655)" fill="#d8d1cb"/>
            <path id="Trazado_215485" data-name="Trazado 215485" d="M278.4,168.426H265.353a2,2,0,0,1-1.995-1.995V152.995A2,2,0,0,1,265.353,151H278.4a2,2,0,0,1,1.995,1.995v13.436a2,2,0,0,1-1.995,1.995" transform="translate(-144.158 -82.655)" fill="#d8d1cb"/>
            <path id="Trazado_215486" data-name="Trazado 215486" d="M128.455,225.426H115.41a2,2,0,0,1-1.995-1.995V209.995A2,2,0,0,1,115.41,208h13.045a2,2,0,0,1,1.995,1.995v13.436a2,2,0,0,1-1.995,1.995" transform="translate(-62.081 -113.856)" fill="#f47b67"/>
            <path id="Trazado_215487" data-name="Trazado 215487" d="M179.5,225.426H166.454a2,2,0,0,1-2-1.995V209.995a2,2,0,0,1,2-1.995H179.5a2,2,0,0,1,1.994,1.995v13.436a2,2,0,0,1-1.994,1.995" transform="translate(-90.022 -113.856)" fill="#d8d1cb"/>
            <path id="Trazado_215488" data-name="Trazado 215488" d="M227.516,225.426H214.471a2,2,0,0,1-1.995-1.995V209.995A2,2,0,0,1,214.471,208h13.045a2,2,0,0,1,1.995,1.995v13.436a2,2,0,0,1-1.995,1.995" transform="translate(-116.306 -113.856)" fill="#d8d1cb"/>
            <path id="Trazado_215489" data-name="Trazado 215489" d="M276.4,225.426H263.353a2,2,0,0,1-1.995-1.995V209.995A2,2,0,0,1,263.353,208H276.4a2,2,0,0,1,1.995,1.995v13.436a2,2,0,0,1-1.995,1.995" transform="translate(-143.063 -113.856)" fill="#d8d1cb"/>
            <path id="Trazado_215490" data-name="Trazado 215490" d="M225.214,170.753a.91.91,0,0,1-.167-.015.935.935,0,0,1-.677-.526l-2.1-4.5a.955.955,0,0,1,.444-1.262.927.927,0,0,1,1.243.451l1.543,3.307,6.3-6.189a.923.923,0,0,1,1.32.022.958.958,0,0,1-.022,1.34l-7.235,7.107a.924.924,0,0,1-.649.267" transform="translate(-121.617 -88.539)" fill="#323833"/>
            <path id="Trazado_215491" data-name="Trazado 215491" d="M273.214,227.753a.909.909,0,0,1-.167-.015.935.935,0,0,1-.677-.526l-2.1-4.5a.955.955,0,0,1,.444-1.262.927.927,0,0,1,1.243.451l1.543,3.307,6.3-6.189a.923.923,0,0,1,1.32.022.958.958,0,0,1-.022,1.34l-7.235,7.107a.924.924,0,0,1-.649.267" transform="translate(-147.892 -119.74)" fill="#323833"/>
            <path id="Trazado_215492" data-name="Trazado 215492" d="M124.214,227.253a.91.91,0,0,1-.167-.015.935.935,0,0,1-.677-.526l-2.1-4.5a.955.955,0,0,1,.444-1.262.927.927,0,0,1,1.243.451l1.543,3.307,6.3-6.189a.923.923,0,0,1,1.32.022.958.958,0,0,1-.022,1.34l-7.235,7.107a.924.924,0,0,1-.649.267" transform="translate(-66.332 -119.466)" fill="#323833"/>
            <path id="Trazado_215493" data-name="Trazado 215493" d="M297.867,178.872c.792.148,18.623,15.112,43.41,19.582l-18.8-32.7Z" transform="translate(-163.047 -90.729)" fill="#db8f5e"/>
            <path id="Trazado_215494" data-name="Trazado 215494" d="M342.1,172.736l-13.5-15.118a15.989,15.989,0,0,0-2.685-2.078,8.068,8.068,0,0,0-5.5-1.078L295.316,158.5l11.2,8.119L318.935,164s1.68-.333,3.308,3.016l4.973,8.509a8.023,8.023,0,0,1-.88,9.366,6.384,6.384,0,0,1-1.405,1.206l16.059,7.341,2.83-11.223s1.717-5.569-1.716-9.485" transform="translate(-161.651 -84.493)" fill="#f8bc97"/>
            <path id="Trazado_215495" data-name="Trazado 215495" d="M279.254,160.908s-10.617-1.262-10.853-.831,7.469,8.731,7.469,8.731l2.55-3.252Z" transform="translate(-146.915 -87.574)" fill="#252a26"/>
            <path id="Trazado_215496" data-name="Trazado 215496" d="M288.1,161.966l46.208,19.966-3.338,7.683-46.227-19.737s-.429-1.267.724-1.5c0,0-.7-1.109.722-1.53,0,0-.659-1.059.707-1.777a.955.955,0,0,1,.543-1.48s-.58-.751.66-1.625" transform="translate(-155.822 -88.657)" fill="#252a26"/>
            <path id="Trazado_215497" data-name="Trazado 215497" d="M314.854,194.665a29.967,29.967,0,0,1-7-8.69l-4.409-8.574a5.507,5.507,0,0,0-4.914-2.6,2.277,2.277,0,0,0-.452.076,6.928,6.928,0,0,0-4.762,4.216,2.308,2.308,0,0,0-.1,1.04,15.411,15.411,0,0,0,1.989,5.056l11.786,23.431a49.456,49.456,0,0,0,6.557,9.05c.051.05.1.1.146.158a40.484,40.484,0,0,0,4.625,4.775,2.319,2.319,0,0,1,.633.726l1.924,3.455a.122.122,0,0,0,.165.047l18.43-10.193-1.123-2.032a2.32,2.32,0,0,1-.24-1.6l1.762-8.364-14.936-6.825c-.343-.157-.77-.369-1.115-.521-.309-.135-1.855,3.082-8.96-2.622" transform="translate(-160.489 -95.675)" fill="#f8bc97"/>
            <path id="Trazado_215498" data-name="Trazado 215498" d="M393.693,207.461l-6.479-2.766-3.3,7.719,6.479,2.766a4.216,4.216,0,1,0,3.3-7.719" transform="translate(-210.15 -112.047)" fill="#252a26"/>
            <path id="Trazado_215499" data-name="Trazado 215499" d="M376.563,272.911,349.487,287.85a3.641,3.641,0,0,1-4.932-1.425l-4.672-8.468a3.641,3.641,0,0,1,1.425-4.933l27.076-14.939a3.641,3.641,0,0,1,4.932,1.425l4.672,8.468a3.641,3.641,0,0,1-1.425,4.933" transform="translate(-185.8 -141.026)" fill="#fff"/>
            <path id="Trazado_215500" data-name="Trazado 215500" d="M272.579,160.3s-4.042-.491-4.131-.253c-.11.3,2.58,3.225,2.58,3.225Z" transform="translate(-146.942 -87.574)" fill="#282928"/>
            <path id="Trazado_215501" data-name="Trazado 215501" d="M366.589,211.817h0a1.135,1.135,0,0,1-1.483.6L348.012,205.2a1.132,1.132,0,0,1,.881-2.085l17.094,7.223a1.135,1.135,0,0,1,.6,1.483" transform="translate(-190.118 -111.131)" fill="#fbf8ec"/>
            <path id="Trazado_215502" data-name="Trazado 215502" d="M198.65,78.493H121.705a2.489,2.489,0,1,1,0-4.979H198.65a2.489,2.489,0,0,1,0,4.979" transform="translate(-65.257 -40.24)" fill="#94f2f2"/>
            <path id="Trazado_215503" data-name="Trazado 215503" d="M45.593,113.552V77.544H0v45.593H27.651c5.894-3.357,11.854-6.592,17.942-9.585" transform="translate(0 -42.446)" fill="#f93"/>
            <path id="Trazado_215504" data-name="Trazado 215504" d="M78.989,157.194h-18.1v9.65c6.136-3.026,12.152-6.278,18.1-9.65" transform="translate(-33.327 -86.045)" fill="#ff7900"/>
            <path id="Trazado_215505" data-name="Trazado 215505" d="M47.539,128.872H15.985a.771.771,0,0,1-.769-.769v-.168a.771.771,0,0,1,.769-.769H47.539a.771.771,0,0,1,.769.769v.168a.771.771,0,0,1-.769.769" transform="translate(-8.329 -69.609)" fill="#3b3b38"/>
            <path id="Trazado_215506" data-name="Trazado 215506" d="M47.922,136.881H16.368a.771.771,0,0,1-.769-.769v-.168a.771.771,0,0,1,.769-.769H47.922a.771.771,0,0,1,.769.769v.168a.771.771,0,0,1-.769.769" transform="translate(-8.539 -73.993)" fill="#3b3b38"/>
            <path id="Trazado_215507" data-name="Trazado 215507" d="M29.63,145.169H15.756a.542.542,0,0,1-.54-.54v-.784a.542.542,0,0,1,.54-.54H29.63a.542.542,0,0,1,.54.54v.784a.542.542,0,0,1-.54.54" transform="translate(-8.329 -78.442)" fill="#3b3b38"/>
            <path id="Trazado_215508" data-name="Trazado 215508" d="M48.039,99.872H16.485a.771.771,0,0,1-.769-.769v-.168a.771.771,0,0,1,.769-.769H48.039a.771.771,0,0,1,.769.769V99.1a.771.771,0,0,1-.769.769" transform="translate(-8.603 -53.734)" fill="#3b3b38"/>
            <path id="Trazado_215509" data-name="Trazado 215509" d="M48.422,107.881H16.868a.771.771,0,0,1-.769-.769v-.168a.771.771,0,0,1,.769-.769H48.422a.771.771,0,0,1,.769.769v.168a.771.771,0,0,1-.769.769" transform="translate(-8.812 -58.118)" fill="#3b3b38"/>
            <path id="Trazado_215510" data-name="Trazado 215510" d="M30.13,116.169H16.256a.542.542,0,0,1-.54-.54v-.784a.542.542,0,0,1,.54-.54H30.13a.542.542,0,0,1,.54.54v.784a.542.542,0,0,1-.54.54" transform="translate(-8.603 -62.568)" fill="#3b3b38"/>
            <path id="Trazado_215511" data-name="Trazado 215511" d="M311.144,85.387V51.044h43.484V94.528H328.256c-5.621-3.2-11.305-6.288-17.112-9.142" transform="translate(-170.315 -27.941)" fill="#e7ff3b"/>
            <path id="Trazado_215512" data-name="Trazado 215512" d="M311,127.01h17.266v9.2c-5.851-2.886-11.589-5.988-17.266-9.2" transform="translate(-170.236 -69.523)" fill="#cbd827"/>
            <path id="Trazado_215513" data-name="Trazado 215513" d="M323.706,100H353.8a.735.735,0,0,0,.733-.733V99.1a.735.735,0,0,0-.733-.734H323.706a.736.736,0,0,0-.733.734v.16a.735.735,0,0,0,.733.733" transform="translate(-176.79 -53.846)" fill="#3b3b38"/>
            <path id="Trazado_215514" data-name="Trazado 215514" d="M323.341,107.636h30.095a.736.736,0,0,0,.734-.733v-.161a.735.735,0,0,0-.733-.733H323.341a.735.735,0,0,0-.733.733v.161a.735.735,0,0,0,.733.733" transform="translate(-176.59 -58.028)" fill="#3b3b38"/>
            <path id="Trazado_215515" data-name="Trazado 215515" d="M361.708,115.541H374.94a.517.517,0,0,0,.515-.516v-.748a.517.517,0,0,0-.515-.516H361.708a.517.517,0,0,0-.516.516v.748a.517.517,0,0,0,.516.516" transform="translate(-197.711 -62.271)" fill="#3b3b38"/>
            <path id="Trazado_215516" data-name="Trazado 215516" d="M323.229,72.339h30.095a.735.735,0,0,0,.733-.733v-.161a.735.735,0,0,0-.733-.733H323.229a.735.735,0,0,0-.733.733v.161a.735.735,0,0,0,.733.733" transform="translate(-176.529 -38.707)" fill="#3b3b38"/>
            <path id="Trazado_215517" data-name="Trazado 215517" d="M322.864,79.977h30.095a.735.735,0,0,0,.734-.733v-.161a.735.735,0,0,0-.733-.733H322.864a.735.735,0,0,0-.733.733v.161a.735.735,0,0,0,.733.733" transform="translate(-176.329 -42.887)" fill="#3b3b38"/>
            <path id="Trazado_215518" data-name="Trazado 215518" d="M361.232,87.882h13.232a.517.517,0,0,0,.515-.516v-.748a.517.517,0,0,0-.515-.516H361.232a.517.517,0,0,0-.516.516v.748a.517.517,0,0,0,.516.516" transform="translate(-197.45 -47.131)" fill="#3b3b38"/>
            <path id="Trazado_215519" data-name="Trazado 215519" d="M88.484,278.387V244.044H45v43.484H71.372c5.622-3.2,11.305-6.287,17.112-9.141" transform="translate(-24.632 -133.586)" fill="#f964f9"/>
            <path id="Trazado_215520" data-name="Trazado 215520" d="M120.335,320.01H103.069v9.2c5.852-2.886,11.589-5.988,17.266-9.2" transform="translate(-56.418 -175.168)" fill="#d04cd3"/>
            <path id="Trazado_215521" data-name="Trazado 215521" d="M90.34,293H60.246a.735.735,0,0,1-.734-.733V292.1a.735.735,0,0,1,.734-.733H90.34a.735.735,0,0,1,.733.733v.161a.735.735,0,0,1-.733.733" transform="translate(-32.576 -159.491)" fill="#3b3b38"/>
            <path id="Trazado_215522" data-name="Trazado 215522" d="M90.705,300.636H60.611a.735.735,0,0,1-.734-.733v-.161a.735.735,0,0,1,.733-.733H90.705a.735.735,0,0,1,.733.733v.161a.735.735,0,0,1-.733.733" transform="translate(-32.776 -163.673)" fill="#3b3b38"/>
            <path id="Trazado_215523" data-name="Trazado 215523" d="M73.26,308.541H60.028a.517.517,0,0,1-.515-.516v-.748a.517.517,0,0,1,.515-.516H73.26a.517.517,0,0,1,.516.516v.748a.517.517,0,0,1-.516.516" transform="translate(-32.576 -167.916)" fill="#3b3b38"/>
            <path id="Trazado_215524" data-name="Trazado 215524" d="M90.817,265.339H60.722a.735.735,0,0,1-.733-.733v-.161a.735.735,0,0,1,.733-.733H90.817a.735.735,0,0,1,.733.734v.16a.735.735,0,0,1-.733.733" transform="translate(-32.837 -144.352)" fill="#3b3b38"/>
            <path id="Trazado_215525" data-name="Trazado 215525" d="M91.182,272.977H61.088a.735.735,0,0,1-.734-.733v-.161a.735.735,0,0,1,.733-.733H91.182a.735.735,0,0,1,.733.733v.161a.735.735,0,0,1-.733.733" transform="translate(-33.037 -148.532)" fill="#3b3b38"/>
            <path id="Trazado_215526" data-name="Trazado 215526" d="M73.737,280.882H60.505a.517.517,0,0,1-.515-.516v-.748a.517.517,0,0,1,.515-.516H73.737a.517.517,0,0,1,.516.516v.748a.517.517,0,0,1-.516.516" transform="translate(-32.838 -152.776)" fill="#3b3b38"/>
            <path id="Trazado_215527" data-name="Trazado 215527" d="M256.83,290.639V263.647H222.653v34.177h20.728c4.418-2.517,8.886-4.942,13.45-7.185" transform="translate(-121.877 -144.316)" fill="#94f2f2"/>
            <path id="Trazado_215528" data-name="Trazado 215528" d="M281.864,323.354H268.293v7.234c4.6-2.269,9.109-4.706,13.571-7.234" transform="translate(-146.859 -176.999)" fill="#65d1ce"/>
            <path id="Trazado_215529" data-name="Trazado 215529" d="M258.289,302.123H234.635a.578.578,0,0,1-.576-.576v-.126a.578.578,0,0,1,.576-.576h23.654a.578.578,0,0,1,.576.576v.126a.578.578,0,0,1-.576.576" transform="translate(-128.12 -164.677)" fill="#3b3b38"/>
            <path id="Trazado_215530" data-name="Trazado 215530" d="M258.576,308.127H234.922a.578.578,0,0,1-.576-.576v-.126a.578.578,0,0,1,.576-.576h23.654a.578.578,0,0,1,.576.576v.126a.578.578,0,0,1-.576.576" transform="translate(-128.277 -167.963)" fill="#3b3b38"/>
            <path id="Trazado_215531" data-name="Trazado 215531" d="M244.864,314.339h-10.4a.406.406,0,0,1-.405-.405v-.588a.406.406,0,0,1,.405-.405h10.4a.406.406,0,0,1,.405.405v.588a.406.406,0,0,1-.405.405" transform="translate(-128.12 -171.299)" fill="#3b3b38"/>
            <path id="Trazado_215532" data-name="Trazado 215532" d="M258.664,280.384H235.01a.578.578,0,0,1-.576-.576v-.126a.578.578,0,0,1,.576-.576h23.654a.578.578,0,0,1,.576.576v.126a.578.578,0,0,1-.576.576" transform="translate(-128.325 -152.777)" fill="#3b3b38"/>
            <path id="Trazado_215533" data-name="Trazado 215533" d="M258.951,286.388H235.3a.578.578,0,0,1-.576-.576v-.126a.578.578,0,0,1,.576-.576h23.654a.578.578,0,0,1,.576.576v.126a.578.578,0,0,1-.576.576" transform="translate(-128.482 -156.064)" fill="#3b3b38"/>
            <path id="Trazado_215534" data-name="Trazado 215534" d="M245.239,292.6h-10.4a.406.406,0,0,1-.405-.405v-.588a.406.406,0,0,1,.405-.405h10.4a.406.406,0,0,1,.405.405v.588a.406.406,0,0,1-.405.405" transform="translate(-128.325 -159.399)" fill="#3b3b38"/>
            <path id="Trazado_215535" data-name="Trazado 215535" d="M126.533,146.245l4.107-2.159-.784,4.574,3.323,3.239-4.592.667-2.054,4.161-2.054-4.161-4.592-.667,3.323-3.239-.785-4.574Z" transform="translate(-65.624 -78.87)" fill="#f7cb2d"/>
            <path id="Trazado_215536" data-name="Trazado 215536" d="M176.533,203.745l4.107-2.159-.784,4.574,3.323,3.239-4.592.668-2.054,4.161-2.054-4.161-4.592-.668,3.323-3.239-.785-4.574Z" transform="translate(-92.994 -110.344)" fill="#f7cb2d"/>
            <path id="Trazado_215537" data-name="Trazado 215537" d="M226.533,91.745l4.108-2.159-.784,4.574,3.323,3.239-4.592.667-2.054,4.161-2.054-4.161-4.592-.667,3.323-3.239-.785-4.574Z" transform="translate(-120.363 -49.038)" fill="#f7cb2d"/>
            <path id="Trazado_215538" data-name="Trazado 215538" d="M45.2,76.9H24.158a2.942,2.942,0,0,1,0-5.884H45.2a2.942,2.942,0,0,1,0,5.884" transform="translate(-11.613 -38.872)" fill="#fcdec3"/>
            <path id="Trazado_215539" data-name="Trazado 215539" d="M90.2,245.4H69.158a2.942,2.942,0,1,1,0-5.884H90.2a2.942,2.942,0,1,1,0,5.884" transform="translate(-36.246 -131.106)" fill="#fcdec3"/>
            <path id="Trazado_215540" data-name="Trazado 215540" d="M355.2,48.9H334.158a2.942,2.942,0,1,1,0-5.884H355.2a2.942,2.942,0,1,1,0,5.884" transform="translate(-181.302 -23.545)" fill="#fcdec3"/>
            <path id="Trazado_215541" data-name="Trazado 215541" d="M56.931,29.608,58.289,27.3l1.21,2.388,2.308,1.358-2.388,1.21L58.06,34.566l-1.21-2.388-2.308-1.358Z" transform="translate(-29.855 -14.944)" fill="#fff9f3"/>
            <path id="Trazado_215542" data-name="Trazado 215542" d="M40.442,199.934l1.358-2.308,1.21,2.388,2.308,1.358-2.388,1.21-1.358,2.308-1.21-2.388-2.308-1.358Z" transform="translate(-20.83 -108.177)" fill="#fff9f3"/>
            <path id="Trazado_215543" data-name="Trazado 215543" d="M6.264,250.942l1.358-2.308,1.211,2.388,2.308,1.358-2.389,1.21L7.394,255.9l-1.21-2.388-2.308-1.358Z" transform="translate(-2.121 -136.098)" fill="#fff9f3"/>
            <path id="Trazado_215544" data-name="Trazado 215544" d="M301.776,347.934l1.358-2.308,1.211,2.388,2.308,1.358-2.388,1.21-1.358,2.308L301.7,350.5l-2.308-1.358Z" transform="translate(-163.88 -189.19)" fill="#fff9f3"/>
            <path id="Trazado_215545" data-name="Trazado 215545" d="M410.442,166.6l1.358-2.308,1.211,2.388,2.308,1.358-2.388,1.21-1.358,2.308-1.21-2.388-2.308-1.358Z" transform="translate(-223.362 -89.931)" fill="#fff9f3"/>
            <path id="Trazado_215546" data-name="Trazado 215546" d="M14.359,218.336a.6.6,0,1,1-.6-.6.6.6,0,0,1,.6.6" transform="translate(-7.199 -119.183)" fill="#fff9f3"/>
            <path id="Trazado_215547" data-name="Trazado 215547" d="M41.629,227.305a.905.905,0,1,1-.905-.905.9.9,0,0,1,.905.905" transform="translate(-21.796 -123.928)" fill="#fff9f3"/>
            <path id="Trazado_215548" data-name="Trazado 215548" d="M38.234,46.94a1.207,1.207,0,1,1-1.207-1.207,1.207,1.207,0,0,1,1.207,1.207" transform="translate(-19.607 -25.033)" fill="#fff9f3"/>
            <path id="Trazado_215549" data-name="Trazado 215549" d="M390.963,165.305a.905.905,0,1,1-.905-.905.905.905,0,0,1,.905.905" transform="translate(-213.016 -89.99)" fill="#fff9f3"/>
            <path id="Trazado_215550" data-name="Trazado 215550" d="M330.774,325.543a1.81,1.81,0,1,1-1.81-1.81,1.811,1.811,0,0,1,1.81,1.81" transform="translate(-179.078 -177.206)" fill="#fff9f3"/>
            <path id="Trazado_215551" data-name="Trazado 215551" d="M285.567,354.94a1.207,1.207,0,1,1-1.207-1.207,1.207,1.207,0,0,1,1.207,1.207" transform="translate(-154.993 -193.628)" fill="#fff9f3"/>
            <path id="Trazado_215552" data-name="Trazado 215552" d="M204.662,334.487a.754.754,0,1,1-.755-.755.755.755,0,0,1,.755.755" transform="translate(-111.203 -182.68)" fill="#fff9f3"/>
            <path id="Trazado_215553" data-name="Trazado 215553" d="M165.329,303.154a.754.754,0,1,1-.755-.755.754.754,0,0,1,.755.755" transform="translate(-89.672 -165.528)" fill="#fff9f3"/>
            <path id="Trazado_215554" data-name="Trazado 215554" d="M366.535,11.758a1.358,1.358,0,1,1-1.358-1.358,1.358,1.358,0,0,1,1.358,1.358" transform="translate(-199.148 -5.693)" fill="#fff9f3"/>
            <path id="Trazado_215555" data-name="Trazado 215555" d="M418.662,80.488a.754.754,0,1,1-.755-.755.755.755,0,0,1,.755.755" transform="translate(-228.343 -43.645)" fill="#fff9f3"/>
            <path id="Trazado_215556" data-name="Trazado 215556" d="M340.662,17.821a.754.754,0,1,1-.754-.755.754.754,0,0,1,.754.755" transform="translate(-185.647 -9.342)" fill="#fff9f3"/>
          </g>
        </g>
      </g>
    </g>
  </g>
</svg>
