<svg xmlns="http://www.w3.org/2000/svg" xmlns:xlink="http://www.w3.org/1999/xlink" width="660" height="350" viewBox="0 0 660 350">
  <defs>
    <clipPath id="clip-path">
      <rect id="Rectángulo_47950" data-name="Rectángulo 47950" width="299.353" height="329.176" fill="none"/>
    </clipPath>
  </defs>
  <g id="Grupo_156436" data-name="Grupo 156436" transform="translate(-705 -5311)">
    <rect id="Imagen_55" data-name="Imagen 55" width="660" height="350" rx="19" transform="translate(705 5311)" fill="#644bb5"/>
    <g id="Grupo_149558" data-name="Grupo 149558" transform="translate(34.335 -0.412)">
      <g id="Grupo_149557" data-name="Grupo 149557" transform="translate(850.665 5321.412)">
        <g id="Grupo_149556" data-name="Grupo 149556" clip-path="url(#clip-path)">
          <path id="Trazado_206139" data-name="Trazado 206139" d="M300.77,256.617A170.82,170.82,0,0,1,107.8,324.533a398.84,398.84,0,0,1-1.1-87.465c-10.743.658-20.315-.933-27.343-5.621-11.7-2.728-20.767-12.808-21.929-25.966-1.492-16.892,10.6-32.455,27.013-34.759a28.432,28.432,0,0,1,12.283.929c17.381-6.3,40.89-10.81,68.379-12.893l-.065-.772c-.992.107-1.745.166-2.19.2-31.4-7.892-35.843-44.555-34.87-70.992a25.323,25.323,0,0,1-10.9-6.013C101.733,73.46,103.3,57.349,103.3,57.3l.835.068c0,.049-1.351,13.905,10.99,21.745-14.858-17.62-3.72-52.895,11.261-36.069,6.229-4.269,67.868-37.948,84.323-2.874.257-2.822.343-14.3-14.311-19.672l.286-.786c14.6,5.35,15.105,16.62,14.884,20.147,1.123-1.512,4.523-4.616,13.12-3.661l-.091.833c-9.221-1.026-12.033,2.7-12.613,3.7,22.545-3.452,15.255,26.006,10.349,43.521h0c.113.007.226.018.338.029l.076.008c.111.013.22.027.33.044l.077.011c.111.018.22.037.329.059l.072.015c.112.023.222.047.334.074l.039.01c.1.027.207.055.309.084l.064.018c.1.032.209.065.313.1l.077.027c.1.035.2.074.3.114l.076.03c.1.042.2.085.3.13l.062.03c.1.045.195.092.29.142l.031.015c.1.054.2.11.3.169l.056.032c.1.057.191.117.287.178l.06.04c.1.063.19.128.282.195l.053.039c.093.068.185.138.276.211l.043.036c.086.07.17.143.253.216l.035.032c.089.08.175.16.26.243l.051.053c.083.082.165.168.245.255l.049.055c.08.089.159.18.238.274l.039.048c.08.1.158.2.234.3l.005.007,0,.005c.076.1.151.212.226.321l.033.05c.07.1.137.211.2.32l.045.075c.065.108.128.218.188.33l.039.071q.092.176.18.356l.024.054c.055.118.11.239.163.361l.021.048c.054.128.106.259.155.391l.031.081q.072.2.138.4l.027.082q.067.208.127.423l.019.07q.059.217.112.441l.009.038c.034.152.067.305.1.462l.016.081c.029.154.056.313.081.473l.013.091c.025.161.047.324.066.49l0,.02.008.07V93.2l0,.007v.009l0,.016v.016h0l0,.006V93.3l0,.008v.008h0v.039l0,.008v.025h0c.01.1.019.2.027.3l0,.046,0,.02h0v.032l0,.008v.033h0v.04l0,.008v.081l0,.009V94l0,.055v.027l0,.048v0l0,.025v.066l0,.008v.067l0,.035v.017l0,.008h0v.121l0,.008v.07q.024.76-.014,1.58v.008q-.014.277-.034.559v.03l0,.009v.069l0,.01v.059l0,.009v.04l0,.01v.009c-.018.2-.036.389-.058.579v.009l-.018.152V97.7l0,.009c-.021.178-.044.356-.07.529l0,.009v.008l-.009.057v.017c-.025.158-.052.313-.08.467l0,.008v.016l-.024.126,0,.008v.009l0,.008c-.031.169-.065.336-.1.5l0,.008-.019.087,0,.008,0,.008v.008c-.034.148-.07.294-.107.439l0,.007v0l-.021.082v0c-.045.17-.091.335-.141.5h0l-.032.1,0,.007,0,.007q-.062.2-.128.4l0,.006,0,.008,0,.007-.024.07v0l0,.007q-.079.23-.164.453l0,.008v0l-.038.1h0l0,.007,0,.006c-.051.133-.1.264-.159.394l0,.006,0,.008-.018.042,0,.008c-.061.141-.125.282-.19.42l0,.006,0,.007-.042.088-.006.014c-.059.123-.12.243-.18.363l-.055.1c-.065.122-.13.243-.2.361l0,0-.045.078,0,.007,0,.006c-.072.125-.146.249-.221.371l0,.006,0,.006-.023.038,0,0,0,.005,0,.006c-.07.112-.141.221-.213.33h0l0,.006-.051.078,0,.005,0,.006c-.075.111-.151.221-.23.327l0,.006,0,.005,0,.006-.047.065,0,0,0,.005,0,.005c-.068.094-.139.186-.21.277l0,.005,0,.005,0,0h0l-.05.064,0,.005,0,.006c-.082.1-.167.206-.251.308l0,.005-.005.005-.055.065,0,0c-.08.1-.163.19-.246.281l0,0,0,.006,0,0-.025.029v0l-.006,0c-.09.1-.18.2-.272.29l-.005.005,0,.005-.005.005-.06.06-.005.005h0l-.008.008,0,0c-.086.087-.172.175-.259.259l-.005,0-.016.017-.006,0c-.091.088-.185.175-.278.259l-.005,0-.005.005,0,0-.08.072,0,0q-.142.126-.285.248l-.005,0-.005.005h0l-.044.037,0,0c-.089.075-.178.148-.269.219l0,0-.071.058-.005,0,0,0-.005,0c-.093.074-.185.145-.28.215l0,0-.005,0,0,0-.006,0-.035.027-.006,0c-.09.065-.179.13-.269.192l0,0-.005,0,0,0-.005,0-.072.051-.005,0,0,0,0,0c-.095.064-.188.128-.282.19l0,0-.006,0,0,0-.081.053-.005,0,0,0,0,0c-.084.055-.168.107-.253.161l0,0,0,0v0l-.063.039,0,0,0,0-.005,0c-.091.056-.183.111-.274.164l-.006,0,0,0-.005,0,0,0-.1.057-.006,0,0,0,0,0,0,0c-.075.044-.152.086-.227.128l0,0,0,0-.008.006-.09.049-.005,0,0,0-.005,0-.005,0-.271.144,0,0-.006,0,0,0-.093.048,0,0,0,0-.005,0,0,0,0,0,0,0,0,0,0,0,0,0,0,0c-.065.034-.132.067-.2.1l0,0,0,0,0,0,0,0-.005,0,0,0-.139.069-.215.1-.011.005-.132.06-.006,0,0,0,0,0-.005,0c-.085.037-.169.076-.253.112l0,0,0,0,0,0h0l-.11.047-.2.084-.013.005-.122.05-.008,0,0,0,0,0c-.082.032-.165.066-.246.1l0,0-.005,0h0l0,0h0l-.133.051-.175.066-.153.055h-.01l0,0,0,0h0l0,0H220.3l-.187.065,0,0-.007,0h0l-.008,0-.008,0-.163.055-.014.005-.091.031H219.8l-.005,0-.006,0-.005,0-.006,0h-.005l-.006,0-.011,0-.005,0-.177.057h-.005l-.006,0-.005,0h-.005l-.006,0-.005,0h-.005l-.006,0-.005,0h-.006l-.005,0-.006,0-.005,0H219.5l-.006,0h-.005l-.005,0-.006,0-.005,0-.005,0-.006,0-.075.023-.182.055-.006,0-.089.026-.005,0H219.1l-.006,0-.005,0h-.005l-.006,0-.005,0h-.005l0,0-.006,0-.006,0h-.005l0,0-.006,0-.005,0h-.006l-.177.05-.005,0h-.006l-.005,0h0l-.005,0h-.006l-.006,0,0,0-.005,0-.005,0H218.8l-.006,0-.005,0h-.005l-.065.018-.194.051,0,0-.008,0c-.971,5.387-2.616,17.438-2.828,37.983,3.24-1.136,5.2-1.668,5.2-1.668l11.764-3.188s9.606,7.094,16.915,20.91c0,0,6.4,1.032,5.088,7.618-.007.038-.016.076-.024.114,14.1,4.8,22.332,11.823,26.545,20.525,7.421,10.9,13.439,28.968,17.09,48.8.9,4.9,1.749,9.814,2.505,14.67" transform="translate(-9.211 -3.168)" fill="#3a3c6c" fill-rule="evenodd"/>
          <path id="Trazado_206140" data-name="Trazado 206140" d="M175.984,204.235l-7.78-38.587c-31.6-4.6-150.97,39.66-108.6,75.91,25.3,21.643,91.515-9.706,116.376-37.323" transform="translate(-8.135 -26.571)" fill="#f1f2ff" fill-rule="evenodd"/>
          <path id="Trazado_206141" data-name="Trazado 206141" d="M153.125,171.785l-44.689,20.829c-16.372,42.17-10.665,117.706-2.42,152.567a170.959,170.959,0,0,0,144.9-12.232c.821-64.255,59.915-139.148-10.186-157.143l-37.468-9.881s-26.455,16.139-50.139,5.861" transform="translate(-15.744 -26.669)" fill="#fff" fill-rule="evenodd"/>
          <path id="Trazado_206142" data-name="Trazado 206142" d="M192.614,209.122c1.78,59.675,56.46,70.588,32.319,125.98H209.74c10.307-53.193-47.19-56.889-27.557-126.188-2.261-2.06-2.989-5.052-3.479-6.71,3.252-3.574,6.455-6.923,9.264-10.061L192,195.477a31.927,31.927,0,0,1,5.4,7.619c-.681,3.3-4.792,6.026-4.792,6.026" transform="translate(-28.62 -30.883)" fill="#f1f2ff" fill-rule="evenodd"/>
          <path id="Trazado_206143" data-name="Trazado 206143" d="M142.9,383.146a171.6,171.6,0,0,0,26.455,2.044,169.811,169.811,0,0,0,85-22.654c-1.56-7.094-3.158-14.039-3.158-14.039s-70.354,12.9-124.41.7l-4.537,2.542s-3.318,9.887,12.629,10.357a62.261,62.261,0,0,0,8.026,21.047" transform="translate(-19.603 -56.014)" fill="#f1f2ff" fill-rule="evenodd"/>
          <path id="Trazado_206144" data-name="Trazado 206144" d="M153.289,171.785,108.6,192.614c-5.308,13.673-8.293,30.852-9.625,49.017,9.656-3.971,33.273-14.188,48.273-24.959,19.225-13.8,48.377-19.826,48.377-19.826s24.111,4.117,28.872.761c2.576-1.816,5.568-13.623,7.772-24.076l-28.841-7.606s-26.455,16.139-50.139,5.861" transform="translate(-15.908 -26.669)" fill="#f1f2ff" fill-rule="evenodd"/>
          <path id="Trazado_206145" data-name="Trazado 206145" d="M214.485,174.983s-8.117,13.417-26.671,16.4c-3.6,4.432-7.953,9.285-12.079,14.6a3.574,3.574,0,0,1-5.536.136c-3.721-4.337-7.786-16.276-3.947-28.137,0,0,2.374,12.179,21.562,13.4,5.9,3.806,8.767,8.156,12.091,13.873a3.576,3.576,0,0,0,5.135,1.136c6.117-4.269,15.836-16.539,9.444-31.4" transform="translate(-26.473 -28.125)" fill="#f1f2ff" fill-rule="evenodd"/>
          <path id="Trazado_206146" data-name="Trazado 206146" d="M245.168,350.308a169.767,169.767,0,0,0,29.244-13.427c.754-58.946,47.375-122.5.952-146.49-8.946,2.693-16.461,8.6-20.524,19.608-13.659,37.017-10.8,117.6-9.672,140.309" transform="translate(-39.239 -30.602)" fill="#f1f2ff" fill-rule="evenodd"/>
          <path id="Trazado_206147" data-name="Trazado 206147" d="M111.782,71.356a25.852,25.852,0,0,1-13.464-5.841c-15.725-6.912-15-23.082-14.994-23.135l.837.024c0,.049-.629,13.957,12.1,21.146-15.752-16.827-6.457-52.631,9.376-36.6,6-4.587,65.809-41.417,84.06-7.241.11-2.833-.4-14.3-15.311-18.9l.244-.8c14.858,4.585,15.947,15.814,15.908,19.347,1.043-1.567,4.277-4.844,12.913-4.335l-.048.835C194.145,15.3,191.531,19.169,191,20.2c31.469-6.5,7.183,55.309,10.619,55.475Z" transform="translate(-13.392)" fill="#2e3458" fill-rule="evenodd"/>
          <path id="Trazado_206148" data-name="Trazado 206148" d="M159.838,9.608c8.691-2,15.87-2.123,16.033-.268s-6.75,4.985-15.442,6.989-15.871,2.123-16.035.268,6.75-4.985,15.443-6.989" transform="translate(-23.208 -1.29)" fill="#3a3c6c" fill-rule="evenodd"/>
          <path id="Trazado_206149" data-name="Trazado 206149" d="M214.089,103.017s-3.706,17.3-.208,60.417l-.073-.018c-13.631,12.792-28.664,14.4-28.664,14.4-18.242-1.091-21.16-12.182-21.16-12.182-1.652-10.406-3.666-25.325-3.471-35.186.326-16.5,53.576-27.433,53.576-27.433" transform="translate(-25.797 -16.558)" fill="#d77f7f" fill-rule="evenodd"/>
          <path id="Trazado_206150" data-name="Trazado 206150" d="M114.678,70.646c-1.073,25.98,1.878,72.893,38.354,80.075,5.087-.613,49.332-6.806,48.7-49.254,0,0,15.328-.871,15.776-15.411.462-14.951-13.586-15.269-19.229-6.093,0,0-5.248-3.987-8.091-13.527,0,0-27.993,13.15-75.513,4.211" transform="translate(-18.405 -10.678)" fill="#eaab9f" fill-rule="evenodd"/>
          <path id="Trazado_206151" data-name="Trazado 206151" d="M163.767,149.834c13.092-2.727,43.951-12.866,43.425-48.368,0,0,15.328-.871,15.776-15.411.462-14.951-13.586-15.269-19.229-6.093,0,0-5.248-3.987-8.092-13.527,0,0-15.532,7.292-43.091,7.322a275.864,275.864,0,0,0,3.361,29.152c-12.444,1.064-7.835,15.135,2.87,11.88,0,0,1.656,19.61,4.981,35.045" transform="translate(-23.86 -10.678)" fill="#e0998f" fill-rule="evenodd"/>
          <path id="Trazado_206152" data-name="Trazado 206152" d="M218.434,104.091s15.328-.871,15.776-15.411a18.252,18.252,0,0,0-.446-4.862c-6.112-3.543-13.517,2.98-13.517,2.98,6.567-1.636,6.131,9.361-1.853,10.511Z" transform="translate(-35.102 -13.303)" fill="#d77f7f" fill-rule="evenodd"/>
          <path id="Trazado_206153" data-name="Trazado 206153" d="M198.316,79.962s-5.248-3.987-8.091-13.527c0,0-27.993,13.15-75.513,4.211,0,0,33.7,12.9,72.357,1.632,0,0,2.386,5.073,11.248,7.685" transform="translate(-18.437 -10.678)" fill="#d77f7f" fill-rule="evenodd"/>
          <path id="Trazado_206154" data-name="Trazado 206154" d="M109.372,66.71s31.882,12.945,59.487,8.854c0,0-21.029,14.762-59.487-8.854" transform="translate(-17.579 -10.722)" fill="#2e3458" fill-rule="evenodd"/>
          <path id="Trazado_206155" data-name="Trazado 206155" d="M118.641,90.5s13.581.347,21.2-6.672a7.163,7.163,0,0,1,.846,4.8s-8.234,6.143-22.051,1.868m22.135-7.5s1.423,3.386.17,5.856c0,0,3.967-2.738-.17-5.856" transform="translate(-19.069 -13.342)" fill="#2e3458" fill-rule="evenodd"/>
          <path id="Trazado_206156" data-name="Trazado 206156" d="M192.865,83.27s-12.941,4.66-22.107.39a7.179,7.179,0,0,0,.06,3.814,9.207,9.207,0,0,1-1.14-4.8c-2.375,3.012.261,4.874,1.379,5.485.049.118.1.237.158.357,0,0,9.521,3.24,21.651-5.245" transform="translate(-27.118 -13.288)" fill="#2e3458" fill-rule="evenodd"/>
          <path id="Trazado_206157" data-name="Trazado 206157" d="M173.372,102.812s7.794-4.358,14.85-1.309c-1.7-3.466-9.549-7.366-14.85,1.309" transform="translate(-27.866 -15.68)" fill="#2e3458" fill-rule="evenodd"/>
          <path id="Trazado_206158" data-name="Trazado 206158" d="M141.754,105.608s-8.436-2.928-14.849,1.309c1.064-3.71,8.114-8.924,14.849-1.309" transform="translate(-20.397 -16.346)" fill="#2e3458" fill-rule="evenodd"/>
          <path id="Trazado_206159" data-name="Trazado 206159" d="M148.72,115.016s-.527,9.481,11.29,6.9c-1.7,2.42-14.09,4.895-11.29-6.9" transform="translate(-23.838 -18.487)" fill="#2e3458" fill-rule="evenodd"/>
          <path id="Trazado_206160" data-name="Trazado 206160" d="M162.643,117.9c1.585-.14,2.939.525,3.024,1.485a1.358,1.358,0,0,1-.464,1.076,2.271,2.271,0,0,0-2.033-.672c-1.121.1-1.987.72-1.961,1.4a1.684,1.684,0,0,1-1.284-1.292c-.084-.961,1.132-1.851,2.718-1.992" transform="translate(-25.704 -18.947)" fill="#d77f7f" fill-rule="evenodd"/>
          <path id="Trazado_206161" data-name="Trazado 206161" d="M160.8,156.571a20.789,20.789,0,0,0,14.555-5.86s-3.519,9.934-14.555,5.86" transform="translate(-25.846 -24.224)" fill="#d77f7f" fill-rule="evenodd"/>
          <path id="Trazado_206162" data-name="Trazado 206162" d="M152.58,134.357c11.451.693,15.991-6.606,19.725,3.727,4.957,13.727-23.132,16.329-22.658,8.552a32.573,32.573,0,0,0-.492-8.063,3.52,3.52,0,0,1,3.425-4.216" transform="translate(-23.964 -21.296)" fill="#d77f7f" fill-rule="evenodd"/>
          <path id="Trazado_206163" data-name="Trazado 206163" d="M152.847,134.357c7.845.475,12.447-2.8,15.768-1.588a1.833,1.833,0,0,1,.063.352c.206,2.317-3.641,4.751-8.588,5.438s-9.125-.638-9.328-2.954A2.1,2.1,0,0,1,150.8,135a3.045,3.045,0,0,1,2.049-.643" transform="translate(-24.231 -21.296)" fill="#fff" fill-rule="evenodd"/>
          <path id="Trazado_206164" data-name="Trazado 206164" d="M174.746,143.989c-.76,5.439-7.621,8.313-13.683,8.7a10.684,10.684,0,0,1,13.683-8.7" transform="translate(-25.888 -23.069)" fill="#cf4970" fill-rule="evenodd"/>
          <path id="Trazado_206165" data-name="Trazado 206165" d="M168.9,150.967c-4.834,2.9-12.272,3.451-16.137,1.73,1.43-1.48,4.265-2.738,7.6-3.2,3.758-.521,7.071.117,8.537,1.47" transform="translate(-24.553 -23.999)" fill="#fff" fill-rule="evenodd"/>
          <path id="Trazado_206166" data-name="Trazado 206166" d="M194.3,209.122c6.711,59.675,62.294,70.588,42.73,125.98H221.837c5.911-53.193-51.892-56.889-37.986-126.188-2.432-2.06-3.407-5.052-4.033-6.71,2.956-3.574,5.882-6.923,8.431-10.061l4.311,3.334a35.93,35.93,0,0,1,6.034,7.619c-.409,3.3-4.294,6.026-4.294,6.026" transform="translate(-28.902 -30.883)" fill="#60629a" fill-rule="evenodd"/>
          <path id="Trazado_206167" data-name="Trazado 206167" d="M245.743,317.331c3.514,10.53,3.888,22.492-1.551,37.893H229c1.389-12.493-.739-22.257-4.625-30.78,7.149.319,15.5-.985,21.37-7.113" transform="translate(-36.063 -51.005)" fill="#2e3458" fill-rule="evenodd"/>
          <path id="Trazado_206168" data-name="Trazado 206168" d="M256.868,209.822s1.559-21.413,24.379-20.5c13.815.551,26.849,26.82,34.225,57.776,8.99,37.727,14.749,76.7-1.48,81.517-12.812,3.8-27.728-8.047-41.055-49.361-10.126-31.39-17.244-66.853-16.069-69.43" transform="translate(-41.266 -30.425)" fill="#fff" fill-rule="evenodd"/>
          <path id="Trazado_206169" data-name="Trazado 206169" d="M328.021,315.35c.525,8.54.148,15.971-1.516,21.586a35.26,35.26,0,0,1-9.625,10.785c-11.083,2.99-23.633-5.745-35.327-35a38.369,38.369,0,0,1,18.858-9.037c12.575-2.121,23.318,2.842,27.609,11.67" transform="translate(-45.254 -48.732)" fill="#f1f2ff" fill-rule="evenodd"/>
          <path id="Trazado_206170" data-name="Trazado 206170" d="M298.354,305.752c16.35-.4,29.6,10.731,29.6,24.852s-13.254,25.89-29.6,26.285-29.6-10.73-29.6-24.851,13.255-25.89,29.6-26.287" transform="translate(-43.196 -49.142)" fill="#fff" fill-rule="evenodd"/>
          <path id="Trazado_206171" data-name="Trazado 206171" d="M182.063,336.426l-26.945-1.514,3.977,39a125.516,125.516,0,0,0,25.338-8.4Z" transform="translate(-24.932 -53.83)" fill="#eaab9f" fill-rule="evenodd"/>
          <path id="Trazado_206172" data-name="Trazado 206172" d="M187.223,333.354c46.473-.894,108.3-34.166,118.945-6.729,17.671,45.547-106.377,38.458-116.574,35.815Z" transform="translate(-30.092 -50.759)" fill="#eaab9f" fill-rule="evenodd"/>
          <path id="Trazado_206173" data-name="Trazado 206173" d="M292.619,316.516c26.122,2.855,31.012,29.987,7.106,41.286,16.416-4.96,27.512-13.3,24.656-26.952a26.937,26.937,0,0,0-1.273-4.225c-4.028-10.388-15.4-12.074-30.489-10.109" transform="translate(-47.033 -50.759)" fill="#d77f7f" fill-rule="evenodd"/>
          <path id="Trazado_206174" data-name="Trazado 206174" d="M149.772,334.912,123.443,343.3c-1.5.478-4.2,9.386,4.733,9.386a44.687,44.687,0,0,0,9.5,21.226l16.076,0Z" transform="translate(-19.586 -53.83)" fill="#d77f7f" fill-rule="evenodd"/>
          <path id="Trazado_206175" data-name="Trazado 206175" d="M278.955,319.7c9.228-.995,16.709.01,16.709,2.244s-7.481,4.851-16.709,5.846-16.71-.011-16.71-2.245,7.481-4.851,16.71-5.845" transform="translate(-42.151 -51.324)" fill="#eec1b8" fill-rule="evenodd"/>
          <path id="Trazado_206176" data-name="Trazado 206176" d="M218.363,174.938s-9.945,11.462-28.5,14.44c5.9,3.806,8.767,8.155,12.091,13.873a3.575,3.575,0,0,0,5.135,1.136c6.117-4.268,15.906-16.458,11.273-29.448" transform="translate(-30.517 -28.118)" fill="#fff" fill-rule="evenodd"/>
          <path id="Trazado_206177" data-name="Trazado 206177" d="M163.877,176.176s2.374,12.179,21.562,13.4c-3.6,4.431-7.953,9.284-12.077,14.6a3.576,3.576,0,0,1-5.537.136c-3.721-4.337-7.785-16.276-3.947-28.137" transform="translate(-26.091 -28.317)" fill="#fff" fill-rule="evenodd"/>
          <path id="Trazado_206178" data-name="Trazado 206178" d="M63.009,186.523c16.269-3.153,31.378,7.9,33.744,24.7s-8.9,32.961-25.175,36.114-31.377-7.9-33.744-24.7,8.905-32.961,25.175-36.113" transform="translate(-6.031 -29.894)" fill="#fff" fill-rule="evenodd"/>
          <path id="Trazado_206179" data-name="Trazado 206179" d="M175.318,163.963l6.08,28.543C120.76,204.052,69.025,261.95,47.89,220.967c-14.19-27.515,43.617-51.952,127.427-57" transform="translate(-7.353 -26.354)" fill="#eaab9f" fill-rule="evenodd"/>
          <path id="Trazado_206180" data-name="Trazado 206180" d="M84.975,237.949c-16.112,5.36-28.9,4.329-37.084-11.549-5.29-10.255-.572-20.083,11.762-28.638-4.826,8.6-5.135,18.824.172,27.219,5.292,8.373,14.906,12.929,25.15,12.968" transform="translate(-7.353 -31.786)" fill="#d77f7f" fill-rule="evenodd"/>
          <path id="Trazado_206181" data-name="Trazado 206181" d="M206.212,190.289l26.916-1.952-8.942-38.167a125.54,125.54,0,0,0-24.054,11.577Z" transform="translate(-32.167 -24.137)" fill="#eaab9f" fill-rule="evenodd"/>
          <path id="Trazado_206182" data-name="Trazado 206182" d="M218.45,160.162l8.68-10.72,11.583-3.794s9.961,6.587,17.975,20.007c0,0,6.441.7,5.477,7.343s-24.689,14.245-32.675,10.79-11.04-23.625-11.04-23.625" transform="translate(-35.111 -23.41)" fill="#eaab9f" fill-rule="evenodd"/>
          <path id="Trazado_206183" data-name="Trazado 206183" d="M218.767,185.763l.521,7.19s12.244,1.209,22.374,5.271a3.832,3.832,0,0,0,3.993-.65c1.568-1.331,3.84-3.29,5.663-4.979a3.864,3.864,0,0,0,.878-4.551,118.455,118.455,0,0,1-5.72-13.972,3.917,3.917,0,0,0-6-2.055c-2.634,1.854-4.855,5.381-2.529,12.021,0,0-9.647-10.07-19.181,1.724" transform="translate(-35.162 -27.532)" fill="#eaab9f" fill-rule="evenodd"/>
          <path id="Trazado_206184" data-name="Trazado 206184" d="M236.643,175.154a6.414,6.414,0,0,1-3.586-4.3,19.645,19.645,0,0,1-8.635-9.359s.722,8.742-10.255,16.565a45.532,45.532,0,0,1,10.329,1.578c7-2.681,12.748,3.313,12.748,3.313-1.161-3.313-1.189-5.851-.6-7.793" transform="translate(-34.423 -25.957)" fill="#d77f7f" fill-rule="evenodd"/>
          <path id="Trazado_206185" data-name="Trazado 206185" d="M254.344,188.349c-.926-1.954-2.246-4.828-3.465-7.808-.861-2.1-1.672-4.258-2.264-6.185a3.723,3.723,0,0,0-5.741-1.968,7.777,7.777,0,0,0-3.06,4.128c-.585,1.912-.557,4.419.593,7.7l.25.715-.53-.541a14.1,14.1,0,0,0-8.006-3.912l-.013-.353a14.238,14.238,0,0,1,7.769,3.566,12.151,12.151,0,0,1-.386-7.273,8.107,8.107,0,0,1,3.189-4.3,4.058,4.058,0,0,1,6.258,2.143c.586,1.913,1.395,4.06,2.253,6.156,1.217,2.975,2.534,5.843,3.457,7.792Z" transform="translate(-37.307 -27.542)" fill="#fff" fill-rule="evenodd"/>
          <path id="Trazado_206186" data-name="Trazado 206186" d="M97.992,184.472c1.27,2.008-5.438,7.019-14.982,11.192S64.7,201.589,63.43,199.58s5.438-7.018,14.982-11.192,18.31-5.925,19.579-3.917" transform="translate(-10.17 -29.516)" fill="#eec1b8" fill-rule="evenodd"/>
          <path id="Trazado_206187" data-name="Trazado 206187" d="M204.053,335.028q4.338-.58,8.754-1.379c-3.477,2.634-5.386,9.118-4.482,16.7.927,7.771,4.532,14.388,8.771,16.889-2.775-.067-5.4-.164-7.849-.281-8.543-5.582-11.43-25.013-5.194-31.93" transform="translate(-32.259 -53.627)" fill="#d77f7f" fill-rule="evenodd"/>
          <path id="Trazado_206188" data-name="Trazado 206188" d="M207.771,335.419a13.942,13.942,0,1,1-13.942,13.943,13.942,13.942,0,0,1,13.942-13.943" transform="translate(-31.154 -53.912)" fill="#d77f7f" fill-rule="evenodd"/>
          <path id="Trazado_206189" data-name="Trazado 206189" d="M213.223,333.035c-3.972,2.317-6.5,9.1-5.96,17.106.562,8.306,4.253,15.294,8.76,17.347-19.062,7.493-22.982-41.431-2.8-34.453" transform="translate(-32.114 -53.419)" fill="#2e3458" fill-rule="evenodd"/>
          <path id="Trazado_206190" data-name="Trazado 206190" d="M204,361.485a13.942,13.942,0,1,0-13.942-13.942A13.968,13.968,0,0,0,204,361.485" transform="translate(-30.548 -53.62)" fill="#2e3458" fill-rule="evenodd"/>
          <path id="Trazado_206191" data-name="Trazado 206191" d="M204.725,358.421a10.151,10.151,0,1,0-10.15-10.152,10.172,10.172,0,0,0,10.15,10.152" transform="translate(-31.274 -54.346)" fill="#fff" fill-rule="evenodd"/>
          <path id="Trazado_206192" data-name="Trazado 206192" d="M195.214,348.478a10.154,10.154,0,0,1,19.581-1.51,10.152,10.152,0,0,0-20.221,1.3c0,.074,0,.148,0,.222a10.159,10.159,0,0,0,.557,3.108,10.22,10.22,0,0,1,.081-3.122" transform="translate(-31.274 -54.346)" fill="#f1f2ff" fill-rule="evenodd"/>
          <path id="Trazado_206193" data-name="Trazado 206193" d="M206.653,346.714a2.077,2.077,0,0,1,.8.331l2.891-2.373.732.89-2.893,2.372a2.078,2.078,0,1,1-2.676-1.111l-.538-5.565,1.146-.109Z" transform="translate(-32.82 -54.833)" fill="#cf4970" fill-rule="evenodd"/>
          <path id="Trazado_206194" data-name="Trazado 206194" d="M202.115,333.229a13.086,13.086,0,1,1-9.255,3.833,13.047,13.047,0,0,1,9.255-3.833m8.965,4.122a12.68,12.68,0,1,0,3.713,8.965,12.639,12.639,0,0,0-3.713-8.965" transform="translate(-30.382 -53.56)" fill="#fff" fill-rule="evenodd"/>
          <path id="Trazado_206195" data-name="Trazado 206195" d="M307.95,69.261a2.7,2.7,0,1,0-.394-3.793,2.7,2.7,0,0,0,.394,3.793" transform="translate(-49.336 -10.362)" fill="#96c042" fill-rule="evenodd"/>
          <path id="Trazado_206196" data-name="Trazado 206196" d="M309.06,64.256a6.3,6.3,0,0,0,2.494-2.14,12.951,12.951,0,0,0,2.618,2.065,5.906,5.906,0,0,0-.852,1.089,6.326,6.326,0,0,0-.641,1.371,2.695,2.695,0,0,0-3.619-2.384" transform="translate(-49.675 -9.984)" fill="#96c042" fill-rule="evenodd"/>
          <path id="Trazado_206197" data-name="Trazado 206197" d="M297.308,54.843a3.1,3.1,0,1,0,2.76-3.4,3.1,3.1,0,0,0-2.76,3.4" transform="translate(-47.784 -8.266)" fill="#bdd95b" fill-rule="evenodd"/>
          <path id="Trazado_206198" data-name="Trazado 206198" d="M302.536,51.768a7.235,7.235,0,0,0,3.764.287,14.753,14.753,0,0,0,.08,1.714,14.958,14.958,0,0,0,.369,2.091,6.679,6.679,0,0,0-1.576.192,7.317,7.317,0,0,0-1.634.593,3.1,3.1,0,0,0-1-4.877" transform="translate(-48.627 -8.321)" fill="#bdd95b" fill-rule="evenodd"/>
          <path id="Trazado_206199" data-name="Trazado 206199" d="M338.639,65.654a2.7,2.7,0,1,0-3.793.394,2.7,2.7,0,0,0,3.793-.394" transform="translate(-53.659 -9.846)" fill="#bdd95b" fill-rule="evenodd"/>
          <path id="Trazado_206200" data-name="Trazado 206200" d="M333.634,64.6a6.283,6.283,0,0,0-2.14-2.494A13.164,13.164,0,0,0,332.5,61a12.933,12.933,0,0,0,1.059-1.514,5.912,5.912,0,0,0,1.089.851,6.366,6.366,0,0,0,1.371.641,2.7,2.7,0,0,0-2.385,3.619" transform="translate(-53.281 -9.561)" fill="#bdd95b" fill-rule="evenodd"/>
          <path id="Trazado_206201" data-name="Trazado 206201" d="M318.994,30.733a2.7,2.7,0,1,0,2.961,2.4,2.7,2.7,0,0,0-2.961-2.4" transform="translate(-50.883 -4.937)" fill="#96c042" fill-rule="evenodd"/>
          <path id="Trazado_206202" data-name="Trazado 206202" d="M321.891,35.284a5.959,5.959,0,0,0-.358,1.945,5.876,5.876,0,0,0,.109,1.33,13.148,13.148,0,0,0-1.492.07,12.877,12.877,0,0,0-1.82.321,5.854,5.854,0,0,0-.168-1.372,6.351,6.351,0,0,0-.516-1.423,2.7,2.7,0,0,0,4.245-.872" transform="translate(-51.055 -5.671)" fill="#96c042" fill-rule="evenodd"/>
          <path id="Trazado_206203" data-name="Trazado 206203" d="M336.076,33.745a2.7,2.7,0,1,0,.394,3.793,2.7,2.7,0,0,0-.394-3.793" transform="translate(-53.311 -5.327)" fill="#bdd95b" fill-rule="evenodd"/>
          <path id="Trazado_206204" data-name="Trazado 206204" d="M335.018,38.914a6.326,6.326,0,0,0-2.494,2.141,12.933,12.933,0,0,0-2.617-2.065,5.876,5.876,0,0,0,.852-1.089,6.321,6.321,0,0,0,.64-1.371,2.7,2.7,0,0,0,3.619,2.384" transform="translate(-53.026 -5.871)" fill="#bdd95b" fill-rule="evenodd"/>
          <path id="Trazado_206205" data-name="Trazado 206205" d="M303.182,37.568a2.7,2.7,0,1,0,3.793-.394,2.7,2.7,0,0,0-3.793.394" transform="translate(-48.633 -5.878)" fill="#96c042" fill-rule="evenodd"/>
          <path id="Trazado_206206" data-name="Trazado 206206" d="M308.352,38.678a6.292,6.292,0,0,0,2.139,2.494,12.951,12.951,0,0,0-2.065,2.618,5.955,5.955,0,0,0-1.088-.852,6.386,6.386,0,0,0-1.372-.641,2.7,2.7,0,0,0,2.385-3.619" transform="translate(-49.178 -6.217)" fill="#96c042" fill-rule="evenodd"/>
          <path id="Trazado_206207" data-name="Trazado 206207" d="M324.242,75.363a2.7,2.7,0,1,0-2.96-2.4,2.7,2.7,0,0,0,2.96,2.4" transform="translate(-51.637 -11.249)" fill="#bdd95b" fill-rule="evenodd"/>
          <path id="Trazado_206208" data-name="Trazado 206208" d="M321.567,71.142a5.957,5.957,0,0,0,.358-1.945,5.891,5.891,0,0,0-.109-1.332,13.346,13.346,0,0,0,1.491-.069,13.021,13.021,0,0,0,1.82-.321,5.935,5.935,0,0,0,.168,1.371,6.413,6.413,0,0,0,.516,1.422,2.7,2.7,0,0,0-4.244.874" transform="translate(-51.685 -10.845)" fill="#bdd95b" fill-rule="evenodd"/>
          <path id="Trazado_206209" data-name="Trazado 206209" d="M344.8,49.4a2.7,2.7,0,1,0-2.4,2.961,2.7,2.7,0,0,0,2.4-2.961" transform="translate(-54.555 -7.552)" fill="#96c042" fill-rule="evenodd"/>
          <path id="Trazado_206210" data-name="Trazado 206210" d="M340.58,52.3a6.291,6.291,0,0,0-3.277-.25,12.928,12.928,0,0,0-.389-3.311,5.894,5.894,0,0,0,1.371-.168,6.331,6.331,0,0,0,1.422-.516,2.7,2.7,0,0,0,.874,4.245" transform="translate(-54.152 -7.723)" fill="#96c042" fill-rule="evenodd"/>
          <path id="Trazado_206211" data-name="Trazado 206211" d="M327.7,40.172a12.859,12.859,0,1,0,1.881,18.087A12.858,12.858,0,0,0,327.7,40.172" transform="translate(-49.302 -5.995)" fill="#bdd95b" fill-rule="evenodd"/>
          <path id="Trazado_206212" data-name="Trazado 206212" d="M326.749,48.863a4.381,4.381,0,1,0,.641,6.163,4.381,4.381,0,0,0-.641-6.163" transform="translate(-51.37 -7.696)" fill="#96c042" fill-rule="evenodd"/>
          <path id="Trazado_206213" data-name="Trazado 206213" d="M327.359,41.434a1.736,1.736,0,1,0,.876,2.293,1.735,1.735,0,0,0-.876-2.293" transform="translate(-52.224 -6.635)" fill="#96c042" fill-rule="evenodd"/>
          <path id="Trazado_206214" data-name="Trazado 206214" d="M314.7,42.143a2.3,2.3,0,1,0,3.208.512,2.3,2.3,0,0,0-3.208-.512" transform="translate(-50.429 -6.703)" fill="#96c042" fill-rule="evenodd"/>
          <path id="Trazado_206215" data-name="Trazado 206215" d="M308.579,54.624a1.92,1.92,0,1,0,1.71-2.109,1.921,1.921,0,0,0-1.71,2.109" transform="translate(-49.596 -8.439)" fill="#96c042" fill-rule="evenodd"/>
          <path id="Trazado_206216" data-name="Trazado 206216" d="M333.406,50.419a1.176,1.176,0,1,1-.447,1.6,1.177,1.177,0,0,1,.447-1.6" transform="translate(-53.492 -8.08)" fill="#96c042" fill-rule="evenodd"/>
          <path id="Trazado_206217" data-name="Trazado 206217" d="M328.053,63.172a1.531,1.531,0,1,0-2.139-.341,1.529,1.529,0,0,0,2.139.341" transform="translate(-52.337 -9.708)" fill="#96c042" fill-rule="evenodd"/>
          <path id="Trazado_206218" data-name="Trazado 206218" d="M316.835,62.993a2.752,2.752,0,1,0-1.391-3.635,2.751,2.751,0,0,0,1.391,3.635" transform="translate(-50.663 -9.279)" fill="#96c042" fill-rule="evenodd"/>
          <path id="Trazado_206219" data-name="Trazado 206219" d="M94.954,152.683l-8.639,6.179a3.018,3.018,0,0,1-2.548.478,2.118,2.118,0,0,1-1.636-1.587l-1.745-8.039a2.165,2.165,0,0,1,.827-2.145,3.018,3.018,0,0,1,2.5-.669l10.385,1.86a2.168,2.168,0,0,1,1.861,1.637,2.22,2.22,0,0,1-1.009,2.288" transform="translate(-12.913 -23.603)" fill="#fff" fill-rule="evenodd"/>
          <path id="Trazado_206220" data-name="Trazado 206220" d="M96.052,129.955l-10.115-1.993a3.241,3.241,0,0,1-2.131-1.5,2.148,2.148,0,0,1-.173-2.243l3.828-6.686a1.869,1.869,0,0,1,1.951-.861,3.2,3.2,0,0,1,2.223,1.337l6.286,8.679a2.226,2.226,0,0,1,.3,2.436,1.928,1.928,0,0,1-2.172.828" transform="translate(-13.404 -18.75)" fill="#fff" fill-rule="evenodd"/>
          <path id="Trazado_206221" data-name="Trazado 206221" d="M6.918,140.3A6.918,6.918,0,1,0,0,133.379,6.931,6.931,0,0,0,6.918,140.3" transform="translate(0 -20.326)" fill="#bdd95b" fill-rule="evenodd"/>
          <path id="Trazado_206222" data-name="Trazado 206222" d="M276.544,43.015a4.1,4.1,0,1,0-4.1-4.1,4.112,4.112,0,0,0,4.1,4.1" transform="translate(-43.789 -5.595)" fill="#bdd95b" fill-rule="evenodd"/>
          <path id="Trazado_206223" data-name="Trazado 206223" d="M352.79,220.376a2.814,2.814,0,1,0-2.814-2.814,2.819,2.819,0,0,0,2.814,2.814" transform="translate(-56.252 -34.516)" fill="#fff" fill-rule="evenodd"/>
          <path id="Trazado_206224" data-name="Trazado 206224" d="M292.854,127.442a7.207,7.207,0,1,1-5.094,2.111,7.183,7.183,0,0,1,5.094-2.111m3.529,3.678a4.989,4.989,0,1,0,1.461,3.528,4.975,4.975,0,0,0-1.461-3.528" transform="translate(-45.913 -20.484)" fill="#fff" fill-rule="evenodd"/>
          <path id="Trazado_206225" data-name="Trazado 206225" d="M18.317,225.73a7.205,7.205,0,1,1-5.094,2.11,7.185,7.185,0,0,1,5.094-2.11m3.528,3.676a4.989,4.989,0,1,0,1.461,3.528,4.975,4.975,0,0,0-1.461-3.528" transform="translate(-1.786 -36.282)" fill="#fff" fill-rule="evenodd"/>
          <path id="Trazado_206226" data-name="Trazado 206226" d="M291.645,300.91a4.195,4.195,0,1,0-4.195-4.2,4.2,4.2,0,0,0,4.195,4.2" transform="translate(-46.202 -47.017)" fill="#bdd95b" fill-rule="evenodd"/>
          <path id="Trazado_206227" data-name="Trazado 206227" d="M223.509,276.772a2.7,2.7,0,1,0,3.793-.394,2.7,2.7,0,0,0-3.793.394" transform="translate(-35.828 -44.325)" fill="#96c042" fill-rule="evenodd"/>
          <path id="Trazado_206228" data-name="Trazado 206228" d="M228.68,277.882a6.283,6.283,0,0,0,2.14,2.494,13.155,13.155,0,0,0-1.006,1.1,13.015,13.015,0,0,0-1.059,1.515,5.874,5.874,0,0,0-1.089-.851,6.311,6.311,0,0,0-1.37-.641,2.7,2.7,0,0,0,2.384-3.62" transform="translate(-36.373 -44.664)" fill="#96c042" fill-rule="evenodd"/>
          <path id="Trazado_206229" data-name="Trazado 206229" d="M237.771,266.129a3.1,3.1,0,1,0,3.4,2.761,3.1,3.1,0,0,0-3.4-2.761" transform="translate(-37.771 -42.772)" fill="#bdd95b" fill-rule="evenodd"/>
          <path id="Trazado_206230" data-name="Trazado 206230" d="M241.1,271.358a7.235,7.235,0,0,0-.287,3.764,14.964,14.964,0,0,0-3.8.449,6.808,6.808,0,0,0-.192-1.576,7.384,7.384,0,0,0-.594-1.634,3.1,3.1,0,0,0,4.877-1" transform="translate(-37.968 -43.615)" fill="#bdd95b" fill-rule="evenodd"/>
          <path id="Trazado_206231" data-name="Trazado 206231" d="M227.115,307.461a2.7,2.7,0,1,0-.394-3.793,2.7,2.7,0,0,0,.394,3.793" transform="translate(-36.344 -48.648)" fill="#bdd95b" fill-rule="evenodd"/>
          <path id="Trazado_206232" data-name="Trazado 206232" d="M228.225,302.456a6.283,6.283,0,0,0,2.494-2.14,13.306,13.306,0,0,0,1.1,1.006,13.019,13.019,0,0,0,1.515,1.059,5.867,5.867,0,0,0-.851,1.089,6.243,6.243,0,0,0-.64,1.371,2.7,2.7,0,0,0-3.621-2.385" transform="translate(-36.683 -48.27)" fill="#bdd95b" fill-rule="evenodd"/>
          <path id="Trazado_206233" data-name="Trazado 206233" d="M262.035,287.817a2.7,2.7,0,1,0-2.4,2.961,2.7,2.7,0,0,0,2.4-2.961" transform="translate(-41.252 -45.872)" fill="#96c042" fill-rule="evenodd"/>
          <path id="Trazado_206234" data-name="Trazado 206234" d="M257.816,290.713a6.289,6.289,0,0,0-3.277-.25,12.993,12.993,0,0,0-.39-3.312,5.836,5.836,0,0,0,1.371-.167,6.292,6.292,0,0,0,1.423-.517,2.7,2.7,0,0,0,.873,4.246" transform="translate(-40.849 -46.044)" fill="#96c042" fill-rule="evenodd"/>
          <path id="Trazado_206235" data-name="Trazado 206235" d="M259.024,304.9a2.7,2.7,0,1,0-3.793.394,2.7,2.7,0,0,0,3.793-.394" transform="translate(-40.863 -48.3)" fill="#bdd95b" fill-rule="evenodd"/>
          <path id="Trazado_206236" data-name="Trazado 206236" d="M254.02,303.841a6.335,6.335,0,0,0-2.14-2.494,13.012,13.012,0,0,0,2.065-2.617,5.891,5.891,0,0,0,1.088.852,6.4,6.4,0,0,0,1.371.64,2.7,2.7,0,0,0-2.384,3.619" transform="translate(-40.485 -48.015)" fill="#bdd95b" fill-rule="evenodd"/>
          <path id="Trazado_206237" data-name="Trazado 206237" d="M255.2,272a2.7,2.7,0,1,0,.394,3.793A2.7,2.7,0,0,0,255.2,272" transform="translate(-40.312 -43.622)" fill="#96c042" fill-rule="evenodd"/>
          <path id="Trazado_206238" data-name="Trazado 206238" d="M254.145,277.174a6.3,6.3,0,0,0-2.494,2.14,12.87,12.87,0,0,0-1.1-1.005,13.006,13.006,0,0,0-1.514-1.059,5.9,5.9,0,0,0,.851-1.089,6.363,6.363,0,0,0,.641-1.371,2.7,2.7,0,0,0,3.619,2.384" transform="translate(-40.027 -44.167)" fill="#96c042" fill-rule="evenodd"/>
          <path id="Trazado_206239" data-name="Trazado 206239" d="M217.407,293.065a2.7,2.7,0,1,0,2.4-2.96,2.694,2.694,0,0,0-2.4,2.96" transform="translate(-34.941 -46.626)" fill="#bdd95b" fill-rule="evenodd"/>
          <path id="Trazado_206240" data-name="Trazado 206240" d="M221.957,290.389a6.314,6.314,0,0,0,3.277.25,12.749,12.749,0,0,0,.069,1.491,13,13,0,0,0,.321,1.82,5.939,5.939,0,0,0-1.371.168,6.438,6.438,0,0,0-1.423.516,2.7,2.7,0,0,0-.873-4.244" transform="translate(-35.675 -46.674)" fill="#bdd95b" fill-rule="evenodd"/>
          <path id="Trazado_206241" data-name="Trazado 206241" d="M243.369,313.621a2.7,2.7,0,1,0-2.96-2.4,2.694,2.694,0,0,0,2.96,2.4" transform="translate(-38.639 -49.544)" fill="#96c042" fill-rule="evenodd"/>
          <path id="Trazado_206242" data-name="Trazado 206242" d="M240.692,309.4a6.329,6.329,0,0,0,.251-3.277,12.945,12.945,0,0,0,1.491-.068,13.152,13.152,0,0,0,1.82-.321,5.883,5.883,0,0,0,.167,1.371,6.364,6.364,0,0,0,.517,1.423,2.7,2.7,0,0,0-4.246.873" transform="translate(-38.686 -49.141)" fill="#96c042" fill-rule="evenodd"/>
          <path id="Trazado_206243" data-name="Trazado 206243" d="M248.7,296.519a12.858,12.858,0,1,0-18.087,1.88,12.857,12.857,0,0,0,18.087-1.88" transform="translate(-36.303 -44.29)" fill="#bdd95b" fill-rule="evenodd"/>
          <path id="Trazado_206244" data-name="Trazado 206244" d="M243.26,295.571a4.382,4.382,0,1,0-6.164.641,4.382,4.382,0,0,0,6.164-.641" transform="translate(-37.848 -46.359)" fill="#96c042" fill-rule="evenodd"/>
          <path id="Trazado_206245" data-name="Trazado 206245" d="M251.7,296.181a1.735,1.735,0,1,0-2.293.877,1.735,1.735,0,0,0,2.293-.877" transform="translate(-39.922 -47.212)" fill="#96c042" fill-rule="evenodd"/>
          <path id="Trazado_206246" data-name="Trazado 206246" d="M250.779,283.52a2.3,2.3,0,1,0-.512,3.208,2.3,2.3,0,0,0,.512-3.208" transform="translate(-39.64 -45.418)" fill="#96c042" fill-rule="evenodd"/>
          <path id="Trazado_206247" data-name="Trazado 206247" d="M238.443,277.4a1.92,1.92,0,1,0,2.107,1.711,1.919,1.919,0,0,0-2.107-1.711" transform="translate(-38.048 -44.585)" fill="#96c042" fill-rule="evenodd"/>
          <path id="Trazado_206248" data-name="Trazado 206248" d="M242.931,302.228a1.176,1.176,0,1,1-1.6-.447,1.177,1.177,0,0,1,1.6.447" transform="translate(-38.693 -48.481)" fill="#96c042" fill-rule="evenodd"/>
          <path id="Trazado_206249" data-name="Trazado 206249" d="M230.042,296.875a1.531,1.531,0,1,0,.341-2.139,1.532,1.532,0,0,0-.341,2.139" transform="translate(-36.928 -47.326)" fill="#96c042" fill-rule="evenodd"/>
          <path id="Trazado_206250" data-name="Trazado 206250" d="M229.753,285.657a2.753,2.753,0,1,0,3.636-1.391,2.752,2.752,0,0,0-3.636,1.391" transform="translate(-36.89 -45.651)" fill="#96c042" fill-rule="evenodd"/>
        </g>
      </g>
    </g>
  </g>
</svg>
