<svg xmlns="http://www.w3.org/2000/svg" xmlns:xlink="http://www.w3.org/1999/xlink" width="660" height="350.274" viewBox="0 0 660 350.274">
  <defs>
    <clipPath id="clip-path">
      <rect id="Rectángulo_47961" data-name="Rectángulo 47961" width="479.353" height="320.274" fill="none"/>
    </clipPath>
    <clipPath id="clip-path-3">
      <rect id="Rectángulo_47952" data-name="Rectángulo 47952" width="105.122" height="235.865" fill="none"/>
    </clipPath>
    <clipPath id="clip-path-4">
      <rect id="Rectángulo_47953" data-name="Rectángulo 47953" width="84.938" height="190.576" fill="none"/>
    </clipPath>
    <clipPath id="clip-path-5">
      <path id="Trazado_206264" data-name="Trazado 206264" d="M115.48,155.787c-1.663,3.1,8.939,29.389,9.389,55.327,10.445,6.972,33.288,9.922,48.271,8.367,7.781-23.357,6.452-60.018-2.2-70.842-3-3.758-22.27-11.54-22.27-11.54s-28.881,10.657-33.193,18.688" transform="translate(-115.303 -137.099)" fill="none"/>
    </clipPath>
    <clipPath id="clip-path-7">
      <path id="Trazado_206352" data-name="Trazado 206352" d="M402.295,85.821c-2.546.862-3.276,3.278-1.928,4.143,1.137.729,1.373-1.129,2.787-1.608a3.524,3.524,0,0,1,1.747,0c.914.158,1.684.317,1.944-.831.195-.858-.99-1.994-2.853-1.994a5.279,5.279,0,0,0-1.7.295" transform="translate(-399.702 -85.526)" fill="none"/>
    </clipPath>
    <clipPath id="clip-path-9">
      <path id="Trazado_206412" data-name="Trazado 206412" d="M533.748,262.576c.938,1.614,2.195.956,3.789.3a6.609,6.609,0,0,1,3.547-.66c3.663.544,5.593,5.462,8.363,2.151,1.647-1.969-.8-7.206-7.467-8.2a11.364,11.364,0,0,0-1.661-.125c-5.109,0-8.233,3.668-6.57,6.53" transform="translate(-533.299 -256.046)" fill="none"/>
    </clipPath>
  </defs>
  <g id="Grupo_156437" data-name="Grupo 156437" transform="translate(-705 -5891)">
    <rect id="Imagen_56" data-name="Imagen 56" width="660" height="350" rx="19" transform="translate(705 5891)" fill="#644bb5"/>
    <g id="Grupo_149581" data-name="Grupo 149581" transform="translate(795 5921)">
      <g id="Grupo_149580" data-name="Grupo 149580" clip-path="url(#clip-path)">
        <g id="Grupo_149567" data-name="Grupo 149567">
          <g id="Grupo_149566" data-name="Grupo 149566" clip-path="url(#clip-path)">
            <g id="Grupo_149562" data-name="Grupo 149562" transform="translate(193.026)" opacity="0.5">
              <g id="Grupo_149561" data-name="Grupo 149561">
                <g id="Grupo_149560" data-name="Grupo 149560" clip-path="url(#clip-path-3)">
                  <path id="Trazado_206251" data-name="Trazado 206251" d="M339.476,187.879a143.293,143.293,0,0,1-32.57,47.986A129.029,129.029,0,0,0,261.987,0a143.776,143.776,0,0,1,77.489,187.879" transform="translate(-261.988)" fill="#bfe9ff"/>
                </g>
              </g>
            </g>
            <g id="Grupo_149565" data-name="Grupo 149565" transform="translate(168.449 28.56)" opacity="0.5">
              <g id="Grupo_149564" data-name="Grupo 149564">
                <g id="Grupo_149563" data-name="Grupo 149563" clip-path="url(#clip-path-4)">
                  <path id="Trazado_206252" data-name="Trazado 206252" d="M291.24,190.568a115.787,115.787,0,0,1-26.316,38.773A104.256,104.256,0,0,0,228.63,38.764a116.17,116.17,0,0,1,62.61,151.8" transform="translate(-228.63 -38.764)" fill="#bfe9ff"/>
                </g>
              </g>
            </g>
            <path id="Trazado_206253" data-name="Trazado 206253" d="M11.7,389.586H371.64s-31.471-41.539-55.952-26.553c-9.78-33.036-53.932-39.9-72.5-6.668-13.368-64.589-64.047-39.778-64.047-39.778S151.578,241.081,78.8,269.858c-13-11.4-44.977,1.337-39.767,28.778-29.581,5.249-54.573,48.85-27.328,90.95" transform="translate(0 -69.312)" fill="#535fcd"/>
            <path id="Trazado_206254" data-name="Trazado 206254" d="M49.663,388.64l-8.436,6.327,5.56,8.435,10.545-5.751Z" transform="translate(-10.852 -102.3)" fill="#ff6198"/>
            <path id="Trazado_206255" data-name="Trazado 206255" d="M193.714,413.246v8.572H205.6v-8.572" transform="translate(-50.99 -108.777)" fill="#ff6198"/>
            <path id="Trazado_206256" data-name="Trazado 206256" d="M261.9,37.123l17.047,96.639,6.086-1.073L266.08,25.269Z" transform="translate(-68.938 -6.651)" fill="#bfe9ff"/>
            <path id="Trazado_206257" data-name="Trazado 206257" d="M275.562,34.976l-7.987-9.707,18.948,107.419,6.086-1.073Z" transform="translate(-70.433 -6.651)" fill="#aacde3"/>
            <path id="Trazado_206258" data-name="Trazado 206258" d="M197,164.4l28.507,16.818L257.6,182.29s2.144-5.437,6.636-7.025,5.791-.209,5.791-.209,3.092-1.844,4.337.146,3.433,7.29.612,11.987-13.7,5.15-13.7,5.15-30.228,8.84-37.957,7.284c-8.369-1.684-32.5-14.958-32.5-14.958" transform="translate(-50.229 -43.276)" fill="#ff95a4"/>
            <path id="Trazado_206259" data-name="Trazado 206259" d="M193.162,163.343l-21.124,15.628s-16.394-23.377,2.076-29.867c14.624-5.138,19.048,14.238,19.048,14.238" transform="translate(-43.519 -39.02)" fill="#b1c8ff"/>
            <path id="Trazado_206260" data-name="Trazado 206260" d="M106.926,232.969S99.955,284.5,85.085,308.126C72.772,327.688,47.14,344.9,47.14,344.9l9.636,15.089s34.975-20.42,51.841-43.688c20.229-27.908,24.574-49.969,24.574-49.969s16.587,21.716,20.243,98.29l18.861.286s2.291-90.153-17.1-123.57c-24.5-42.22-48.271-8.367-48.271-8.367" transform="translate(-12.408 -57.943)" fill="#4d3c71"/>
            <path id="Trazado_206261" data-name="Trazado 206261" d="M169.392,260.278,163.935,276.9s14.943,24.949,19.81,94.4h9.05s-6.055-87.787-23.4-111.018" transform="translate(-43.152 -68.512)" fill="#44356b"/>
            <path id="Trazado_206262" data-name="Trazado 206262" d="M148.673,137.1s-28.882,10.657-33.193,18.689c-1.664,3.1,8.939,29.389,9.389,55.326,10.445,6.972,33.288,9.923,48.271,8.367,7.781-23.356,6.452-60.018-2.2-70.842-3-3.758-22.27-11.54-22.27-11.54" transform="translate(-30.351 -36.088)" fill="#cadaff"/>
          </g>
        </g>
        <g id="Grupo_149569" data-name="Grupo 149569" transform="translate(84.952 101.011)">
          <g id="Grupo_149568" data-name="Grupo 149568" clip-path="url(#clip-path-5)">
            <path id="Trazado_206263" data-name="Trazado 206263" d="M146.01,137.979s9.1,15.162,17.8,13.694,4.3-12.96,4.3-12.96-7.276-10.515-22.1-.735" transform="translate(-123.386 -136.235)" fill="#b1c8ff"/>
          </g>
        </g>
        <g id="Grupo_149571" data-name="Grupo 149571">
          <g id="Grupo_149570" data-name="Grupo 149570" clip-path="url(#clip-path)">
            <path id="Trazado_206265" data-name="Trazado 206265" d="M163.513,108.554s3.721,4.869,14.668,3.97c-3.427,4.332-13.95,1.888-14.668-3.97" transform="translate(-43.041 -28.574)" fill="#ff7a89"/>
            <path id="Trazado_206266" data-name="Trazado 206266" d="M143.476,99.592s-8.574.408-11.957-7.086c-2.455-5.438-11.012-29.14-6.8-32.768s11.839-3.351,11.839-3.351,7.5-17.411,24.265-16.9,34.05,22.7,12.6,38.023c-11.228,5.289-29.943,22.086-29.943,22.086" transform="translate(-32.527 -10.39)" fill="#535fcd"/>
            <path id="Trazado_206267" data-name="Trazado 206267" d="M140.97,62.238a9.24,9.24,0,0,1,.3-7.223c.65,2.859-.3,7.223-.3,7.223" transform="translate(-36.947 -14.481)" fill="#535fcd"/>
            <path id="Trazado_206268" data-name="Trazado 206268" d="M141.04,63.484a6.01,6.01,0,0,1-4.393-5.755c2.691,1.442,4.393,5.755,4.393,5.755" transform="translate(-35.969 -15.196)" fill="#535fcd"/>
            <path id="Trazado_206269" data-name="Trazado 206269" d="M141.371,104.2s2.168,9.958,9.491,13.1,25.861-.258,29.27-6.373-5.058-31.79-5.058-31.79-10.908,5.536-26.265-1.747c4.276,10.447-4.485,10.074-4.485,10.074l2.821,12.609-3.21-.069s-7.254-11.539-12.049-5.437c-2.568,3.266-.223,15.852,9.485,9.629" transform="translate(-34.461 -20.372)" fill="#ff95a4"/>
            <path id="Trazado_206270" data-name="Trazado 206270" d="M140.789,105.919s-1.787-3.554-3.906-2.7-1.846,5.578.771,6.274,3.136-3.578,3.136-3.578" transform="translate(-35.659 -27.136)" fill="#ff7a89"/>
            <path id="Trazado_206271" data-name="Trazado 206271" d="M170.766,98.147a2.051,2.051,0,1,1-2.327-2.22,2.307,2.307,0,0,1,2.327,2.22" transform="translate(-43.901 -25.246)" fill="#482441"/>
            <path id="Trazado_206272" data-name="Trazado 206272" d="M189.447,95.9a2.051,2.051,0,1,1-2.327-2.22,2.307,2.307,0,0,1,2.327,2.22" transform="translate(-48.819 -24.656)" fill="#482441"/>
            <path id="Trazado_206273" data-name="Trazado 206273" d="M163.855,89.034c-.547.3-.12,1.516.432,2.011.62.556,6.7,2.851,7.386,2.644s.874-2.84.253-3.6-7.326-1.466-8.071-1.051" transform="translate(-43.064 -23.404)" fill="#535fcd"/>
            <path id="Trazado_206274" data-name="Trazado 206274" d="M187.6,85.8c.542.069.5,1.11.167,1.645-.376.6-4.9,4.13-5.526,4.175s-1.486-1.887-1.165-2.646S186.858,85.7,187.6,85.8" transform="translate(-47.645 -22.583)" fill="#535fcd"/>
            <path id="Trazado_206275" data-name="Trazado 206275" d="M179.58,94.8c-1.16.16-.659,9.445.272,10.249s4.584-.177,4.887-1.389-3.9-9.034-5.159-8.86" transform="translate(-47.093 -24.952)" fill="#ff7a89"/>
            <path id="Trazado_206276" data-name="Trazado 206276" d="M178.4,102.115c2.526-.355,9.116,3.4,9.925,5.713,1.482,4.241.087,12.117-11.038,13.8s-12.766-4.513-13.345-8.356c-.379-2.519,10.942-10.661,14.458-11.155" transform="translate(-43.152 -26.873)" fill="#e8eaff"/>
            <path id="Trazado_206277" data-name="Trazado 206277" d="M165.837,115.7s7.227,5.875,15.082,3.375,7.255-7.452,7.255-7.452-4.744,7.685-22.338,4.077" transform="translate(-43.653 -29.382)" fill="#cadaff"/>
            <path id="Trazado_206278" data-name="Trazado 206278" d="M170.6,110.792s11.451,2.658,16.973-2.387a132.933,132.933,0,0,1-16.973,2.387" transform="translate(-44.907 -28.535)" fill="#cadaff"/>
            <path id="Trazado_206279" data-name="Trazado 206279" d="M159.38,116.8s-5.688,3.355-14.637-3.019c-.58.3-1.012.549-1.012.549s7.609,7.167,16.143,3.482" transform="translate(-37.834 -29.949)" fill="#e8eaff"/>
            <path id="Trazado_206280" data-name="Trazado 206280" d="M165.207,107.4a57.182,57.182,0,0,0-18.723-2.289l-.475-.588s10.705-1.23,20.623,2.345" transform="translate(-38.434 -27.46)" fill="#e8eaff"/>
            <path id="Trazado_206281" data-name="Trazado 206281" d="M190.822,104.849s3.248-1.384,4.45-2.844c.771.472-1.1,2.666-3.4,3.282" transform="translate(-50.229 -26.85)" fill="#e8eaff"/>
            <path id="Trazado_206282" data-name="Trazado 206282" d="M196.9,111.735l1.009-1.838s1.009.721-.875,2.8" transform="translate(-51.829 -28.928)" fill="#e8eaff"/>
            <path id="Trazado_206283" data-name="Trazado 206283" d="M149.268,121.638l1.754,15.547s6.851,7.987,12.818,8.2c4.329.157,2.58-9.751,2.58-9.751l-2.81-9.993" transform="translate(-39.291 -32.018)" fill="#ff95a4"/>
            <path id="Trazado_206284" data-name="Trazado 206284" d="M125.359,160.936c-8.079,4.575,2.073,36.629,21.146,42.774s47.935-3.15,47.935-3.15l-3.108-14.268s-30.824,7.42-39.052-1.875-11.371-32.286-26.921-23.481" transform="translate(-32.262 -41.844)" fill="#ff95a4"/>
            <path id="Trazado_206285" data-name="Trazado 206285" d="M145.738,165.95,120.6,183.969s-16.134-20.618-.48-32.374c9.543-7.167,25.617,14.355,25.617,14.355" transform="translate(-29.82 -39.519)" fill="#b1c8ff"/>
            <path id="Trazado_206286" data-name="Trazado 206286" d="M230.867,151.161l-15.5.682-9.572-7.17-6.064,10.66-18.078,7.222c.094-3.583-4.189,71.151,47.016,89.073,32.287-36.69,2.2-100.466,2.2-100.466" transform="translate(-47.802 -38.082)" fill="#4d3c71"/>
            <path id="Trazado_206287" data-name="Trazado 206287" d="M204.1,161.466l-16.389,6.606s-.483,57.965,41.2,80.6l-19.869-95.621Z" transform="translate(-49.41 -40.288)" fill="#70638d"/>
            <path id="Trazado_206288" data-name="Trazado 206288" d="M237.926,157.859l-14.425.926-6.838-5.731,19.869,95.621c24.858-32.845,1.393-90.815,1.393-90.815" transform="translate(-57.031 -40.288)" fill="#605180"/>
            <path id="Trazado_206289" data-name="Trazado 206289" d="M239.17,188.04l-8.1,7.117-7.361-8.175,4.74,22.812,9.935-.508Z" transform="translate(-58.887 -49.219)" fill="#4d3c71"/>
            <path id="Trazado_206290" data-name="Trazado 206290" d="M214.848,197.846,203.1,193.563l10.638,19.342,9.286-3.111-4.74-22.812Z" transform="translate(-53.463 -49.219)" fill="#605180"/>
            <rect id="Rectángulo_47955" data-name="Rectángulo 47955" width="7.114" height="21.213" transform="translate(212.859 128.195) rotate(-10.002)" fill="#c97738"/>
            <path id="Trazado_206291" data-name="Trazado 206291" d="M305.689,170.7l-36.167,6.38-.7-3.956a1.611,1.611,0,0,1,1.306-1.866l32.994-5.82a1.611,1.611,0,0,1,1.866,1.306Z" transform="translate(-70.755 -43.541)" fill="#ffcd3b"/>
            <path id="Trazado_206292" data-name="Trazado 206292" d="M297.05,162.131a7.4,7.4,0,1,0-6,8.569,7.4,7.4,0,0,0,6-8.569" transform="translate(-74.326 -41.068)" fill="#ffcd3b"/>
            <path id="Trazado_206293" data-name="Trazado 206293" d="M294.64,164.17a3.557,3.557,0,1,0-2.885,4.121,3.557,3.557,0,0,0,2.885-4.121" transform="translate(-75.698 -42.44)" fill="#ff6198"/>
            <path id="Trazado_206294" data-name="Trazado 206294" d="M301.633,202.16l-9.5,1.676a1.354,1.354,0,0,1-1.569-1.1l-.208-1.178a1.354,1.354,0,0,1,1.1-1.569l9.5-1.676a1.355,1.355,0,0,1,1.57,1.1l.208,1.178a1.355,1.355,0,0,1-1.1,1.569" transform="translate(-76.423 -52.196)" fill="#ee8738"/>
            <rect id="Rectángulo_47956" data-name="Rectángulo 47956" width="36.725" height="2.384" transform="translate(198.353 131.19) rotate(-10.004)" fill="#ee8738"/>
            <path id="Trazado_206295" data-name="Trazado 206295" d="M300.093,177.814s-4.252,1.18-4.077,2.842,2.625,1.488,2.625,1.488-2,1.7-1.479,2.775,2.645.323,2.645.323-1.77.926-1.638,2.064c.136,1.168,2.092.508,2.092.508s-1.6,1.642-.878,2.674,2.758-.208,2.758-.208" transform="translate(-77.918 -46.805)" fill="#ff95a4"/>
            <path id="Trazado_206296" data-name="Trazado 206296" d="M39.912,393.844l6.9,11.886L48.348,418l6.519,3.259a2.684,2.684,0,0,1-2.684,2.684H43.118L31.86,399.979Z" transform="translate(-8.386 -103.67)" fill="#482441"/>
            <path id="Trazado_206297" data-name="Trazado 206297" d="M191.937,431.41h28.688a3.805,3.805,0,0,0,3.805-3.805l-18.647-5.4H191.937Z" transform="translate(-50.523 -111.136)" fill="#482441"/>
            <path id="Trazado_206298" data-name="Trazado 206298" d="M44.907,384.986l12.227,20.026,4.646-3.367L50.248,381.963Z" transform="translate(-11.821 -100.543)" fill="#44356b"/>
            <rect id="Rectángulo_47957" data-name="Rectángulo 47957" width="23.879" height="5.334" transform="translate(138.299 301.629)" fill="#44356b"/>
            <path id="Trazado_206299" data-name="Trazado 206299" d="M139.855,63.8s-6.809-.749-7.932,4.62c4.245.874,6.368-1.249,6.368-1.249s-2.247,2.644-.624,7.254c4-1.26,4.635-6.254,4.635-6.254s.735,4.37,3.231,6.867c2.622-3.871,1.374-6.993,1.374-6.993s4.256.5,5.706-4.37c-3.757-1.713-8.828,1.623-8.828,1.623s3.161-3.371,3.246-7.242c-5.409-.374-7.177,5.744-7.177,5.744" transform="translate(-34.726 -15.276)" fill="#4a57bf"/>
            <path id="Trazado_206300" data-name="Trazado 206300" d="M268.934,419.472s-10.229-18.284,3.919-42.617c12.167,20.372,5.182,42.617,5.182,42.617" transform="translate(-69.849 -99.198)" fill="#53b9cd"/>
            <path id="Trazado_206301" data-name="Trazado 206301" d="M296.052,426.332s-4.81-16.381,12.733-23.416c2.546,16.733-9.337,23.416-9.337,23.416" transform="translate(-77.77 -106.058)" fill="#53b9cd"/>
            <path id="Trazado_206302" data-name="Trazado 206302" d="M135.439,426.332s-10.447-4.6-6.876-23.416c16.977,4.244,14.148,23.416,14.148,23.416" transform="translate(-33.645 -106.058)" fill="#53b9cd"/>
            <path id="Trazado_206303" data-name="Trazado 206303" d="M363.183,423.212s-11.707-8.879-8.029-32.148c22.247,10.839,16.411,32.148,16.411,32.148" transform="translate(-93.298 -102.938)" fill="#53b9cd"/>
            <path id="Trazado_206304" data-name="Trazado 206304" d="M83.8,300.239a5.717,5.717,0,1,1-5.717-5.717,5.717,5.717,0,0,1,5.717,5.717" transform="translate(-19.048 -77.526)" fill="#45459b"/>
            <path id="Trazado_206305" data-name="Trazado 206305" d="M70.907,322.29A3.911,3.911,0,1,1,67,318.378a3.912,3.912,0,0,1,3.912,3.912" transform="translate(-16.606 -83.805)" fill="#45459b"/>
            <path id="Trazado_206306" data-name="Trazado 206306" d="M50.131,344.754A9.136,9.136,0,1,1,41,335.618a9.136,9.136,0,0,1,9.136,9.136" transform="translate(-8.386 -88.343)" fill="#45459b"/>
            <path id="Trazado_206307" data-name="Trazado 206307" d="M79.086,341.335a1.451,1.451,0,1,1-1.451-1.451,1.451,1.451,0,0,1,1.451,1.451" transform="translate(-20.054 -89.466)" fill="#45459b"/>
            <path id="Trazado_206308" data-name="Trazado 206308" d="M109.8,403.531a4.873,4.873,0,1,1-4.872-4.872,4.873,4.873,0,0,1,4.872,4.872" transform="translate(-26.338 -104.937)" fill="#45459b"/>
            <path id="Trazado_206309" data-name="Trazado 206309" d="M270.7,347.637a5.783,5.783,0,1,1-5.784-5.783,5.783,5.783,0,0,1,5.784,5.783" transform="translate(-68.21 -89.985)" fill="#45459b"/>
            <path id="Trazado_206310" data-name="Trazado 206310" d="M250.647,362.653a5.1,5.1,0,1,1-5.1-5.1,5.1,5.1,0,0,1,5.1,5.1" transform="translate(-63.291 -94.117)" fill="#45459b"/>
            <path id="Trazado_206311" data-name="Trazado 206311" d="M299.24,352.585a4.568,4.568,0,1,1-4.568-4.568,4.568,4.568,0,0,1,4.568,4.568" transform="translate(-76.363 -91.607)" fill="#45459b"/>
            <path id="Trazado_206312" data-name="Trazado 206312" d="M296.173,378.736a1.882,1.882,0,1,1-1.882-1.882,1.883,1.883,0,0,1,1.882,1.882" transform="translate(-76.97 -99.198)" fill="#45459b"/>
            <path id="Trazado_206313" data-name="Trazado 206313" d="M382.462,378.185a4.4,4.4,0,1,1-4.4-4.4,4.4,4.4,0,0,1,4.4,4.4" transform="translate(-98.359 -98.39)" fill="#45459b"/>
            <path id="Trazado_206314" data-name="Trazado 206314" d="M402.263,399.308a5.464,5.464,0,1,1-5.464-5.464,5.464,5.464,0,0,1,5.464,5.464" transform="translate(-103.01 -103.67)" fill="#45459b"/>
            <path id="Trazado_206315" data-name="Trazado 206315" d="M361.266,380.123A3.268,3.268,0,1,1,358,376.855a3.268,3.268,0,0,1,3.268,3.268" transform="translate(-93.374 -99.198)" fill="#45459b"/>
            <path id="Trazado_206316" data-name="Trazado 206316" d="M177.674,365.971a3.166,3.166,0,1,1-3.167-3.167,3.167,3.167,0,0,1,3.167,3.167" transform="translate(-45.101 -95.499)" fill="#45459b"/>
            <path id="Trazado_206317" data-name="Trazado 206317" d="M173.043,384.259a6.7,6.7,0,1,1-6.7-6.7,6.7,6.7,0,0,1,6.7,6.7" transform="translate(-42.021 -99.383)" fill="#45459b"/>
            <path id="Trazado_206318" data-name="Trazado 206318" d="M119.129,166.861l7.976-6.255,2.558,2.8-7.962,6.4Z" transform="translate(-31.358 -42.276)" fill="#fff"/>
            <path id="Trazado_206319" data-name="Trazado 206319" d="M124.774,173.106l7.976-6.255,2.558,2.8-7.962,6.4Z" transform="translate(-32.844 -43.919)" fill="#fff"/>
            <path id="Trazado_206320" data-name="Trazado 206320" d="M452.506,58.66a4.4,4.4,0,0,0-.047-6.311,4.444,4.444,0,0,0-6.142.068,4.369,4.369,0,0,0-1.284,3,4.685,4.685,0,0,1-1.461,3.18l-6.064,5.968L440.2,67.3l6.067-5.972a5.151,5.151,0,0,1,3.388-1.412,4.366,4.366,0,0,0,2.85-1.253" transform="translate(-115.163 -13.464)" fill="#58b669"/>
            <path id="Trazado_206321" data-name="Trazado 206321" d="M464.241,102.683a4.4,4.4,0,1,0-2.1-7.878,4.7,4.7,0,0,1-3.405.839l-8.456-1.026-.474,3.816,8.463,1.026a5.14,5.14,0,0,1,3.215,1.772,4.361,4.361,0,0,0,2.756,1.449" transform="translate(-118.401 -24.721)" fill="#58b669"/>
            <path id="Trazado_206322" data-name="Trazado 206322" d="M417.9,40.08a4.4,4.4,0,0,0-4.226-4.688,4.444,4.444,0,0,0-4.547,4.13,4.365,4.365,0,0,0,1.029,3.093,4.691,4.691,0,0,1,1.02,3.349l-.571,8.488,3.831.258.571-8.494a5.152,5.152,0,0,1,1.6-3.305,4.37,4.37,0,0,0,1.3-2.829" transform="translate(-107.692 -9.315)" fill="#58b669"/>
            <path id="Trazado_206323" data-name="Trazado 206323" d="M449.848,132.625a4.4,4.4,0,0,1-.5,6.291,4.444,4.444,0,0,1-6.122-.514,4.37,4.37,0,0,1-1.064-3.081,4.684,4.684,0,0,0-1.226-3.278l-5.614-6.392,2.885-2.534,5.618,6.4a5.153,5.153,0,0,0,3.276,1.654,4.362,4.362,0,0,1,2.751,1.457" transform="translate(-114.587 -32.408)" fill="#58b669"/>
            <path id="Trazado_206324" data-name="Trazado 206324" d="M353.433,93.142a4.4,4.4,0,0,1-3.8-5.04,4.444,4.444,0,0,1,4.918-3.681,4.37,4.37,0,0,1,2.841,1.6,4.687,4.687,0,0,0,3.094,1.637l8.443,1.051-.474,3.811-8.448-1.052a5.153,5.153,0,0,0-3.548.939,4.369,4.369,0,0,1-3.024.738" transform="translate(-92.019 -22.212)" fill="#58b669"/>
            <path id="Trazado_206325" data-name="Trazado 206325" d="M370.023,133.272a4.4,4.4,0,1,1-3.124-7.531,4.7,4.7,0,0,0,3.214-1.4l6.09-5.955,2.7,2.742-6.094,5.96a5.145,5.145,0,0,0-1.476,3.363,4.358,4.358,0,0,1-1.306,2.826" transform="translate(-95.432 -31.161)" fill="#58b669"/>
            <path id="Trazado_206326" data-name="Trazado 206326" d="M371.746,55.731a4.395,4.395,0,0,1,.5-6.291,4.443,4.443,0,0,1,6.121.514,4.37,4.37,0,0,1,1.064,3.081,4.684,4.684,0,0,0,1.226,3.278l5.614,6.392-2.884,2.534-5.618-6.4a5.157,5.157,0,0,0-3.277-1.654,4.362,4.362,0,0,1-2.75-1.457" transform="translate(-97.565 -12.754)" fill="#58b669"/>
            <path id="Trazado_206327" data-name="Trazado 206327" d="M402.455,148.617a4.4,4.4,0,0,0,4.226,4.688,4.444,4.444,0,0,0,4.547-4.13,4.366,4.366,0,0,0-1.029-3.093,4.687,4.687,0,0,1-1.02-3.349l.571-8.488-3.831-.258-.571,8.494a5.152,5.152,0,0,1-1.6,3.305,4.366,4.366,0,0,0-1.3,2.829" transform="translate(-105.934 -35.269)" fill="#58b669"/>
            <path id="Trazado_206328" data-name="Trazado 206328" d="M431.914,76.906a31.573,31.573,0,1,1-40.036-19.768,31.572,31.572,0,0,1,40.036,19.768" transform="translate(-97.507 -14.598)" fill="#74d77e"/>
            <path id="Trazado_206329" data-name="Trazado 206329" d="M396.067,31.4a6.332,6.332,0,0,0-8.212-3.9A6.4,6.4,0,0,0,384.09,35.5a6.294,6.294,0,0,0,3.078,3.545,6.745,6.745,0,0,1,3.207,3.889l3.933,11.6,5.238-1.776L395.61,41.154a7.414,7.414,0,0,1,.295-5.278,6.292,6.292,0,0,0,.163-4.481" transform="translate(-101.013 -7.132)" fill="#74d77e"/>
            <path id="Trazado_206330" data-name="Trazado 206330" d="M468.638,76.142a6.33,6.33,0,0,0,3.643-8.328,6.4,6.4,0,0,0-8.119-3.517,6.291,6.291,0,0,0-3.448,3.187,6.752,6.752,0,0,1-3.789,3.325L445.447,75.1l1.936,5.182,11.486-4.292a7.417,7.417,0,0,1,5.285.132,6.284,6.284,0,0,0,4.483.024" transform="translate(-117.253 -16.818)" fill="#74d77e"/>
            <path id="Trazado_206331" data-name="Trazado 206331" d="M437.088,150.468a6.331,6.331,0,0,1-4.149,8.088,6.4,6.4,0,0,1-7.858-4.067,6.29,6.29,0,0,1,.289-4.686,6.747,6.747,0,0,0,.18-5.037l-3.933-11.6,5.238-1.776L430.791,143a7.415,7.415,0,0,0,3.443,4.011,6.288,6.288,0,0,1,2.854,3.458" transform="translate(-110.981 -34.584)" fill="#74d77e"/>
            <path id="Trazado_206332" data-name="Trazado 206332" d="M440.366,39.274a6.331,6.331,0,0,0-2.486-8.744,6.4,6.4,0,0,0-8.5,2.45,6.294,6.294,0,0,0-.634,4.652,6.747,6.747,0,0,1-.808,4.975l-6.129,10.611,4.79,2.766,6.133-10.618a7.416,7.416,0,0,1,4.161-3.259,6.288,6.288,0,0,0,3.475-2.833" transform="translate(-111.031 -7.843)" fill="#74d77e"/>
            <path id="Trazado_206333" data-name="Trazado 206333" d="M462.911,127.952c4.4,2.341,10.31-1.024,9.249-7.507-2.183-4.729-6.87-5.375-9.893-3.268a.2.2,0,0,1-.209.014l-13.721-7.307-2.6,4.881,13.576,7.231a.479.479,0,0,1,.25.423,6.321,6.321,0,0,0,3.349,5.534" transform="translate(-117.33 -28.924)" fill="#74d77e"/>
            <path id="Trazado_206334" data-name="Trazado 206334" d="M348.419,117.748a6.331,6.331,0,0,1-7.957-4.4,6.4,6.4,0,0,1,4.307-7.728,6.291,6.291,0,0,1,4.675.432,6.749,6.749,0,0,0,5.03.337l11.721-3.573,1.613,5.29-11.729,3.576A7.416,7.416,0,0,0,351.963,115a6.289,6.289,0,0,1-3.544,2.745" transform="translate(-89.562 -27.065)" fill="#74d77e"/>
            <path id="Trazado_206335" data-name="Trazado 206335" d="M350.685,70.485a6.331,6.331,0,0,1-3.343-8.454,6.4,6.4,0,0,1,8.239-3.224,6.29,6.29,0,0,1,3.332,3.307,6.748,6.748,0,0,0,3.668,3.459l11.317,4.7-2.12,5.108-11.325-4.7a7.412,7.412,0,0,0-5.286-.057,6.288,6.288,0,0,1-4.482-.136" transform="translate(-91.281 -15.351)" fill="#74d77e"/>
            <path id="Trazado_206336" data-name="Trazado 206336" d="M386.02,152.787c-2.067,4.531-8.808,5.455-11.908-.337-1.141-5.082,2.187-8.444,5.868-8.609a.2.2,0,0,0,.175-.116l6.45-14.145,5.032,2.3-6.381,14a.478.478,0,0,0,.058.487,6.323,6.323,0,0,1,.707,6.43" transform="translate(-98.416 -34.109)" fill="#74d77e"/>
            <path id="Trazado_206337" data-name="Trazado 206337" d="M390.4,73.418a4.3,4.3,0,1,1-5.454-2.693,4.3,4.3,0,0,1,5.454,2.693" transform="translate(-100.559 -18.557)" fill="#58b669"/>
            <path id="Trazado_206338" data-name="Trazado 206338" d="M389.667,97.513a5.776,5.776,0,1,1-7.324-3.616,5.776,5.776,0,0,1,7.324,3.616" transform="translate(-99.61 -24.635)" fill="#58b669"/>
            <path id="Trazado_206339" data-name="Trazado 206339" d="M404.408,119.1a6.307,6.307,0,1,1-8-3.949,6.306,6.306,0,0,1,8,3.949" transform="translate(-103.218 -30.223)" fill="#58b669"/>
            <path id="Trazado_206340" data-name="Trazado 206340" d="M425.477,97.172a7.3,7.3,0,1,1-9.262-4.573,7.3,7.3,0,0,1,9.262,4.573" transform="translate(-108.253 -24.272)" fill="#58b669"/>
            <path id="Trazado_206341" data-name="Trazado 206341" d="M434.692,118.335a5.348,5.348,0,1,1-6.782-3.349,5.348,5.348,0,0,1,6.782,3.349" transform="translate(-111.681 -30.193)" fill="#58b669"/>
            <path id="Trazado_206342" data-name="Trazado 206342" d="M446.255,96.486a5.04,5.04,0,1,1-6.391-3.156,5.04,5.04,0,0,1,6.391,3.156" transform="translate(-114.882 -24.496)" fill="#58b669"/>
            <path id="Trazado_206343" data-name="Trazado 206343" d="M434.943,74.523a3.969,3.969,0,1,1-5.033-2.485,3.969,3.969,0,0,1,5.033,2.485" transform="translate(-112.454 -18.907)" fill="#58b669"/>
            <path id="Trazado_206344" data-name="Trazado 206344" d="M416.167,64.136a5.158,5.158,0,1,1-6.54-3.229,5.157,5.157,0,0,1,6.54,3.229" transform="translate(-106.902 -15.96)" fill="#58b669"/>
            <path id="Trazado_206345" data-name="Trazado 206345" d="M392.111,83.674c-1.076.365-1.506,1.964-.96,3.573s1.858,2.618,2.935,2.253,1.505-1.964.959-3.573Z" transform="translate(-102.899 -22.025)" fill="#482441"/>
            <path id="Trazado_206346" data-name="Trazado 206346" d="M409.916,77.641c1.076-.365,2.389.644,2.935,2.253s.116,3.208-.96,3.573-2.389-.644-2.935-2.253Z" transform="translate(-107.648 -20.418)" fill="#482441"/>
            <path id="Trazado_206347" data-name="Trazado 206347" d="M393.943,86.906a.736.736,0,1,1-.736-.736.736.736,0,0,1,.736.736" transform="translate(-103.309 -22.682)" fill="#fff"/>
            <path id="Trazado_206348" data-name="Trazado 206348" d="M411.726,81.211a.736.736,0,1,1-.736-.736.736.736,0,0,1,.736.736" transform="translate(-107.99 -21.183)" fill="#fff"/>
            <path id="Trazado_206349" data-name="Trazado 206349" d="M403.154,88.355c1.537-.521,3.273,1.01,3.69-.835.248-1.1-1.755-2.647-4.55-1.7-2.545.863-3.276,3.279-1.927,4.144,1.136.729,1.373-1.129,2.786-1.608" transform="translate(-105.212 -22.513)" fill="#fff"/>
          </g>
        </g>
        <g id="Grupo_149573" data-name="Grupo 149573" transform="translate(294.49 63.013)">
          <g id="Grupo_149572" data-name="Grupo 149572" clip-path="url(#clip-path-7)">
            <path id="Trazado_206350" data-name="Trazado 206350" d="M400.455,91.431l-.007-2.092-1.761-.475a5.228,5.228,0,0,0,.739,2.52c.631.644,1.029.047,1.029.047" transform="translate(-399.435 -86.405)" fill="#844788"/>
            <path id="Trazado_206351" data-name="Trazado 206351" d="M408.379,85.393l-.43,1.38,1.012,1.671.533-1.054Z" transform="translate(-401.873 -85.491)" fill="#844788"/>
          </g>
        </g>
        <g id="Grupo_149575" data-name="Grupo 149575">
          <g id="Grupo_149574" data-name="Grupo 149574" clip-path="url(#clip-path)">
            <path id="Trazado_206353" data-name="Trazado 206353" d="M603.088,119.621a3.125,3.125,0,0,0,4.47.373,3.159,3.159,0,0,0,.347-4.352,3.1,3.1,0,0,0-2.038-1.1,3.331,3.331,0,0,1-2.157-1.239l-3.834-4.676-2.11,1.731,3.836,4.679a3.661,3.661,0,0,1,.782,2.488,3.1,3.1,0,0,0,.7,2.1" transform="translate(-157.348 -28.593)" fill="#58b669"/>
            <path id="Trazado_206354" data-name="Trazado 206354" d="M572.745,125.3a3.128,3.128,0,1,0,5.711-.979,3.343,3.343,0,0,1-.376-2.465l1.27-5.919-2.67-.58-1.27,5.923a3.655,3.655,0,0,1-1.461,2.162,3.1,3.1,0,0,0-1.2,1.857" transform="translate(-150.743 -30.365)" fill="#58b669"/>
            <path id="Trazado_206355" data-name="Trazado 206355" d="M617.6,96.526a3.125,3.125,0,0,0,3.59-2.69,3.158,3.158,0,0,0-2.63-3.484,3.1,3.1,0,0,0-2.255.53,3.335,3.335,0,0,1-2.436.506l-5.971-.95-.429,2.7,5.975.95a3.657,3.657,0,0,1,2.237,1.342,3.1,3.1,0,0,0,1.919,1.1" transform="translate(-159.902 -23.774)" fill="#58b669"/>
            <path id="Trazado_206356" data-name="Trazado 206356" d="M550.544,113.234a3.124,3.124,0,0,1-4.421-.762,3.159,3.159,0,0,1,.757-4.3,3.105,3.105,0,0,1,2.249-.555,3.326,3.326,0,0,0,2.4-.657l4.886-3.562,1.608,2.205-4.889,3.565a3.664,3.664,0,0,0-1.381,2.213,3.1,3.1,0,0,1-1.208,1.854" transform="translate(-143.614 -27.217)" fill="#58b669"/>
            <path id="Trazado_206357" data-name="Trazado 206357" d="M586.706,47.485a3.123,3.123,0,0,1,3.811-2.366,3.157,3.157,0,0,1,2.289,3.718,3.1,3.1,0,0,1-1.313,1.908,3.329,3.329,0,0,0-1.357,2.084l-1.286,5.907-2.667-.581,1.288-5.912a3.659,3.659,0,0,0-.436-2.571,3.106,3.106,0,0,1-.328-2.188" transform="translate(-154.298 -11.852)" fill="#58b669"/>
            <path id="Trazado_206358" data-name="Trazado 206358" d="M555.537,56.477a3.128,3.128,0,1,1,5.531-1.727,3.34,3.34,0,0,0,.787,2.366l3.824,4.693-2.114,1.731-3.827-4.7a3.657,3.657,0,0,0-2.285-1.261,3.1,3.1,0,0,1-1.916-1.107" transform="translate(-146.047 -13.523)" fill="#58b669"/>
            <path id="Trazado_206359" data-name="Trazado 206359" d="M609.961,62.852a3.124,3.124,0,0,1,4.421.762,3.159,3.159,0,0,1-.757,4.3,3.105,3.105,0,0,1-2.249.555,3.326,3.326,0,0,0-2.4.657l-4.886,3.562-1.608-2.205,4.888-3.565a3.659,3.659,0,0,0,1.381-2.213,3.1,3.1,0,0,1,1.208-1.854" transform="translate(-158.589 -16.386)" fill="#58b669"/>
            <path id="Trazado_206360" data-name="Trazado 206360" d="M541.79,78.373a3.124,3.124,0,0,0-3.59,2.69,3.158,3.158,0,0,0,2.63,3.484,3.1,3.1,0,0,0,2.255-.53,3.335,3.335,0,0,1,2.436-.506l5.971.95.429-2.7-5.975-.95a3.658,3.658,0,0,1-2.237-1.342,3.1,3.1,0,0,0-1.919-1.1" transform="translate(-141.662 -20.619)" fill="#58b669"/>
            <path id="Trazado_206361" data-name="Trazado 206361" d="M622.974,81.582a4.5,4.5,0,0,0,3.287-5.562,4.549,4.549,0,0,0-5.425-3.18,4.472,4.472,0,0,0-2.707,1.951,4.8,4.8,0,0,1-2.959,2.02L606.7,78.848l.92,3.822,8.472-2.039a5.271,5.271,0,0,1,3.717.548,4.471,4.471,0,0,0,3.161.4" transform="translate(-159.7 -19.14)" fill="#74d77e"/>
            <path id="Trazado_206362" data-name="Trazado 206362" d="M589.634,129.965a4.5,4.5,0,0,0,5.661,3.114,4.549,4.549,0,0,0,3.011-5.521,4.473,4.473,0,0,0-2.033-2.645,4.8,4.8,0,0,1-2.11-2.9l-2.3-8.4-3.791,1.037,2.3,8.406a5.275,5.275,0,0,1-.433,3.732,4.467,4.467,0,0,0-.306,3.172" transform="translate(-154.796 -29.907)" fill="#74d77e"/>
            <path id="Trazado_206363" data-name="Trazado 206363" d="M536.079,103.072a4.5,4.5,0,0,1-5.458-3.457,4.548,4.548,0,0,1,3.383-5.3,4.47,4.47,0,0,1,3.3.5,4.794,4.794,0,0,0,3.553.452l8.467-2.038.919,3.822L541.771,99.1a5.268,5.268,0,0,0-3.061,2.179,4.467,4.467,0,0,1-2.631,1.8" transform="translate(-139.649 -24.542)" fill="#74d77e"/>
            <path id="Trazado_206364" data-name="Trazado 206364" d="M615,112.045a4.5,4.5,0,0,0,6.349-1.2,4.549,4.549,0,0,0-1.188-6.175,4.47,4.47,0,0,0-3.251-.748,4.8,4.8,0,0,1-3.47-.892l-7.116-5.02-2.266,3.212,7.121,5.023a5.272,5.272,0,0,1,2.039,3.155A4.467,4.467,0,0,0,615,112.045" transform="translate(-159.004 -25.799)" fill="#74d77e"/>
            <path id="Trazado_206365" data-name="Trazado 206365" d="M552.294,122.726c-1.94,2.961.062,7.363,4.719,7.029,3.486-1.241,4.245-4.516,2.949-6.792a.143.143,0,0,1,0-.15l6.054-9.241-3.287-2.154-5.991,9.143a.338.338,0,0,1-.315.15,4.494,4.494,0,0,0-4.133,2.014" transform="translate(-145.184 -29.328)" fill="#74d77e"/>
            <path id="Trazado_206366" data-name="Trazado 206366" d="M568.1,42.248a4.5,4.5,0,0,1,3.623-5.349,4.55,4.55,0,0,1,5.194,3.545,4.473,4.473,0,0,1-.607,3.282,4.793,4.793,0,0,0-.561,3.538l1.776,8.525-3.848.8L571.9,48.06a5.266,5.266,0,0,0-2.084-3.126,4.474,4.474,0,0,1-1.715-2.686" transform="translate(-149.515 -9.695)" fill="#74d77e"/>
            <path id="Trazado_206367" data-name="Trazado 206367" d="M600.521,46.949a4.5,4.5,0,0,1,6.2-1.823,4.549,4.549,0,0,1,1.752,6.039,4.475,4.475,0,0,1-2.555,2.145,4.8,4.8,0,0,0-2.684,2.373l-4.052,7.708L595.7,61.563l4.055-7.713a5.274,5.274,0,0,0,.38-3.738,4.471,4.471,0,0,1,.385-3.163" transform="translate(-156.804 -11.725)" fill="#74d77e"/>
            <path id="Trazado_206368" data-name="Trazado 206368" d="M537.927,66.332c-3.075-1.754-3.3-6.585,1-8.407,3.669-.48,5.835,2.091,5.716,4.707a.145.145,0,0,0,.071.131l9.6,5.474-1.947,3.414-9.5-5.416a.338.338,0,0,0-.349.01,4.492,4.492,0,0,1-4.6.086" transform="translate(-140.999 -15.232)" fill="#74d77e"/>
            <path id="Trazado_206369" data-name="Trazado 206369" d="M592.069,94.443A22.439,22.439,0,1,1,586.5,63.2a22.439,22.439,0,0,1,5.572,31.24" transform="translate(-145.096 -15.575)" fill="#74d77e"/>
            <path id="Trazado_206370" data-name="Trazado 206370" d="M580.352,92.457a4.1,4.1,0,1,1-1.02-5.715,4.106,4.106,0,0,1,1.02,5.715" transform="translate(-150.797 -22.639)" fill="#58b669"/>
            <path id="Trazado_206371" data-name="Trazado 206371" d="M605.724,86.057a4.1,4.1,0,1,1-1.02-5.715,4.106,4.106,0,0,1,1.02,5.715" transform="translate(-157.475 -20.954)" fill="#58b669"/>
            <path id="Trazado_206372" data-name="Trazado 206372" d="M565.789,81.5a4.482,4.482,0,1,1-1.113-6.24,4.482,4.482,0,0,1,1.113,6.24" transform="translate(-146.782 -19.599)" fill="#58b669"/>
            <path id="Trazado_206373" data-name="Trazado 206373" d="M568.962,103.921a3.8,3.8,0,1,1-.944-5.292,3.8,3.8,0,0,1,.944,5.292" transform="translate(-147.944 -25.782)" fill="#58b669"/>
            <path id="Trazado_206374" data-name="Trazado 206374" d="M584.131,110.186a3.582,3.582,0,1,1-.889-4.986,3.582,3.582,0,0,1,.889,4.986" transform="translate(-152.042 -27.522)" fill="#58b669"/>
            <path id="Trazado_206375" data-name="Trazado 206375" d="M594.056,69.7a2.821,2.821,0,1,1-.7-3.927,2.821,2.821,0,0,1,.7,3.927" transform="translate(-155.019 -17.179)" fill="#58b669"/>
            <path id="Trazado_206376" data-name="Trazado 206376" d="M595.361,99.312a2.821,2.821,0,1,1-.7-3.927,2.822,2.822,0,0,1,.7,3.927" transform="translate(-155.363 -24.974)" fill="#58b669"/>
            <path id="Trazado_206377" data-name="Trazado 206377" d="M575.859,68.275c-.98-.466-2.338.346-3.034,1.81s-.466,3.03.514,3.5,2.338-.345,3.034-1.81Z" transform="translate(-150.677 -17.937)" fill="#482441"/>
            <path id="Trazado_206378" data-name="Trazado 206378" d="M592,75.989c.98.466,1.21,2.031.514,3.5s-2.054,2.276-3.034,1.81-1.21-2.031-.514-3.5Z" transform="translate(-154.925 -20.002)" fill="#482441"/>
            <path id="Trazado_206379" data-name="Trazado 206379" d="M574.845,70.981a.45.45,0,1,1,.057-.634.45.45,0,0,1-.057.634" transform="translate(-151.12 -18.475)" fill="#fff"/>
            <path id="Trazado_206380" data-name="Trazado 206380" d="M591.155,79.189a.45.45,0,1,1,.056-.634.45.45,0,0,1-.056.634" transform="translate(-155.413 -20.635)" fill="#fff"/>
            <path id="Trazado_206381" data-name="Trazado 206381" d="M579.629,77.437s1.651-1.418,3.044-.563.648,2.894.648,2.894" transform="translate(-152.573 -20.163)" fill="none" stroke="#482441" stroke-linecap="round" stroke-miterlimit="10" stroke-width="1"/>
            <path id="Trazado_206382" data-name="Trazado 206382" d="M610.647,238.827a5.466,5.466,0,0,0,1.924-7.609,5.526,5.526,0,0,0-7.413-1.847,5.434,5.434,0,0,0-2.487,3.2,5.829,5.829,0,0,1-2.756,3.369l-9.17,5.278,2.382,4.139,9.177-5.282a6.4,6.4,0,0,1,4.52-.636,5.43,5.43,0,0,0,3.822-.614" transform="translate(-155.5 -60.184)" fill="#58b669"/>
            <path id="Trazado_206383" data-name="Trazado 206383" d="M611.948,294.574a5.474,5.474,0,1,0-.053-10.139,5.85,5.85,0,0,1-4.362-.059l-9.854-3.889-1.768,4.443,9.861,3.892a6.4,6.4,0,0,1,3.314,3.142,5.42,5.42,0,0,0,2.862,2.61" transform="translate(-156.859 -73.832)" fill="#58b669"/>
            <path id="Trazado_206384" data-name="Trazado 206384" d="M574.843,204.768a5.467,5.467,0,0,0-3.614-6.968,5.528,5.528,0,0,0-6.769,3.542,5.431,5.431,0,0,0,.267,4.045,5.83,5.83,0,0,1,.176,4.349l-3.352,10.036,4.53,1.512,3.354-10.042a6.407,6.407,0,0,1,2.957-3.477,5.428,5.428,0,0,0,2.451-3" transform="translate(-147.815 -52.007)" fill="#58b669"/>
            <path id="Trazado_206385" data-name="Trazado 206385" d="M585.451,326.056a5.467,5.467,0,0,1-2.582,7.413,5.528,5.528,0,0,1-7.206-2.54,5.434,5.434,0,0,1-.312-4.042,5.828,5.828,0,0,0-.447-4.329l-4.749-9.455,4.267-2.143,4.753,9.461a6.406,6.406,0,0,0,3.423,3.019,5.427,5.427,0,0,1,2.854,2.616" transform="translate(-150.079 -81.852)" fill="#58b669"/>
            <path id="Trazado_206386" data-name="Trazado 206386" d="M481.547,248.387a5.467,5.467,0,0,1-2.991-7.257,5.527,5.527,0,0,1,7.074-2.886,5.435,5.435,0,0,1,2.918,2.814A5.829,5.829,0,0,0,491.757,244l9.829,3.915-1.768,4.436-9.836-3.917a6.4,6.4,0,0,0-4.564.016,5.433,5.433,0,0,1-3.871-.062" transform="translate(-125.849 -62.609)" fill="#58b669"/>
            <path id="Trazado_206387" data-name="Trazado 206387" d="M488.087,302.985a5.474,5.474,0,1,1-1.395-10.043,5.848,5.848,0,0,0,4.309-.68l9.2-5.255,2.383,4.145-9.205,5.259a6.4,6.4,0,0,0-2.831,3.583,5.422,5.422,0,0,1-2.46,2.991" transform="translate(-126.321 -75.548)" fill="#58b669"/>
            <path id="Trazado_206388" data-name="Trazado 206388" d="M515.329,209.107a5.467,5.467,0,0,1,2.582-7.413,5.528,5.528,0,0,1,7.206,2.54,5.434,5.434,0,0,1,.312,4.042,5.828,5.828,0,0,0,.447,4.329l4.749,9.455-4.267,2.143-4.753-9.461a6.4,6.4,0,0,0-3.423-3.019,5.431,5.431,0,0,1-2.854-2.617" transform="translate(-135.494 -52.961)" fill="#58b669"/>
            <path id="Trazado_206389" data-name="Trazado 206389" d="M521.946,330.489a5.467,5.467,0,0,0,3.614,6.968,5.528,5.528,0,0,0,6.769-3.542,5.43,5.43,0,0,0-.268-4.045,5.83,5.83,0,0,1-.176-4.349l3.352-10.036-4.53-1.513-3.354,10.043a6.407,6.407,0,0,1-2.957,3.477,5.428,5.428,0,0,0-2.451,3" transform="translate(-137.315 -82.646)" fill="#58b669"/>
            <path id="Trazado_206390" data-name="Trazado 206390" d="M577.65,256.141a39.266,39.266,0,1,1-41.975-36.355,39.266,39.266,0,0,1,41.975,36.355" transform="translate(-131.407 -57.826)" fill="#74d77e"/>
            <path id="Trazado_206391" data-name="Trazado 206391" d="M551.985,187.649a7.874,7.874,0,0,0-8.659-7.27,7.961,7.961,0,0,0-7.045,8.453,7.825,7.825,0,0,0,2.591,5.232,8.394,8.394,0,0,1,2.638,5.687l1.09,15.2,6.861-.492-1.091-15.211a9.223,9.223,0,0,1,2.011-6.259,7.818,7.818,0,0,0,1.6-5.341" transform="translate(-141.157 -47.47)" fill="#74d77e"/>
            <path id="Trazado_206392" data-name="Trazado 206392" d="M624.82,265.914a7.873,7.873,0,0,0,7-8.878,7.96,7.96,0,0,0-8.666-6.781A7.821,7.821,0,0,0,618,253.006a8.4,8.4,0,0,1-5.6,2.812l-15.16,1.559.7,6.842,15.17-1.56a9.221,9.221,0,0,1,6.318,1.818,7.819,7.819,0,0,0,5.388,1.436" transform="translate(-157.209 -65.861)" fill="#74d77e"/>
            <path id="Trazado_206393" data-name="Trazado 206393" d="M563.67,343.787a7.874,7.874,0,0,1-7.532,8.431,7.96,7.96,0,0,1-8.18-7.36,7.827,7.827,0,0,1,1.818-5.549,8.389,8.389,0,0,0,1.8-6.005l-1.09-15.2,6.861-.492,1.091,15.211a9.231,9.231,0,0,0,2.885,5.908,7.816,7.816,0,0,1,2.349,5.057" transform="translate(-144.232 -83.603)" fill="#74d77e"/>
            <path id="Trazado_206394" data-name="Trazado 206394" d="M601,211.8a7.874,7.874,0,0,0-.247-11.3,7.96,7.96,0,0,0-11,.279,7.829,7.829,0,0,0-2.224,5.4,8.394,8.394,0,0,1-2.535,5.734l-10.705,10.845,4.9,4.833L589.9,216.731a9.228,9.228,0,0,1,6.032-2.616A7.822,7.822,0,0,0,601,211.8" transform="translate(-151.168 -52.23)" fill="#74d77e"/>
            <path id="Trazado_206395" data-name="Trazado 206395" d="M602.375,324.5c4.555,4.2,12.728,2,13.487-6.131-1.143-6.375-6.58-8.625-10.879-7.038a.249.249,0,0,1-.256-.049l-14.218-13.1-4.661,5.059L599.915,316.2a.6.6,0,0,1,.167.586,7.862,7.862,0,0,0,2.293,7.711" transform="translate(-154.21 -78.489)" fill="#74d77e"/>
            <path id="Trazado_206396" data-name="Trazado 206396" d="M467.256,277.7a7.874,7.874,0,0,1-8.194-7.789,7.959,7.959,0,0,1,7.609-7.948,7.828,7.828,0,0,1,5.49,1.989,8.389,8.389,0,0,0,5.947,1.983l15.226-.621.281,6.873-15.237.621a9.222,9.222,0,0,0-5.994,2.7,7.823,7.823,0,0,1-5.128,2.191" transform="translate(-120.837 -68.955)" fill="#74d77e"/>
            <path id="Trazado_206397" data-name="Trazado 206397" d="M485.108,220.449a7.874,7.874,0,0,1-1.369-11.223,7.96,7.96,0,0,1,10.927-1.293,7.825,7.825,0,0,1,2.971,5.026,8.393,8.393,0,0,0,3.327,5.314l12.145,9.206-4.155,5.482L496.8,223.749a9.221,9.221,0,0,0-6.343-1.728,7.823,7.823,0,0,1-5.35-1.571" transform="translate(-126.872 -54.312)" fill="#74d77e"/>
            <path id="Trazado_206398" data-name="Trazado 206398" d="M500.129,331.386c-3.909,4.8-12.311,3.8-14.224-4.143.222-6.473,5.282-9.475,9.764-8.519a.25.25,0,0,0,.247-.085l12.2-15,5.335,4.341-12.073,14.839a.593.593,0,0,0-.082.6,7.862,7.862,0,0,1-1.169,7.959" transform="translate(-127.903 -79.927)" fill="#74d77e"/>
            <path id="Trazado_206399" data-name="Trazado 206399" d="M522.48,272.707a7.183,7.183,0,1,1-7.679-6.651,7.183,7.183,0,0,1,7.679,6.651" transform="translate(-133.753 -70.028)" fill="#58b669"/>
            <path id="Trazado_206400" data-name="Trazado 206400" d="M538.027,300.279a7.844,7.844,0,1,1-8.385-7.262,7.844,7.844,0,0,1,8.385,7.262" transform="translate(-137.499 -77.124)" fill="#58b669"/>
            <path id="Trazado_206401" data-name="Trazado 206401" d="M560.4,283.942a3.72,3.72,0,1,1-3.977-3.444,3.72,3.72,0,0,1,3.977,3.444" transform="translate(-145.556 -73.832)" fill="#58b669"/>
            <path id="Trazado_206402" data-name="Trazado 206402" d="M562.108,231.189a3.72,3.72,0,1,1-3.977-3.444,3.72,3.72,0,0,1,3.977,3.444" transform="translate(-146.005 -59.946)" fill="#58b669"/>
            <path id="Trazado_206403" data-name="Trazado 206403" d="M568.787,304.3a6.652,6.652,0,1,1-7.111-6.159,6.652,6.652,0,0,1,7.111,6.159" transform="translate(-146.222 -78.474)" fill="#58b669"/>
            <path id="Trazado_206404" data-name="Trazado 206404" d="M589.762,282.85a6.268,6.268,0,1,1-6.7-5.8,6.268,6.268,0,0,1,6.7,5.8" transform="translate(-151.945 -72.921)" fill="#58b669"/>
            <path id="Trazado_206405" data-name="Trazado 206405" d="M592.006,258.779a4.936,4.936,0,1,1-5.277-4.57,4.936,4.936,0,0,1,5.277,4.57" transform="translate(-153.236 -66.911)" fill="#58b669"/>
            <path id="Trazado_206406" data-name="Trazado 206406" d="M547.587,236.119a4.805,4.805,0,1,1-5.137-4.449,4.8,4.8,0,0,1,5.137,4.449" transform="translate(-141.612 -60.978)" fill="#58b669"/>
            <path id="Trazado_206407" data-name="Trazado 206407" d="M523.668,240.5c-2.564-.38-5.1,2.42-5.673,6.254s1.048,7.252,3.612,7.632,5.1-2.42,5.672-6.254Z" transform="translate(-136.32 -63.297)" fill="#482441"/>
            <path id="Trazado_206408" data-name="Trazado 206408" d="M565.911,246.781c2.564.381,4.181,3.8,3.612,7.632s-3.108,6.635-5.672,6.254-4.181-3.8-3.612-7.632Z" transform="translate(-147.439 -64.959)" fill="#482441"/>
            <path id="Trazado_206409" data-name="Trazado 206409" d="M541.083,262.214c3.664.544,5.594,5.462,8.364,2.151,1.647-1.968-.8-7.206-7.467-8.194-6.066-.9-10.069,3.244-8.231,6.4,1.549,2.664,3.964-.862,7.335-.362" transform="translate(-140.378 -67.398)" fill="#fff"/>
          </g>
        </g>
        <g id="Grupo_149577" data-name="Grupo 149577" transform="translate(392.921 188.648)">
          <g id="Grupo_149576" data-name="Grupo 149576" clip-path="url(#clip-path-9)">
            <path id="Trazado_206410" data-name="Trazado 206410" d="M533.281,264.514l2.164-4.256-3.08-2.8s-1.735,3.923-1.126,5.887,2.042,1.168,2.042,1.168" transform="translate(-532.723 -256.418)" fill="#844788"/>
            <path id="Trazado_206411" data-name="Trazado 206411" d="M555.6,260.669l-2.311,2.354.313,4.449,2.182-1.586Z" transform="translate(-538.56 -257.263)" fill="#844788"/>
          </g>
        </g>
        <g id="Grupo_149579" data-name="Grupo 149579">
          <g id="Grupo_149578" data-name="Grupo 149578" clip-path="url(#clip-path)">
            <path id="Trazado_206413" data-name="Trazado 206413" d="M523.106,246.366a1.163,1.163,0,1,1-1.163-1.163,1.163,1.163,0,0,1,1.163,1.163" transform="translate(-137.083 -64.544)" fill="#fff"/>
            <path id="Trazado_206414" data-name="Trazado 206414" d="M566.854,253.781a1.162,1.162,0,1,1-1.163-1.163,1.163,1.163,0,0,1,1.163,1.163" transform="translate(-148.599 -66.496)" fill="#fff"/>
            <path id="Trazado_206415" data-name="Trazado 206415" d="M438.321,215.587a4.673,4.673,0,1,1-4.673-4.673,4.673,4.673,0,0,1,4.673,4.673" transform="translate(-112.917 -55.518)" fill="#58b669"/>
            <path id="Trazado_206416" data-name="Trazado 206416" d="M647.271,166.959a4.673,4.673,0,1,1-4.673-4.673,4.672,4.672,0,0,1,4.673,4.673" transform="translate(-167.918 -42.718)" fill="#58b669"/>
            <path id="Trazado_206417" data-name="Trazado 206417" d="M410.478,269.708a8.229,8.229,0,1,1-8.229-8.229,8.229,8.229,0,0,1,8.229,8.229" transform="translate(-103.716 -68.828)" fill="#58b669"/>
            <path id="Trazado_206418" data-name="Trazado 206418" d="M518.583,142.647a8.138,8.138,0,1,1-8.138-8.138,8.138,8.138,0,0,1,8.138,8.138" transform="translate(-132.22 -35.406)" fill="#58b669"/>
            <path id="Trazado_206419" data-name="Trazado 206419" d="M511.381,371.214a8.138,8.138,0,1,1-8.138-8.138,8.138,8.138,0,0,1,8.138,8.138" transform="translate(-130.324 -95.571)" fill="#58b669"/>
          </g>
        </g>
      </g>
    </g>
  </g>
</svg>
